<?xml version="1.0" encoding="UTF-8"?>
<svg width="48px" height="48px" viewBox="0 0 48 48" version="1.1" xmlns="http://www.w3.org/2000/svg" xmlns:xlink="http://www.w3.org/1999/xlink">
    <!-- Generator: sketchtool 48.2 (47327) - http://www.bohemiancoding.com/sketch -->
    <title>00E8D014-6225-47B2-B904-B3456EE387D5</title>
    <desc>Created with sketchtool.</desc>
    <defs>
        <rect id="path-1" x="0" y="0" width="48" height="48" rx="24"></rect>
        <path d="M24,0 C37.254834,-2.4348735e-15 48,10.745166 48,24 C48,37.254834 37.254834,48 24,48 C10.745166,48 1.623249e-15,37.254834 0,24 C-1.623249e-15,10.745166 10.745166,2.4348735e-15 24,0 Z M24,1 C11.2974508,1 1,11.2974508 1,24 C1,36.7025492 11.2974508,47 24,47 C36.7025492,47 47,36.7025492 47,24 C47,11.2974508 36.7025492,1 24,1 Z" id="path-3"></path>
        <linearGradient x1="0%" y1="100%" x2="148.788505%" y2="-22.0629648%" id="linearGradient-5">
            <stop stop-color="#00DCD0" offset="0%"></stop>
            <stop stop-color="#00A6FD" offset="100%"></stop>
        </linearGradient>
        <circle id="path-6" cx="24" cy="24" r="24"></circle>
    </defs>
    <g id="03_dashboard" stroke="none" stroke-width="1" fill="none" fill-rule="evenodd" transform="translate(-1184.000000, -1225.000000)">
        <g id="Activities" transform="translate(1141.000000, 749.000000)">
            <g id="Group-33-Copy-4" transform="translate(37.000000, 450.000000)">
                <g id="activities_ivr" transform="translate(6.000000, 26.000000)">
                    <g id="Material-/-Radius:-100">
                        <g id="Elevation"></g>
                        <g id="Color">
                            <mask id="mask-2" fill="white">
                                <use xlink:href="#path-1"></use>
                            </mask>
                            <g id="Container"></g>
                            <g id="Style-/-Color-/-White" mask="url(#mask-2)" fill="#FFFFFF">
                                <rect id="Container" x="0" y="0" width="48" height="48"></rect>
                            </g>
                        </g>
                        <g id="Border">
                            <mask id="mask-4" fill="white">
                                <use xlink:href="#path-3"></use>
                            </mask>
                            <g id="Combined-Shape"></g>
                            <g id="Style-/-Color-/-White" mask="url(#mask-4)" fill="#FFFFFF">
                                <rect id="Container" x="0" y="0" width="48" height="48"></rect>
                            </g>
                        </g>
                    </g>
                    <g id="Border" opacity="0.3">
                        <mask id="mask-7" fill="white">
                            <use xlink:href="#path-6"></use>
                        </mask>
                        <use fill="url(#linearGradient-5)" xlink:href="#path-6"></use>
                    </g>
                    <g id="ic_dialpad_black_24px" transform="translate(11.000000, 11.000000)">
                        <polygon id="Shape" points="0 0 26.4827586 0 26.4827586 25.2413793 0 25.2413793"></polygon>
                        <path d="M13.8275862,19.9310345 C12.6137931,19.9310345 11.6206897,20.8775862 11.6206897,22.0344828 C11.6206897,23.1913793 12.6137931,24.137931 13.8275862,24.137931 C15.0413793,24.137931 16.0344828,23.1913793 16.0344828,22.0344828 C16.0344828,20.8775862 15.0413793,19.9310345 13.8275862,19.9310345 Z M7.20689655,1 C5.99310345,1 5,1.94655172 5,3.10344828 C5,4.26034483 5.99310345,5.20689655 7.20689655,5.20689655 C8.42068966,5.20689655 9.4137931,4.26034483 9.4137931,3.10344828 C9.4137931,1.94655172 8.42068966,1 7.20689655,1 Z M7.20689655,7.31034483 C5.99310345,7.31034483 5,8.25689655 5,9.4137931 C5,10.5706897 5.99310345,11.5172414 7.20689655,11.5172414 C8.42068966,11.5172414 9.4137931,10.5706897 9.4137931,9.4137931 C9.4137931,8.25689655 8.42068966,7.31034483 7.20689655,7.31034483 Z M7.20689655,13.6206897 C5.99310345,13.6206897 5,14.5672414 5,15.7241379 C5,16.8810345 5.99310345,17.8275862 7.20689655,17.8275862 C8.42068966,17.8275862 9.4137931,16.8810345 9.4137931,15.7241379 C9.4137931,14.5672414 8.42068966,13.6206897 7.20689655,13.6206897 Z M20.4482759,5.20689655 C21.662069,5.20689655 22.6551724,4.26034483 22.6551724,3.10344828 C22.6551724,1.94655172 21.662069,1 20.4482759,1 C19.2344828,1 18.2413793,1.94655172 18.2413793,3.10344828 C18.2413793,4.26034483 19.2344828,5.20689655 20.4482759,5.20689655 Z M13.8275862,13.6206897 C12.6137931,13.6206897 11.6206897,14.5672414 11.6206897,15.7241379 C11.6206897,16.8810345 12.6137931,17.8275862 13.8275862,17.8275862 C15.0413793,17.8275862 16.0344828,16.8810345 16.0344828,15.7241379 C16.0344828,14.5672414 15.0413793,13.6206897 13.8275862,13.6206897 Z M20.4482759,13.6206897 C19.2344828,13.6206897 18.2413793,14.5672414 18.2413793,15.7241379 C18.2413793,16.8810345 19.2344828,17.8275862 20.4482759,17.8275862 C21.662069,17.8275862 22.6551724,16.8810345 22.6551724,15.7241379 C22.6551724,14.5672414 21.662069,13.6206897 20.4482759,13.6206897 Z M20.4482759,7.31034483 C19.2344828,7.31034483 18.2413793,8.25689655 18.2413793,9.4137931 C18.2413793,10.5706897 19.2344828,11.5172414 20.4482759,11.5172414 C21.662069,11.5172414 22.6551724,10.5706897 22.6551724,9.4137931 C22.6551724,8.25689655 21.662069,7.31034483 20.4482759,7.31034483 Z M13.8275862,7.31034483 C12.6137931,7.31034483 11.6206897,8.25689655 11.6206897,9.4137931 C11.6206897,10.5706897 12.6137931,11.5172414 13.8275862,11.5172414 C15.0413793,11.5172414 16.0344828,10.5706897 16.0344828,9.4137931 C16.0344828,8.25689655 15.0413793,7.31034483 13.8275862,7.31034483 Z M13.8275862,1 C12.6137931,1 11.6206897,1.94655172 11.6206897,3.10344828 C11.6206897,4.26034483 12.6137931,5.20689655 13.8275862,5.20689655 C15.0413793,5.20689655 16.0344828,4.26034483 16.0344828,3.10344828 C16.0344828,1.94655172 15.0413793,1 13.8275862,1 Z" id="Shape" fill="#FFFFFF" fill-rule="nonzero"></path>
                    </g>
                </g>
            </g>
        </g>
    </g>
</svg>