<svg xmlns="http://www.w3.org/2000/svg" viewBox="-3468.556 -702 13.654 16.955">
  <defs>
    <style>
      .cls-1 {
        fill: #707888;
      }
    </style>
  </defs>
  <g id="Admin" transform="translate(-3496 -1077)">
    <g id="Group_80" data-name="Group 80" transform="translate(30.267 375)">
      <path id="Path_96" data-name="Path 96" class="cls-1" d="M23.893,7.586a3.793,3.793,0,1,1,3.793-3.793A3.795,3.795,0,0,1,23.893,7.586Zm0-5.9A2.107,2.107,0,1,0,26,3.793,2.1,2.1,0,0,0,23.893,1.686Z" transform="translate(-20.1)"/>
    </g>
    <g id="Group_81" data-name="Group 81" transform="translate(27.444 383.597)">
      <path id="Path_97" data-name="Path 97" class="cls-1" d="M12.811,69.558H.843A.845.845,0,0,1,0,68.715V67.521A6.6,6.6,0,0,1,6.827,61.2a6.6,6.6,0,0,1,6.827,6.321v1.194A.845.845,0,0,1,12.811,69.558ZM1.686,67.872H11.968v-.351a4.912,4.912,0,0,0-5.141-4.636,4.912,4.912,0,0,0-5.141,4.636Z" transform="translate(0 -61.2)"/>
    </g>
  </g>
</svg>
