<svg xmlns="http://www.w3.org/2000/svg" viewBox="-3320.071 -643 13.341 14">
  <defs>
    <style>
      .cls-1 {
        fill: #707888;
      }
    </style>
  </defs>
  <g id="Calendar" transform="translate(-3320.071 -643)">
    <path id="Path_135" data-name="Path 135" class="cls-1" d="M12.243,1.647H9.759V0H8.386V1.647H4.955V0H3.582V1.647H1.1A1.1,1.1,0,0,0,0,2.745V12.9A1.1,1.1,0,0,0,1.1,14H12.243a1.1,1.1,0,0,0,1.1-1.1V2.745A1.1,1.1,0,0,0,12.243,1.647ZM3.582,3.02v1.1H4.955V3.02H8.386v1.1H9.759V3.02h2.21V5.106H1.373V3.02Zm-2.21,9.608V6.478h10.6v6.149Z"/>
  </g>
</svg>
