<svg xmlns="http://www.w3.org/2000/svg" viewBox="-5182.913 -1131 33.614 33.358">
  <defs>
    <style>
      .cls-1 {
        fill: #fff;
      }
    </style>
  </defs>
  <path id="Close" class="cls-1" d="M18.41,16.694,33.131,2.052a1.141,1.141,0,0,0,0-1.653,1.141,1.141,0,0,0-1.653,0l-14.8,14.642L2.036.32A1.418,1.418,0,0,0,.3.32a1.418,1.418,0,0,0,0,1.732L15.025,16.773.3,31.415a1.141,1.141,0,0,0,0,1.653,1.184,1.184,0,0,0,.866.315,1.184,1.184,0,0,0,.866-.315L16.757,18.347,31.478,33.068a1.348,1.348,0,0,0,1.732,0,1.141,1.141,0,0,0,0-1.653Z" transform="translate(-5182.863 -1131.025)"/>
</svg>
