<svg xmlns="http://www.w3.org/2000/svg" viewBox="-3470 -905 17 17">
  <defs>
    <style>
      .cls-1 {
        fill: #148ece;
      }

      .cls-2 {
        fill: #14c0ce;
      }
    </style>
  </defs>
  <g id="DashboardActive" transform="translate(3989 -4184)">
    <path id="Path_85" data-name="Path 85" class="cls-1" d="M15.239,0H1.761A1.76,1.76,0,0,0,0,1.761V15.239A1.76,1.76,0,0,0,1.761,17H15.239A1.76,1.76,0,0,0,17,15.239V1.761A1.76,1.76,0,0,0,15.239,0ZM1.761,1.6H15.239a.154.154,0,0,1,.16.16V4.137H1.6V1.761A.154.154,0,0,1,1.761,1.6ZM1.6,15.239v-9.5H4.844V15.4H1.761A.154.154,0,0,1,1.6,15.239Zm13.637.16H6.445V5.738H15.4v9.5A.162.162,0,0,1,15.239,15.4Z" transform="translate(-7459 3279)"/>
    <circle id="Ellipse_25" data-name="Ellipse 25" class="cls-2" cx="0.48" cy="0.48" r="0.48" transform="translate(-7456.505 3281.509)"/>
    <circle id="Ellipse_26" data-name="Ellipse 26" class="cls-2" cx="0.48" cy="0.48" r="0.48" transform="translate(-7455.05 3281.509)"/>
  </g>
</svg>
