<svg xmlns="http://www.w3.org/2000/svg" viewBox="-3491 -905 17 17">
  <defs>
    <style>
      .cls-1 {
        fill: #707888;
      }
    </style>
  </defs>
  <path id="Dashboard" class="cls-1" d="M15.239,0H1.761A1.76,1.76,0,0,0,0,1.761V15.239A1.76,1.76,0,0,0,1.761,17H15.239A1.76,1.76,0,0,0,17,15.239V1.761A1.76,1.76,0,0,0,15.239,0ZM1.761,1.6H15.239a.154.154,0,0,1,.16.16V4.137H1.6V1.761A.154.154,0,0,1,1.761,1.6ZM1.6,15.239v-9.5H4.844V15.4H1.761A.154.154,0,0,1,1.6,15.239Zm13.637.16H6.445V5.738H15.4v9.5A.162.162,0,0,1,15.239,15.4Z" transform="translate(-3491 -905)"/>
</svg>
