<?xml version="1.0" encoding="UTF-8"?>
<svg width="117px" height="117px" viewBox="0 0 117 117" version="1.1" xmlns="http://www.w3.org/2000/svg" xmlns:xlink="http://www.w3.org/1999/xlink">
    <!-- Generator: Sketch 48.2 (47327) - http://www.bohemiancoding.com/sketch -->
    <title>ic_sms_credits</title>
    <desc>Created with Sketch.</desc>
    <defs>
        <path d="M97.1965661,48.5670559 C97.1965661,75.3575983 75.4796,97.0753949 48.6890576,97.0753949 C21.8985153,97.0753949 0.180718644,75.3575983 0.180718644,48.5670559 C0.180718644,21.7765136 21.8985153,0.0595474576 48.6890576,0.0595474576 C75.4796,0.0595474576 97.1965661,21.7765136 97.1965661,48.5670559" id="path-1"></path>
        <filter x="-16.5%" y="-14.4%" width="133.0%" height="133.0%" filterUnits="objectBoundingBox" id="filter-2">
            <feOffset dx="0" dy="2" in="SourceAlpha" result="shadowOffsetOuter1"></feOffset>
            <feGaussianBlur stdDeviation="5" in="shadowOffsetOuter1" result="shadowBlurOuter1"></feGaussianBlur>
            <feColorMatrix values="0 0 0 0 0   0 0 0 0 0   0 0 0 0 0  0 0 0 0.0932971014 0" type="matrix" in="shadowBlurOuter1"></feColorMatrix>
        </filter>
        <polygon id="path-3" points="0 0.191789062 48.8927359 0.191789062 48.8927359 38.6866484 0 38.6866484"></polygon>
        <polygon id="path-5" points="0.000153125 0.390698437 14.5470281 0.390698437 14.5470281 10.71875 0.000153125 10.71875"></polygon>
        <polygon id="path-7" points="0 0.390698438 14.5467984 0.390698438 14.5467984 2.04904219 0 2.04904219"></polygon>
    </defs>
    <g id="02_dashboard_full-copy-8" stroke="none" stroke-width="1" fill="none" fill-rule="evenodd" transform="translate(-997.000000, -251.000000)">
        <g id="ic_sms_credits" transform="translate(1007.000000, 259.000000)">
            <g id="Page-1-Copy">
                <g id="Fill-2">
                    <use fill="black" fill-opacity="1" filter="url(#filter-2)" xlink:href="#path-1"></use>
                    <use fill="#FFFFFF" fill-rule="evenodd" xlink:href="#path-1"></use>
                </g>
            </g>
            <g id="Page-1" transform="translate(25.000000, 24.000000)">
                <g id="Group-3" transform="translate(0.000000, 0.574219)">
                    <mask id="mask-4" fill="white">
                        <use xlink:href="#path-3"></use>
                    </mask>
                    <g id="Clip-2"></g>
                    <path d="M46.0446109,0.191789062 L2.84804844,0.191789062 C1.27851719,0.191789062 -7.65625e-05,1.46196094 -7.65625e-05,3.03991406 L-7.65625e-05,38.6721016 L29.8899234,38.6721016 L29.8899234,38.6866484 L46.0446109,38.6866484 C47.6217984,38.6866484 48.8927359,37.4157109 48.8927359,35.8392891 L48.8927359,3.03991406 C48.8927359,1.46196094 47.6217984,0.191789062 46.0446109,0.191789062" id="Fill-1" fill="#00EE8A" mask="url(#mask-4)"></path>
                </g>
                <g id="Group-6" transform="translate(0.000000, 38.855469)">
                    <mask id="mask-6" fill="white">
                        <use xlink:href="#path-5"></use>
                    </mask>
                    <g id="Clip-5"></g>
                    <path d="M0.000153125,0.390698437 L0.000153125,7.87085469 C0.000153125,9.01929219 0.68845,10.0528859 1.7450125,10.4969484 C2.10562187,10.6424172 2.48077812,10.7189797 2.84827812,10.7189797 C3.58327812,10.7189797 4.29454375,10.4356984 4.83890312,9.90741719 L14.5470281,0.406010937 L0.000153125,0.390698437" id="Fill-4" fill="#00D89D" mask="url(#mask-6)"></path>
                </g>
                <g id="Group-9" transform="translate(0.000000, 38.855469)">
                    <mask id="mask-8" fill="white">
                        <use xlink:href="#path-7"></use>
                    </mask>
                    <g id="Clip-8"></g>
                    <polygon id="Fill-7" fill="#00B77E" mask="url(#mask-8)" points="12.8677828 2.04904219 14.5467984 0.406010938 -7.65625e-05 0.390698438 -7.65625e-05 0.517792188"></polygon>
                </g>
                <path d="M36.4024828,13.3823594 L12.4904828,13.3823594 C11.0909203,13.3823594 9.95702969,12.2484687 9.95702969,10.8489062 C9.95702969,9.45010937 11.0909203,8.31621875 12.4904828,8.31621875 L36.4024828,8.31621875 C37.8012797,8.31621875 38.9359359,9.45010937 38.9359359,10.8489062 C38.9359359,12.2484687 37.8012797,13.3823594 36.4024828,13.3823594" id="Fill-10" fill="#FFFFFF"></path>
                <path d="M36.4024828,22.2401047 L12.4904828,22.2401047 C11.0909203,22.2401047 9.95702969,21.1062141 9.95702969,19.7066516 C9.95702969,18.3078547 11.0909203,17.1739641 12.4904828,17.1739641 L36.4024828,17.1739641 C37.8012797,17.1739641 38.9359359,18.3078547 38.9359359,19.7066516 C38.9359359,21.1062141 37.8012797,22.2401047 36.4024828,22.2401047" id="Fill-12" fill="#FFFFFF"></path>
                <path d="M36.4024828,31.4044828 L12.4904828,31.4044828 C11.0909203,31.4044828 9.95702969,30.2713578 9.95702969,28.8710297 C9.95702969,27.4722328 11.0909203,26.3383422 12.4904828,26.3383422 L36.4024828,26.3383422 C37.8012797,26.3383422 38.9359359,27.4722328 38.9359359,28.8710297 C38.9359359,30.2713578 37.8012797,31.4044828 36.4024828,31.4044828" id="Fill-14" fill="#FFFFFF"></path>
            </g>
        </g>
    </g>
</svg>