<?xml version="1.0" encoding="UTF-8"?>
<svg width="117px" height="117px" viewBox="0 0 117 117" version="1.1" xmlns="http://www.w3.org/2000/svg" xmlns:xlink="http://www.w3.org/1999/xlink">
    <!-- Generator: Sketch 48.2 (47327) - http://www.bohemiancoding.com/sketch -->
    <title>ic_call_credits</title>
    <desc>Created with Sketch.</desc>
    <defs>
        <path d="M97.0158475,48.5075085 C97.0158475,75.2980508 75.2988814,97.0158475 48.508339,97.0158475 C21.7177966,97.0158475 0,75.2980508 0,48.5075085 C0,21.7169661 21.7177966,0 48.508339,0 C75.2988814,0 97.0158475,21.7169661 97.0158475,48.5075085" id="path-1"></path>
        <filter x="-16.5%" y="-14.4%" width="133.0%" height="133.0%" filterUnits="objectBoundingBox" id="filter-2">
            <feOffset dx="0" dy="2" in="SourceAlpha" result="shadowOffsetOuter1"></feOffset>
            <feGaussianBlur stdDeviation="5" in="shadowOffsetOuter1" result="shadowBlurOuter1"></feGaussianBlur>
            <feColorMatrix values="0 0 0 0 0   0 0 0 0 0   0 0 0 0 0  0 0 0 0.0932971014 0" type="matrix" in="shadowBlurOuter1"></feColorMatrix>
        </filter>
    </defs>
    <g id="02_dashboard_full-copy-8" stroke="none" stroke-width="1" fill="none" fill-rule="evenodd" transform="translate(-578.000000, -251.000000)">
        <g id="Page-1" transform="translate(588.000000, 259.000000)">
            <g id="ic_call_credits">
                <g id="Fill-2">
                    <use fill="black" fill-opacity="1" filter="url(#filter-2)" xlink:href="#path-1"></use>
                    <use fill="#FFFFFF" fill-rule="evenodd" xlink:href="#path-1"></use>
                </g>
                <g id="Group-30" transform="translate(31.000000, 20.000000)">
                    <path d="M17.9228624,49.5851797 C16.5438031,49.5851797 15.4256064,48.4677305 15.4256064,47.0879237 L15.4256064,36.7461 C15.4256064,35.3670407 16.5438031,34.2488441 17.9228624,34.2488441 C19.3026692,34.2488441 20.4201183,35.3670407 20.4201183,36.7461 L20.4201183,47.0879237 C20.4201183,48.4677305 19.3026692,49.5851797 17.9228624,49.5851797" id="Fill-4" fill="#2995FF"></path>
                    <path d="M17.9228624,39.2426832 C8.30682,39.2426832 0.483181017,31.4197917 0.483181017,21.8037493 C0.483181017,20.4239425 1.60137763,19.3064934 2.98043695,19.3064934 C4.35949627,19.3064934 5.47769288,20.4239425 5.47769288,21.8037493 C5.47769288,28.6661578 11.0604539,34.2489188 17.9228624,34.2489188 C24.7852708,34.2489188 30.3680319,28.6661578 30.3680319,21.8037493 C30.3680319,20.4239425 31.4862285,19.3064934 32.8652878,19.3064934 C34.2450946,19.3064934 35.3625437,20.4239425 35.3625437,21.8037493 C35.3625437,31.4197917 27.5389047,39.2426832 17.9228624,39.2426832" id="Fill-6" fill="#2995FF"></path>
                    <path d="M17.9228624,29.2549302 C13.8073607,29.2549302 10.4714573,25.9190268 10.4714573,21.8035251 L10.4714573,8.13626237 C10.4714573,4.02150814 13.8073607,0.684857288 17.9228624,0.684857288 C22.0383641,0.684857288 25.3750149,4.02150814 25.3750149,8.13626237 L25.3750149,21.8035251 C25.3750149,25.9190268 22.0383641,29.2549302 17.9228624,29.2549302" id="Fill-8" fill="#0674F0"></path>
                    <path d="M17.9228624,57.4400624 C16.5572573,57.4400624 15.4495251,56.3338251 15.4495251,54.9667251 C15.4495251,53.60112 16.5572573,52.4941353 17.9228624,52.4941353 C19.2892149,52.4941353 20.3961997,53.60112 20.3961997,54.9667251 C20.3961997,56.3338251 19.2892149,57.4400624 17.9228624,57.4400624" id="Fill-10" fill="#00BDFF"></path>
                    <path d="M24.8733961,57.4400624 C23.507791,57.4400624 22.4000588,56.3338251 22.4000588,54.9667251 C22.4000588,53.60112 23.507791,52.4941353 24.8733961,52.4941353 C26.2390012,52.4941353 27.3467334,53.60112 27.3467334,54.9667251 C27.3467334,56.3338251 26.2390012,57.4400624 24.8733961,57.4400624" id="Fill-12" fill="#00BDFF"></path>
                    <path d="M10.4716815,57.4400624 C9.10607644,57.4400624 7.99834424,56.3338251 7.99834424,54.9667251 C7.99834424,53.60112 9.10607644,52.4941353 10.4716815,52.4941353 C11.8372866,52.4941353 12.9450188,53.60112 12.9450188,54.9667251 C12.9450188,56.3338251 11.8372866,57.4400624 10.4716815,57.4400624" id="Fill-14" fill="#00BDFF"></path>
                </g>
            </g>
        </g>
    </g>
</svg>