<?xml version="1.0" encoding="UTF-8"?>
<svg width="210px" height="166px" viewBox="0 0 210 166" version="1.1" xmlns="http://www.w3.org/2000/svg" xmlns:xlink="http://www.w3.org/1999/xlink">
    <!-- Generator: Sketch 48.2 (47327) - http://www.bohemiancoding.com/sketch -->
    <title>Group 3</title>
    <desc>Created with Sketch.</desc>
    <defs>
        <polygon id="path-1" points="10.249 2.9975 10.249 0.6825 0.1096 0.6825 0.1096 2.9975 10.249 2.9975"></polygon>
    </defs>
    <g id="Confirm-Email" stroke="none" stroke-width="1" fill="none" fill-rule="evenodd" transform="translate(-791.000000, -637.000000)">
        <g id="Group-3" transform="translate(791.500000, 637.000000)">
            <circle id="Oval" fill-opacity="0.231063179" fill="#D8D8D8" cx="104" cy="84" r="71.5"></circle>
            <circle id="Oval" fill-opacity="0.231063179" fill="#D8D8D8" cx="105" cy="83" r="83"></circle>
            <g id="Page-1" transform="translate(0.000000, 27.000000)">
                <g id="Group-51" transform="translate(0.000000, 0.477700)">
                    <path d="M173.8918,3.1788 C172.6428,3.1788 171.6268,4.1948 171.6268,5.4438 C171.6268,6.6928 172.6428,7.7088 173.8918,7.7088 C175.1408,7.7088 176.1568,6.6928 176.1568,5.4438 C176.1568,4.1948 175.1408,3.1788 173.8918,3.1788 M173.8918,9.4558 C171.6788,9.4558 169.8798,7.6558 169.8798,5.4438 C169.8798,3.2308 171.6788,1.4318 173.8918,1.4318 C176.1048,1.4318 177.9038,3.2308 177.9038,5.4438 C177.9038,7.6558 176.1048,9.4558 173.8918,9.4558" id="Fill-1" fill="#00BFF1"></path>
                    <path d="M204.1794,28.9094 C203.5404,28.9094 203.0214,28.3914 203.0214,27.7514 L203.0214,19.9274 C203.0214,19.2884 203.5404,18.7704 204.1794,18.7704 C204.8184,18.7704 205.3374,19.2884 205.3374,19.9274 L205.3374,27.7514 C205.3374,28.3914 204.8184,28.9094 204.1794,28.9094" id="Fill-3" fill="#00BFF1"></path>
                    <g id="Group-7" transform="translate(199.000000, 22.000000)">
                        <mask id="mask-2" fill="white">
                            <use xlink:href="#path-1"></use>
                        </mask>
                        <g id="Clip-6"></g>
                        <path d="M9.0916,2.9975 L1.2676,2.9975 C0.6286,2.9975 0.1096,2.4795 0.1096,1.8395 C0.1096,1.2005 0.6286,0.6825 1.2676,0.6825 L9.0916,0.6825 C9.7306,0.6825 10.2496,1.2005 10.2496,1.8395 C10.2496,2.4795 9.7306,2.9975 9.0916,2.9975" id="Fill-5" fill="#00BFF1" mask="url(#mask-2)"></path>
                    </g>
                    <path d="M177.917,94.4301 C177.097,94.4301 176.433,93.7661 176.433,92.9461 L176.433,82.9121 C176.433,82.0931 177.097,81.4281 177.917,81.4281 C178.737,81.4281 179.401,82.0931 179.401,82.9121 L179.401,92.9461 C179.401,93.7661 178.737,94.4301 177.917,94.4301" id="Fill-8" fill="#00BFF1"></path>
                    <path d="M182.9338,89.4138 L172.9008,89.4138 C172.0808,89.4138 171.4158,88.7498 171.4158,87.9298 C171.4158,87.1098 172.0808,86.4448 172.9008,86.4448 L182.9338,86.4448 C183.7538,86.4448 184.4178,87.1098 184.4178,87.9298 C184.4178,88.7498 183.7538,89.4138 182.9338,89.4138" id="Fill-10" fill="#00BFF1"></path>
                    <path d="M164.9762,59.7216 C164.4032,59.7216 163.9392,59.2576 163.9392,58.6846 L163.9392,51.6766 C163.9392,51.1046 164.4032,50.6406 164.9762,50.6406 C165.5492,50.6406 166.0132,51.1046 166.0132,51.6766 L166.0132,58.6846 C166.0132,59.2576 165.5492,59.7216 164.9762,59.7216" id="Fill-12" fill="#00BFF1"></path>
                    <path d="M168.4799,56.2178 L161.4719,56.2178 C160.8999,56.2178 160.4359,55.7538 160.4359,55.1808 C160.4359,54.6088 160.8999,54.1438 161.4719,54.1438 L168.4799,54.1438 C169.0529,54.1438 169.5169,54.6088 169.5169,55.1808 C169.5169,55.7538 169.0529,56.2178 168.4799,56.2178" id="Fill-14" fill="#00BFF1"></path>
                    <path d="M179.9109,26.8742 C178.1499,26.8742 176.7179,28.3062 176.7179,30.0662 C176.7179,31.8272 178.1499,33.2592 179.9109,33.2592 C181.6719,33.2592 183.1039,31.8272 183.1039,30.0662 C183.1039,28.3062 181.6719,26.8742 179.9109,26.8742 M179.9109,35.7222 C176.7919,35.7222 174.2549,33.1852 174.2549,30.0662 C174.2549,26.9482 176.7919,24.4112 179.9109,24.4112 C183.0299,24.4112 185.5669,26.9482 185.5669,30.0662 C185.5669,33.1852 183.0299,35.7222 179.9109,35.7222" id="Fill-16" fill="#F59D00"></path>
                    <path d="M197.2099,55.1808 C195.4009,55.1808 193.9289,56.6528 193.9289,58.4618 C193.9289,60.2708 195.4009,61.7418 197.2099,61.7418 C199.0189,61.7418 200.4909,60.2708 200.4909,58.4618 C200.4909,56.6528 199.0189,55.1808 197.2099,55.1808 M197.2099,64.2738 C194.0049,64.2738 191.3979,61.6668 191.3979,58.4618 C191.3979,55.2568 194.0049,52.6498 197.2099,52.6498 C200.4149,52.6498 203.0219,55.2568 203.0219,58.4618 C203.0219,61.6668 200.4149,64.2738 197.2099,64.2738" id="Fill-18" fill="#F59D00"></path>
                    <path d="M59.071,10.6613 C58.432,10.6613 57.913,10.1433 57.913,9.5033 L57.913,1.6793 C57.913,1.0403 58.432,0.5223 59.071,0.5223 C59.71,0.5223 60.229,1.0403 60.229,1.6793 L60.229,9.5033 C60.229,10.1433 59.71,10.6613 59.071,10.6613" id="Fill-20" fill="#F59D00"></path>
                    <path d="M62.9832,6.7495 L55.1592,6.7495 C54.5202,6.7495 54.0012,6.2315 54.0012,5.5915 C54.0012,4.9525 54.5202,4.4345 55.1592,4.4345 L62.9832,4.4345 C63.6222,4.4345 64.1412,4.9525 64.1412,5.5915 C64.1412,6.2315 63.6222,6.7495 62.9832,6.7495" id="Fill-22" fill="#F59D00"></path>
                    <path d="M6.438,17.04 C5.626,17.04 4.968,16.382 4.968,15.57 L4.968,5.634 C4.968,4.822 5.626,4.164 6.438,4.164 C7.25,4.164 7.908,4.822 7.908,5.634 L7.908,15.57 C7.908,16.382 7.25,17.04 6.438,17.04" id="Fill-24" fill="#00BFF1"></path>
                    <g id="Group-28" transform="translate(0.000000, 9.000000)" fill="#00BFF1">
                        <path d="M11.4059,3.0721 L1.4699,3.0721 C0.6579,3.0721 -0.0001,2.4141 -0.0001,1.6021 C-0.0001,0.7901 0.6579,0.1321 1.4699,0.1321 L11.4059,0.1321 C12.2179,0.1321 12.8759,0.7901 12.8759,1.6021 C12.8759,2.4141 12.2179,3.0721 11.4059,3.0721" id="Fill-26"></path>
                    </g>
                    <path d="M30.3371,61.2425 C29.7641,61.2425 29.3001,60.7785 29.3001,60.2055 L29.3001,53.1975 C29.3001,52.6255 29.7641,52.1615 30.3371,52.1615 C30.9101,52.1615 31.3741,52.6255 31.3741,53.1975 L31.3741,60.2055 C31.3741,60.7785 30.9101,61.2425 30.3371,61.2425" id="Fill-29" fill="#F59D00"></path>
                    <path d="M33.8408,57.7388 L26.8328,57.7388 C26.2608,57.7388 25.7968,57.2748 25.7968,56.7018 C25.7968,56.1298 26.2608,55.6648 26.8328,55.6648 L33.8408,55.6648 C34.4138,55.6648 34.8778,56.1298 34.8778,56.7018 C34.8778,57.2748 34.4138,57.7388 33.8408,57.7388" id="Fill-31" fill="#F59D00"></path>
                    <path d="M32.7837,20.0251 C31.4127,20.0251 30.2977,21.1401 30.2977,22.5111 C30.2977,23.8821 31.4127,24.9971 32.7837,24.9971 C34.1547,24.9971 35.2697,23.8821 35.2697,22.5111 C35.2697,21.1401 34.1547,20.0251 32.7837,20.0251 M32.7837,26.9151 C30.3547,26.9151 28.3797,24.9391 28.3797,22.5111 C28.3797,20.0821 30.3547,18.1071 32.7837,18.1071 C35.2127,18.1071 37.1877,20.0821 37.1877,22.5111 C37.1877,24.9391 35.2127,26.9151 32.7837,26.9151" id="Fill-33" fill="#00BFF1"></path>
                    <path d="M4.3479,46.8118 C3.0689,46.8118 2.0289,47.8518 2.0289,49.1308 C2.0289,50.4098 3.0689,51.4498 4.3479,51.4498 C5.6269,51.4498 6.6669,50.4098 6.6669,49.1308 C6.6669,47.8518 5.6269,46.8118 4.3479,46.8118 M4.3479,53.2388 C2.0819,53.2388 0.2399,51.3958 0.2399,49.1308 C0.2399,46.8658 2.0819,45.0228 4.3479,45.0228 C6.6139,45.0228 8.4559,46.8658 8.4559,49.1308 C8.4559,51.3958 6.6139,53.2388 4.3479,53.2388" id="Fill-35" fill="#F59D00"></path>
                    <path d="M25.3647,81.3378 C23.5467,81.3378 22.0687,82.8158 22.0687,84.6338 C22.0687,86.4508 23.5467,87.9288 25.3647,87.9288 C27.1827,87.9288 28.6607,86.4508 28.6607,84.6338 C28.6607,82.8158 27.1827,81.3378 25.3647,81.3378 M25.3647,90.4718 C22.1447,90.4718 19.5257,87.8528 19.5257,84.6338 C19.5257,81.4138 22.1447,78.7948 25.3647,78.7948 C28.5847,78.7948 31.2037,81.4138 31.2037,84.6338 C31.2037,87.8528 28.5847,90.4718 25.3647,90.4718" id="Fill-37" fill="#00BFF1"></path>
                    <g id="Group-4" transform="translate(58.500000, 22.000000)">
                        <path d="M55.1354,36.2247 C52.6204,38.2567 49.6104,39.3657 46.3764,39.3657 C43.1434,39.3657 39.9034,38.2567 37.3884,36.2247 L0.0854,6.1667 L0.0854,67.6667 C0.0854,70.4277 2.6564,72.9997 5.4184,72.9997 L87.5854,72.9997 C90.3464,72.9997 92.0854,70.4277 92.0854,67.6667 L92.0854,6.1667 L55.1354,36.2247 Z" id="Fill-41" fill="#FFCE54"></path>
                        <path d="M87.1683,73 L5.0013,73 C2.2403,73 0.0013,70.595 0.0013,67.833 L37.6613,39.345 C40.0883,37.514 43.0453,36.482 46.0853,36.482 L46.0853,36.462 C49.1243,36.462 52.0813,37.441 54.5083,39.272 L92.1683,67.839 C92.1683,70.6 89.9293,73 87.1683,73" id="Fill-43" fill="#F6BB42"></path>
                        <path d="M0.0849,6 L0.0849,6.167 L37.3889,36.225 C39.3419,37.803 41.7349,38.816 44.2199,39.193 L48.4699,39.198 C50.9059,38.825 53.1729,37.81 55.1349,36.225 L92.0849,6.167 L92.0849,39 L92.0849,6 L0.0849,6 Z" id="Fill-45" fill="#FEDD8C"></path>
                        <path d="M5.0016,0.8139 L87.1686,0.8139 C89.9296,0.8139 92.1686,3.2189 92.1686,5.9809 L54.5086,34.4689 C52.0816,36.2999 49.1246,37.3319 46.0846,37.3319 L46.0846,37.3519 C43.0456,37.3519 40.0886,36.3729 37.6616,34.5419 L0.0016,5.9749 C0.0016,3.2139 2.2406,0.8139 5.0016,0.8139" id="Fill-47" fill="#FEDD8C"></path>
                    </g>
                    <path d="M156.1126,23.9719 C156.1126,31.6479 149.8896,37.8709 142.2136,37.8709 C134.5366,37.8709 128.3136,31.6479 128.3136,23.9719 C128.3136,16.2959 134.5366,10.0729 142.2136,10.0729 C149.8896,10.0729 156.1126,16.2959 156.1126,23.9719" id="Fill-49" fill="#6CC396"></path>
                </g>
                <text id="!" font-family="Montserrat-Bold, Montserrat" font-size="17.1598" font-weight="bold" fill="#FFFFFF">
                    <tspan x="139.8809" y="29.9586425">!</tspan>
                </text>
            </g>
        </g>
    </g>
</svg>