<?xml version="1.0" encoding="UTF-8"?>
<svg width="490px" height="256px" viewBox="0 0 490 256" version="1.1" xmlns="http://www.w3.org/2000/svg" xmlns:xlink="http://www.w3.org/1999/xlink">
    <!-- Generator: Sketch 48.2 (47327) - http://www.bohemiancoding.com/sketch -->
    <title>Page 1</title>
    <desc>Created with Sketch.</desc>
    <defs>
        <polygon id="path-1" points="0.521345588 0.385460989 489.658922 0.385460989 489.658922 200.377402 0.521345588 200.377402"></polygon>
        <polygon id="path-3" points="0.773113877 0.0324609715 106.000937 0.0324609715 106.000937 181.614439 0.773113877 181.614439"></polygon>
    </defs>
    <g id="00_campaign_empty" stroke="none" stroke-width="1" fill="none" fill-rule="evenodd" transform="translate(-588.000000, -329.000000)" opacity="0.699999988">
        <g id="Page-1" transform="translate(588.000000, 329.000000)">
            <g id="Group-3" transform="translate(0.000000, 51.014110)">
                <mask id="mask-2" fill="white">
                    <use xlink:href="#path-1"></use>
                </mask>
                <g id="Clip-2"></g>
                <path d="M471.677963,113.261966 L406.312203,113.261966 C398.200782,112.01154 392.116615,106.829266 392.116615,100.620975 L392.116615,97.4531596 C392.116615,90.4870977 399.770463,84.8100809 409.35789,84.5313966 C409.111689,84.5240903 408.865488,84.516784 408.618086,84.516784 L421.391713,84.516784 C431.321419,84.516784 439.372792,78.7259972 439.372792,71.5824959 L439.372792,68.4136371 C439.372792,61.2701359 431.321419,55.479349 421.391713,55.479349 L269.882032,55.479349 L269.882032,55.3039972 C260.897498,54.583802 253.912596,49.1061435 253.912596,42.4511225 L253.912596,39.2833074 C253.912596,32.6293302 260.897498,27.1506279 269.882032,26.4304327 L269.882032,26.2550809 L432.046811,26.2550809 C441.977718,26.2550809 450.029091,20.4642941 450.029091,13.3207928 C450.029091,6.1762478 441.977718,0.385460989 432.046811,0.385460989 L107.71485,0.385460989 C97.7851446,0.385460989 89.734973,6.1762478 89.734973,13.3207928 C89.734973,20.4642941 97.7851446,26.2550809 107.71485,26.2550809 L146.009311,26.2550809 L146.009311,26.3479756 L153.667963,26.3479756 C163.600071,26.3479756 171.650243,32.1387624 171.650243,39.2833074 L171.650243,42.4511225 C171.650243,49.5946237 163.600071,55.3864543 153.667963,55.3864543 L146.009311,55.3864543 L146.009311,55.479349 L86.4334779,55.479349 C76.5025711,55.479349 68.4511985,61.2701359 68.4511985,68.4136371 L68.4511985,71.5824959 C68.4511985,78.7259972 76.5025711,84.516784 86.4334779,84.516784 L144.313527,84.516784 C154.244434,84.516784 162.294605,90.3086146 162.294605,97.4531596 L162.294605,100.620975 C162.294605,106.824047 156.22365,112.004234 148.124238,113.261966 L43.1453407,113.261966 C33.2132328,113.261966 25.1630613,119.052753 25.1630613,126.197298 L25.1630613,129.365113 C25.1630613,136.508614 33.2132328,142.300445 43.1453407,142.300445 L105.947007,142.300445 C115.877914,142.300445 123.928086,148.092275 123.928086,155.235776 L123.928086,158.403591 C123.928086,165.548136 115.877914,171.338923 105.947007,171.338923 L18.503625,171.338923 C8.57271814,171.338923 0.521345588,177.12971 0.521345588,184.274255 L0.521345588,187.44207 C0.521345588,194.586615 8.57271814,200.377402 18.503625,200.377402 L447.036248,200.377402 C456.967154,200.377402 465.017326,194.586615 465.017326,187.44207 L465.017326,184.274255 C465.017326,177.12971 456.967154,171.338923 447.036248,171.338923 L355.487914,171.338923 C345.557007,171.338923 337.506836,165.548136 337.506836,158.403591 L337.506836,155.235776 C337.506836,148.092275 345.557007,142.300445 355.487914,142.300445 L471.677963,142.300445 C481.60887,142.300445 489.659042,136.508614 489.659042,129.365113 L489.659042,126.197298 C489.659042,119.052753 481.60887,113.261966 471.677963,113.261966" id="Fill-1" fill="#DFEAED" mask="url(#mask-2)"></path>
            </g>
            <g id="Group-6" transform="translate(199.506863, 73.976856)">
                <mask id="mask-4" fill="white">
                    <use xlink:href="#path-3"></use>
                </mask>
                <g id="Clip-5"></g>
                <path d="M93.0791741,181.614543 L13.6948768,181.614543 C6.55868188,181.614543 0.773113877,175.828975 0.773113877,168.69278 L0.773113877,12.9542239 C0.773113877,5.81802898 6.55868188,0.0324609715 13.6948768,0.0324609715 L93.0791741,0.0324609715 C100.215369,0.0324609715 106.000937,5.81802898 106.000937,12.9542239 L106.000937,168.69278 C106.000937,175.828975 100.215369,181.614543 93.0791741,181.614543" id="Fill-4" fill="#D2DFE3" mask="url(#mask-4)"></path>
            </g>
            <path d="M214.119519,231.311218 C212.651991,231.311218 211.461059,230.12133 211.461059,228.652758 L211.461059,98.9518677 C211.461059,97.4843396 212.651991,96.2934081 214.119519,96.2934081 L292.224165,96.2934081 C293.691693,96.2934081 294.882625,97.4843396 294.882625,98.9518677 L294.882625,228.652758 C294.882625,230.12133 293.691693,231.311218 292.224165,231.311218 L214.119519,231.311218 Z" id="Fill-7" fill="#B5C8CF"></path>
            <path d="M268.889423,88.5921209 L243.717036,88.5921209 C242.55533,88.5921209 241.613857,87.6506483 241.613857,86.4889422 C241.613857,85.3282798 242.55533,84.3868073 243.717036,84.3868073 L268.889423,84.3868073 C270.050086,84.3868073 270.992602,85.3282798 270.992602,86.4889422 C270.992602,87.6506483 270.050086,88.5921209 268.889423,88.5921209" id="Fill-9" fill="#AEC4CD"></path>
            <path d="M237.709042,86.4893597 C237.709042,87.6510658 236.76757,88.5925384 235.605864,88.5925384 C234.445201,88.5925384 233.503729,87.6510658 233.503729,86.4893597 C233.503729,85.3286973 234.445201,84.3872248 235.605864,84.3872248 C236.76757,84.3872248 237.709042,85.3286973 237.709042,86.4893597" id="Fill-11" fill="#AEC4CD"></path>
            <path d="M258.277504,242.894984 C258.277504,246.136906 255.648269,248.76614 252.406347,248.76614 C249.163382,248.76614 246.535191,246.136906 246.535191,242.894984 C246.535191,239.652018 249.163382,237.023827 252.406347,237.023827 C255.648269,237.023827 258.277504,239.652018 258.277504,242.894984" id="Fill-13" fill="#AEC4CD"></path>
            <path d="M384.513421,22.4734014 L379.849896,22.4734014 L379.849896,17.8098766 C379.849896,16.7494153 378.989837,15.8893561 377.929375,15.8893561 C376.868914,15.8893561 376.009899,16.7494153 376.009899,17.8098766 L376.009899,22.4734014 L371.365161,22.4734014 C370.305744,22.4734014 369.444641,23.3334606 369.444641,24.3939219 C369.444641,25.4543832 370.305744,26.3154862 371.365161,26.3154862 L376.009899,26.3154862 L376.009899,30.957092 C376.009899,32.018597 376.868914,32.8776125 377.929375,32.8776125 C378.989837,32.8776125 379.849896,32.018597 379.849896,30.957092 L379.849896,26.3154862 L384.513421,26.3154862 C385.574926,26.3154862 386.434985,25.4543832 386.434985,24.3939219 C386.434985,23.3334606 385.574926,22.4734014 384.513421,22.4734014" id="Fill-15" fill="#C1D6DC"></path>
            <path d="M365.286401,177.66607 C363.16861,177.66607 361.44536,179.38932 361.44536,181.507111 C361.44536,183.624903 363.16861,185.348152 365.286401,185.348152 C367.404192,185.348152 369.128486,183.624903 369.128486,181.507111 C369.128486,179.38932 367.404192,177.66607 365.286401,177.66607 M365.286401,189.190237 C361.049775,189.190237 357.604319,185.743738 357.604319,181.507111 C357.604319,177.271529 361.049775,173.825029 365.286401,173.825029 C369.523027,173.825029 372.968483,177.271529 372.968483,181.507111 C372.968483,185.743738 369.523027,189.190237 365.286401,189.190237" id="Fill-17" fill="#C1D6DC"></path>
            <path d="M326.090352,70.1683799 C323.972561,70.1683799 322.248267,71.8916295 322.248267,74.0094209 C322.248267,76.1272122 323.972561,77.8504619 326.090352,77.8504619 C328.208143,77.8504619 329.931393,76.1272122 329.931393,74.0094209 C329.931393,71.8916295 328.208143,70.1683799 326.090352,70.1683799 M326.090352,81.6925466 C321.853726,81.6925466 318.40827,78.2460473 318.40827,74.0094209 C318.40827,69.7738382 321.853726,66.3273389 326.090352,66.3273389 C330.326978,66.3273389 333.772434,69.7738382 333.772434,74.0094209 C333.772434,78.2460473 330.326978,81.6925466 326.090352,81.6925466" id="Fill-19" fill="#C1D6DC"></path>
            <path d="M398.279064,108.826266 L393.614496,108.826266 L393.614496,104.162741 C393.614496,103.10228 392.75548,102.24222 391.693975,102.24222 C390.634558,102.24222 389.774499,103.10228 389.774499,104.162741 L389.774499,108.826266 L385.131849,108.826266 C384.071388,108.826266 383.211329,109.686325 383.211329,110.746786 C383.211329,111.807247 384.071388,112.667307 385.131849,112.667307 L389.774499,112.667307 L389.774499,117.309956 C389.774499,118.371461 390.634558,119.230477 391.693975,119.230477 C392.75548,119.230477 393.614496,118.371461 393.614496,117.309956 L393.614496,112.667307 L398.279064,112.667307 C399.339526,112.667307 400.199585,111.807247 400.199585,110.746786 C400.199585,109.686325 399.339526,108.826266 398.279064,108.826266" id="Fill-21" fill="#C1D6DC"></path>
            <path d="M255.194129,6.65332255 L250.530604,6.65332255 L250.530604,1.98979777 C250.530604,0.929336454 249.671589,0.0692772735 248.610084,0.0692772735 C247.549622,0.0692772735 246.690607,0.929336454 246.690607,1.98979777 L246.690607,6.65332255 L242.046914,6.65332255 C240.986452,6.65332255 240.125349,7.51338173 240.125349,8.57384305 C240.125349,9.63430437 240.986452,10.4943635 242.046914,10.4943635 L246.690607,10.4943635 L246.690607,15.1370131 C246.690607,16.1985182 247.549622,17.0575336 248.610084,17.0575336 C249.671589,17.0575336 250.530604,16.1985182 250.530604,15.1370131 L250.530604,10.4943635 L255.194129,10.4943635 C256.255634,10.4943635 257.115693,9.63430437 257.115693,8.57384305 C257.115693,7.51338173 256.255634,6.65332255 255.194129,6.65332255" id="Fill-23" fill="#C1D6DC"></path>
            <path d="M422.629072,159.961376 C420.511281,159.961376 418.788031,161.684626 418.788031,163.802417 C418.788031,165.920209 420.511281,167.643458 422.629072,167.643458 C424.747908,167.643458 426.471157,165.920209 426.471157,163.802417 C426.471157,161.684626 424.747908,159.961376 422.629072,159.961376 M422.629072,171.485543 C418.392446,171.485543 414.94699,168.038 414.94699,163.802417 C414.94699,159.566835 418.392446,156.120335 422.629072,156.120335 C426.865699,156.120335 430.311154,159.566835 430.311154,163.802417 C430.311154,168.038 426.865699,171.485543 422.629072,171.485543" id="Fill-25" fill="#C1D6DC"></path>
            <path d="M182.921811,53.5614095 C180.80402,53.5614095 179.079727,55.2846591 179.079727,57.4024505 C179.079727,59.5202418 180.80402,61.2434915 182.921811,61.2434915 C185.038559,61.2434915 186.762852,59.5202418 186.762852,57.4024505 C186.762852,55.2846591 185.038559,53.5614095 182.921811,53.5614095 M182.921811,65.0855762 C178.685185,65.0855762 175.239729,61.639077 175.239729,57.4024505 C175.239729,53.1668678 178.685185,49.7203685 182.921811,49.7203685 C187.157394,49.7203685 190.60285,53.1668678 190.60285,57.4024505 C190.60285,61.639077 187.157394,65.0855762 182.921811,65.0855762" id="Fill-27" fill="#C1D6DC"></path>
            <path d="M48.4753563,91.9731764 C46.3575649,91.9731764 44.6343153,93.696426 44.6343153,95.8142174 C44.6343153,97.9320087 46.3575649,99.6552584 48.4753563,99.6552584 C50.5931477,99.6552584 52.3174411,97.9320087 52.3174411,95.8142174 C52.3174411,93.696426 50.5931477,91.9731764 48.4753563,91.9731764 M48.4753563,103.497343 C44.2397736,103.497343 40.7932743,100.050844 40.7932743,95.8142174 C40.7932743,91.5786346 44.2397736,88.1321354 48.4753563,88.1321354 C52.7119828,88.1321354 56.1574383,91.5786346 56.1574383,95.8142174 C56.1574383,100.050844 52.7119828,103.497343 48.4753563,103.497343" id="Fill-29" fill="#C1D6DC"></path>
            <path d="M131.453323,222.568153 C129.335532,222.568153 127.612282,224.291402 127.612282,226.409194 C127.612282,228.526985 129.335532,230.250235 131.453323,230.250235 C133.571115,230.250235 135.295408,228.526985 135.295408,226.409194 C135.295408,224.291402 133.571115,222.568153 131.453323,222.568153 M131.453323,234.091276 C127.217741,234.091276 123.771241,230.644776 123.771241,226.409194 C123.771241,222.173611 127.217741,218.727112 131.453323,218.727112 C135.68995,218.727112 139.135405,222.173611 139.135405,226.409194 C139.135405,230.644776 135.68995,234.091276 131.453323,234.091276" id="Fill-31" fill="#C1D6DC"></path>
            <path d="M111.630107,32.5812887 L106.965539,32.5812887 L106.965539,27.9177639 C106.965539,26.8573026 106.106523,25.9972434 105.045018,25.9972434 C103.985601,25.9972434 103.125541,26.8573026 103.125541,27.9177639 L103.125541,32.5812887 L98.4818482,32.5812887 C97.4213869,32.5812887 96.5613277,33.4413479 96.5613277,34.5018092 C96.5613277,35.5622705 97.4213869,36.4223297 98.4818482,36.4223297 L103.125541,36.4223297 L103.125541,41.0649792 C103.125541,42.1264843 103.985601,42.9865435 105.045018,42.9865435 C106.106523,42.9865435 106.965539,42.1264843 106.965539,41.0649792 L106.965539,36.4223297 L111.630107,36.4223297 C112.690569,36.4223297 113.550628,35.5622705 113.550628,34.5018092 C113.550628,33.4413479 112.690569,32.5812887 111.630107,32.5812887" id="Fill-33" fill="#C1D6DC"></path>
            <path d="M127.308861,154.352204 L122.645336,154.352204 L122.645336,149.688679 C122.645336,148.628218 121.786321,147.768159 120.724816,147.768159 C119.664354,147.768159 118.805339,148.628218 118.805339,149.688679 L118.805339,154.352204 L114.161646,154.352204 C113.102228,154.352204 112.241125,155.212263 112.241125,156.272725 C112.241125,157.333186 113.102228,158.193245 114.161646,158.193245 L118.805339,158.193245 L118.805339,162.835895 C118.805339,163.8974 119.664354,164.757459 120.724816,164.757459 C121.786321,164.757459 122.645336,163.8974 122.645336,162.835895 L122.645336,158.193245 L127.308861,158.193245 C128.370366,158.193245 129.230425,157.333186 129.230425,156.272725 C129.230425,155.212263 128.370366,154.352204 127.308861,154.352204" id="Fill-35" fill="#C1D6DC"></path>
            <path d="M55.0600278,202.5604 L50.3965031,202.5604 L50.3965031,197.896875 C50.3965031,196.836414 49.5364439,195.976355 48.4749388,195.976355 C47.4155212,195.976355 46.5554621,196.836414 46.5554621,197.896875 L46.5554621,202.5604 L41.9117687,202.5604 C40.8523512,202.5604 39.9912482,203.420459 39.9912482,204.48092 C39.9912482,205.541382 40.8523512,206.401441 41.9117687,206.401441 L46.5554621,206.401441 L46.5554621,211.04409 C46.5554621,212.105595 47.4155212,212.965655 48.4749388,212.965655 C49.5364439,212.965655 50.3965031,212.105595 50.3965031,211.04409 L50.3965031,206.401441 L55.0600278,206.401441 C56.1215329,206.401441 56.9805483,205.541382 56.9805483,204.48092 C56.9805483,203.420459 56.1215329,202.5604 55.0600278,202.5604" id="Fill-37" fill="#C1D6DC"></path>
            <path d="M406.258305,224.64148 L406.258305,229.284129 C406.258305,230.344591 405.398246,231.20465 404.337785,231.20465 C403.27628,231.20465 402.417264,230.344591 402.417264,229.284129 L402.417264,224.64148 L397.773153,224.64148 C396.713736,224.64148 395.852633,223.781421 395.852633,222.720959 C395.852633,221.660498 396.713736,220.800439 397.773153,220.800439 L402.417264,220.800439 L402.417264,216.13587 C402.417264,215.075409 403.27628,214.216394 404.337785,214.216394 C405.398246,214.216394 406.258305,215.075409 406.258305,216.13587 L406.258305,220.800439 L410.921412,220.800439 C411.982918,220.800439 412.842977,221.660498 412.842977,222.720959 C412.842977,223.781421 411.982918,224.64148 410.921412,224.64148 L406.258305,224.64148 Z" id="Combined-Shape" fill="#C1D6DC"></path>
        </g>
    </g>
</svg>