<?xml version="1.0" encoding="UTF-8"?>
<svg width="490px" height="249px" viewBox="0 0 490 249" version="1.1" xmlns="http://www.w3.org/2000/svg" xmlns:xlink="http://www.w3.org/1999/xlink">
    <!-- Generator: Sketch 48.2 (47327) - http://www.bohemiancoding.com/sketch -->
    <title>empty-ivr</title>
    <desc>Created with Sketch.</desc>
    <defs>
        <polygon id="path-1" points="0.521345588 0.385460989 489.658922 0.385460989 489.658922 200.377402 0.521345588 200.377402"></polygon>
    </defs>
    <g id="IVR-Empty" stroke="none" stroke-width="1" fill="none" fill-rule="evenodd" transform="translate(-681.000000, -369.000000)" opacity="0.699999988">
        <g id="empty-ivr" transform="translate(681.000000, 369.000000)">
            <g id="Group-3" transform="translate(0.000000, 36.014110)">
                <mask id="mask-2" fill="white">
                    <use xlink:href="#path-1"></use>
                </mask>
                <g id="Clip-2"></g>
                <path d="M471.677963,113.261966 L406.312203,113.261966 C398.200782,112.01154 392.116615,106.829266 392.116615,100.620975 L392.116615,97.4531596 C392.116615,90.4870977 399.770463,84.8100809 409.35789,84.5313966 C409.111689,84.5240903 408.865488,84.516784 408.618086,84.516784 L421.391713,84.516784 C431.321419,84.516784 439.372792,78.7259972 439.372792,71.5824959 L439.372792,68.4136371 C439.372792,61.2701359 431.321419,55.479349 421.391713,55.479349 L269.882032,55.479349 L269.882032,55.3039972 C260.897498,54.583802 253.912596,49.1061435 253.912596,42.4511225 L253.912596,39.2833074 C253.912596,32.6293302 260.897498,27.1506279 269.882032,26.4304327 L269.882032,26.2550809 L432.046811,26.2550809 C441.977718,26.2550809 450.029091,20.4642941 450.029091,13.3207928 C450.029091,6.1762478 441.977718,0.385460989 432.046811,0.385460989 L107.71485,0.385460989 C97.7851446,0.385460989 89.734973,6.1762478 89.734973,13.3207928 C89.734973,20.4642941 97.7851446,26.2550809 107.71485,26.2550809 L146.009311,26.2550809 L146.009311,26.3479756 L153.667963,26.3479756 C163.600071,26.3479756 171.650243,32.1387624 171.650243,39.2833074 L171.650243,42.4511225 C171.650243,49.5946237 163.600071,55.3864543 153.667963,55.3864543 L146.009311,55.3864543 L146.009311,55.479349 L86.4334779,55.479349 C76.5025711,55.479349 68.4511985,61.2701359 68.4511985,68.4136371 L68.4511985,71.5824959 C68.4511985,78.7259972 76.5025711,84.516784 86.4334779,84.516784 L144.313527,84.516784 C154.244434,84.516784 162.294605,90.3086146 162.294605,97.4531596 L162.294605,100.620975 C162.294605,106.824047 156.22365,112.004234 148.124238,113.261966 L43.1453407,113.261966 C33.2132328,113.261966 25.1630613,119.052753 25.1630613,126.197298 L25.1630613,129.365113 C25.1630613,136.508614 33.2132328,142.300445 43.1453407,142.300445 L105.947007,142.300445 C115.877914,142.300445 123.928086,148.092275 123.928086,155.235776 L123.928086,158.403591 C123.928086,165.548136 115.877914,171.338923 105.947007,171.338923 L18.503625,171.338923 C8.57271814,171.338923 0.521345588,177.12971 0.521345588,184.274255 L0.521345588,187.44207 C0.521345588,194.586615 8.57271814,200.377402 18.503625,200.377402 L447.036248,200.377402 C456.967154,200.377402 465.017326,194.586615 465.017326,187.44207 L465.017326,184.274255 C465.017326,177.12971 456.967154,171.338923 447.036248,171.338923 L355.487914,171.338923 C345.557007,171.338923 337.506836,165.548136 337.506836,158.403591 L337.506836,155.235776 C337.506836,148.092275 345.557007,142.300445 355.487914,142.300445 L471.677963,142.300445 C481.60887,142.300445 489.659042,136.508614 489.659042,129.365113 L489.659042,126.197298 C489.659042,119.052753 481.60887,113.261966 471.677963,113.261966" id="Fill-1" fill="#DFEAED" mask="url(#mask-2)"></path>
            </g>
            <path d="M384.513421,7.47340141 L379.849896,7.47340141 L379.849896,2.80987663 C379.849896,1.74941531 378.989837,0.889356133 377.929375,0.889356133 C376.868914,0.889356133 376.009899,1.74941531 376.009899,2.80987663 L376.009899,7.47340141 L371.365161,7.47340141 C370.305744,7.47340141 369.444641,8.33346059 369.444641,9.39392191 C369.444641,10.4543832 370.305744,11.3154862 371.365161,11.3154862 L376.009899,11.3154862 L376.009899,15.957092 C376.009899,17.018597 376.868914,17.8776125 377.929375,17.8776125 C378.989837,17.8776125 379.849896,17.018597 379.849896,15.957092 L379.849896,11.3154862 L384.513421,11.3154862 C385.574926,11.3154862 386.434985,10.4543832 386.434985,9.39392191 C386.434985,8.33346059 385.574926,7.47340141 384.513421,7.47340141" id="Fill-15" fill="#C1D6DC"></path>
            <path d="M365.286401,162.66607 C363.16861,162.66607 361.44536,164.38932 361.44536,166.507111 C361.44536,168.624903 363.16861,170.348152 365.286401,170.348152 C367.404192,170.348152 369.128486,168.624903 369.128486,166.507111 C369.128486,164.38932 367.404192,162.66607 365.286401,162.66607 M365.286401,174.190237 C361.049775,174.190237 357.604319,170.743738 357.604319,166.507111 C357.604319,162.271529 361.049775,158.825029 365.286401,158.825029 C369.523027,158.825029 372.968483,162.271529 372.968483,166.507111 C372.968483,170.743738 369.523027,174.190237 365.286401,174.190237" id="Fill-17" fill="#C1D6DC"></path>
            <path d="M326.090352,55.1683799 C323.972561,55.1683799 322.248267,56.8916295 322.248267,59.0094209 C322.248267,61.1272122 323.972561,62.8504619 326.090352,62.8504619 C328.208143,62.8504619 329.931393,61.1272122 329.931393,59.0094209 C329.931393,56.8916295 328.208143,55.1683799 326.090352,55.1683799 M326.090352,66.6925466 C321.853726,66.6925466 318.40827,63.2460473 318.40827,59.0094209 C318.40827,54.7738382 321.853726,51.3273389 326.090352,51.3273389 C330.326978,51.3273389 333.772434,54.7738382 333.772434,59.0094209 C333.772434,63.2460473 330.326978,66.6925466 326.090352,66.6925466" id="Fill-19" fill="#C1D6DC"></path>
            <path d="M398.279064,93.8262656 L393.614496,93.8262656 L393.614496,89.1627408 C393.614496,88.1022795 392.75548,87.2422203 391.693975,87.2422203 C390.634558,87.2422203 389.774499,88.1022795 389.774499,89.1627408 L389.774499,93.8262656 L385.131849,93.8262656 C384.071388,93.8262656 383.211329,94.6863248 383.211329,95.7467861 C383.211329,96.8072474 384.071388,97.6673066 385.131849,97.6673066 L389.774499,97.6673066 L389.774499,102.309956 C389.774499,103.371461 390.634558,104.230477 391.693975,104.230477 C392.75548,104.230477 393.614496,103.371461 393.614496,102.309956 L393.614496,97.6673066 L398.279064,97.6673066 C399.339526,97.6673066 400.199585,96.8072474 400.199585,95.7467861 C400.199585,94.6863248 399.339526,93.8262656 398.279064,93.8262656" id="Fill-21" fill="#C1D6DC"></path>
            <path d="M255.194129,11.6533225 L250.530604,11.6533225 L250.530604,6.98979777 C250.530604,5.92933645 249.671589,5.06927727 248.610084,5.06927727 C247.549622,5.06927727 246.690607,5.92933645 246.690607,6.98979777 L246.690607,11.6533225 L242.046914,11.6533225 C240.986452,11.6533225 240.125349,12.5133817 240.125349,13.573843 C240.125349,14.6343044 240.986452,15.4943635 242.046914,15.4943635 L246.690607,15.4943635 L246.690607,20.1370131 C246.690607,21.1985182 247.549622,22.0575336 248.610084,22.0575336 C249.671589,22.0575336 250.530604,21.1985182 250.530604,20.1370131 L250.530604,15.4943635 L255.194129,15.4943635 C256.255634,15.4943635 257.115693,14.6343044 257.115693,13.573843 C257.115693,12.5133817 256.255634,11.6533225 255.194129,11.6533225" id="Fill-23" fill="#C1D6DC"></path>
            <g id="Page-1" transform="translate(185.000000, 105.000000)">
                <g id="Group-7" transform="translate(64.234568, 53.330462)"></g>
                <path d="M108.242535,22.1876923 C105.832503,19.7852308 101.919136,19.7852308 99.5091044,22.1876923 L57.7949289,63.7495385 L16.0819888,22.1876923 C13.6707219,19.7852308 9.75858967,19.7852308 7.34732282,22.1876923 C4.93482068,24.5913846 4.93482068,28.488 7.34732282,30.8904615 L53.4282136,76.8030769 C54.633847,78.0043077 56.2150056,78.6049231 57.7949289,78.6049231 C59.3748523,78.6049231 60.9572461,78.0043077 62.1616443,76.8030769 L108.242535,30.8904615 C110.655037,28.488 110.655037,24.5913846 108.242535,22.1876923" id="Fill-1" fill="#D3DEE2"></path>
                <path d="M50.9256595,95.5235692 C50.8886011,95.3389538 50.8194255,95.1666462 50.7663084,94.9881846 C50.7057797,94.7826462 50.658839,94.5746462 50.5760753,94.3752615 C50.4871351,94.1623385 50.3660776,93.9678769 50.2549024,93.7672615 C50.1721387,93.6171077 50.1054335,93.4608 50.0090817,93.3168 C49.7830254,92.9771077 49.5248519,92.6620308 49.2370316,92.3740308 L10.5431161,53.8214154 C8.13308452,51.4189538 4.22095228,51.4189538 1.80845014,53.8214154 C-0.602816714,56.2251077 -0.602816714,60.1217231 1.80845014,62.5241846 L38.6926802,99.2737231 L38.6704452,137.018954 C38.6679746,140.418338 41.4312963,143.175262 44.8431401,143.176492 L44.8468459,143.176492 C48.2549839,143.176492 51.0207761,140.423262 51.0232467,137.026338 L51.046717,96.7297231 L51.046717,96.7284923 C51.046717,96.3248 51.0047175,95.9211077 50.9256595,95.5235692" id="Fill-3" fill="#D3DEE2"></path>
                <path d="M112.21989,55.5193846 C109.809859,53.1169231 105.896491,53.1169231 103.486459,55.5193846 L66.7344043,92.1372308 C66.7331691,92.1384615 66.7331691,92.1384615 66.7331691,92.1384615 C66.4465841,92.4252308 66.1896458,92.7403077 65.9635895,93.0775385 C65.8610613,93.2301538 65.7918856,93.3950769 65.7041807,93.5538462 C65.5979466,93.7470769 65.4818303,93.9316923 65.3965959,94.1372308 C65.3101263,94.3427692 65.2607151,94.5581538 65.2001864,94.7710769 C65.1495399,94.9433846 65.0815995,95.1083077 65.0457764,95.2867692 C64.9667184,95.6843077 64.9247189,96.0867692 64.9247189,96.4916923 C64.9247189,96.4929231 64.9247189,96.4929231 64.9247189,96.4941538 L64.9580715,137.028308 C64.960542,140.425231 67.725099,143.177231 71.1344722,143.177231 L71.1394134,143.177231 C74.5512571,143.173538 77.3133436,140.416615 77.310873,137.018462 L77.279991,99.0356923 L112.21989,64.2221538 C114.632392,61.8196923 114.632392,57.9230769 112.21989,55.5193846" id="Fill-5" fill="#D3DEE2"></path>
                <path d="M57.8663281,42.9796923 C61.2781719,42.9796923 64.0427289,40.224 64.0427289,36.8258462 L64.0427289,6.15507692 C64.0427289,2.75569231 61.2781719,0.00123076923 57.8663281,0.00123076923 C54.4544844,0.00123076923 51.6899274,2.75569231 51.6899274,6.15507692 L51.6899274,36.8258462 C51.6899274,40.224 54.4544844,42.9796923 57.8663281,42.9796923" id="Fill-8" fill="#D3DEE2"></path>
            </g>
            <path d="M422.629072,144.961376 C420.511281,144.961376 418.788031,146.684626 418.788031,148.802417 C418.788031,150.920209 420.511281,152.643458 422.629072,152.643458 C424.747908,152.643458 426.471157,150.920209 426.471157,148.802417 C426.471157,146.684626 424.747908,144.961376 422.629072,144.961376 M422.629072,156.485543 C418.392446,156.485543 414.94699,153.038 414.94699,148.802417 C414.94699,144.566835 418.392446,141.120335 422.629072,141.120335 C426.865699,141.120335 430.311154,144.566835 430.311154,148.802417 C430.311154,153.038 426.865699,156.485543 422.629072,156.485543" id="Fill-25" fill="#C1D6DC"></path>
            <path d="M182.921811,38.5614095 C180.80402,38.5614095 179.079727,40.2846591 179.079727,42.4024505 C179.079727,44.5202418 180.80402,46.2434915 182.921811,46.2434915 C185.038559,46.2434915 186.762852,44.5202418 186.762852,42.4024505 C186.762852,40.2846591 185.038559,38.5614095 182.921811,38.5614095 M182.921811,50.0855762 C178.685185,50.0855762 175.239729,46.639077 175.239729,42.4024505 C175.239729,38.1668678 178.685185,34.7203685 182.921811,34.7203685 C187.157394,34.7203685 190.60285,38.1668678 190.60285,42.4024505 C190.60285,46.639077 187.157394,50.0855762 182.921811,50.0855762" id="Fill-27" fill="#C1D6DC"></path>
            <path d="M48.4753563,76.9731764 C46.3575649,76.9731764 44.6343153,78.696426 44.6343153,80.8142174 C44.6343153,82.9320087 46.3575649,84.6552584 48.4753563,84.6552584 C50.5931477,84.6552584 52.3174411,82.9320087 52.3174411,80.8142174 C52.3174411,78.696426 50.5931477,76.9731764 48.4753563,76.9731764 M48.4753563,88.4973431 C44.2397736,88.4973431 40.7932743,85.0508438 40.7932743,80.8142174 C40.7932743,76.5786346 44.2397736,73.1321354 48.4753563,73.1321354 C52.7119828,73.1321354 56.1574383,76.5786346 56.1574383,80.8142174 C56.1574383,85.0508438 52.7119828,88.4973431 48.4753563,88.4973431" id="Fill-29" fill="#C1D6DC"></path>
            <path d="M131.453323,207.568153 C129.335532,207.568153 127.612282,209.291402 127.612282,211.409194 C127.612282,213.526985 129.335532,215.250235 131.453323,215.250235 C133.571115,215.250235 135.295408,213.526985 135.295408,211.409194 C135.295408,209.291402 133.571115,207.568153 131.453323,207.568153 M131.453323,219.091276 C127.217741,219.091276 123.771241,215.644776 123.771241,211.409194 C123.771241,207.173611 127.217741,203.727112 131.453323,203.727112 C135.68995,203.727112 139.135405,207.173611 139.135405,211.409194 C139.135405,215.644776 135.68995,219.091276 131.453323,219.091276" id="Fill-31" fill="#C1D6DC"></path>
            <path d="M111.630107,17.5812887 L106.965539,17.5812887 L106.965539,12.9177639 C106.965539,11.8573026 106.106523,10.9972434 105.045018,10.9972434 C103.985601,10.9972434 103.125541,11.8573026 103.125541,12.9177639 L103.125541,17.5812887 L98.4818482,17.5812887 C97.4213869,17.5812887 96.5613277,18.4413479 96.5613277,19.5018092 C96.5613277,20.5622705 97.4213869,21.4223297 98.4818482,21.4223297 L103.125541,21.4223297 L103.125541,26.0649792 C103.125541,27.1264843 103.985601,27.9865435 105.045018,27.9865435 C106.106523,27.9865435 106.965539,27.1264843 106.965539,26.0649792 L106.965539,21.4223297 L111.630107,21.4223297 C112.690569,21.4223297 113.550628,20.5622705 113.550628,19.5018092 C113.550628,18.4413479 112.690569,17.5812887 111.630107,17.5812887" id="Fill-33" fill="#C1D6DC"></path>
            <path d="M127.308861,139.352204 L122.645336,139.352204 L122.645336,134.688679 C122.645336,133.628218 121.786321,132.768159 120.724816,132.768159 C119.664354,132.768159 118.805339,133.628218 118.805339,134.688679 L118.805339,139.352204 L114.161646,139.352204 C113.102228,139.352204 112.241125,140.212263 112.241125,141.272725 C112.241125,142.333186 113.102228,143.193245 114.161646,143.193245 L118.805339,143.193245 L118.805339,147.835895 C118.805339,148.8974 119.664354,149.757459 120.724816,149.757459 C121.786321,149.757459 122.645336,148.8974 122.645336,147.835895 L122.645336,143.193245 L127.308861,143.193245 C128.370366,143.193245 129.230425,142.333186 129.230425,141.272725 C129.230425,140.212263 128.370366,139.352204 127.308861,139.352204" id="Fill-35" fill="#C1D6DC"></path>
            <path d="M55.0600278,187.5604 L50.3965031,187.5604 L50.3965031,182.896875 C50.3965031,181.836414 49.5364439,180.976355 48.4749388,180.976355 C47.4155212,180.976355 46.5554621,181.836414 46.5554621,182.896875 L46.5554621,187.5604 L41.9117687,187.5604 C40.8523512,187.5604 39.9912482,188.420459 39.9912482,189.48092 C39.9912482,190.541382 40.8523512,191.401441 41.9117687,191.401441 L46.5554621,191.401441 L46.5554621,196.04409 C46.5554621,197.105595 47.4155212,197.965655 48.4749388,197.965655 C49.5364439,197.965655 50.3965031,197.105595 50.3965031,196.04409 L50.3965031,191.401441 L55.0600278,191.401441 C56.1215329,191.401441 56.9805483,190.541382 56.9805483,189.48092 C56.9805483,188.420459 56.1215329,187.5604 55.0600278,187.5604" id="Fill-37" fill="#C1D6DC"></path>
            <path d="M406.258305,209.64148 L406.258305,214.284129 C406.258305,215.344591 405.398246,216.20465 404.337785,216.20465 C403.27628,216.20465 402.417264,215.344591 402.417264,214.284129 L402.417264,209.64148 L397.773153,209.64148 C396.713736,209.64148 395.852633,208.781421 395.852633,207.720959 C395.852633,206.660498 396.713736,205.800439 397.773153,205.800439 L402.417264,205.800439 L402.417264,201.13587 C402.417264,200.075409 403.27628,199.216394 404.337785,199.216394 C405.398246,199.216394 406.258305,200.075409 406.258305,201.13587 L406.258305,205.800439 L410.921412,205.800439 C411.982918,205.800439 412.842977,206.660498 412.842977,207.720959 C412.842977,208.781421 411.982918,209.64148 410.921412,209.64148 L406.258305,209.64148 Z" id="Combined-Shape" fill="#C1D6DC"></path>
        </g>
    </g>
</svg>