<?xml version="1.0" encoding="UTF-8"?>
<svg width="16px" height="12px" viewBox="0 0 16 12" version="1.1" xmlns="http://www.w3.org/2000/svg" xmlns:xlink="http://www.w3.org/1999/xlink">
    <!-- Generator: Sketch 48.2 (47327) - http://www.bohemiancoding.com/sketch -->
    <title>folder</title>
    <desc>Created with Sketch.</desc>
    <defs>
        <rect id="path-1" x="0" y="0" width="18" height="18"></rect>
        <path d="M7.48557692,3 L9,4.50898204 L15.0216346,4.50898204 C15.4302905,4.50898204 15.7788447,4.65868114 16.0673077,4.95808383 C16.3557707,5.25748653 16.5,5.61077641 16.5,6.01796407 L16.5,13.491018 C16.5,13.8982056 16.3557707,14.2514955 16.0673077,14.5508982 C15.7788447,14.8503009 15.4302905,15 15.0216346,15 L2.97836538,15 C2.5697095,15 2.22115529,14.8503009 1.93269231,14.5508982 C1.64422933,14.2514955 1.5,13.8982056 1.5,13.491018 L1.5,4.50898204 C1.5,4.10179437 1.64422933,3.74850449 1.93269231,3.4491018 C2.22115529,3.1496991 2.5697095,3 2.97836538,3 L7.48557692,3 Z" id="path-3"></path>
    </defs>
    <g id="03_campaign_name_sched_date_time" stroke="none" stroke-width="1" fill="none" fill-rule="evenodd" transform="translate(-1077.000000, -550.000000)">
        <g id="Group-5">
            <g id="Group-7" transform="translate(1076.000000, 547.000000)">
                <g id="Icon-/-Folder-/-Fill">
                    <mask id="mask-2" fill="white">
                        <use xlink:href="#path-1"></use>
                    </mask>
                    <g id="Container" fill-rule="nonzero"></g>
                    <mask id="mask-4" fill="white">
                        <use xlink:href="#path-3"></use>
                    </mask>
                    <g id="Folder"></g>
                    <g id="Style-/-Color-/-Blue" mask="url(#mask-4)" fill="#00A8FB" fill-rule="evenodd">
                        <rect id="Container" x="0" y="0" width="18" height="18"></rect>
                    </g>
                </g>
            </g>
        </g>
    </g>
</svg>