<?xml version="1.0" encoding="UTF-8"?>
<svg width="340px" height="213px" viewBox="0 0 340 213" version="1.1" xmlns="http://www.w3.org/2000/svg" xmlns:xlink="http://www.w3.org/1999/xlink">
    <!-- Generator: sketchtool 48.2 (47327) - http://www.bohemiancoding.com/sketch -->
    <title>9C5D8388-CB94-4015-B5B0-96D98376395D</title>
    <desc>Created with sketchtool.</desc>
    <defs>
        <polygon id="path-1" points="0 0.576144539 332.852131 0.576144539 332.852131 158.783267 0 158.783267"></polygon>
        <path d="M0.0252830189,67.7851875 C0.0252830189,104.776875 29.9780755,134.76375 66.9266792,134.76375 C103.87444,134.76375 133.827233,104.776875 133.827233,67.7851875 C133.827233,30.7935 103.87444,0.806625 66.9266792,0.806625 C29.9780755,0.806625 0.0252830189,30.7935 0.0252830189,67.7851875 Z" id="path-3"></path>
        <linearGradient x1="50%" y1="0%" x2="50%" y2="100%" id="linearGradient-5">
            <stop stop-color="#FFC170" offset="0%"></stop>
            <stop stop-color="#FF6C3D" offset="100%"></stop>
        </linearGradient>
    </defs>
    <g id="forgot_password" stroke="none" stroke-width="1" fill="none" fill-rule="evenodd" transform="translate(-220.000000, -192.000000)">
        <g id="forgot" transform="translate(220.000000, 192.000000)">
            <g id="Group-3" transform="translate(0.000000, 54.000000)">
                <mask id="mask-2" fill="white">
                    <use xlink:href="#path-1"></use>
                </mask>
                <g id="Clip-2"></g>
                <path d="M320.616278,89.8695845 L276.135908,89.8695845 C270.615696,88.8801764 266.475536,84.7808341 266.475536,79.869648 L266.475536,77.3632613 C266.475536,71.8536497 271.684668,67.3624712 278.208096,67.1413696 C278.041174,67.1353939 277.87341,67.1302719 277.704802,67.1302719 L286.396524,67.1302719 C293.154316,67.1302719 298.63322,62.5494575 298.63322,56.8981361 L298.63322,54.3917494 C298.63322,48.740428 293.154316,44.1596136 286.396524,44.1596136 L183.296351,44.1596136 L183.296351,44.0204648 C177.18264,43.4510643 172.429592,39.1169617 172.429592,33.8532082 L172.429592,31.3468215 C172.429592,26.083068 177.18264,21.7498191 183.296351,21.1804186 L183.296351,21.0412698 L293.647493,21.0412698 C300.405286,21.0412698 305.884189,16.4604554 305.884189,10.809134 C305.884189,5.15781255 300.405286,0.576144539 293.647493,0.576144539 L72.9443666,0.576144539 C66.1865742,0.576144539 60.7085134,5.15781255 60.7085134,10.809134 C60.7085134,16.4604554 66.1865742,21.0412698 72.9443666,21.0412698 L99.0026704,21.0412698 L99.0026704,21.1146857 L104.214331,21.1146857 C110.972124,21.1146857 116.450184,25.6963538 116.450184,31.3468215 L116.450184,33.8532082 C116.450184,39.5045296 110.972124,44.0861977 104.214331,44.0861977 L99.0026704,44.0861977 L99.0026704,44.1596136 L58.4618172,44.1596136 C51.7040248,44.1596136 46.225121,48.740428 46.225121,54.3917494 L46.225121,56.8981361 C46.225121,62.5494575 51.7040248,67.1302719 58.4618172,67.1302719 L97.8485514,67.1302719 C104.606344,67.1302719 110.084405,71.7119399 110.084405,77.3632613 L110.084405,79.869648 C110.084405,84.7765658 105.953518,88.8742007 100.441736,89.8695845 L29.0043843,89.8695845 C22.2465919,89.8695845 16.7685311,94.4503988 16.7685311,100.10172 L16.7685311,102.608107 C16.7685311,108.259428 22.2465919,112.841096 29.0043843,112.841096 L71.7405084,112.841096 C78.4983008,112.841096 83.9763615,117.421911 83.9763615,123.073232 L83.9763615,125.579619 C83.9763615,131.23094 78.4983008,135.811755 71.7405084,135.811755 L12.236359,135.811755 C5.47856658,135.811755 -0.00033721519,140.393423 -0.00033721519,146.044744 L-0.00033721519,148.551131 C-0.00033721519,154.201599 5.47856658,158.783267 12.236359,158.783267 L303.848253,158.783267 C310.606045,158.783267 316.084106,154.201599 316.084106,148.551131 L316.084106,146.044744 C316.084106,140.393423 310.606045,135.811755 303.848253,135.811755 L241.550275,135.811755 C234.792483,135.811755 229.314422,131.23094 229.314422,125.579619 L229.314422,123.073232 C229.314422,117.421911 234.792483,112.841096 241.550275,112.841096 L320.616278,112.841096 C327.37407,112.841096 332.852131,108.259428 332.852131,102.608107 L332.852131,100.10172 C332.852131,94.4503988 327.37407,89.8695845 320.616278,89.8695845" id="Fill-1" fill="#F1FAFF" mask="url(#mask-2)"></path>
            </g>
            <g id="Group-165" transform="translate(111.000000, 66.000000)">
                <g id="Group-6">
                    <mask id="mask-4" fill="white">
                        <use xlink:href="#path-3"></use>
                    </mask>
                    <g id="Clip-5"></g>
                    <path d="M0.0255358491,134.763497 L133.826643,134.763497 L0.0255358491,134.763497 Z" id="Fill-4" fill="#9CFFF5" mask="url(#mask-4)"></path>
                </g>
                <path d="M0.0252830189,67.7851875 C0.0252830189,104.776875 29.9780755,134.76375 66.9266792,134.76375 C103.87444,134.76375 133.827233,104.776875 133.827233,67.7851875 C133.827233,30.7935 103.87444,0.806625 66.9266792,0.806625 C29.9780755,0.806625 0.0252830189,30.7935 0.0252830189,67.7851875 Z" id="Clip-8" fill="url(#linearGradient-5)"></path>
                <text id="?" font-family="ArialRoundedMTBold, Arial Rounded MT Bold" font-size="82" font-weight="normal" letter-spacing="0.22" fill="#FFFFFF">
                    <tspan x="43.3870703" y="98">?</tspan>
                </text>
            </g>
            <g id="Group-215" transform="translate(16.000000, 0.000000)" fill="#1EBAFA" opacity="0.300000012">
                <g id="Group-172" transform="translate(269.859008, 21.235689)">
                    <path d="M14.0709901,9.48640702 L2.48904752,9.48640702 C1.55426945,9.48640702 0.797141514,8.72531992 0.797141514,7.78755189 C0.797141514,6.84978386 1.55426945,6.08869677 2.48904752,6.08869677 L14.0709901,6.08869677 C15.0049222,6.08869677 15.7628961,6.84978386 15.7628961,7.78755189 C15.7628961,8.72531992 15.0049222,9.48640702 14.0709901,9.48640702" id="Fill-168"></path>
                    <path d="M8.27079791,15.2921595 C7.3368658,15.2921595 6.57889191,14.5310724 6.57889191,13.5933043 L6.57889191,1.96379158 C6.57889191,1.02517413 7.3368658,0.264936457 8.27079791,0.264936457 C9.20473003,0.264936457 9.96270392,1.02517413 9.96270392,1.96379158 L9.96270392,13.5933043 C9.96270392,14.5310724 9.20473003,15.2921595 8.27079791,15.2921595" id="Fill-170"></path>
                </g>
                <path d="M257.686928,166.097915 C255.820756,166.097915 254.303116,167.621788 254.303116,169.495625 C254.303116,171.369462 255.820756,172.893336 257.686928,172.893336 C259.553101,172.893336 261.07074,171.369462 261.07074,169.495625 C261.07074,167.621788 259.553101,166.097915 257.686928,166.097915 M257.686928,176.291046 C253.95543,176.291046 250.919304,173.24245 250.919304,169.495625 C250.919304,165.7488 253.95543,162.700205 257.686928,162.700205 C261.418427,162.700205 264.454552,165.7488 264.454552,169.495625 C264.454552,173.24245 261.418427,176.291046 257.686928,176.291046" id="Fill-173"></path>
                <path d="M209.622501,39.5332082 C207.756329,39.5332082 206.238689,41.0570812 206.238689,42.9309184 C206.238689,44.8047556 207.756329,46.3286287 209.622501,46.3286287 C211.488674,46.3286287 213.006313,44.8047556 213.006313,42.9309184 C213.006313,41.0570812 211.488674,39.5332082 209.622501,39.5332082 M209.622501,49.7263389 C205.891003,49.7263389 202.854877,46.6777434 202.854877,42.9309184 C202.854877,39.1840935 205.891003,36.1354979 209.622501,36.1354979 C213.354,36.1354979 216.390125,39.1840935 216.390125,42.9309184 C216.390125,46.6777434 213.354,49.7263389 209.622501,49.7263389" id="Fill-175"></path>
                <g id="Group-181" transform="translate(258.015666, 82.394474)">
                    <path d="M13.5080084,9.42083121 L1.9260658,9.42083121 C0.992133681,9.42083121 0.234159791,8.65974411 0.234159791,7.72197609 C0.234159791,6.78420806 0.992133681,6.02312096 1.9260658,6.02312096 L13.5080084,6.02312096 C14.4419405,6.02312096 15.1999144,6.78420806 15.1999144,7.72197609 C15.1999144,8.65974411 14.4419405,9.42083121 13.5080084,9.42083121" id="Fill-177"></path>
                    <path d="M7.70781619,15.2266686 C6.77388407,15.2266686 6.01591018,14.4655815 6.01591018,13.5278135 L6.01591018,1.89830072 C6.01591018,0.960532688 6.77388407,0.199445592 7.70781619,0.199445592 C8.6417483,0.199445592 9.39972219,0.960532688 9.39972219,1.89830072 L9.39972219,13.5278135 C9.39972219,14.4655815 8.6417483,15.2266686 7.70781619,15.2266686" id="Fill-179"></path>
                </g>
                <g id="Group-186" transform="translate(148.887728, 0.000000)">
                    <path d="M13.5080084,9.93303603 L1.9260658,9.93303603 C0.992133681,9.93303603 0.234159791,9.17194893 0.234159791,8.23418091 C0.234159791,7.29641288 0.992133681,6.53532578 1.9260658,6.53532578 L13.5080084,6.53532578 C14.4419405,6.53532578 15.1999144,7.29641288 15.1999144,8.23418091 C15.1999144,9.17194893 14.4419405,9.93303603 13.5080084,9.93303603" id="Fill-182"></path>
                    <path d="M7.70773159,15.7388734 C6.77379948,15.7388734 6.01582559,14.9777863 6.01582559,14.0400183 L6.01582559,2.41050554 C6.01582559,1.47188808 6.77379948,0.711650412 7.70773159,0.711650412 C8.64166371,0.711650412 9.3996376,1.47188808 9.3996376,2.41050554 L9.3996376,14.0400183 C9.3996376,14.9777863 8.64166371,15.7388734 7.70773159,15.7388734" id="Fill-184"></path>
                </g>
                <path d="M317.08408,114.615045 C315.217908,114.615045 313.700268,116.138918 313.700268,118.012755 C313.700268,119.886592 315.217908,121.410465 317.08408,121.410465 C318.950253,121.410465 320.467892,119.886592 320.467892,118.012755 C320.467892,116.138918 318.950253,114.615045 317.08408,114.615045 M317.08408,124.808176 C313.352582,124.808176 310.316456,121.75958 310.316456,118.012755 C310.316456,114.26593 313.352582,111.217335 317.08408,111.217335 C320.815579,111.217335 323.851704,114.26593 323.851704,118.012755 C323.851704,121.75958 320.815579,124.808176 317.08408,124.808176" id="Fill-187"></path>
                <path d="M116.835669,44.6297736 C114.969497,44.6297736 113.451857,46.1536466 113.451857,48.0274838 C113.451857,49.901321 114.969497,51.4251941 116.835669,51.4251941 C118.701841,51.4251941 120.219481,49.901321 120.219481,48.0274838 C120.219481,46.1536466 118.701841,44.6297736 116.835669,44.6297736 M116.835669,54.8229043 C113.10417,54.8229043 110.068045,51.7743088 110.068045,48.0274838 C110.068045,44.2806588 113.10417,41.2320633 116.835669,41.2320633 C120.567168,41.2320633 123.603293,44.2806588 123.603293,48.0274838 C123.603293,51.7743088 120.567168,54.8229043 116.835669,54.8229043" id="Fill-189"></path>
                <path d="M12.9099196,73.5103107 C11.0437473,73.5103107 9.52610757,75.0341837 9.52610757,76.9080209 C9.52610757,78.7818581 11.0437473,80.3057312 12.9099196,80.3057312 C14.7760919,80.3057312 16.2937316,78.7818581 16.2937316,76.9080209 C16.2937316,75.0341837 14.7760919,73.5103107 12.9099196,73.5103107 M12.9099196,83.7034414 C9.17842089,83.7034414 6.14229556,80.6548459 6.14229556,76.9080209 C6.14229556,73.161196 9.17842089,70.1126004 12.9099196,70.1126004 C16.6414183,70.1126004 19.6775436,73.161196 19.6775436,76.9080209 C19.6775436,80.6548459 16.6414183,83.7034414 12.9099196,83.7034414" id="Fill-191"></path>
                <path d="M70.1822914,166.097915 C68.3161191,166.097915 66.7984794,167.621788 66.7984794,169.495625 C66.7984794,171.369462 68.3161191,172.893336 70.1822914,172.893336 C72.0484637,172.893336 73.5661034,171.369462 73.5661034,169.495625 C73.5661034,167.621788 72.0484637,166.097915 70.1822914,166.097915 M70.1822914,176.291046 C66.4507927,176.291046 63.4146674,173.24245 63.4146674,169.495625 C63.4146674,165.7488 66.4507927,162.700205 70.1822914,162.700205 C73.9137901,162.700205 76.9499154,165.7488 76.9499154,169.495625 C76.9499154,173.24245 73.9137901,176.291046 70.1822914,176.291046" id="Fill-193"></path>
                <g id="Group-199" transform="translate(45.681462, 24.633399)">
                    <path d="M13.5080084,9.93847237 L1.9260658,9.93847237 C0.992133681,9.93847237 0.234159791,9.17738527 0.234159791,8.23961724 C0.234159791,7.30184921 0.992133681,6.54076212 1.9260658,6.54076212 L13.5080084,6.54076212 C14.4419405,6.54076212 15.1999144,7.30184921 15.1999144,8.23961724 C15.1999144,9.17738527 14.4419405,9.93847237 13.5080084,9.93847237" id="Fill-195"></path>
                    <path d="M7.70773159,15.743885 C6.77379948,15.743885 6.01582559,14.9827979 6.01582559,14.0450299 L6.01582559,2.41551716 C6.01582559,1.47774913 6.77379948,0.716662034 7.70773159,0.716662034 C8.64166371,0.716662034 9.3996376,1.47774913 9.3996376,2.41551716 L9.3996376,14.0450299 C9.3996376,14.9827979 8.64166371,15.743885 7.70773159,15.743885" id="Fill-197"></path>
                </g>
                <g id="Group-204" transform="translate(24.532637, 108.726728)">
                    <path d="M13.7558726,9.77088031 L2.17393003,9.77088031 C1.23999791,9.77088031 0.482024021,9.00979321 0.482024021,8.07202518 C0.482024021,7.13425715 1.23999791,6.37317006 2.17393003,6.37317006 L13.7558726,6.37317006 C14.6898047,6.37317006 15.4477786,7.13425715 15.4477786,8.07202518 C15.4477786,9.00979321 14.6898047,9.77088031 13.7558726,9.77088031" id="Fill-200"></path>
                    <path d="M7.95559582,15.576293 C7.02166371,15.576293 6.26368982,14.8152059 6.26368982,13.8774379 L6.26368982,2.2479251 C6.26368982,1.31015707 7.02166371,0.549069976 7.95559582,0.549069976 C8.88952794,0.549069976 9.64750183,1.31015707 9.64750183,2.2479251 L9.64750183,13.8774379 C9.64750183,14.8152059 8.88952794,15.576293 7.95559582,15.576293" id="Fill-202"></path>
                </g>
                <g id="Group-209" transform="translate(0.000000, 172.433795)">
                    <path d="M13.6343937,9.22427367 L2.05245117,9.22427367 C1.11851906,9.22427367 0.36054517,8.46318658 0.36054517,7.52541855 C0.36054517,6.58765052 1.11851906,5.82656342 2.05245117,5.82656342 L13.6343937,5.82656342 C14.5683258,5.82656342 15.3262997,6.58765052 15.3262997,7.52541855 C15.3262997,8.46318658 14.5683258,9.22427367 13.6343937,9.22427367" id="Fill-205"></path>
                    <path d="M7.83420157,15.0296014 C6.90026945,15.0296014 6.14229556,14.2685143 6.14229556,13.3307463 L6.14229556,1.70123352 C6.14229556,0.763465493 6.90026945,0.00237839718 7.83420157,0.00237839718 C8.76813368,0.00237839718 9.52610757,0.763465493 9.52610757,1.70123352 L9.52610757,13.3307463 C9.52610757,14.2685143 8.76813368,15.0296014 7.83420157,15.0296014" id="Fill-207"></path>
                </g>
                <g id="Group-214" transform="translate(306.234987, 177.530361)">
                    <path d="M13.6885347,9.93303603 L2.10659217,9.93303603 C1.17266005,9.93303603 0.414686162,9.17194893 0.414686162,8.23418091 C0.414686162,7.29641288 1.17266005,6.53532578 2.10659217,6.53532578 L13.6885347,6.53532578 C14.6224668,6.53532578 15.3804407,7.29641288 15.3804407,8.23418091 C15.3804407,9.17194893 14.6224668,9.93303603 13.6885347,9.93303603" id="Fill-210"></path>
                    <path d="M7.88825796,15.7388734 C6.95432585,15.7388734 6.19635196,14.9777863 6.19635196,14.0400183 L6.19635196,2.41050554 C6.19635196,1.47188808 6.95432585,0.711650412 7.88825796,0.711650412 C8.82219008,0.711650412 9.58016397,1.47188808 9.58016397,2.41050554 L9.58016397,14.0400183 C9.58016397,14.9777863 8.82219008,15.7388734 7.88825796,15.7388734" id="Fill-212"></path>
                </g>
            </g>
        </g>
    </g>
</svg>