<?xml version="1.0" encoding="UTF-8"?>
<svg width="152px" height="37px" viewBox="0 0 152 37" version="1.1" xmlns="http://www.w3.org/2000/svg" xmlns:xlink="http://www.w3.org/1999/xlink">
    <!-- Generator: sketchtool 48.2 (47327) - http://www.bohemiancoding.com/sketch -->
    <title>E5BBD53A-0333-4899-8252-E8C675963C19</title>
    <desc>Created with sketchtool.</desc>
    <defs></defs>
    <g id="Choose-user" stroke="none" stroke-width="1" fill="none" fill-rule="evenodd" transform="translate(-1329.000000, -936.000000)">
        <g id="Group-15" transform="translate(1199.000000, 930.000000)" fill="#545454">
            <g id="Page-1" transform="translate(130.760541, 6.000000)">
                <polygon id="Fill-1" points="53.1862991 26.1684254 62.4729896 35.40698 62.4729896 29.1195652 53.1862991 19.8803408 43.9181153 29.1195652 43.9181153 35.40698"></polygon>
                <polygon id="Fill-2" points="0 18.4317973 0 36.9313449 18.5908784 36.9313449 18.5908784 32.5086539 4.47762568 32.5086539 4.47762568 18.4317973"></polygon>
                <g id="Group-14" transform="translate(0.000000, 0.092432)">
                    <path d="M100.784062,32.416255 L92.2302393,32.416255 L92.2302393,29.7367192 L100.784062,29.7367192 C101.475206,29.7367192 102.008537,30.3445629 102.008537,31.0458437 C102.008537,31.7273655 101.475206,32.416255 100.784062,32.416255 M100.44623,22.7436698 C101.126942,22.7436698 101.705362,23.3217074 101.705362,24.0045687 C101.705362,24.7068543 101.188856,25.2805382 100.501077,25.2805382 L92.2302393,25.2805382 L92.2302393,22.7299389 M106.463281,31.0321128 C106.463281,29.6342397 105.922211,28.3676475 105.049029,27.3656263 C105.754304,26.41451 106.189718,25.271161 106.189718,24.0182996 C106.189718,20.8839694 103.385103,18.2874888 100.501077,18.2874888 L92.2817218,18.2874888 L87.7475664,18.2874888 L87.7475664,36.7501974 L92.2817218,36.7501974 L100.784062,36.7501974 C103.67751,36.7501974 106.463281,34.166443 106.463281,31.0321128" id="Fill-3"></path>
                    <path d="M137.303546,22.7298049 L150.269717,22.7298049 L150.269717,18.3151516 L137.289414,18.3151516 C134.168502,18.4039001 131.717198,20.9370846 131.717198,24.0332362 C131.717198,27.1397697 134.168502,29.6719495 137.289414,29.7503161 L137.323063,29.7697403 L144.713315,29.7697403 L144.680003,29.7653866 C145.346919,29.7653866 145.772575,30.4482479 145.772575,31.0976193 C145.772575,31.7426369 145.328749,32.416121 144.652411,32.416121 L131.717198,32.416121 L131.717198,36.7882421 L144.680003,36.7882421 C147.808991,36.6974841 150.250873,34.166309 150.250873,31.0688179 C150.250873,27.9632891 147.808991,25.4414912 144.680003,25.3370024 L137.289414,25.3370024 C136.622498,25.3370024 136.19516,24.6782538 136.19516,24.0185006 C136.19516,23.3838649 136.627209,22.7298049 137.303546,22.7298049" id="Fill-5"></path>
                    <g id="Group-13">
                        <polygon id="Fill-7" points="9.57304054 9.31156287 11.2235068 9.31156287 11.2235068 0.242467685 9.57304054 0.242467685"></polygon>
                        <path d="M15.850667,8.03107227 C14.8307765,8.03107227 14.1036292,7.18009107 14.1036292,5.97445065 C14.1036292,4.77450353 14.8307765,3.94696533 15.850667,3.94696533 C16.8796427,3.94696533 17.6027522,4.77450353 17.6027522,5.97445065 C17.6027522,7.18009107 16.8796427,8.03107227 15.850667,8.03107227 M15.850667,2.65257638 C13.8240089,2.65257638 12.4097562,4.03537897 12.4097562,5.97445065 C12.4097562,7.95638954 13.8240089,9.32546122 15.850667,9.32546122 C17.8712684,9.32546122 19.2952792,7.95638954 19.2952792,5.97445065 C19.2952792,4.03537897 17.8712684,2.65257638 15.850667,2.65257638" id="Fill-9"></path>
                        <path d="M4.44777932,5.59353525 L6.3533023,5.59353525 L6.3533023,7.67895828 C5.9199077,7.87688425 5.364705,8.0034765 4.80580095,8.0034765 C2.97161311,8.0034765 1.67849554,6.70473384 1.67849554,4.81623208 C1.67849554,2.94849412 2.95310635,1.64037427 4.76643203,1.64037427 C5.56693338,1.64037427 6.32907527,1.90394066 7.18576986,2.35069741 L7.83014149,1.19261281 C6.75473068,0.614575206 5.66081311,0.308141598 4.59415095,0.308141598 C1.88240635,0.308141598 0.000100945947,2.16784195 0.000100945947,4.81623208 C0.000100945947,7.46696651 1.91941986,9.32532726 4.69375095,9.32532726 C5.83343068,9.32532726 6.88495095,9.04802996 8.00242257,8.5677832 L8.00242257,4.39358813 L4.44777932,4.39358813 L4.44777932,5.59353525 Z" id="Fill-10"></path>
                        <path d="M23.8346838,8.00354348 C22.8181581,8.00354348 22.0990865,7.18035899 22.0990865,5.97471857 C22.0990865,4.76104054 22.8181581,3.94689835 23.8346838,3.94689835 C24.8673608,3.94689835 25.5961905,4.76104054 25.5961905,5.97471857 C25.5961905,7.18035899 24.8673608,8.00354348 23.8346838,8.00354348 L23.8346838,8.00354348 Z M20.4206919,6.19675734 C20.5054865,8.00354348 21.886427,9.33912515 23.8346838,9.33912515 C25.8663892,9.33912515 27.2840068,7.95632256 27.2840068,5.97471857 C27.2840068,4.03564689 25.8616784,2.6525094 23.8346838,2.6525094 C23.1583459,2.6525094 22.5917027,2.79852585 22.0593811,3.06142244 L22.0593811,0.242568155 L20.4206919,0.242568155 L20.4206919,6.19675734 Z" id="Fill-11"></path>
                        <path d="M29.8096407,5.42427673 C29.9344772,4.4741651 30.5711096,3.9088537 31.4341974,3.9088537 C32.2589258,3.9088537 32.8383555,4.4741651 32.8878191,5.42427673 L29.8096407,5.42427673 Z M31.4341974,2.65264336 C29.5047839,2.65264336 28.1430231,4.03544595 28.1430231,5.97451763 C28.1430231,7.95645652 29.5784745,9.3255282 31.6330609,9.3255282 C32.3851082,9.3255282 33.2835272,9.12860693 34.1806001,8.67716157 L33.6674582,7.55692068 C33.0039069,7.92865981 32.3851082,8.07032256 31.8400001,8.07032256 C30.7433907,8.07032256 29.9452447,7.41492303 29.8096407,6.37070447 L34.469642,6.37070447 C34.4884853,6.1968913 34.4928596,6.03111575 34.4928596,5.85696769 C34.4928596,3.94669741 33.2354096,2.65264336 31.4341974,2.65264336 L31.4341974,2.65264336 Z" id="Fill-12"></path>
                    </g>
                </g>
            </g>
        </g>
    </g>
</svg>