<?xml version="1.0" encoding="UTF-8"?>
<svg width="20px" height="20px" viewBox="0 0 20 20" version="1.1" xmlns="http://www.w3.org/2000/svg" xmlns:xlink="http://www.w3.org/1999/xlink">
    <!-- Generator: Sketch 49.2 (51160) - http://www.bohemiancoding.com/sketch -->
    <title>Icon / Add / Stroke</title>
    <desc>Created with Sketch.</desc>
    <defs>
        <rect id="path-1" x="0" y="0" width="24" height="24"></rect>
        <path d="M12,20.0288462 C13.4423149,20.0288462 14.7884553,19.6602601 16.0384615,18.9230769 C17.2564163,18.2179452 18.2179452,17.2564163 18.9230769,16.0384615 C19.6602601,14.7884553 20.0288462,13.4423149 20.0288462,12 C20.0288462,10.5576851 19.6602601,9.21154471 18.9230769,7.96153846 C18.2179452,6.74358365 17.2564163,5.78205481 16.0384615,5.07692308 C14.7884553,4.3397399 13.4423149,3.97115385 12,3.97115385 C10.5576851,3.97115385 9.21154471,4.3397399 7.96153846,5.07692308 C6.74358365,5.78205481 5.78205481,6.74358365 5.07692308,7.96153846 C4.3397399,9.21154471 3.97115385,10.5576851 3.97115385,12 C3.97115385,13.4423149 4.3397399,14.7884553 5.07692308,16.0384615 C5.78205481,17.2564163 6.74358365,18.2179452 7.96153846,18.9230769 C9.21154471,19.6602601 10.5576851,20.0288462 12,20.0288462 Z M12,2 C13.8269322,2 15.5176204,2.4567262 17.0721154,3.37019231 C18.5785332,4.23558125 19.7644188,5.42146683 20.6298077,6.92788462 C21.5432738,8.48237957 22,10.1730678 22,12 C22,13.8269322 21.5432738,15.5176204 20.6298077,17.0721154 C19.7644188,18.5785332 18.5785332,19.7644188 17.0721154,20.6298077 C15.5176204,21.5432738 13.8269322,22 12,22 C10.1730678,22 8.48237957,21.5432738 6.92788462,20.6298077 C5.42146683,19.748393 4.23558125,18.5544947 3.37019231,17.0480769 C2.4567262,15.493582 2,13.8109065 2,12 C2,10.1890935 2.4567262,8.50641803 3.37019231,6.95192308 C4.25160697,5.44550529 5.44550529,4.25160697 6.95192308,3.37019231 C8.50641803,2.4567262 10.1890935,2 12,2 Z M12.9855769,7.96153846 L12.9855769,11.0144231 L16.0384615,11.0144231 C16.5827806,11.0144231 17.0240385,11.4556809 17.0240385,12 L17.0240385,12 C17.0240385,12.5443191 16.5827806,12.9855769 16.0384615,12.9855769 L12.9855769,12.9855769 L12.9855769,16.0384615 C12.9855769,16.5827806 12.5443191,17.0240385 12,17.0240385 L12,17.0240385 C11.4556809,17.0240385 11.0144231,16.5827806 11.0144231,16.0384615 L11.0144231,12.9855769 L7.96153846,12.9855769 C7.41721936,12.9855769 6.97596154,12.5443191 6.97596154,12 L6.97596154,12 C6.97596154,11.4556809 7.41721936,11.0144231 7.96153846,11.0144231 L11.0144231,11.0144231 L11.0144231,7.96153846 C11.0144231,7.41721936 11.4556809,6.97596154 12,6.97596154 L12,6.97596154 C12.5443191,6.97596154 12.9855769,7.41721936 12.9855769,7.96153846 Z" id="path-3"></path>
    </defs>
    <g id="Dashboard" stroke="none" stroke-width="1" fill="none" fill-rule="evenodd">
        <g id="dashboard-/-full" transform="translate(-181.000000, -113.000000)">
            <g id="create-IVR" transform="translate(31.000000, 99.000000)">
                <g id="Icon-/-Add-/-Stroke" transform="translate(148.000000, 12.000000)">
                    <mask id="mask-2" fill="white">
                        <use xlink:href="#path-1"></use>
                    </mask>
                    <g id="Container" fill-rule="nonzero"></g>
                    <mask id="mask-4" fill="white">
                        <use xlink:href="#path-3"></use>
                    </mask>
                    <use id="Add" fill="#00A8FB" xlink:href="#path-3"></use>
                </g>
            </g>
        </g>
    </g>
</svg>