<?xml version="1.0" encoding="UTF-8"?>
<svg width="39px" height="42px" viewBox="0 0 39 42" version="1.1" xmlns="http://www.w3.org/2000/svg" xmlns:xlink="http://www.w3.org/1999/xlink">
    <!-- Generator: Sketch 48.2 (47327) - http://www.bohemiancoding.com/sketch -->
    <title>ic_billing</title>
    <desc>Created with Sketch.</desc>
    <defs></defs>
    <g id="01_create_IVR" stroke="none" stroke-width="1" fill="none" fill-rule="evenodd" transform="translate(-385.000000, -652.000000)">
        <g id="Group-9" transform="translate(204.000000, 85.000000)">
            <g id="Group-6" transform="translate(76.000000, 500.000000)">
                <g id="Group-5" transform="translate(97.000000, 64.000000)">
                    <g id="ic_billing" transform="translate(1.000000, 0.000000)">
                        <polygon id="Shape" points="0 0 51.0038314 0 51.0038314 48.6130268 0 48.6130268"></polygon>
                        <path d="M39.5810983,34.2349936 L14.0791826,34.2349936 L14.0791826,30.183908 L39.5810983,30.183908 L39.5810983,34.2349936 Z M39.5810983,26.1328225 L14.0791826,26.1328225 L14.0791826,22.0817369 L39.5810983,22.0817369 L39.5810983,26.1328225 Z M39.5810983,18.0306513 L14.0791826,18.0306513 L14.0791826,13.9795658 L39.5810983,13.9795658 L39.5810983,18.0306513 Z M7.7037037,44.3627075 L10.8914432,41.3243934 L14.0791826,44.3627075 L17.2669221,41.3243934 L20.4546616,44.3627075 L23.642401,41.3243934 L26.8301405,44.3627075 L30.0178799,41.3243934 L33.2056194,44.3627075 L36.3933589,41.3243934 L39.5810983,44.3627075 L42.7688378,41.3243934 L45.9565773,44.3627075 L45.9565773,3.85185185 L42.7688378,6.89016603 L39.5810983,3.85185185 L36.3933589,6.89016603 L33.2056194,3.85185185 L30.0178799,6.89016603 L26.8301405,3.85185185 L23.642401,6.89016603 L20.4546616,3.85185185 L17.2669221,6.89016603 L14.0791826,3.85185185 L10.8914432,6.89016603 L7.7037037,3.85185185 L7.7037037,44.3627075 Z" id="Shape" fill="#FFFFFF" fill-rule="nonzero"></path>
                    </g>
                </g>
            </g>
        </g>
    </g>
</svg>