<?xml version="1.0" encoding="UTF-8"?>
<svg width="22px" height="22px" viewBox="0 0 22 22" version="1.1" xmlns="http://www.w3.org/2000/svg" xmlns:xlink="http://www.w3.org/1999/xlink">
    <!-- Generator: Sketch 48.2 (47327) - http://www.bohemiancoding.com/sketch -->
    <title>ic_billing_white</title>
    <desc>Created with Sketch.</desc>
    <defs>
        <polygon id="path-1" points="0.000134146341 0.00810243902 21.5479268 0.00810243902 21.5479268 21.7317073 0.000134146341 21.7317073"></polygon>
    </defs>
    <g id="02_dashboard_full-copy-8" stroke="none" stroke-width="1" fill="none" fill-rule="evenodd" transform="translate(-20.000000, -622.000000)">
        <g id="side-bar">
            <g id="Side-Bar">
                <g id="Billing" transform="translate(0.000000, 602.000000)">
                    <g id="ic_billing_white" transform="translate(18.000000, 18.000000)">
                        <polygon id="Shape" points="0 0 26.4827586 0 26.4827586 25.2413793 0 25.2413793"></polygon>
                        <g id="Page-1" transform="translate(2.000000, 2.000000)">
                            <g id="Group-3" transform="translate(0.000000, 0.260163)">
                                <mask id="mask-2" fill="white">
                                    <use xlink:href="#path-1"></use>
                                </mask>
                                <g id="Clip-2"></g>
                                <path d="M17.1096951,16.0509317 L17.1091585,16.0509317 C16.8065244,16.0509317 16.518378,16.1794439 16.3160854,16.4045415 L13.9513537,19.0354195 L11.549061,16.3693951 C11.3470366,16.1445659 11.0588902,16.0165902 10.7565244,16.0165902 L10.7559878,16.0165902 C10.4533537,16.0165902 10.1652073,16.1451024 9.96291463,16.3699317 L7.59818293,19.001078 L5.19615854,16.3347854 C4.99386585,16.1102244 4.7059878,15.9819805 4.40362195,15.9819805 L4.40308537,15.9819805 C4.10045122,15.9822488 3.81230488,16.110761 3.61028049,16.3355902 L2.13386585,17.978078 L2.13386585,2.14183415 L19.4143293,2.14183415 L19.4143293,18.0819073 L17.9022317,16.4037366 C17.699939,16.1791756 17.412061,16.0509317 17.1096951,16.0509317 M20.481061,0.00810243902 L1.06686585,0.00810243902 C0.477695122,0.00810243902 0.000134146341,0.485663415 0.000134146341,1.07510244 L0.000134146341,20.4890293 C0.000134146341,20.9682 0.317792683,21.368761 0.752426829,21.5034439 C1.17418293,21.7242488 1.70620732,21.6448341 2.03915854,21.2748585 L4.40442683,18.6439805 L6.80671951,21.3100049 C6.81852439,21.3231512 6.8327439,21.3322732 6.84508537,21.3446146 C6.85957317,21.3591024 6.87084146,21.3757366 6.88613415,21.3894195 C6.90196341,21.4039073 6.92020732,21.4132976 6.93684146,21.4267122 C6.96393902,21.4481756 6.99076829,21.4685659 7.0197439,21.487078 C7.05328049,21.509078 7.08762195,21.5281268 7.12276829,21.5455659 C7.1517439,21.560322 7.18018293,21.5742732 7.21023171,21.586078 C7.24806098,21.6008341 7.28642683,21.6123707 7.32506098,21.6225659 C7.35510976,21.6303463 7.38435366,21.6386634 7.41413415,21.643761 C7.45464634,21.6510049 7.49489024,21.6539561 7.53540244,21.6563707 C7.55686585,21.6574439 7.57806098,21.6628098 7.59952439,21.6628098 C7.60918293,21.6628098 7.61884146,21.6603951 7.6285,21.6601268 C7.6577439,21.659322 7.68618293,21.6555659 7.71489024,21.6523463 C7.75218293,21.648322 7.78893902,21.643761 7.82569512,21.6359805 C7.85413415,21.6298098 7.88176829,21.6212244 7.90993902,21.612639 C7.94562195,21.601639 7.9805,21.5901024 8.01484146,21.5753463 C8.0430122,21.5635415 8.07037805,21.5495902 8.09747561,21.5351024 C8.12940244,21.5182 8.16106098,21.4999561 8.19164634,21.4790293 C8.21847561,21.461322 8.24423171,21.4420049 8.26945122,21.4213463 C8.28393902,21.4098098 8.2995,21.4009561 8.31345122,21.3886146 C8.32767073,21.3760049 8.33759756,21.3607122 8.3510122,21.3472976 C8.36442683,21.3336146 8.3799878,21.3234195 8.39286585,21.3092 L10.7573293,18.678322 L13.159622,21.3443463 C13.1714268,21.3574927 13.1859146,21.3666146 13.1982561,21.3789561 C13.2127439,21.3934439 13.2240122,21.410078 13.2390366,21.423761 C13.2551341,21.4382488 13.2731098,21.447639 13.2900122,21.4610537 C13.3168415,21.4827854 13.3444756,21.5031756 13.3729146,21.5219561 C13.4061829,21.5434195 13.4402561,21.5622 13.4748659,21.579639 C13.504378,21.5946634 13.533622,21.6088829 13.563939,21.6206878 C13.6012317,21.6351756 13.6387927,21.6461756 13.6771585,21.656639 C13.7074756,21.6646878 13.7375244,21.6730049 13.768378,21.6783707 C13.8075488,21.6853463 13.8469878,21.6880293 13.8866951,21.6907122 C13.9086951,21.6917854 13.9304268,21.6971512 13.9524268,21.6971512 C13.962622,21.6971512 13.9725488,21.6950049 13.9824756,21.6947366 C14.0106463,21.6936634 14.0385488,21.6901756 14.0667195,21.6869561 C14.1045488,21.6829317 14.1418415,21.6783707 14.1791341,21.670322 C14.2075732,21.6641512 14.2346707,21.6558341 14.2625732,21.6472488 C14.2982561,21.6362488 14.3334024,21.6244439 14.3682805,21.6096878 C14.3964512,21.5978829 14.4230122,21.5842 14.4501098,21.5699805 C14.4825732,21.5528098 14.5139634,21.5340293 14.5448171,21.5133707 C14.5716463,21.4953951 14.5971341,21.4763463 14.6223537,21.4559561 C14.6365732,21.4441512 14.6526707,21.4355659 14.666622,21.4229561 C14.6805732,21.4103463 14.6907683,21.3947854 14.7041829,21.381639 C14.7175976,21.3682244 14.7331585,21.3580293 14.7457683,21.3438098 L17.1105,18.7126634 L19.5127927,21.3789561 C19.7234024,21.612639 20.0139634,21.731761 20.3055976,21.731761 C20.5602073,21.731761 20.815622,21.641078 21.0195244,21.4575659 C21.0683537,21.4135659 21.1102073,21.3652732 21.1488415,21.3151024 C21.3905732,21.1195171 21.548061,20.8243951 21.548061,20.4890293 L21.548061,1.07510244 C21.548061,0.485663415 21.0705,0.00810243902 20.481061,0.00810243902" id="Fill-1" fill="#FFFFFF" mask="url(#mask-2)"></path>
                            </g>
                            <path d="M16.1748561,4.84340732 L5.45441707,4.84340732 C4.86524634,4.84340732 4.38741707,5.32096829 4.38741707,5.91040732 C4.38741707,6.49957805 4.86524634,6.97713902 5.45441707,6.97713902 L16.1748561,6.97713902 C16.7640268,6.97713902 17.2418561,6.49957805 17.2418561,5.91040732 C17.2418561,5.32096829 16.7640268,4.84340732 16.1748561,4.84340732" id="Fill-4" fill="#FFFFFF"></path>
                            <path d="M16.1748561,8.7305122 L5.45441707,8.7305122 C4.86524634,8.7305122 4.38741707,9.20807317 4.38741707,9.7975122 C4.38741707,10.3866829 4.86524634,10.8642439 5.45441707,10.8642439 L16.1748561,10.8642439 C16.7640268,10.8642439 17.2418561,10.3866829 17.2418561,9.7975122 C17.2418561,9.20807317 16.7640268,8.7305122 16.1748561,8.7305122" id="Fill-6" fill="#FFFFFF"></path>
                            <path d="M12.0951707,12.4863415 L5.45439024,12.4863415 C4.86521951,12.4863415 4.38739024,12.9639024 4.38739024,13.5533415 C4.38739024,14.1425122 4.86521951,14.6200732 5.45439024,14.6200732 L12.0951707,14.6200732 C12.6843415,14.6200732 13.1621707,14.1425122 13.1621707,13.5533415 C13.1621707,12.9639024 12.6843415,12.4863415 12.0951707,12.4863415" id="Fill-8" fill="#FFFFFF"></path>
                        </g>
                    </g>
                </g>
            </g>
        </g>
    </g>
</svg>