<?xml version="1.0" encoding="UTF-8"?>
<svg width="19px" height="24px" viewBox="0 0 19 24" version="1.1" xmlns="http://www.w3.org/2000/svg" xmlns:xlink="http://www.w3.org/1999/xlink">
    <!-- Generator: Sketch 48.2 (47327) - http://www.bohemiancoding.com/sketch -->
    <title>ic_ivr</title>
    <desc>Created with Sketch.</desc>
    <defs></defs>
    <g id="02_dashboard_full-copy-8" stroke="none" stroke-width="1" fill="none" fill-rule="evenodd" transform="translate(-52.000000, -112.000000)">
        <g id="side-bar">
            <g id="Side-Bar">
                <g id="btn_create_IVR" transform="translate(31.000000, 99.000000)">
                    <g id="ic_ivr" transform="translate(19.000000, 13.000000)">
                        <polygon id="Shape" points="0 0 24 0 24 24 0 24"></polygon>
                        <g id="Page-1" transform="translate(2.000000, 0.000000)">
                            <g id="Group-7" transform="translate(10.666667, 8.888410)"></g>
                            <path d="M17.9745436,3.69794872 C17.5743385,3.29753846 16.9244923,3.29753846 16.5242872,3.69794872 L9.59731282,10.6249231 L2.67054359,3.69794872 C2.27013333,3.29753846 1.62049231,3.29753846 1.22008205,3.69794872 C0.819466667,4.0985641 0.819466667,4.748 1.22008205,5.14841026 L8.87218462,12.8005128 C9.07238974,13.0007179 9.33495385,13.1008205 9.59731282,13.1008205 C9.85967179,13.1008205 10.122441,13.0007179 10.322441,12.8005128 L17.9745436,5.14841026 C18.375159,4.748 18.375159,4.0985641 17.9745436,3.69794872" id="Fill-1" fill="#00BDFF"></path>
                            <path d="M8.45661538,15.9205949 C8.45046154,15.8898256 8.43897436,15.8611077 8.43015385,15.8313641 C8.42010256,15.7971077 8.41230769,15.762441 8.3985641,15.7292103 C8.38379487,15.6937231 8.36369231,15.6613128 8.34523077,15.6278769 C8.33148718,15.6028513 8.32041026,15.5768 8.30441026,15.5528 C8.26687179,15.4961846 8.224,15.4436718 8.17620513,15.3956718 L1.75076923,8.9702359 C1.3505641,8.56982564 0.700923077,8.56982564 0.300307692,8.9702359 C-0.100102564,9.37085128 -0.100102564,10.0202872 0.300307692,10.4206974 L6.42523077,16.5456205 L6.42153846,22.8364923 C6.42112821,23.4030564 6.88,23.8625436 7.4465641,23.8627487 L7.44717949,23.8627487 C8.01312821,23.8627487 8.47241026,23.4038769 8.47282051,22.8377231 L8.47671795,16.1216205 L8.47671795,16.1214154 C8.47671795,16.0541333 8.46974359,15.9868513 8.45661538,15.9205949" id="Fill-3" fill="#009EFB"></path>
                            <path d="M18.6350154,9.25323077 C18.2348103,8.85282051 17.5849641,8.85282051 17.184759,9.25323077 L11.0817846,15.3562051 C11.0815795,15.3564103 11.0815795,15.3564103 11.0815795,15.3564103 C11.0339897,15.4042051 10.9913231,15.4567179 10.9537846,15.5129231 C10.936759,15.538359 10.9252718,15.5658462 10.9107077,15.5923077 C10.8930667,15.6245128 10.8737846,15.6552821 10.8596308,15.6895385 C10.8452718,15.7237949 10.8370667,15.7596923 10.8270154,15.7951795 C10.8186051,15.8238974 10.8073231,15.8513846 10.8013744,15.8811282 C10.7882462,15.9473846 10.7812718,16.0144615 10.7812718,16.0819487 C10.7812718,16.0821538 10.7812718,16.0821538 10.7812718,16.082359 L10.7868103,22.8380513 C10.7872205,23.4042051 11.2462974,23.8628718 11.8124513,23.8628718 L11.8132718,23.8628718 C12.3798359,23.8622564 12.8385026,23.4027692 12.8380923,22.8364103 L12.8329641,16.5059487 L18.6350154,10.7036923 C19.0356308,10.3032821 19.0356308,9.65384615 18.6350154,9.25323077" id="Fill-5" fill="#009EFB"></path>
                            <path d="M9.60916923,7.16328205 C10.1757333,7.16328205 10.6348103,6.704 10.6348103,6.13764103 L10.6348103,1.02584615 C10.6348103,0.459282051 10.1757333,0.000205128205 9.60916923,0.000205128205 C9.04260513,0.000205128205 8.58352821,0.459282051 8.58352821,1.02584615 L8.58352821,6.13764103 C8.58352821,6.704 9.04260513,7.16328205 9.60916923,7.16328205" id="Fill-8" fill="#5ACFFF"></path>
                        </g>
                    </g>
                </g>
            </g>
        </g>
    </g>
</svg>