<?xml version="1.0" encoding="UTF-8"?>
<svg width="15px" height="15px" viewBox="0 0 15 15" version="1.1" xmlns="http://www.w3.org/2000/svg" xmlns:xlink="http://www.w3.org/1999/xlink">
    <!-- Generator: Sketch 48.2 (47327) - http://www.bohemiancoding.com/sketch -->
    <title>ic_calendar</title>
    <desc>Created with Sketch.</desc>
    <defs>
        <rect id="path-1" x="0" y="0" width="17" height="17"></rect>
        <path d="M3.11666667,4.73333333 L3.11666667,13.6833333 C3.11666667,13.7937903 3.20620972,13.8833333 3.31666667,13.8833333 L13.6833333,13.8833333 C13.7937903,13.8833333 13.8833333,13.7937903 13.8833333,13.6833333 L13.8833333,4.73333333 C13.8833333,4.62287638 13.7937903,4.53333333 13.6833333,4.53333333 L3.31666667,4.53333333 C3.20620972,4.53333333 3.11666667,4.62287638 3.11666667,4.73333333 Z M13.4583333,2.83333333 L14.875,2.83333333 C15.2662017,2.83333333 15.5833333,3.15046497 15.5833333,3.54166667 L15.5833333,14.875 C15.5833333,15.2662017 15.2662017,15.5833333 14.875,15.5833333 L2.125,15.5833333 C1.7337983,15.5833333 1.41666667,15.2662017 1.41666667,14.875 L1.41666667,3.54166667 C1.41666667,3.15046497 1.7337983,2.83333333 2.125,2.83333333 L3.54166667,2.83333333 L3.54166667,1.91666667 C3.54166667,1.64052429 3.76552429,1.41666667 4.04166667,1.41666667 L5.16666667,1.41666667 C5.44280904,1.41666667 5.66666667,1.64052429 5.66666667,1.91666667 L5.66666667,2.83333333 L11.3333333,2.83333333 L11.3333333,1.91666667 C11.3333333,1.64052429 11.557191,1.41666667 11.8333333,1.41666667 L12.9583333,1.41666667 C13.2344757,1.41666667 13.4583333,1.64052429 13.4583333,1.91666667 L13.4583333,2.83333333 Z M4.95833333,6.375 L4.95833333,7.79166667 L6.375,7.79166667 L6.375,6.375 L4.95833333,6.375 Z M7.79166667,6.375 L7.79166667,7.79166667 L9.20833333,7.79166667 L9.20833333,6.375 L7.79166667,6.375 Z M10.625,6.375 L10.625,7.79166667 L12.0416667,7.79166667 L12.0416667,6.375 L10.625,6.375 Z M4.95833333,9.20833333 L4.95833333,10.625 L6.375,10.625 L6.375,9.20833333 L4.95833333,9.20833333 Z M7.79166667,9.20833333 L7.79166667,10.625 L9.20833333,10.625 L9.20833333,9.20833333 L7.79166667,9.20833333 Z M10.625,9.20833333 L10.625,10.625 L12.0416667,10.625 L12.0416667,9.20833333 L10.625,9.20833333 Z" id="path-3"></path>
    </defs>
    <g id="02_dashboard_full-copy-13" stroke="none" stroke-width="1" fill="none" fill-rule="evenodd" transform="translate(-1303.000000, -273.000000)">
        <g id="Group-52" transform="translate(326.000000, 239.000000)">
            <g id="Group-5-Copy-2" transform="translate(748.000000, 22.000000)">
                <g id="Icon-/-Calendar" transform="translate(228.000000, 11.000000)">
                    <mask id="mask-2" fill="white">
                        <use xlink:href="#path-1"></use>
                    </mask>
                    <g id="Container" fill-rule="nonzero"></g>
                    <mask id="mask-4" fill="white">
                        <use xlink:href="#path-3"></use>
                    </mask>
                    <g id="Calendar" fill-rule="nonzero"></g>
                    <g id="Style-/-Color-/-Grey" mask="url(#mask-4)" fill="#778F9B" fill-rule="evenodd">
                        <rect id="Container" x="0" y="0" width="17" height="17"></rect>
                    </g>
                </g>
            </g>
        </g>
    </g>
</svg>