<?xml version="1.0" encoding="UTF-8"?>
<svg width="22px" height="34px" viewBox="0 0 22 34" version="1.1" xmlns="http://www.w3.org/2000/svg" xmlns:xlink="http://www.w3.org/1999/xlink">
    <!-- Generator: Sketch 48.2 (47327) - http://www.bohemiancoding.com/sketch -->
    <title>ic_call_credits</title>
    <desc>Created with Sketch.</desc>
    <defs></defs>
    <g id="02_dashboard_full-copy-13" stroke="none" stroke-width="1" fill="none" fill-rule="evenodd" transform="translate(-663.000000, -126.000000)">
        <g id="Group-10" transform="translate(645.000000, 114.000000)">
            <g id="ic_call_credits-copy">
                <g id="ic_call_credits" transform="translate(18.346939, 11.836735)">
                    <path d="M10.6074083,29.3463308 C9.79123038,29.3463308 9.12944055,28.6849834 9.12944055,27.868363 L9.12944055,21.7476918 C9.12944055,20.9315139 9.79123038,20.269724 10.6074083,20.269724 C11.4240287,20.269724 12.0853761,20.9315139 12.0853761,21.7476918 L12.0853761,27.868363 C12.0853761,28.6849834 11.4240287,29.3463308 10.6074083,29.3463308" id="Fill-4" fill="#2995FF"></path>
                    <path d="M10.6074083,23.2252615 C4.91628122,23.2252615 0.285964275,18.5953869 0.285964275,12.9042598 C0.285964275,12.0876395 0.947754106,11.426292 1.76393207,11.426292 C2.58011004,11.426292 3.24189987,12.0876395 3.24189987,12.9042598 C3.24189987,16.9656852 6.54598292,20.2697683 10.6074083,20.2697683 C14.6688338,20.2697683 17.9729168,16.9656852 17.9729168,12.9042598 C17.9729168,12.0876395 18.6347066,11.426292 19.4508846,11.426292 C20.267505,11.426292 20.9288524,12.0876395 20.9288524,12.9042598 C20.9288524,18.5953869 16.2985355,23.2252615 10.6074083,23.2252615" id="Fill-6" fill="#2995FF"></path>
                    <path d="M10.6074083,17.3141423 C8.17170326,17.3141423 6.19739309,15.3398322 6.19739309,12.9041271 L6.19739309,4.81533896 C6.19739309,2.38007624 8.17170326,0.405323701 10.6074083,0.405323701 C13.0431134,0.405323701 15.017866,2.38007624 15.017866,4.81533896 L15.017866,12.9041271 C15.017866,15.3398322 13.0431134,17.3141423 10.6074083,17.3141423" id="Fill-8" fill="#0674F0"></path>
                    <path d="M10.6074083,33.995139 C9.79919309,33.995139 9.14359648,33.3404271 9.14359648,32.5313271 C9.14359648,31.7231118 9.79919309,31.0679576 10.6074083,31.0679576 C11.416066,31.0679576 12.0712202,31.7231118 12.0712202,32.5313271 C12.0712202,33.3404271 11.416066,33.995139 10.6074083,33.995139" id="Fill-10" fill="#00BDFF"></path>
                    <path d="M14.7209895,33.995139 C13.9127743,33.995139 13.2571777,33.3404271 13.2571777,32.5313271 C13.2571777,31.7231118 13.9127743,31.0679576 14.7209895,31.0679576 C15.5292048,31.0679576 16.1848014,31.7231118 16.1848014,32.5313271 C16.1848014,33.3404271 15.5292048,33.995139 14.7209895,33.995139" id="Fill-12" fill="#00BDFF"></path>
                    <path d="M6.1975258,33.995139 C5.38931055,33.995139 4.73371394,33.3404271 4.73371394,32.5313271 C4.73371394,31.7231118 5.38931055,31.0679576 6.1975258,31.0679576 C7.00574105,31.0679576 7.66133767,31.7231118 7.66133767,32.5313271 C7.66133767,33.3404271 7.00574105,33.995139 6.1975258,33.995139" id="Fill-14" fill="#00BDFF"></path>
                </g>
            </g>
        </g>
    </g>
</svg>