<?xml version="1.0" encoding="UTF-8"?>
<svg width="34px" height="28px" viewBox="0 0 34 28" version="1.1" xmlns="http://www.w3.org/2000/svg" xmlns:xlink="http://www.w3.org/1999/xlink">
    <!-- Generator: Sketch 48.2 (47327) - http://www.bohemiancoding.com/sketch -->
    <title>ic_campaign_page</title>
    <desc>Created with Sketch.</desc>
    <defs>
        <polygon id="path-1" points="0 0.131142857 16.9471786 0.131142857 16.9471786 19.0471036 0 19.0471036"></polygon>
        <polygon id="path-3" points="0.554078571 0.428278571 17.5008929 0.428278571 17.5008929 19.4284793 0.554078571 19.4284793"></polygon>
        <polygon id="path-5" points="0.000121428571 0.131142857 33.89375 0.131142857 33.89375 27.3213548 0.000121428571 27.3213548"></polygon>
    </defs>
    <g id="campaign-Empty" stroke="none" stroke-width="1" fill="none" fill-rule="evenodd" transform="translate(-380.000000, -214.000000)">
        <g id="ic_campaign_page" transform="translate(380.000000, 214.000000)">
            <g id="Group-3">
                <mask id="mask-2" fill="white">
                    <use xlink:href="#path-1"></use>
                </mask>
                <g id="Clip-2"></g>
                <path d="M0,19.0471036 C3.74425,19.0471036 6.52375,18.0902464 8.49635714,16.1224964 L16.9471786,7.68988929 L14.3225,5.07128214 C11.9528214,2.70706786 8.93653571,1.08113929 5.43271429,0.249960714 C2.65382143,-0.409396429 0,1.75810357 0,4.61471071 L0,8.32131786 L0,19.0471036 Z" id="Fill-1" fill="#0674F0" mask="url(#mask-2)"></path>
            </g>
            <g id="Group-6" transform="translate(16.000000, 8.000000)">
                <mask id="mask-4" fill="white">
                    <use xlink:href="#path-3"></use>
                </mask>
                <g id="Clip-5"></g>
                <path d="M0.554078571,12.1109214 L2.84786429,14.39985 C5.34443571,16.8909571 8.44875714,18.5387429 12.1171143,19.3280286 C14.8887214,19.92485 17.5012571,17.7852786 17.5012571,14.9505286 L17.5012571,11.1540643 L17.5012571,0.428278571 C14.9925429,0.471992857 11.6550786,1.03420714 9.33518571,3.34863571 L0.554078571,12.1109214 Z" id="Fill-4" fill="#0674F0" mask="url(#mask-4)"></path>
            </g>
            <g id="Group-9">
                <mask id="mask-6" fill="white">
                    <use xlink:href="#path-5"></use>
                </mask>
                <g id="Clip-8"></g>
                <path d="M33.8938714,4.61471071 C33.8938714,1.75810357 31.24005,-0.409396429 28.4611571,0.249960714 C24.9573357,1.08113929 21.94105,2.70706786 19.5713714,5.07128214 L8.49587143,16.1224964 C6.52387143,18.0902464 3.74437143,19.0471036 0.000121428571,19.0471036 L0.000121428571,22.8429607 C0.000121428571,25.6783179 2.61205,27.8172821 5.38365714,27.2210679 C9.05201429,26.4317821 12.1563357,24.7833893 14.6529071,22.2928893 L25.7278,11.241675 C28.0476929,8.92724643 31.3857643,8.36503214 33.8938714,8.32131786 L33.8938714,4.61471071 Z" id="Fill-7" fill="#00BDFF" mask="url(#mask-6)"></path>
            </g>
        </g>
    </g>
</svg>