<?xml version="1.0" encoding="UTF-8"?>
<svg width="20px" height="20px" viewBox="0 0 20 20" version="1.1" xmlns="http://www.w3.org/2000/svg" xmlns:xlink="http://www.w3.org/1999/xlink">
    <!-- Generator: Sketch 49.2 (51160) - http://www.bohemiancoding.com/sketch -->
    <title>ic_calendar</title>
    <desc>Created with Sketch.</desc>
    <defs>
        <rect id="path-1" x="0" y="0" width="22" height="22"></rect>
        <path d="M4.03333333,6.06666667 L4.03333333,17.7666667 C4.03333333,17.8771236 4.12287638,17.9666667 4.23333333,17.9666667 L17.7666667,17.9666667 C17.8771236,17.9666667 17.9666667,17.8771236 17.9666667,17.7666667 L17.9666667,6.06666667 C17.9666667,5.95620972 17.8771236,5.86666667 17.7666667,5.86666667 L4.23333333,5.86666667 C4.12287638,5.86666667 4.03333333,5.95620972 4.03333333,6.06666667 Z M17.4166667,3.66666667 L19.25,3.66666667 C19.756261,3.66666667 20.1666667,4.07707231 20.1666667,4.58333333 L20.1666667,19.25 C20.1666667,19.756261 19.756261,20.1666667 19.25,20.1666667 L2.75,20.1666667 C2.24373898,20.1666667 1.83333333,19.756261 1.83333333,19.25 L1.83333333,4.58333333 C1.83333333,4.07707231 2.24373898,3.66666667 2.75,3.66666667 L4.58333333,3.66666667 L4.58333333,2.33333333 C4.58333333,2.05719096 4.80719096,1.83333333 5.08333333,1.83333333 L6.83333333,1.83333333 C7.10947571,1.83333333 7.33333333,2.05719096 7.33333333,2.33333333 L7.33333333,3.66666667 L14.6666667,3.66666667 L14.6666667,2.33333333 C14.6666667,2.05719096 14.8905243,1.83333333 15.1666667,1.83333333 L16.9166667,1.83333333 C17.192809,1.83333333 17.4166667,2.05719096 17.4166667,2.33333333 L17.4166667,3.66666667 Z M6.41666667,8.25 L6.41666667,10.0833333 L8.25,10.0833333 L8.25,8.25 L6.41666667,8.25 Z M10.0833333,8.25 L10.0833333,10.0833333 L11.9166667,10.0833333 L11.9166667,8.25 L10.0833333,8.25 Z M13.75,8.25 L13.75,10.0833333 L15.5833333,10.0833333 L15.5833333,8.25 L13.75,8.25 Z M6.41666667,11.9166667 L6.41666667,13.75 L8.25,13.75 L8.25,11.9166667 L6.41666667,11.9166667 Z M10.0833333,11.9166667 L10.0833333,13.75 L11.9166667,13.75 L11.9166667,11.9166667 L10.0833333,11.9166667 Z M13.75,11.9166667 L13.75,13.75 L15.5833333,13.75 L15.5833333,11.9166667 L13.75,11.9166667 Z" id="path-3"></path>
    </defs>
    <g id="Reports-(Table)" stroke="none" stroke-width="1" fill="none" fill-rule="evenodd">
        <g id="Reports_call_summary" transform="translate(-1487.000000, -120.000000)">
            <g id="Group-9" transform="translate(1244.000000, 106.000000)">
                <g id="Icon-/-Calendar" transform="translate(242.000000, 13.111111)">
                    <mask id="mask-2" fill="white">
                        <use xlink:href="#path-1"></use>
                    </mask>
                    <g id="Container" fill-rule="nonzero"></g>
                    <mask id="mask-4" fill="white">
                        <use xlink:href="#path-3"></use>
                    </mask>
                    <g id="Calendar" fill-rule="nonzero"></g>
                    <g id="Style-/-Color-/-Light-Grey" mask="url(#mask-4)" fill="#B8C1CB" fill-rule="evenodd">
                        <rect id="Container" x="0" y="0" width="22" height="22"></rect>
                    </g>
                </g>
            </g>
        </g>
    </g>
</svg>