<?xml version="1.0" encoding="UTF-8"?>
<svg width="22px" height="18px" viewBox="0 0 22 18" version="1.1" xmlns="http://www.w3.org/2000/svg" xmlns:xlink="http://www.w3.org/1999/xlink">
    <!-- Generator: Sketch 48.2 (47327) - http://www.bohemiancoding.com/sketch -->
    <title>ic_campaign_white</title>
    <desc>Created with Sketch.</desc>
    <defs>
        <polygon id="path-1" points="0.000142857143 5.85134483e-05 21.7814286 5.85134483e-05 21.7814286 17.9230857 0.000142857143 17.9230857"></polygon>
    </defs>
    <g id="02_dashboard_full-copy-8" stroke="none" stroke-width="1" fill="none" fill-rule="evenodd" transform="translate(-20.000000, -380.000000)">
        <g id="side-bar">
            <g id="Side-Bar">
                <g id="Campaigns" transform="translate(0.000000, 358.000000)">
                    <g id="ic_campaign_white" transform="translate(18.000000, 18.000000)">
                        <polygon id="Shape" points="0 0 26 0 26 25 0 25"></polygon>
                        <g id="Page-1" transform="translate(2.000000, 4.000000)">
                            <mask id="mask-2" fill="white">
                                <use xlink:href="#path-1"></use>
                            </mask>
                            <g id="Clip-2"></g>
                            <path d="M18.9712857,15.3333714 C18.6355714,15.6045143 18.2032857,15.7085143 17.7858571,15.6185143 C15.8941429,15.2113714 14.2884286,14.3602286 13.0135714,13.0882286 L12.4995714,12.5750857 L16.7478571,8.33594286 C16.8327143,8.25108571 16.9221429,8.17308571 17.0135714,8.09822857 C17.0392857,8.07737143 17.0652857,8.05737143 17.0912857,8.03708571 C17.1661429,7.97937143 17.2421429,7.92451429 17.3204286,7.87251429 C17.3412857,7.85851429 17.3618571,7.84365714 17.383,7.83022857 C17.4801429,7.76822857 17.5795714,7.71051429 17.6807143,7.6568 C17.705,7.64422857 17.7295714,7.63251429 17.7538571,7.62022857 C17.8355714,7.57908571 17.9181429,7.53994286 18.0018571,7.50365714 C18.0315714,7.4908 18.0607143,7.47794286 18.0904286,7.46565714 C18.1955714,7.42222857 18.3015714,7.38137143 18.4087143,7.34508571 C18.4161429,7.3428 18.423,7.3408 18.4301429,7.33851429 C18.5321429,7.30422857 18.6344286,7.27394286 18.7372857,7.24594286 C18.7687143,7.23737143 18.8001429,7.22908571 18.8321429,7.2208 C18.9198571,7.19822857 19.0075714,7.17765714 19.0955714,7.1588 C19.1184286,7.15394286 19.1412857,7.14822857 19.1638571,7.14365714 C19.2712857,7.12194286 19.3781429,7.1028 19.4841429,7.08622857 C19.4924286,7.08508571 19.501,7.08394286 19.5092857,7.0828 L19.5092857,14.2093714 C19.5092857,14.6476571 19.313,15.0573714 18.9712857,15.3333714 M3.99585714,15.6185143 C3.57814286,15.7085143 3.14585714,15.6045143 2.81042857,15.3333714 C2.46842857,15.0573714 2.27242857,14.6476571 2.27242857,14.2093714 L2.27242857,13.1102286 C2.29271429,13.1082286 2.31128571,13.1048 2.33157143,13.1025143 C2.53785714,13.0825143 2.73985714,13.0573714 2.93671429,13.0259429 C2.96985714,13.0208 3.00242857,13.0142286 3.03557143,13.0088 C3.22528571,12.9762286 3.41128571,12.9396571 3.59214286,12.8968 C3.60957143,12.8925143 3.62785714,12.8890857 3.64528571,12.8848 C3.83357143,12.8390857 4.01528571,12.7859429 4.19357143,12.7285143 C4.22957143,12.7170857 4.26585714,12.7053714 4.30157143,12.6933714 C4.47471429,12.6348 4.64385714,12.5710857 4.80757143,12.5013714 C4.83728571,12.4885143 4.86642857,12.4750857 4.89585714,12.4619429 C5.05842857,12.3902286 5.217,12.3139429 5.37042857,12.2308 C5.37928571,12.2262286 5.38785714,12.2222286 5.39614286,12.2176571 C5.55385714,12.1313714 5.70557143,12.0373714 5.85385714,11.9390857 C5.88214286,11.9202286 5.91071429,11.9016571 5.939,11.8825143 C6.08128571,11.7848 6.21957143,11.6816571 6.35328571,11.5722286 C6.37871429,11.5519429 6.40328571,11.5305143 6.42814286,11.5093714 C6.56557143,11.3933714 6.70042857,11.2733714 6.829,11.1450857 L11.6932857,6.29137143 C11.6932857,6.29137143 11.6935714,6.29108571 11.6938571,6.2908 L13.2035714,4.78422857 C14.4152857,3.57594286 15.955,2.74337143 17.7804286,2.31022857 C18.3404286,2.17737143 18.7575714,2.41965714 18.9555714,2.57651429 C19.3075714,2.85451429 19.5092857,3.27022857 19.5092857,3.71708571 L19.5092857,4.7888 C19.387,4.80308571 19.2701429,4.8248 19.151,4.84337143 C19.0741429,4.85537143 18.9958571,4.8648 18.9204286,4.87851429 C18.4381429,4.96537143 17.981,5.08651429 17.5512857,5.2408 C17.4832857,5.26508571 17.4181429,5.29337143 17.3515714,5.31965714 C17.207,5.37622857 17.0644286,5.43537143 16.9267143,5.49965714 C16.8527143,5.53422857 16.7807143,5.5708 16.7087143,5.60765714 C16.5821429,5.67222857 16.4584286,5.74051429 16.3378571,5.81194286 C16.2695714,5.85251429 16.2012857,5.89308571 16.1344286,5.93622857 C16.0112857,6.01565714 15.893,6.10051429 15.7767143,6.18765714 C15.7224286,6.22822857 15.6661429,6.26708571 15.6135714,6.30937143 C15.4492857,6.44137143 15.291,6.57965714 15.143,6.72737143 L8.76785714,13.0882286 C7.49271429,14.3602286 5.88728571,15.2113714 3.99585714,15.6185143 M2.82585714,2.57651429 C2.98385714,2.45165714 3.28042857,2.27194286 3.679,2.27194286 C3.77985714,2.27194286 3.88757143,2.28337143 4.001,2.31022857 C5.82671429,2.74365714 7.36671429,3.57594286 8.57785714,4.78422857 L9.28214286,5.48708571 L5.22385714,9.53651429 C5.12042857,9.63965714 5.01014286,9.73508571 4.89557143,9.82622857 C4.85985714,9.85451429 4.82242857,9.88108571 4.78557143,9.90822857 C4.70242857,9.96994286 4.61642857,10.0290857 4.52757143,10.0848 C4.48471429,10.1119429 4.44157143,10.1385143 4.397,10.1639429 C4.30014286,10.2202286 4.19957143,10.2722286 4.09614286,10.3216571 C4.05985714,10.3390857 4.025,10.3579429 3.98814286,10.3745143 C3.84728571,10.4370857 3.70157143,10.4942286 3.549,10.5453714 C3.51328571,10.5573714 3.475,10.5668 3.43842857,10.5782286 C3.31785714,10.6159429 3.19442857,10.6505143 3.067,10.6810857 C3.01071429,10.6948 2.95271429,10.7068 2.89471429,10.7190857 C2.777,10.7439429 2.65642857,10.7656571 2.53328571,10.7848 C2.47442857,10.7939429 2.41614286,10.8036571 2.35585714,10.8116571 C2.329,10.8153714 2.29957143,10.8168 2.27242857,10.8202286 L2.27242857,3.71708571 C2.27242857,3.27022857 2.47414286,2.85451429 2.82585714,2.57651429 M20.365,0.793657143 C19.4792857,0.0939428571 18.3467143,-0.159771429 17.2558571,0.0993714286 C15.0152857,0.6308 13.1121429,1.66594286 11.5987143,3.17565714 L10.891,3.88194286 L10.1827143,3.17565714 C8.66985714,1.66594286 6.76642857,0.631085714 4.52557143,0.0993714286 C3.43442857,-0.159771429 2.30214286,0.0939428571 1.41671429,0.793657143 C0.516428571,1.50537143 0.000142857143,2.57108571 0.000142857143,3.71708571 L0.000142857143,12.0242286 L0.000142857143,14.2093714 C0.000142857143,15.3376571 0.503857143,16.3916571 1.38214286,17.1010857 C2.04814286,17.6388 2.86214286,17.9230857 3.69585714,17.9230857 C3.95442857,17.9230857 4.21528571,17.8956571 4.47414286,17.8399429 C6.799,17.3396571 8.78385714,16.2822286 10.3727143,14.6968 L10.8907143,14.1799429 L11.4087143,14.6968 C12.9978571,16.2822286 14.9824286,17.3396571 17.3075714,17.8399429 C17.5664286,17.8956571 17.8267143,17.9230857 18.0855714,17.9230857 C18.9192857,17.9230857 19.7335714,17.6388 20.3992857,17.1010857 C21.2775714,16.3916571 21.7815714,15.3376571 21.7815714,14.2093714 L21.7815714,5.8508 L21.7815714,3.71708571 C21.7815714,2.57108571 21.2652857,1.50537143 20.365,0.793657143" id="Fill-1" fill="#FFFFFF" mask="url(#mask-2)"></path>
                        </g>
                    </g>
                </g>
            </g>
        </g>
    </g>
</svg>