<?xml version="1.0" encoding="UTF-8"?>
<svg width="21px" height="22px" viewBox="0 0 21 22" version="1.1" xmlns="http://www.w3.org/2000/svg" xmlns:xlink="http://www.w3.org/1999/xlink">
    <!-- Generator: Sketch 48.2 (47327) - http://www.bohemiancoding.com/sketch -->
    <title>ic_dashboard_white</title>
    <desc>Created with Sketch.</desc>
    <defs></defs>
    <g id="02_dashboard_full-copy-8" stroke="none" stroke-width="1" fill="none" fill-rule="evenodd" transform="translate(-21.000000, -256.000000)">
        <g id="side-bar">
            <g id="Side-Bar">
                <g id="Dashboard" transform="translate(0.000000, 236.000000)">
                    <g id="ic_dashboard_white" transform="translate(18.000000, 18.000000)">
                        <polygon id="Shape" points="0 0 26.4827586 0 26.4827586 25.2413793 0 25.2413793"></polygon>
                        <g id="Page-1" transform="translate(3.000000, 2.000000)" fill="#FFFFFF">
                            <path d="M2.05281402,10.0568786 L7.32436195,10.0568786 L7.32436195,2.05289145 L2.05281402,2.05289145 L2.05281402,10.0568786 Z M8.35089802,7.7435459e-05 L1.02653607,7.7435459e-05 C0.45945039,7.7435459e-05 0,0.459527826 0,1.02635539 L0,11.0834147 C0,11.6502422 0.45945039,12.1096926 1.02653607,12.1096926 L8.35089802,12.1096926 C8.91772558,12.1096926 9.37717597,11.6502422 9.37717597,11.0834147 L9.37717597,1.02635539 C9.37717597,0.459527826 8.91772558,7.7435459e-05 8.35089802,7.7435459e-05 Z" id="Fill-1"></path>
                            <path d="M2.05281402,19.2549206 L7.32436195,19.2549206 L7.32436195,15.83821 L2.05281402,15.83821 L2.05281402,19.2549206 Z M8.35089802,13.7851378 L1.02653607,13.7851378 C0.45945039,13.7851378 0,14.2448464 0,14.8116739 L0,20.2811985 C0,20.8482842 0.45945039,21.3077346 1.02653607,21.3077346 L8.35089802,21.3077346 C8.91772558,21.3077346 9.37717597,20.8482842 9.37717597,20.2811985 L9.37717597,14.8116739 C9.37717597,14.2448464 8.91772558,13.7851378 8.35089802,13.7851378 Z" id="Fill-3"></path>
                            <path d="M13.1343444,19.2549206 L18.4058924,19.2549206 L18.4058924,11.2509334 L13.1343444,11.2509334 L13.1343444,19.2549206 Z M19.4321703,9.19811937 L12.1078084,9.19811937 C11.5409808,9.19811937 11.0815304,9.65756976 11.0815304,10.2246554 L11.0815304,20.2811985 C11.0815304,20.8482842 11.5409808,21.3077346 12.1078084,21.3077346 L19.4321703,21.3077346 C19.9989979,21.3077346 20.4587064,20.8482842 20.4587064,20.2811985 L20.4587064,10.2246554 C20.4587064,9.65756976 19.9989979,9.19811937 19.4321703,9.19811937 Z" id="Fill-4"></path>
                            <path d="M13.1343444,5.46960202 L18.4058924,5.46960202 L18.4058924,2.05289145 L13.1343444,2.05289145 L13.1343444,5.46960202 Z M19.4321703,7.7435459e-05 L12.1078084,7.7435459e-05 C11.5409808,7.7435459e-05 11.0815304,0.459527826 11.0815304,1.02635539 L11.0815304,6.49613809 C11.0815304,7.06296565 11.5409808,7.52241604 12.1078084,7.52241604 L19.4321703,7.52241604 C19.9989979,7.52241604 20.4587064,7.06296565 20.4587064,6.49613809 L20.4587064,1.02635539 C20.4587064,0.459527826 19.9989979,7.7435459e-05 19.4321703,7.7435459e-05 Z" id="Fill-5"></path>
                        </g>
                    </g>
                </g>
            </g>
        </g>
    </g>
</svg>