<?xml version="1.0" encoding="UTF-8"?>
<svg width="798px" height="306px" viewBox="0 0 798 306" version="1.1" xmlns="http://www.w3.org/2000/svg" xmlns:xlink="http://www.w3.org/1999/xlink">
    <!-- Generator: sketchtool 48.2 (47327) - http://www.bohemiancoding.com/sketch -->
    <title>3C34C85E-3D03-4AEF-9D97-4E69BB216A3D</title>
    <desc>Created with sketchtool.</desc>
    <defs>
        <polygon id="path-1" points="0 0 537 0 537 243 0 243"></polygon>
        <linearGradient x1="50%" y1="-14.1845531%" x2="50%" y2="100%" id="linearGradient-3">
            <stop stop-color="#00A9FA" offset="0%"></stop>
            <stop stop-color="#76EFFB" offset="53.8172829%"></stop>
            <stop stop-color="#F1FAFF" offset="100%"></stop>
        </linearGradient>
        <polygon id="path-4" points="0 0 99 0 99 33 0 33"></polygon>
        <polygon id="path-6" points="0 0 80 0 80 27 0 27"></polygon>
        <polygon id="path-8" points="0 0 113 0 113 38 0 38"></polygon>
        <polygon id="path-10" points="0 0 77 0 77 26 0 26"></polygon>
    </defs>
    <g id="404" stroke="none" stroke-width="1" fill="none" fill-rule="evenodd" transform="translate(-401.000000, -178.000000)">
        <g id="ic_error_404" transform="translate(401.000000, 178.000000)">
            <g id="Page-1" transform="translate(128.000000, 62.000000)">
                <mask id="mask-2" fill="white">
                    <use xlink:href="#path-1"></use>
                </mask>
                <g id="Clip-2"></g>
                <path d="M517.2591,137.150924 L445.498005,137.150924 C436.592665,135.631061 429.91293,129.335067 429.91293,121.79105 L429.91293,117.941622 C429.91293,109.477887 438.315973,102.580584 448.841528,102.241219 C448.571736,102.232488 448.301944,102.224921 448.028496,102.224921 L462.051846,102.224921 C472.954672,102.224921 481.792746,95.1879129 481.792746,86.5082189 L481.792746,82.658209 C481.792746,73.978515 472.954672,66.9415073 462.051846,66.9415073 L295.716486,66.9415073 L295.716486,66.7290408 C285.854079,65.8541444 278.185105,59.1978302 278.185105,51.1124603 L278.185105,47.2630326 C278.185105,39.1776627 285.854079,32.5213485 295.716486,31.6464521 L295.716486,31.4334034 L473.750157,31.4334034 C484.652983,31.4334034 493.491057,24.3969779 493.491057,15.7167017 C493.491057,7.03700767 484.652983,0 473.750157,0 L117.682815,0 C106.780721,0 97.9419155,7.03700767 97.9419155,15.7167017 C97.9419155,24.3969779 106.780721,31.4334034 117.682815,31.4334034 L159.723621,31.4334034 L159.723621,31.5463309 L168.131782,31.5463309 C179.034608,31.5463309 187.872681,38.5827564 187.872681,47.2630326 L187.872681,51.1124603 C187.872681,59.7927364 179.034608,66.829162 168.131782,66.829162 L159.723621,66.829162 L159.723621,66.9415073 L94.3176326,66.9415073 C83.4155378,66.9415073 74.5767327,73.978515 74.5767327,82.658209 L74.5767327,86.5082189 C74.5767327,95.1879129 83.4155378,102.224921 94.3176326,102.224921 L157.861396,102.224921 C168.764222,102.224921 177.602296,109.261346 177.602296,117.941622 L177.602296,121.79105 C177.602296,129.328082 170.937914,135.62233 162.045004,137.150924 L46.7932441,137.150924 C35.8911493,137.150924 27.0523442,144.18735 27.0523442,152.867626 L27.0523442,156.717054 C27.0523442,165.396748 35.8911493,172.433756 46.7932441,172.433756 L115.740896,172.433756 C126.643722,172.433756 135.481796,179.470181 135.481796,188.150457 L135.481796,192.000467 C135.481796,200.680161 126.643722,207.717169 115.740896,207.717169 L19.7408998,207.717169 C8.83880512,207.717169 0,214.753012 0,223.433871 L0,227.283298 C0,235.962992 8.83880512,243 19.7408998,243 L490.206756,243 C501.109582,243 509.947656,235.962992 509.947656,227.283298 L509.947656,223.433871 C509.947656,214.753012 501.109582,207.717169 490.206756,207.717169 L389.699986,207.717169 C378.797891,207.717169 369.959086,200.680161 369.959086,192.000467 L369.959086,188.150457 C369.959086,179.470181 378.797891,172.433756 389.699986,172.433756 L517.2591,172.433756 C528.161926,172.433756 537,165.396748 537,156.717054 L537,152.867626 C537,144.18735 528.161926,137.150924 517.2591,137.150924" id="Fill-1" fill-opacity="0.0543195199" fill="#00A8FC" mask="url(#mask-2)"></path>
            </g>
            <path d="M304.220475,234.300808 L304.220475,267.472599 L276.795364,267.472599 L276.795364,303.111712 L233.537199,303.111712 L233.537199,267.472599 L149,267.472599 L149,235.671544 L241.453726,107.919029 L276.795364,107.919029 L276.795364,234.300808 L304.220475,234.300808 Z M189.430834,234.300808 L233.537199,234.300808 L233.537199,172.891875 L189.430834,234.300808 Z M338.289814,279.809215 C325.378271,262.629249 318.922597,237.7735 318.922597,205.241224 C318.922597,173.074478 325.378271,148.492874 338.289814,131.495673 C351.201357,114.498473 369.814434,106 394.129603,106 C418.444771,106 437.057848,114.498473 449.969391,131.495673 C462.880934,148.492874 469.336609,173.074478 469.336609,205.241224 C469.336609,237.7735 462.880934,262.629249 449.969391,279.809215 C437.057848,296.989181 418.444771,305.579035 394.129603,305.579035 C369.814434,305.579035 351.201357,296.989181 338.289814,279.809215 Z M418.44465,256.780865 C423.533871,246.18046 426.078444,229.000751 426.078444,205.241224 C426.078444,182.029993 423.533871,165.170119 418.44465,154.661097 C413.355428,144.152075 405.250494,138.897643 394.129603,138.897643 C383.008712,138.897643 374.903777,144.152075 369.814556,154.661097 C364.725334,165.170119 362.180762,182.029993 362.180762,205.241224 C362.180762,229.000751 364.725334,246.18046 369.814556,256.780865 C374.903777,267.381269 383.008712,272.681392 394.129603,272.681392 C405.250494,272.681392 413.355428,267.381269 418.44465,256.780865 Z M643.500202,234.300808 L643.500202,267.472599 L616.075091,267.472599 L616.075091,303.111712 L572.816926,303.111712 L572.816926,267.472599 L488.279727,267.472599 L488.279727,235.671544 L580.733452,107.919029 L616.075091,107.919029 L616.075091,234.300808 L643.500202,234.300808 Z M528.710561,234.300808 L572.816926,234.300808 L572.816926,172.891875 L528.710561,234.300808 Z" id="Login" fill="url(#linearGradient-3)"></path>
            <g id="Page-1" transform="translate(105.000000, 24.000000)">
                <mask id="mask-5" fill="white">
                    <use xlink:href="#path-4"></use>
                </mask>
                <g id="Clip-2"></g>
                <path d="M0,33 L99,33 C99,33 93.0700547,-6.35932942 59.2963594,0.891543553 C59.2963594,0.891543553 48.9841172,4.51620321 42.2807344,11.7670762 C42.2807344,11.7670762 25.2651094,4.51620321 14.9528672,20.5708198 C14.9528672,20.5708198 1.546875,19.5353138 0,33" id="Fill-1" fill="#F1FAFF" mask="url(#mask-5)"></path>
            </g>
            <g id="Page-1" transform="translate(0.000000, 192.000000)">
                <mask id="mask-7" fill="white">
                    <use xlink:href="#path-6"></use>
                </mask>
                <g id="Clip-2"></g>
                <path d="M0,27 L80,27 C80,27 75.208125,-5.20308771 47.91625,0.729444725 C47.91625,0.729444725 39.583125,3.69507536 34.16625,9.62760779 C34.16625,9.62760779 20.41625,3.69507536 12.083125,16.8306708 C12.083125,16.8306708 1.25,15.9834385 0,27" id="Fill-1" fill="#F1FAFF" mask="url(#mask-7)"></path>
            </g>
            <g id="Page-1" transform="translate(685.000000, 155.000000)">
                <mask id="mask-9" fill="white">
                    <use xlink:href="#path-8"></use>
                </mask>
                <g id="Clip-2"></g>
                <path d="M0,38 L113,38 C113,38 106.231477,-7.32286418 67.6817031,1.02662591 C67.6817031,1.02662591 55.9111641,5.20047643 48.2598281,13.5499665 C48.2598281,13.5499665 28.8379531,5.20047643 17.0674141,23.6876107 C17.0674141,23.6876107 1.765625,22.4952098 0,38" id="Fill-1" fill="#F1FAFF" mask="url(#mask-9)"></path>
            </g>
            <g id="Page-1" transform="translate(586.000000, 0.000000)">
                <mask id="mask-11" fill="white">
                    <use xlink:href="#path-10"></use>
                </mask>
                <g id="Clip-2"></g>
                <path d="M0,26 L77,26 C77,26 72.3878203,-5.01038075 46.1193906,0.702428254 C46.1193906,0.702428254 38.0987578,3.55822071 32.8850156,9.27102972 C32.8850156,9.27102972 19.6506406,3.55822071 11.6300078,16.2073126 C11.6300078,16.2073126 1.203125,15.3914593 0,26" id="Fill-1" fill="#F1FAFF" mask="url(#mask-11)"></path>
            </g>
            <g id="Group" opacity="0.264945652" transform="translate(189.000000, 98.000000)" stroke="#1EBAFA" stroke-linecap="round" stroke-width="4">
                <path d="M0.66532859,7.15909091 L14.3564342,7.15909091" id="Line"></path>
                <path d="M7.5,13.9937623 L7.5,0.302656727" id="Line"></path>
            </g>
            <g id="Group" opacity="0.264945652" transform="translate(397.000000, 62.000000)" stroke="#1EBAFA" stroke-linecap="round" stroke-width="4">
                <path d="M0.532262872,5.72727273 L11.4851473,5.72727273" id="Line"></path>
                <path d="M6,11.1950099 L6,0.242125381" id="Line"></path>
            </g>
            <g id="Group" opacity="0.264945652" transform="translate(693.000000, 258.000000)" stroke="#1EBAFA" stroke-linecap="round" stroke-width="4">
                <path d="M0.66532859,7.15909091 L14.3564342,7.15909091" id="Line"></path>
                <path d="M7.5,13.9937623 L7.5,0.302656727" id="Line"></path>
            </g>
            <g id="Group" opacity="0.264945652" transform="translate(693.000000, 106.000000)" stroke="#1EBAFA" stroke-linecap="round" stroke-width="4">
                <path d="M0.66532859,7.15909091 L14.3564342,7.15909091" id="Line"></path>
                <path d="M7.5,13.9937623 L7.5,0.302656727" id="Line"></path>
            </g>
            <g id="Group" opacity="0.264945652" transform="translate(541.000000, 32.000000)" stroke="#1EBAFA" stroke-linecap="round" stroke-width="4">
                <path d="M0.66532859,7.15909091 L14.3564342,7.15909091" id="Line"></path>
                <path d="M7.5,13.9937623 L7.5,0.302656727" id="Line"></path>
            </g>
            <g id="Group" opacity="0.264945652" transform="translate(105.000000, 272.000000)" stroke="#1EBAFA" stroke-linecap="round" stroke-width="4">
                <path d="M0.66532859,7.15909091 L14.3564342,7.15909091" id="Line"></path>
                <path d="M7.5,13.9937623 L7.5,0.302656727" id="Line"></path>
            </g>
            <circle id="Oval" stroke="#1EBAFA" stroke-width="4" opacity="0.264945652" cx="499" cy="112" r="6"></circle>
            <circle id="Oval" stroke="#1EBAFA" stroke-width="4" opacity="0.264945652" cx="659" cy="183" r="6"></circle>
            <circle id="Oval" stroke="#1EBAFA" stroke-width="4" opacity="0.264945652" cx="334" cy="24" r="6"></circle>
            <circle id="Oval" stroke="#1EBAFA" stroke-width="4" opacity="0.264945652" cx="90" cy="158" r="6"></circle>
        </g>
    </g>
</svg>