<?xml version="1.0" encoding="UTF-8"?>
<svg width="21px" height="21px" viewBox="0 0 21 21" version="1.1" xmlns="http://www.w3.org/2000/svg" xmlns:xlink="http://www.w3.org/1999/xlink">
    <!-- Generator: Sketch 49.2 (51160) - http://www.bohemiancoding.com/sketch -->
    <title>ic_exit_to_app_black_24px</title>
    <desc>Created with Sketch.</desc>
    <defs></defs>
    <g id="IVR-Template-Form" stroke="none" stroke-width="1" fill="none" fill-rule="evenodd">
        <g id="IVR_template_settings" transform="translate(-1547.000000, -25.000000)">
            <g id="Group-4" transform="translate(62.000000, 0.000000)">
                <g id="Group-7">
                    <g id="ic_exit_to_app_black_24px" transform="translate(1481.000000, 21.000000)">
                        <polygon id="Shape" points="0 0 28 0 28 28 0 28"></polygon>
                        <path d="M12.2716667,18.6883333 L13.9166667,20.3333333 L19.75,14.5 L13.9166667,8.66666667 L12.2716667,10.3116667 L15.2816667,13.3333333 L4,13.3333333 L4,15.6666667 L15.2816667,15.6666667 L12.2716667,18.6883333 Z M22.6666667,4 L6.33333333,4 C5.03833333,4 4,5.05 4,6.33333333 L4,11 L6.33333333,11 L6.33333333,6.33333333 L22.6666667,6.33333333 L22.6666667,22.6666667 L6.33333333,22.6666667 L6.33333333,18 L4,18 L4,22.6666667 C4,23.95 5.03833333,25 6.33333333,25 L22.6666667,25 C23.95,25 25,23.95 25,22.6666667 L25,6.33333333 C25,5.05 23.95,4 22.6666667,4 Z" id="Shape" fill="#7B8489" fill-rule="nonzero"></path>
                    </g>
                </g>
            </g>
        </g>
    </g>
</svg>