<?xml version="1.0" encoding="UTF-8"?>
<svg width="531px" height="454px" viewBox="0 0 531 454" version="1.1" xmlns="http://www.w3.org/2000/svg" xmlns:xlink="http://www.w3.org/1999/xlink">
    <!-- Generator: sketchtool 48.2 (47327) - http://www.bohemiancoding.com/sketch -->
    <title>6F49FFAF-9A60-4BF6-BBDD-3784090CA5A8</title>
    <desc>Created with sketchtool.</desc>
    <defs>
        <radialGradient cx="50%" cy="0%" fx="50%" fy="0%" r="71.2091023%" gradientTransform="translate(0.500000,0.000000),scale(0.256121,1.000000),rotate(90.000000),scale(1.000000,2.257641),translate(-0.500000,-0.000000)" id="radialGradient-1">
            <stop stop-color="#D1E3EC" offset="0%"></stop>
            <stop stop-color="#FFFFFF" offset="100%"></stop>
        </radialGradient>
        <polygon id="path-2" points="0.833367403 0.00915492958 454.649742 0.00915492958 454.649742 196.77331 0.833367403 196.77331"></polygon>
        <path d="M8.07007182,0.867887324 C3.62086924,0.867887324 0.0118987109,4.47676056 0.0118987109,8.92697183 L0.0118987109,102.370423 C0.0118987109,106.821549 3.62086924,110.431338 8.07007182,110.431338 L181.979799,110.431338 C186.429917,110.431338 190.038888,106.821549 190.038888,102.370423 L190.038888,8.92697183 C190.038888,4.47676056 186.429917,0.867887324 181.979799,0.867887324 L8.07007182,0.867887324 Z" id="path-4"></path>
        <path d="M8.07007182,0.867887324 C3.62086924,0.867887324 0.0118987109,4.47676056 0.0118987109,8.92697183 L0.0118987109,102.370423 C0.0118987109,106.821549 3.62086924,110.431338 8.07007182,110.431338 L181.979799,110.431338 C186.429917,110.431338 190.038888,106.821549 190.038888,102.370423 L190.038888,8.92697183 C190.038888,4.47676056 186.429917,0.867887324 181.979799,0.867887324 L8.07007182,0.867887324 Z" id="path-6"></path>
        <path d="M0.588528545,0.257253521 L0.588528545,4.17739437 C0.588528545,7.27816901 5.23268692,11.6249296 10.9605433,11.6249296 L49.1187937,11.6249296 C54.8466501,11.6249296 59.4898932,7.27816901 59.4898932,4.17739437 L59.4898932,0.257253521 L0.588528545,0.257253521 Z" id="path-8"></path>
        <path d="M0.588528545,0.257253521 L0.588528545,4.17739437 C0.588528545,7.27816901 5.23268692,11.6249296 10.9605433,11.6249296 L49.1187937,11.6249296 C54.8466501,11.6249296 59.4898932,7.27816901 59.4898932,4.17739437 L59.4898932,0.257253521 L0.588528545,0.257253521 Z" id="path-10"></path>
        <polygon id="path-12" points="0 324.084507 496.752873 324.084507 496.752873 0.509929577 0 0.509929577"></polygon>
        <path d="M7.76528177,0.0997887324 C3.49364457,0.0997887324 0.0292891344,3.56401408 0.0292891344,7.83661972 L0.0292891344,53.0665493 C0.0292891344,57.3391549 3.49364457,60.8033803 7.76528177,60.8033803 L27.9912597,60.8033803 C32.2628969,60.8033803 35.726337,57.3391549 35.726337,53.0665493 L35.726337,7.83661972 C35.726337,3.56401408 32.2628969,0.0997887324 27.9912597,0.0997887324 L7.76528177,0.0997887324 Z" id="path-14"></path>
        <path d="M7.76528177,0.0997887324 C3.49364457,0.0997887324 0.0292891344,3.56401408 0.0292891344,7.83661972 L0.0292891344,53.0665493 C0.0292891344,57.3391549 3.49364457,60.8033803 7.76528177,60.8033803 L27.9912597,60.8033803 C32.2628969,60.8033803 35.726337,57.3391549 35.726337,53.0665493 L35.726337,7.83661972 C35.726337,3.56401408 32.2628969,0.0997887324 27.9912597,0.0997887324 L7.76528177,0.0997887324 Z" id="path-16"></path>
        <polygon id="path-18" points="0 324.084507 496.752873 324.084507 496.752873 0.509929577 0 0.509929577"></polygon>
    </defs>
    <g id="500" stroke="none" stroke-width="1" fill="none" fill-rule="evenodd" transform="translate(-537.000000, -143.000000)">
        <g id="ic_error_500" transform="translate(537.000000, 143.000000)">
            <rect id="Rectangle" fill="url(#radialGradient-1)" x="0" y="318" width="531" height="136"></rect>
            <g id="Page-1">
                <g id="Group-6" transform="translate(42.103131, 99.278803)">
                    <g id="Group-3">
                        <mask id="mask-3" fill="white">
                            <use xlink:href="#path-2"></use>
                        </mask>
                        <g id="Clip-2"></g>
                        <path d="M437.967292,111.063944 L377.321393,111.063944 C369.795916,109.833521 364.151351,104.736056 364.151351,98.6269718 L364.151351,95.5097183 C364.151351,88.656338 371.252135,83.071831 380.146879,82.7971831 C379.918973,82.7898592 379.691067,82.7834507 379.460415,82.7834507 L391.311531,82.7834507 C400.52571,82.7834507 407.994439,77.086338 407.994439,70.0571831 L407.994439,66.9399296 C407.994439,59.9116901 400.52571,54.213662 391.311531,54.213662 L250.741992,54.213662 L250.741992,54.0415493 C242.407402,53.3329577 235.926266,47.9434507 235.926266,41.3958451 L235.926266,38.279507 C235.926266,31.7328169 242.407402,26.3423944 250.741992,25.6347183 L250.741992,25.4616901 L401.197529,25.4616901 C410.411708,25.4616901 417.881353,19.763662 417.881353,12.7354225 C417.881353,5.7071831 410.411708,0.00915492958 401.197529,0.00915492958 L100.286454,0.00915492958 C91.0731906,0.00915492958 83.603546,5.7071831 83.603546,12.7354225 C83.603546,19.763662 91.0731906,25.4616901 100.286454,25.4616901 L135.815089,25.4616901 L135.815089,25.5532394 L142.921366,25.5532394 C152.134629,25.5532394 159.603358,31.2503521 159.603358,38.279507 L159.603358,41.3958451 C159.603358,48.425 152.134629,54.1230282 142.921366,54.1230282 L135.815089,54.1230282 L135.815089,54.213662 L80.5400856,54.213662 C71.3268223,54.213662 63.858093,59.9116901 63.858093,66.9399296 L63.858093,70.0571831 C63.858093,77.086338 71.3268223,82.7834507 80.5400856,82.7834507 L134.241714,82.7834507 C143.454977,82.7834507 150.924622,88.4814789 150.924622,95.5097183 L150.924622,98.6269718 C150.924622,104.729648 145.291955,109.826197 137.776546,111.063944 L40.37736,111.063944 C31.1640967,111.063944 23.6953674,116.761972 23.6953674,123.790211 L23.6953674,126.90838 C23.6953674,133.935704 31.1640967,139.633732 40.37736,139.633732 L98.6444319,139.633732 C107.859526,139.633732 115.328255,145.331761 115.328255,152.36 L115.328255,155.478169 C115.328255,162.505493 107.859526,168.203521 98.6444319,168.203521 L17.5162753,168.203521 C8.30209669,168.203521 0.833367403,173.901549 0.833367403,180.929789 L0.833367403,184.047958 C0.833367403,191.075282 8.30209669,196.77331 17.5162753,196.77331 L415.104377,196.77331 C424.318555,196.77331 431.7882,191.075282 431.7882,184.047958 L431.7882,180.929789 C431.7882,173.901549 424.318555,168.203521 415.104377,168.203521 L330.167717,168.203521 C320.953539,168.203521 313.483894,162.505493 313.483894,155.478169 L313.483894,152.36 C313.483894,145.331761 320.953539,139.633732 330.167717,139.633732 L437.967292,139.633732 C447.180555,139.633732 454.6502,133.935704 454.6502,126.90838 L454.6502,123.790211 C454.6502,116.761972 447.180555,111.063944 437.967292,111.063944" id="Fill-1" fill="#F1FAFF" mask="url(#mask-3)"></path>
                    </g>
                    <path d="M320.850935,201.666437 L127.310165,201.666437 C121.052359,201.666437 115.978931,196.592775 115.978931,190.332634 L115.978931,78.4300986 C115.978931,72.1708732 121.052359,67.0962958 127.310165,67.0962958 L320.850935,67.0962958 C327.108742,67.0962958 332.182169,72.1708732 332.182169,78.4300986 L332.182169,190.332634 C332.182169,196.592775 327.108742,201.666437 320.850935,201.666437" id="Fill-4" fill="#E7F0F2"></path>
                </g>
                <g id="Group-168" transform="translate(171.158379, 178.011197)">
                    <g id="Group-9">
                        <mask id="mask-5" fill="white">
                            <use xlink:href="#path-4"></use>
                        </mask>
                        <g id="Clip-8"></g>
                        <path d="M0.012081768,110.430972 L190.038155,110.430972 L0.012081768,110.430972 Z" id="Fill-7" fill="#9CFFF5" mask="url(#mask-5)"></path>
                    </g>
                    <mask id="mask-7" fill="white">
                        <use xlink:href="#path-6"></use>
                    </mask>
                    <g id="Clip-11"></g>
                    <polygon id="Fill-10" fill="#9CFFF5" mask="url(#mask-7)" points="0.0118987109 110.431338 190.037972 110.431338 190.037972 109.656831 0.0118987109 109.656831"></polygon>
                    <polygon id="Fill-12" fill="#9BFFF5" mask="url(#mask-7)" points="0.0118987109 109.656831 190.037972 109.656831 190.037972 108.882324 0.0118987109 108.882324"></polygon>
                    <polygon id="Fill-13" fill="#9BFFF5" mask="url(#mask-7)" points="0.0118987109 108.882324 190.037972 108.882324 190.037972 108.107817 0.0118987109 108.107817"></polygon>
                    <polygon id="Fill-14" fill="#9AFEF5" mask="url(#mask-7)" points="0.0118987109 108.108732 190.037972 108.108732 190.037972 107.334225 0.0118987109 107.334225"></polygon>
                    <polygon id="Fill-15" fill="#99FEF5" mask="url(#mask-7)" points="0.0118987109 107.334225 190.037972 107.334225 190.037972 106.559718 0.0118987109 106.559718"></polygon>
                    <polygon id="Fill-16" fill="#98FEF5" mask="url(#mask-7)" points="0.0118987109 106.559718 190.037972 106.559718 190.037972 105.785211 0.0118987109 105.785211"></polygon>
                    <polygon id="Fill-17" fill="#98FDF5" mask="url(#mask-7)" points="0.0118987109 105.786127 190.037972 105.786127 190.037972 105.01162 0.0118987109 105.01162"></polygon>
                    <polygon id="Fill-18" fill="#97FDF5" mask="url(#mask-7)" points="0.0118987109 105.01162 190.037972 105.01162 190.037972 104.237113 0.0118987109 104.237113"></polygon>
                    <polygon id="Fill-19" fill="#96FDF6" mask="url(#mask-7)" points="0.0118987109 104.237113 190.037972 104.237113 190.037972 103.462606 0.0118987109 103.462606"></polygon>
                    <polygon id="Fill-20" fill="#95FCF6" mask="url(#mask-7)" points="0.0118987109 103.463521 190.037972 103.463521 190.037972 102.689014 0.0118987109 102.689014"></polygon>
                    <polygon id="Fill-21" fill="#94FCF6" mask="url(#mask-7)" points="0.0118987109 102.689014 190.037972 102.689014 190.037972 101.914507 0.0118987109 101.914507"></polygon>
                    <polygon id="Fill-22" fill="#93FCF6" mask="url(#mask-7)" points="0.0118987109 101.914507 190.037972 101.914507 190.037972 101.14 0.0118987109 101.14"></polygon>
                    <polygon id="Fill-23" fill="#92FBF6" mask="url(#mask-7)" points="0.0118987109 101.14 190.037972 101.14 190.037972 100.365493 0.0118987109 100.365493"></polygon>
                    <polygon id="Fill-24" fill="#91FBF6" mask="url(#mask-7)" points="0.0118987109 100.366408 190.037972 100.366408 190.037972 99.5919014 0.0118987109 99.5919014"></polygon>
                    <polygon id="Fill-25" fill="#91FBF6" mask="url(#mask-7)" points="0.0118987109 99.5919014 190.037972 99.5919014 190.037972 98.8173944 0.0118987109 98.8173944"></polygon>
                    <polygon id="Fill-26" fill="#90FAF6" mask="url(#mask-7)" points="0.0118987109 98.8173944 190.037972 98.8173944 190.037972 98.0428873 0.0118987109 98.0428873"></polygon>
                    <polygon id="Fill-27" fill="#8FFAF6" mask="url(#mask-7)" points="0.0118987109 98.0438028 190.037972 98.0438028 190.037972 97.2692958 0.0118987109 97.2692958"></polygon>
                    <polygon id="Fill-28" fill="#8EFAF6" mask="url(#mask-7)" points="0.0118987109 97.2692958 190.037972 97.2692958 190.037972 96.4947887 0.0118987109 96.4947887"></polygon>
                    <polygon id="Fill-29" fill="#8DF9F6" mask="url(#mask-7)" points="0.0118987109 96.4947887 190.037972 96.4947887 190.037972 95.7202817 0.0118987109 95.7202817"></polygon>
                    <polygon id="Fill-30" fill="#8CF9F6" mask="url(#mask-7)" points="0.0118987109 95.7211972 190.037972 95.7211972 190.037972 94.9466901 0.0118987109 94.9466901"></polygon>
                    <polygon id="Fill-31" fill="#8BF9F7" mask="url(#mask-7)" points="0.0118987109 94.9466901 190.037972 94.9466901 190.037972 94.1721831 0.0118987109 94.1721831"></polygon>
                    <polygon id="Fill-32" fill="#8AF8F7" mask="url(#mask-7)" points="0.0118987109 94.1721831 190.037972 94.1721831 190.037972 93.3976761 0.0118987109 93.3976761"></polygon>
                    <polygon id="Fill-33" fill="#89F8F7" mask="url(#mask-7)" points="0.0118987109 93.3976761 190.037972 93.3976761 190.037972 92.623169 0.0118987109 92.623169"></polygon>
                    <polygon id="Fill-34" fill="#88F7F7" mask="url(#mask-7)" points="0.0118987109 92.6240845 190.037972 92.6240845 190.037972 91.8495775 0.0118987109 91.8495775"></polygon>
                    <polygon id="Fill-35" fill="#87F7F7" mask="url(#mask-7)" points="0.0118987109 91.8495775 190.037972 91.8495775 190.037972 91.0750704 0.0118987109 91.0750704"></polygon>
                    <polygon id="Fill-36" fill="#86F7F7" mask="url(#mask-7)" points="0.0118987109 91.0750704 190.037972 91.0750704 190.037972 90.3005634 0.0118987109 90.3005634"></polygon>
                    <polygon id="Fill-37" fill="#85F6F7" mask="url(#mask-7)" points="0.0118987109 90.3014789 190.037972 90.3014789 190.037972 89.5269718 0.0118987109 89.5269718"></polygon>
                    <polygon id="Fill-38" fill="#84F6F7" mask="url(#mask-7)" points="0.0118987109 89.5269718 190.037972 89.5269718 190.037972 88.7524648 0.0118987109 88.7524648"></polygon>
                    <polygon id="Fill-39" fill="#83F6F7" mask="url(#mask-7)" points="0.0118987109 88.7524648 190.037972 88.7524648 190.037972 87.9779577 0.0118987109 87.9779577"></polygon>
                    <polygon id="Fill-40" fill="#82F5F7" mask="url(#mask-7)" points="0.0118987109 87.9788732 190.037972 87.9788732 190.037972 87.2043662 0.0118987109 87.2043662"></polygon>
                    <polygon id="Fill-41" fill="#81F5F7" mask="url(#mask-7)" points="0.0118987109 87.2043662 190.037972 87.2043662 190.037972 86.4298592 0.0118987109 86.4298592"></polygon>
                    <polygon id="Fill-42" fill="#80F4F8" mask="url(#mask-7)" points="0.0118987109 86.4298592 190.037972 86.4298592 190.037972 85.6553521 0.0118987109 85.6553521"></polygon>
                    <polygon id="Fill-43" fill="#7FF4F8" mask="url(#mask-7)" points="0.0118987109 85.6553521 190.037972 85.6553521 190.037972 84.8808451 0.0118987109 84.8808451"></polygon>
                    <polygon id="Fill-44" fill="#7EF4F8" mask="url(#mask-7)" points="0.0118987109 84.8817606 190.037972 84.8817606 190.037972 84.1072535 0.0118987109 84.1072535"></polygon>
                    <polygon id="Fill-45" fill="#7DF3F8" mask="url(#mask-7)" points="0.0118987109 84.1072535 190.037972 84.1072535 190.037972 83.3327465 0.0118987109 83.3327465"></polygon>
                    <polygon id="Fill-46" fill="#7BF3F8" mask="url(#mask-7)" points="0.0118987109 83.3327465 190.037972 83.3327465 190.037972 82.5582394 0.0118987109 82.5582394"></polygon>
                    <polygon id="Fill-47" fill="#7AF2F8" mask="url(#mask-7)" points="0.0118987109 82.5591549 190.037972 82.5591549 190.037972 81.7846479 0.0118987109 81.7846479"></polygon>
                    <polygon id="Fill-48" fill="#79F2F8" mask="url(#mask-7)" points="0.0118987109 81.7846479 190.037972 81.7846479 190.037972 81.0101408 0.0118987109 81.0101408"></polygon>
                    <polygon id="Fill-49" fill="#78F2F8" mask="url(#mask-7)" points="0.0118987109 81.0101408 190.037972 81.0101408 190.037972 80.2356338 0.0118987109 80.2356338"></polygon>
                    <polygon id="Fill-50" fill="#77F1F8" mask="url(#mask-7)" points="0.0118987109 80.2356338 190.037972 80.2356338 190.037972 79.4611268 0.0118987109 79.4611268"></polygon>
                    <polygon id="Fill-51" fill="#76F1F8" mask="url(#mask-7)" points="0.0118987109 79.4620423 190.037972 79.4620423 190.037972 78.6875352 0.0118987109 78.6875352"></polygon>
                    <polygon id="Fill-52" fill="#75F0F8" mask="url(#mask-7)" points="0.0118987109 78.6875352 190.037972 78.6875352 190.037972 77.9130282 0.0118987109 77.9130282"></polygon>
                    <polygon id="Fill-53" fill="#74F0F9" mask="url(#mask-7)" points="0.0118987109 77.9130282 190.037972 77.9130282 190.037972 77.1385211 0.0118987109 77.1385211"></polygon>
                    <polygon id="Fill-54" fill="#73F0F9" mask="url(#mask-7)" points="0.0118987109 77.1394366 190.037972 77.1394366 190.037972 76.3649296 0.0118987109 76.3649296"></polygon>
                    <polygon id="Fill-55" fill="#72EFF9" mask="url(#mask-7)" points="0.0118987109 76.3649296 190.037972 76.3649296 190.037972 75.5904225 0.0118987109 75.5904225"></polygon>
                    <polygon id="Fill-56" fill="#71EFF9" mask="url(#mask-7)" points="0.0118987109 75.5904225 190.037972 75.5904225 190.037972 74.8159155 0.0118987109 74.8159155"></polygon>
                    <polygon id="Fill-57" fill="#70EEF9" mask="url(#mask-7)" points="0.0118987109 74.816831 190.037972 74.816831 190.037972 74.0423239 0.0118987109 74.0423239"></polygon>
                    <polygon id="Fill-58" fill="#6EEEF9" mask="url(#mask-7)" points="0.0118987109 74.0423239 190.037972 74.0423239 190.037972 73.2678169 0.0118987109 73.2678169"></polygon>
                    <polygon id="Fill-59" fill="#6DEEF9" mask="url(#mask-7)" points="0.0118987109 73.2678169 190.037972 73.2678169 190.037972 72.4933099 0.0118987109 72.4933099"></polygon>
                    <polygon id="Fill-60" fill="#6CEDF9" mask="url(#mask-7)" points="0.0118987109 72.4933099 190.037972 72.4933099 190.037972 71.7188028 0.0118987109 71.7188028"></polygon>
                    <polygon id="Fill-61" fill="#6BEDF9" mask="url(#mask-7)" points="0.0118987109 71.7197183 190.037972 71.7197183 190.037972 70.9452113 0.0118987109 70.9452113"></polygon>
                    <polygon id="Fill-62" fill="#6AECF9" mask="url(#mask-7)" points="0.0118987109 70.9452113 190.037972 70.9452113 190.037972 70.1707042 0.0118987109 70.1707042"></polygon>
                    <polygon id="Fill-63" fill="#69ECFA" mask="url(#mask-7)" points="0.0118987109 70.1707042 190.037972 70.1707042 190.037972 69.3961972 0.0118987109 69.3961972"></polygon>
                    <polygon id="Fill-64" fill="#68ECFA" mask="url(#mask-7)" points="0.0118987109 69.3971127 190.037972 69.3971127 190.037972 68.6226056 0.0118987109 68.6226056"></polygon>
                    <polygon id="Fill-65" fill="#67EBFA" mask="url(#mask-7)" points="0.0118987109 68.6226056 190.037972 68.6226056 190.037972 67.8480986 0.0118987109 67.8480986"></polygon>
                    <polygon id="Fill-66" fill="#66EBFA" mask="url(#mask-7)" points="0.0118987109 67.8480986 190.037972 67.8480986 190.037972 67.0735915 0.0118987109 67.0735915"></polygon>
                    <polygon id="Fill-67" fill="#64EAFA" mask="url(#mask-7)" points="0.0118987109 67.074507 190.037972 67.074507 190.037972 66.3 0.0118987109 66.3"></polygon>
                    <polygon id="Fill-68" fill="#63EAFA" mask="url(#mask-7)" points="0.0118987109 66.3 190.037972 66.3 190.037972 65.525493 0.0118987109 65.525493"></polygon>
                    <polygon id="Fill-69" fill="#62E9FA" mask="url(#mask-7)" points="0.0118987109 65.525493 190.037972 65.525493 190.037972 64.7509859 0.0118987109 64.7509859"></polygon>
                    <polygon id="Fill-70" fill="#61E9FA" mask="url(#mask-7)" points="0.0118987109 64.7509859 190.037972 64.7509859 190.037972 63.9764789 0.0118987109 63.9764789"></polygon>
                    <polygon id="Fill-71" fill="#60E9FA" mask="url(#mask-7)" points="0.0118987109 63.9773944 190.037972 63.9773944 190.037972 63.2028873 0.0118987109 63.2028873"></polygon>
                    <polygon id="Fill-72" fill="#5FE8FA" mask="url(#mask-7)" points="0.0118987109 63.2028873 190.037972 63.2028873 190.037972 62.4283803 0.0118987109 62.4283803"></polygon>
                    <polygon id="Fill-73" fill="#5EE8FB" mask="url(#mask-7)" points="0.0118987109 62.4283803 190.037972 62.4283803 190.037972 61.6538732 0.0118987109 61.6538732"></polygon>
                    <polygon id="Fill-74" fill="#5CE7FB" mask="url(#mask-7)" points="0.0118987109 61.6547887 190.037972 61.6547887 190.037972 60.8802817 0.0118987109 60.8802817"></polygon>
                    <polygon id="Fill-75" fill="#5BE7FB" mask="url(#mask-7)" points="0.0118987109 60.8802817 190.037972 60.8802817 190.037972 60.1057746 0.0118987109 60.1057746"></polygon>
                    <polygon id="Fill-76" fill="#5AE6FB" mask="url(#mask-7)" points="0.0118987109 60.1057746 190.037972 60.1057746 190.037972 59.3312676 0.0118987109 59.3312676"></polygon>
                    <polygon id="Fill-77" fill="#59E6FB" mask="url(#mask-7)" points="0.0118987109 59.3312676 190.037972 59.3312676 190.037972 58.5567606 0.0118987109 58.5567606"></polygon>
                    <polygon id="Fill-78" fill="#59E6FB" mask="url(#mask-7)" points="0.0118987109 58.5567606 190.037972 58.5567606 190.037972 57.9085915 0.0118987109 57.9085915"></polygon>
                    <polygon id="Fill-79" fill="#58E5FB" mask="url(#mask-7)" points="0.0118987109 57.9085915 190.037972 57.9085915 190.037972 57.2604225 0.0118987109 57.2604225"></polygon>
                    <polygon id="Fill-80" fill="#57E5FB" mask="url(#mask-7)" points="0.0118987109 57.2604225 190.037972 57.2604225 190.037972 56.6122535 0.0118987109 56.6122535"></polygon>
                    <polygon id="Fill-81" fill="#56E4FB" mask="url(#mask-7)" points="0.0118987109 56.6122535 190.037972 56.6122535 190.037972 55.9640845 0.0118987109 55.9640845"></polygon>
                    <polygon id="Fill-82" fill="#55E4FB" mask="url(#mask-7)" points="0.0118987109 55.9640845 190.037972 55.9640845 190.037972 55.3159155 0.0118987109 55.3159155"></polygon>
                    <polygon id="Fill-83" fill="#54E3FB" mask="url(#mask-7)" points="0.0118987109 55.3159155 190.037972 55.3159155 190.037972 54.6677465 0.0118987109 54.6677465"></polygon>
                    <polygon id="Fill-84" fill="#54E2FB" mask="url(#mask-7)" points="0.0118987109 54.6677465 190.037972 54.6677465 190.037972 54.0195775 0.0118987109 54.0195775"></polygon>
                    <polygon id="Fill-85" fill="#53E2FB" mask="url(#mask-7)" points="0.0118987109 54.0195775 190.037972 54.0195775 190.037972 53.3714085 0.0118987109 53.3714085"></polygon>
                    <polygon id="Fill-86" fill="#52E1FB" mask="url(#mask-7)" points="0.0118987109 53.3714085 190.037972 53.3714085 190.037972 52.7232394 0.0118987109 52.7232394"></polygon>
                    <polygon id="Fill-87" fill="#51E0FB" mask="url(#mask-7)" points="0.0118987109 52.7232394 190.037972 52.7232394 190.037972 52.0750704 0.0118987109 52.0750704"></polygon>
                    <polygon id="Fill-88" fill="#50E0FB" mask="url(#mask-7)" points="0.0118987109 52.0750704 190.037972 52.0750704 190.037972 51.4269014 0.0118987109 51.4269014"></polygon>
                    <polygon id="Fill-89" fill="#4FDFFB" mask="url(#mask-7)" points="0.0118987109 51.4269014 190.037972 51.4269014 190.037972 50.7787324 0.0118987109 50.7787324"></polygon>
                    <polygon id="Fill-90" fill="#4EDEFB" mask="url(#mask-7)" points="0.0118987109 50.7787324 190.037972 50.7787324 190.037972 50.1305634 0.0118987109 50.1305634"></polygon>
                    <polygon id="Fill-91" fill="#4DDEFB" mask="url(#mask-7)" points="0.0118987109 50.1305634 190.037972 50.1305634 190.037972 49.4823944 0.0118987109 49.4823944"></polygon>
                    <polygon id="Fill-92" fill="#4CDDFB" mask="url(#mask-7)" points="0.0118987109 49.4823944 190.037972 49.4823944 190.037972 48.8342254 0.0118987109 48.8342254"></polygon>
                    <polygon id="Fill-93" fill="#4BDCFB" mask="url(#mask-7)" points="0.0118987109 48.8342254 190.037972 48.8342254 190.037972 48.1860563 0.0118987109 48.1860563"></polygon>
                    <polygon id="Fill-94" fill="#4ADCFB" mask="url(#mask-7)" points="0.0118987109 48.1860563 190.037972 48.1860563 190.037972 47.5378873 0.0118987109 47.5378873"></polygon>
                    <polygon id="Fill-95" fill="#49DBFB" mask="url(#mask-7)" points="0.0118987109 47.5378873 190.037972 47.5378873 190.037972 46.8897183 0.0118987109 46.8897183"></polygon>
                    <polygon id="Fill-96" fill="#48DAFB" mask="url(#mask-7)" points="0.0118987109 46.8897183 190.037972 46.8897183 190.037972 46.2415493 0.0118987109 46.2415493"></polygon>
                    <polygon id="Fill-97" fill="#47DAFB" mask="url(#mask-7)" points="0.0118987109 46.2415493 190.037972 46.2415493 190.037972 45.5933803 0.0118987109 45.5933803"></polygon>
                    <polygon id="Fill-98" fill="#46D9FB" mask="url(#mask-7)" points="0.0118987109 45.5933803 190.037972 45.5933803 190.037972 44.9452113 0.0118987109 44.9452113"></polygon>
                    <polygon id="Fill-99" fill="#45D8FB" mask="url(#mask-7)" points="0.0118987109 44.9452113 190.037972 44.9452113 190.037972 44.2961268 0.0118987109 44.2961268"></polygon>
                    <polygon id="Fill-100" fill="#44D8FB" mask="url(#mask-7)" points="0.0118987109 44.2961268 190.037972 44.2961268 190.037972 43.6479577 0.0118987109 43.6479577"></polygon>
                    <polygon id="Fill-101" fill="#43D7FB" mask="url(#mask-7)" points="0.0118987109 43.6479577 190.037972 43.6479577 190.037972 42.9997887 0.0118987109 42.9997887"></polygon>
                    <polygon id="Fill-102" fill="#42D6FB" mask="url(#mask-7)" points="0.0118987109 42.9997887 190.037972 42.9997887 190.037972 42.3516197 0.0118987109 42.3516197"></polygon>
                    <polygon id="Fill-103" fill="#41D5FB" mask="url(#mask-7)" points="0.0118987109 42.3516197 190.037972 42.3516197 190.037972 41.7034507 0.0118987109 41.7034507"></polygon>
                    <polygon id="Fill-104" fill="#40D5FB" mask="url(#mask-7)" points="0.0118987109 41.7034507 190.037972 41.7034507 190.037972 41.0552817 0.0118987109 41.0552817"></polygon>
                    <polygon id="Fill-105" fill="#3FD4FB" mask="url(#mask-7)" points="0.0118987109 41.0552817 190.037972 41.0552817 190.037972 40.4071127 0.0118987109 40.4071127"></polygon>
                    <polygon id="Fill-106" fill="#3ED3FB" mask="url(#mask-7)" points="0.0118987109 40.4071127 190.037972 40.4071127 190.037972 39.7589437 0.0118987109 39.7589437"></polygon>
                    <polygon id="Fill-107" fill="#3DD3FB" mask="url(#mask-7)" points="0.0118987109 39.7589437 190.037972 39.7589437 190.037972 39.1107746 0.0118987109 39.1107746"></polygon>
                    <polygon id="Fill-108" fill="#3CD2FB" mask="url(#mask-7)" points="0.0118987109 39.1107746 190.037972 39.1107746 190.037972 38.4626056 0.0118987109 38.4626056"></polygon>
                    <polygon id="Fill-109" fill="#3BD1FB" mask="url(#mask-7)" points="0.0118987109 38.4626056 190.037972 38.4626056 190.037972 37.8144366 0.0118987109 37.8144366"></polygon>
                    <polygon id="Fill-110" fill="#3AD1FB" mask="url(#mask-7)" points="0.0118987109 37.8144366 190.037972 37.8144366 190.037972 37.1662676 0.0118987109 37.1662676"></polygon>
                    <polygon id="Fill-111" fill="#39D0FB" mask="url(#mask-7)" points="0.0118987109 37.1662676 190.037972 37.1662676 190.037972 36.5180986 0.0118987109 36.5180986"></polygon>
                    <polygon id="Fill-112" fill="#38CFFB" mask="url(#mask-7)" points="0.0118987109 36.5180986 190.037972 36.5180986 190.037972 35.8699296 0.0118987109 35.8699296"></polygon>
                    <polygon id="Fill-113" fill="#37CFFB" mask="url(#mask-7)" points="0.0118987109 35.8699296 190.037972 35.8699296 190.037972 35.2217606 0.0118987109 35.2217606"></polygon>
                    <polygon id="Fill-114" fill="#36CEFB" mask="url(#mask-7)" points="0.0118987109 35.2217606 190.037972 35.2217606 190.037972 34.5735915 0.0118987109 34.5735915"></polygon>
                    <polygon id="Fill-115" fill="#35CDFB" mask="url(#mask-7)" points="0.0118987109 34.5735915 190.037972 34.5735915 190.037972 33.9254225 0.0118987109 33.9254225"></polygon>
                    <polygon id="Fill-116" fill="#34CCFB" mask="url(#mask-7)" points="0.0118987109 33.9254225 190.037972 33.9254225 190.037972 33.2772535 0.0118987109 33.2772535"></polygon>
                    <polygon id="Fill-117" fill="#33CCFB" mask="url(#mask-7)" points="0.0118987109 33.2772535 190.037972 33.2772535 190.037972 32.6290845 0.0118987109 32.6290845"></polygon>
                    <polygon id="Fill-118" fill="#32CBFB" mask="url(#mask-7)" points="0.0118987109 32.6290845 190.037972 32.6290845 190.037972 31.9809155 0.0118987109 31.9809155"></polygon>
                    <polygon id="Fill-119" fill="#31CAFB" mask="url(#mask-7)" points="0.0118987109 31.9809155 190.037972 31.9809155 190.037972 31.3327465 0.0118987109 31.3327465"></polygon>
                    <polygon id="Fill-120" fill="#30CAFB" mask="url(#mask-7)" points="0.0118987109 31.3327465 190.037972 31.3327465 190.037972 30.6845775 0.0118987109 30.6845775"></polygon>
                    <polygon id="Fill-121" fill="#2FC9FB" mask="url(#mask-7)" points="0.0118987109 30.6845775 190.037972 30.6845775 190.037972 30.0364085 0.0118987109 30.0364085"></polygon>
                    <polygon id="Fill-122" fill="#2EC8FB" mask="url(#mask-7)" points="0.0118987109 30.0364085 190.037972 30.0364085 190.037972 29.3882394 0.0118987109 29.3882394"></polygon>
                    <polygon id="Fill-123" fill="#2DC8FB" mask="url(#mask-7)" points="0.0118987109 29.3882394 190.037972 29.3882394 190.037972 28.7400704 0.0118987109 28.7400704"></polygon>
                    <polygon id="Fill-124" fill="#2CC7FA" mask="url(#mask-7)" points="0.0118987109 28.7400704 190.037972 28.7400704 190.037972 28.0919014 0.0118987109 28.0919014"></polygon>
                    <polygon id="Fill-125" fill="#2BC6FA" mask="url(#mask-7)" points="0.0118987109 28.0919014 190.037972 28.0919014 190.037972 27.4437324 0.0118987109 27.4437324"></polygon>
                    <polygon id="Fill-126" fill="#2AC5FA" mask="url(#mask-7)" points="0.0118987109 27.4437324 190.037972 27.4437324 190.037972 26.7955634 0.0118987109 26.7955634"></polygon>
                    <polygon id="Fill-127" fill="#29C5FA" mask="url(#mask-7)" points="0.0118987109 26.7955634 190.037972 26.7955634 190.037972 26.1473944 0.0118987109 26.1473944"></polygon>
                    <polygon id="Fill-128" fill="#27C4FA" mask="url(#mask-7)" points="0.0118987109 26.1473944 190.037972 26.1473944 190.037972 25.4992254 0.0118987109 25.4992254"></polygon>
                    <polygon id="Fill-129" fill="#26C3FA" mask="url(#mask-7)" points="0.0118987109 25.4992254 190.037972 25.4992254 190.037972 24.8510563 0.0118987109 24.8510563"></polygon>
                    <polygon id="Fill-130" fill="#25C3FA" mask="url(#mask-7)" points="0.0118987109 24.8510563 190.037972 24.8510563 190.037972 24.2028873 0.0118987109 24.2028873"></polygon>
                    <polygon id="Fill-131" fill="#24C2FA" mask="url(#mask-7)" points="0.0118987109 24.2028873 190.037972 24.2028873 190.037972 23.5547183 0.0118987109 23.5547183"></polygon>
                    <polygon id="Fill-132" fill="#23C1FA" mask="url(#mask-7)" points="0.0118987109 23.5547183 190.037972 23.5547183 190.037972 22.9065493 0.0118987109 22.9065493"></polygon>
                    <polygon id="Fill-133" fill="#22C1FA" mask="url(#mask-7)" points="0.0118987109 22.9065493 190.037972 22.9065493 190.037972 22.2583803 0.0118987109 22.2583803"></polygon>
                    <polygon id="Fill-134" fill="#21C0FA" mask="url(#mask-7)" points="0.0118987109 22.2583803 190.037972 22.2583803 190.037972 21.6102113 0.0118987109 21.6102113"></polygon>
                    <polygon id="Fill-135" fill="#20BFFA" mask="url(#mask-7)" points="0.0118987109 21.6102113 190.037972 21.6102113 190.037972 20.9611268 0.0118987109 20.9611268"></polygon>
                    <polygon id="Fill-136" fill="#1FBEFA" mask="url(#mask-7)" points="0.0118987109 20.9611268 190.037972 20.9611268 190.037972 20.3129577 0.0118987109 20.3129577"></polygon>
                    <polygon id="Fill-137" fill="#1EBEFA" mask="url(#mask-7)" points="0.0118987109 20.3129577 190.037972 20.3129577 190.037972 19.6647887 0.0118987109 19.6647887"></polygon>
                    <polygon id="Fill-138" fill="#1DBDFA" mask="url(#mask-7)" points="0.0118987109 19.6647887 190.037972 19.6647887 190.037972 19.0166197 0.0118987109 19.0166197"></polygon>
                    <polygon id="Fill-139" fill="#1CBCFA" mask="url(#mask-7)" points="0.0118987109 19.0166197 190.037972 19.0166197 190.037972 18.3684507 0.0118987109 18.3684507"></polygon>
                    <polygon id="Fill-140" fill="#1BBCFA" mask="url(#mask-7)" points="0.0118987109 18.3684507 190.037972 18.3684507 190.037972 17.7202817 0.0118987109 17.7202817"></polygon>
                    <polygon id="Fill-141" fill="#1ABBFA" mask="url(#mask-7)" points="0.0118987109 17.7202817 190.037972 17.7202817 190.037972 17.0721127 0.0118987109 17.0721127"></polygon>
                    <polygon id="Fill-142" fill="#19BAFA" mask="url(#mask-7)" points="0.0118987109 17.0721127 190.037972 17.0721127 190.037972 16.4239437 0.0118987109 16.4239437"></polygon>
                    <polygon id="Fill-143" fill="#18B9FA" mask="url(#mask-7)" points="0.0118987109 16.4239437 190.037972 16.4239437 190.037972 15.7757746 0.0118987109 15.7757746"></polygon>
                    <polygon id="Fill-144" fill="#17B9FA" mask="url(#mask-7)" points="0.0118987109 15.7757746 190.037972 15.7757746 190.037972 15.1276056 0.0118987109 15.1276056"></polygon>
                    <polygon id="Fill-145" fill="#16B8FA" mask="url(#mask-7)" points="0.0118987109 15.1276056 190.037972 15.1276056 190.037972 14.4794366 0.0118987109 14.4794366"></polygon>
                    <polygon id="Fill-146" fill="#15B7FA" mask="url(#mask-7)" points="0.0118987109 14.4794366 190.037972 14.4794366 190.037972 13.8312676 0.0118987109 13.8312676"></polygon>
                    <polygon id="Fill-147" fill="#14B7FA" mask="url(#mask-7)" points="0.0118987109 13.8312676 190.037972 13.8312676 190.037972 13.1830986 0.0118987109 13.1830986"></polygon>
                    <polygon id="Fill-148" fill="#13B6FA" mask="url(#mask-7)" points="0.0118987109 13.1830986 190.037972 13.1830986 190.037972 12.5349296 0.0118987109 12.5349296"></polygon>
                    <polygon id="Fill-149" fill="#12B5FA" mask="url(#mask-7)" points="0.0118987109 12.5349296 190.037972 12.5349296 190.037972 11.8867606 0.0118987109 11.8867606"></polygon>
                    <polygon id="Fill-150" fill="#11B4FA" mask="url(#mask-7)" points="0.0118987109 11.8867606 190.037972 11.8867606 190.037972 11.2385915 0.0118987109 11.2385915"></polygon>
                    <polygon id="Fill-151" fill="#10B4FA" mask="url(#mask-7)" points="0.0118987109 11.2385915 190.037972 11.2385915 190.037972 10.5904225 0.0118987109 10.5904225"></polygon>
                    <polygon id="Fill-152" fill="#0FB3FA" mask="url(#mask-7)" points="0.0118987109 10.5904225 190.037972 10.5904225 190.037972 9.94225352 0.0118987109 9.94225352"></polygon>
                    <polygon id="Fill-153" fill="#0EB2FA" mask="url(#mask-7)" points="0.0118987109 9.94225352 190.037972 9.94225352 190.037972 9.29408451 0.0118987109 9.29408451"></polygon>
                    <polygon id="Fill-154" fill="#0DB2FA" mask="url(#mask-7)" points="0.0118987109 9.29408451 190.037972 9.29408451 190.037972 8.64591549 0.0118987109 8.64591549"></polygon>
                    <polygon id="Fill-155" fill="#0CB1FA" mask="url(#mask-7)" points="0.0118987109 8.64591549 190.037972 8.64591549 190.037972 7.99774648 0.0118987109 7.99774648"></polygon>
                    <polygon id="Fill-156" fill="#0AB0FA" mask="url(#mask-7)" points="0.0118987109 7.99774648 190.037972 7.99774648 190.037972 7.34957746 0.0118987109 7.34957746"></polygon>
                    <polygon id="Fill-157" fill="#09AFFA" mask="url(#mask-7)" points="0.0118987109 7.34957746 190.037972 7.34957746 190.037972 6.70140845 0.0118987109 6.70140845"></polygon>
                    <polygon id="Fill-158" fill="#08AFFA" mask="url(#mask-7)" points="0.0118987109 6.70140845 190.037972 6.70140845 190.037972 6.05323944 0.0118987109 6.05323944"></polygon>
                    <polygon id="Fill-159" fill="#07AEFA" mask="url(#mask-7)" points="0.0118987109 6.05323944 190.037972 6.05323944 190.037972 5.40507042 0.0118987109 5.40507042"></polygon>
                    <polygon id="Fill-160" fill="#06ADFA" mask="url(#mask-7)" points="0.0118987109 5.40507042 190.037972 5.40507042 190.037972 4.75690141 0.0118987109 4.75690141"></polygon>
                    <polygon id="Fill-161" fill="#05ADFA" mask="url(#mask-7)" points="0.0118987109 4.75690141 190.037972 4.75690141 190.037972 4.10873239 0.0118987109 4.10873239"></polygon>
                    <polygon id="Fill-162" fill="#04ACFA" mask="url(#mask-7)" points="0.0118987109 4.10873239 190.037972 4.10873239 190.037972 3.46056338 0.0118987109 3.46056338"></polygon>
                    <polygon id="Fill-163" fill="#03ABFA" mask="url(#mask-7)" points="0.0118987109 3.46056338 190.037972 3.46056338 190.037972 2.81239437 0.0118987109 2.81239437"></polygon>
                    <polygon id="Fill-164" fill="#02AAFA" mask="url(#mask-7)" points="0.0118987109 2.81239437 190.037972 2.81239437 190.037972 2.16422535 0.0118987109 2.16422535"></polygon>
                    <polygon id="Fill-165" fill="#01AAFA" mask="url(#mask-7)" points="0.0118987109 2.16422535 190.037972 2.16422535 190.037972 1.51605634 0.0118987109 1.51605634"></polygon>
                    <polygon id="Fill-166" fill="#00A9FA" mask="url(#mask-7)" points="0.0118987109 1.51605634 190.037972 1.51605634 190.037972 0.867887324 0.0118987109 0.867887324"></polygon>
                    <path d="M190.03843,0.867795775 L0.0123563536,0.867795775 L190.03843,0.867795775 Z" id="Fill-167" fill="#00A9FA" mask="url(#mask-7)"></path>
                </g>
                <path d="M380.976403,324.489704 L152.143141,324.489704 C151.507018,324.489704 150.990797,323.974282 150.990797,323.337099 L150.990797,310.297732 C150.990797,305.637873 154.767264,301.860549 159.425152,301.860549 L372.942027,301.860549 C377.599915,301.860549 381.376382,305.637873 381.376382,310.297732 L381.376382,324.089634 C381.376382,324.311183 381.196986,324.489704 380.976403,324.489704" id="Fill-169" fill="#E7F0F2"></path>
                <g id="Group-199" transform="translate(236.143646, 301.602746)">
                    <g id="Group-173">
                        <mask id="mask-9" fill="white">
                            <use xlink:href="#path-8"></use>
                        </mask>
                        <g id="Clip-172"></g>
                        <path d="M59.4904424,0.257985915 L0.588162431,0.257985915 L59.4904424,0.257985915 Z" id="Fill-171" fill="#E7F0F2" mask="url(#mask-9)"></path>
                    </g>
                    <mask id="mask-11" fill="white">
                        <use xlink:href="#path-10"></use>
                    </mask>
                    <g id="Clip-175"></g>
                    <polygon id="Fill-174" fill="#E7F0F2" mask="url(#mask-11)" points="0.588528545 0.635352113 59.4908085 0.635352113 59.4908085 0.258169014 0.588528545 0.258169014"></polygon>
                    <polygon id="Fill-176" fill="#E6EFF1" mask="url(#mask-11)" points="0.588528545 1.01253521 59.4908085 1.01253521 59.4908085 0.635352113 0.588528545 0.635352113"></polygon>
                    <polygon id="Fill-177" fill="#E5EFF1" mask="url(#mask-11)" points="0.588528545 1.38971831 59.4908085 1.38971831 59.4908085 1.01253521 0.588528545 1.01253521"></polygon>
                    <polygon id="Fill-178" fill="#E5EEF0" mask="url(#mask-11)" points="0.588528545 1.76598592 59.4908085 1.76598592 59.4908085 1.38971831 0.588528545 1.38971831"></polygon>
                    <polygon id="Fill-179" fill="#E4EDEF" mask="url(#mask-11)" points="0.588528545 2.14316901 59.4908085 2.14316901 59.4908085 1.76598592 0.588528545 1.76598592"></polygon>
                    <polygon id="Fill-180" fill="#E3ECEE" mask="url(#mask-11)" points="0.588528545 2.52126761 59.4908085 2.52126761 59.4908085 2.14408451 0.588528545 2.14408451"></polygon>
                    <polygon id="Fill-181" fill="#E2EBED" mask="url(#mask-11)" points="0.588528545 2.8984507 59.4908085 2.8984507 59.4908085 2.52126761 0.588528545 2.52126761"></polygon>
                    <polygon id="Fill-182" fill="#E1EAEC" mask="url(#mask-11)" points="0.588528545 3.2756338 59.4908085 3.2756338 59.4908085 2.8984507 0.588528545 2.8984507"></polygon>
                    <polygon id="Fill-183" fill="#E0E9EB" mask="url(#mask-11)" points="0.588528545 3.65190141 59.4908085 3.65190141 59.4908085 3.2756338 0.588528545 3.2756338"></polygon>
                    <polygon id="Fill-184" fill="#DFE8EA" mask="url(#mask-11)" points="0.588528545 4.02908451 59.4908085 4.02908451 59.4908085 3.65190141 0.588528545 3.65190141"></polygon>
                    <polygon id="Fill-185" fill="#DEE7E9" mask="url(#mask-11)" points="0.588528545 4.40626761 59.4908085 4.40626761 59.4908085 4.02908451 0.588528545 4.02908451"></polygon>
                    <polygon id="Fill-186" fill="#DDE6E8" mask="url(#mask-11)" points="0.588528545 4.7834507 59.4908085 4.7834507 59.4908085 4.40626761 0.588528545 4.40626761"></polygon>
                    <polygon id="Fill-187" fill="#DBE5E7" mask="url(#mask-11)" points="0.588528545 5.15971831 59.4908085 5.15971831 59.4908085 4.7834507 0.588528545 4.7834507"></polygon>
                    <polygon id="Fill-188" fill="#DAE4E6" mask="url(#mask-11)" points="0.588528545 5.53690141 59.4908085 5.53690141 59.4908085 5.15971831 0.588528545 5.15971831"></polygon>
                    <polygon id="Fill-189" fill="#D9E3E5" mask="url(#mask-11)" points="0.588528545 5.915 59.4908085 5.915 59.4908085 5.5378169 0.588528545 5.5378169"></polygon>
                    <polygon id="Fill-190" fill="#D8E2E4" mask="url(#mask-11)" points="0.588528545 6.2921831 59.4908085 6.2921831 59.4908085 5.915 0.588528545 5.915"></polygon>
                    <polygon id="Fill-191" fill="#D7E1E3" mask="url(#mask-11)" points="0.588528545 6.6684507 59.4908085 6.6684507 59.4908085 6.2921831 0.588528545 6.2921831"></polygon>
                    <polygon id="Fill-192" fill="#D6E0E2" mask="url(#mask-11)" points="0.588528545 7.0456338 59.4908085 7.0456338 59.4908085 6.6684507 0.588528545 6.6684507"></polygon>
                    <polygon id="Fill-193" fill="#D5DFE1" mask="url(#mask-11)" points="0.588528545 7.4228169 59.4908085 7.4228169 59.4908085 7.0456338 0.588528545 7.0456338"></polygon>
                    <polygon id="Fill-194" fill="#D4DEE0" mask="url(#mask-11)" points="0.588528545 7.8 59.4908085 7.8 59.4908085 7.4228169 0.588528545 7.4228169"></polygon>
                    <polygon id="Fill-195" fill="#D2DDDF" mask="url(#mask-11)" points="0.588528545 8.17626761 59.4908085 8.17626761 59.4908085 7.8 0.588528545 7.8"></polygon>
                    <polygon id="Fill-196" fill="#D1DCDE" mask="url(#mask-11)" points="0.588528545 8.5534507 59.4908085 8.5534507 59.4908085 8.17626761 0.588528545 8.17626761"></polygon>
                    <polygon id="Fill-197" fill="#D0DBDD" mask="url(#mask-11)" points="0.588528545 8.9306338 59.4908085 8.9306338 59.4908085 8.5534507 0.588528545 8.5534507"></polygon>
                    <polygon id="Fill-198" fill="#D0DBDD" mask="url(#mask-11)" points="0.588528545 11.6240141 59.4908085 11.6240141 59.4908085 8.9306338 0.588528545 8.9306338"></polygon>
                </g>
                <g id="Group-213" transform="translate(0.000000, 0.405563)">
                    <path d="M254.869014,233.035528 C254.400388,233.035528 253.932677,232.857007 253.5748,232.499049 L234.618323,213.538275 C233.903485,212.823275 233.903485,211.664261 234.618323,210.949261 C235.333161,210.234261 236.491913,210.234261 237.20675,210.949261 L256.163227,229.910035 C256.878065,230.625035 256.878065,231.784049 256.163227,232.499049 C255.805351,232.857007 255.33764,233.035528 254.869014,233.035528" id="Fill-200" fill="#FFFFFF"></path>
                    <path d="M235.912628,233.035528 C235.444002,233.035528 234.976291,232.857007 234.618415,232.499049 C233.903577,231.784049 233.903577,230.625035 234.618415,229.910035 L253.574892,210.949261 C254.28973,210.234261 255.448481,210.234261 256.163319,210.949261 C256.878157,211.664261 256.878157,212.823275 256.163319,213.538275 L237.206842,232.499049 C236.848965,232.857007 236.381255,233.035528 235.912628,233.035528" id="Fill-202" fill="#FFFFFF"></path>
                    <path d="M301.76046,233.035528 C301.291834,233.035528 300.824123,232.857007 300.466247,232.499049 L281.50977,213.538275 C280.794932,212.823275 280.794932,211.664261 281.50977,210.949261 C282.224608,210.234261 283.383359,210.234261 284.098197,210.949261 L303.054674,229.910035 C303.769512,230.625035 303.769512,231.784049 303.054674,232.499049 C302.696797,232.857007 302.229087,233.035528 301.76046,233.035528" id="Fill-204" fill="#FFFFFF"></path>
                    <path d="M282.803983,233.035528 C282.335357,233.035528 281.867646,232.857007 281.50977,232.499049 C280.794932,231.784049 280.794932,230.625035 281.50977,229.910035 L300.466247,210.949261 C301.181085,210.234261 302.339836,210.234261 303.054674,210.949261 C303.769512,211.664261 303.769512,212.823275 303.054674,213.538275 L284.098197,232.499049 C283.74032,232.857007 283.27261,233.035528 282.803983,233.035528" id="Fill-206" fill="#FFFFFF"></path>
                    <path d="M292.283137,261.439063 C291.767831,261.439063 291.255272,261.223007 290.892819,260.800049 C284.645995,253.515472 277.850916,249.818711 270.698876,249.810472 L270.675994,249.810472 C258.404762,249.810472 248.890369,260.692021 248.79518,260.80188 C248.138005,261.567232 246.981084,261.65512 246.21499,260.995965 C245.448896,260.33681 245.360113,259.183289 246.017288,258.416106 C246.447472,257.914415 256.698669,246.1485 270.675994,246.1485 C278.953835,246.1485 286.691658,250.275542 293.671625,258.416106 C294.329715,259.183289 294.241848,260.339556 293.473924,260.997796 C293.128861,261.294415 292.705084,261.439063 292.283137,261.439063" id="Fill-208" fill="#FFFFFF"></path>
                    <mask id="mask-13" fill="white">
                        <use xlink:href="#path-12"></use>
                    </mask>
                    <g id="Clip-211"></g>
                    <polygon id="Fill-210" fill="#DAE6E8" mask="url(#mask-13)" points="141.440891 201.965986 158.081696 201.965986 158.081696 198.304014 141.440891 198.304014"></polygon>
                    <polygon id="Fill-212" fill="#DAE6E8" mask="url(#mask-13)" points="139.611236 201.958662 143.272378 201.958662 143.272378 78.2920423 139.611236 78.2920423"></polygon>
                </g>
                <g id="Group-261" transform="translate(123.563536, 8.645000)">
                    <g id="Group-216">
                        <mask id="mask-15" fill="white">
                            <use xlink:href="#path-14"></use>
                        </mask>
                        <g id="Clip-215"></g>
                        <path d="M35.726154,0.0997887324 L0.0300213628,0.0997887324 L35.726154,0.0997887324 Z" id="Fill-214" fill="#FFBE2A" mask="url(#mask-15)"></path>
                    </g>
                    <mask id="mask-17" fill="white">
                        <use xlink:href="#path-16"></use>
                    </mask>
                    <g id="Clip-218"></g>
                    <polygon id="Fill-217" fill="#FFBE2A" mask="url(#mask-17)" points="0.0302044199 1.54535211 35.726337 1.54535211 35.726337 0.0997887324 0.0302044199 0.0997887324"></polygon>
                    <polygon id="Fill-219" fill="#FFBE29" mask="url(#mask-17)" points="0.0302044199 2.99091549 35.726337 2.99091549 35.726337 1.54535211 0.0302044199 1.54535211"></polygon>
                    <polygon id="Fill-220" fill="#FFBF29" mask="url(#mask-17)" points="0.0302044199 4.43556338 35.726337 4.43556338 35.726337 2.99091549 0.0302044199 2.99091549"></polygon>
                    <polygon id="Fill-221" fill="#FFBF28" mask="url(#mask-17)" points="0.0302044199 5.88112676 35.726337 5.88112676 35.726337 4.43556338 0.0302044199 4.43556338"></polygon>
                    <polygon id="Fill-222" fill="#FFC027" mask="url(#mask-17)" points="0.0302044199 7.32760563 35.726337 7.32760563 35.726337 5.88204225 0.0302044199 5.88204225"></polygon>
                    <polygon id="Fill-223" fill="#FFC126" mask="url(#mask-17)" points="0.0302044199 8.77225352 35.726337 8.77225352 35.726337 7.32760563 0.0302044199 7.32760563"></polygon>
                    <polygon id="Fill-224" fill="#FEC125" mask="url(#mask-17)" points="0.0302044199 10.2178169 35.726337 10.2178169 35.726337 8.77225352 0.0302044199 8.77225352"></polygon>
                    <polygon id="Fill-225" fill="#FEC224" mask="url(#mask-17)" points="0.0302044199 11.6624648 35.726337 11.6624648 35.726337 10.2178169 0.0302044199 10.2178169"></polygon>
                    <polygon id="Fill-226" fill="#FEC223" mask="url(#mask-17)" points="0.0302044199 13.1080282 35.726337 13.1080282 35.726337 11.6624648 0.0302044199 11.6624648"></polygon>
                    <polygon id="Fill-227" fill="#FEC323" mask="url(#mask-17)" points="0.0302044199 14.5535915 35.726337 14.5535915 35.726337 13.1080282 0.0302044199 13.1080282"></polygon>
                    <polygon id="Fill-228" fill="#FEC422" mask="url(#mask-17)" points="0.0302044199 15.9982394 35.726337 15.9982394 35.726337 14.5535915 0.0302044199 14.5535915"></polygon>
                    <polygon id="Fill-229" fill="#FEC421" mask="url(#mask-17)" points="0.0302044199 17.4438028 35.726337 17.4438028 35.726337 15.9982394 0.0302044199 15.9982394"></polygon>
                    <polygon id="Fill-230" fill="#FEC520" mask="url(#mask-17)" points="0.0302044199 18.8893662 35.726337 18.8893662 35.726337 17.4438028 0.0302044199 17.4438028"></polygon>
                    <polygon id="Fill-231" fill="#FEC61F" mask="url(#mask-17)" points="0.0302044199 20.3349296 35.726337 20.3349296 35.726337 18.8902817 0.0302044199 18.8902817"></polygon>
                    <polygon id="Fill-232" fill="#FEC61E" mask="url(#mask-17)" points="0.0302044199 21.780493 35.726337 21.780493 35.726337 20.3349296 0.0302044199 20.3349296"></polygon>
                    <polygon id="Fill-233" fill="#FDC71D" mask="url(#mask-17)" points="0.0302044199 23.2251408 35.726337 23.2251408 35.726337 21.780493 0.0302044199 21.780493"></polygon>
                    <polygon id="Fill-234" fill="#FDC81C" mask="url(#mask-17)" points="0.0302044199 24.6707042 35.726337 24.6707042 35.726337 23.2251408 0.0302044199 23.2251408"></polygon>
                    <polygon id="Fill-235" fill="#FDC81B" mask="url(#mask-17)" points="0.0302044199 26.1162676 35.726337 26.1162676 35.726337 24.6707042 0.0302044199 24.6707042"></polygon>
                    <polygon id="Fill-236" fill="#FDC91A" mask="url(#mask-17)" points="0.0302044199 27.5609155 35.726337 27.5609155 35.726337 26.1162676 0.0302044199 26.1162676"></polygon>
                    <polygon id="Fill-237" fill="#FDCA18" mask="url(#mask-17)" points="0.0302044199 29.0064789 35.726337 29.0064789 35.726337 27.5609155 0.0302044199 27.5609155"></polygon>
                    <polygon id="Fill-238" fill="#FDCA17" mask="url(#mask-17)" points="0.0302044199 30.4511268 35.726337 30.4511268 35.726337 29.0064789 0.0302044199 29.0064789"></polygon>
                    <polygon id="Fill-239" fill="#FDCB16" mask="url(#mask-17)" points="0.0302044199 31.8966901 35.726337 31.8966901 35.726337 30.4511268 0.0302044199 30.4511268"></polygon>
                    <polygon id="Fill-240" fill="#FDCC15" mask="url(#mask-17)" points="0.0302044199 33.343169 35.726337 33.343169 35.726337 31.8976056 0.0302044199 31.8976056"></polygon>
                    <polygon id="Fill-241" fill="#FCCD14" mask="url(#mask-17)" points="0.0302044199 34.7878169 35.726337 34.7878169 35.726337 33.343169 0.0302044199 33.343169"></polygon>
                    <polygon id="Fill-242" fill="#FCCD13" mask="url(#mask-17)" points="0.0302044199 36.2333803 35.726337 36.2333803 35.726337 34.7878169 0.0302044199 34.7878169"></polygon>
                    <polygon id="Fill-243" fill="#FCCE12" mask="url(#mask-17)" points="0.0302044199 37.6789437 35.726337 37.6789437 35.726337 36.2333803 0.0302044199 36.2333803"></polygon>
                    <polygon id="Fill-244" fill="#FCCF11" mask="url(#mask-17)" points="0.0302044199 39.1235915 35.726337 39.1235915 35.726337 37.6789437 0.0302044199 37.6789437"></polygon>
                    <polygon id="Fill-245" fill="#FCCF10" mask="url(#mask-17)" points="0.0302044199 40.5691549 35.726337 40.5691549 35.726337 39.1235915 0.0302044199 39.1235915"></polygon>
                    <polygon id="Fill-246" fill="#FCD00F" mask="url(#mask-17)" points="0.0302044199 42.0138028 35.726337 42.0138028 35.726337 40.5691549 0.0302044199 40.5691549"></polygon>
                    <polygon id="Fill-247" fill="#FCD10E" mask="url(#mask-17)" points="0.0302044199 43.4593662 35.726337 43.4593662 35.726337 42.0138028 0.0302044199 42.0138028"></polygon>
                    <polygon id="Fill-248" fill="#FBD20D" mask="url(#mask-17)" points="0.0302044199 44.9049296 35.726337 44.9049296 35.726337 43.4593662 0.0302044199 43.4593662"></polygon>
                    <polygon id="Fill-249" fill="#FBD20B" mask="url(#mask-17)" points="0.0302044199 46.350493 35.726337 46.350493 35.726337 44.9058451 0.0302044199 44.9058451"></polygon>
                    <polygon id="Fill-250" fill="#FBD30A" mask="url(#mask-17)" points="0.0302044199 47.7960563 35.726337 47.7960563 35.726337 46.350493 0.0302044199 46.350493"></polygon>
                    <polygon id="Fill-251" fill="#FBD409" mask="url(#mask-17)" points="0.0302044199 49.2416197 35.726337 49.2416197 35.726337 47.7960563 0.0302044199 47.7960563"></polygon>
                    <polygon id="Fill-252" fill="#FBD508" mask="url(#mask-17)" points="0.0302044199 50.6862676 35.726337 50.6862676 35.726337 49.2416197 0.0302044199 49.2416197"></polygon>
                    <polygon id="Fill-253" fill="#FBD507" mask="url(#mask-17)" points="0.0302044199 52.131831 35.726337 52.131831 35.726337 50.6862676 0.0302044199 50.6862676"></polygon>
                    <polygon id="Fill-254" fill="#FBD606" mask="url(#mask-17)" points="0.0302044199 53.5764789 35.726337 53.5764789 35.726337 52.131831 0.0302044199 52.131831"></polygon>
                    <polygon id="Fill-255" fill="#FBD705" mask="url(#mask-17)" points="0.0302044199 55.0220423 35.726337 55.0220423 35.726337 53.5764789 0.0302044199 53.5764789"></polygon>
                    <polygon id="Fill-256" fill="#FAD803" mask="url(#mask-17)" points="0.0302044199 56.4676056 35.726337 56.4676056 35.726337 55.0220423 0.0302044199 55.0220423"></polygon>
                    <polygon id="Fill-257" fill="#FAD802" mask="url(#mask-17)" points="0.0302044199 57.9122535 35.726337 57.9122535 35.726337 56.4676056 0.0302044199 56.4676056"></polygon>
                    <polygon id="Fill-258" fill="#FAD901" mask="url(#mask-17)" points="0.0302044199 59.3578169 35.726337 59.3578169 35.726337 57.9122535 0.0302044199 57.9122535"></polygon>
                    <polygon id="Fill-259" fill="#FADA00" mask="url(#mask-17)" points="0.0302044199 60.8033803 35.726337 60.8033803 35.726337 59.3587324 0.0302044199 59.3587324"></polygon>
                    <path d="M0.0300213628,60.8030141 L35.726154,60.8030141 L0.0300213628,60.8030141 Z" id="Fill-260" fill="#FADA00" mask="url(#mask-17)"></path>
                </g>
                <g id="Group-312" transform="translate(0.000000, 0.405563)">
                    <path d="M131.328726,9.71246479 C127.820437,9.71246479 124.966577,12.5669718 124.966577,16.0760563 L124.966577,61.3050704 C124.966577,64.8141549 127.820437,67.6695775 131.328726,67.6695775 L151.554704,67.6695775 C155.062993,67.6695775 157.916853,64.8141549 157.916853,61.3050704 L157.916853,16.0760563 C157.916853,12.5669718 155.062993,9.71246479 151.554704,9.71246479 L131.328726,9.71246479 Z M151.554704,70.4160563 L131.328726,70.4160563 C126.306555,70.4160563 122.220721,66.3292958 122.220721,61.3050704 L122.220721,16.0760563 C122.220721,11.0527465 126.306555,6.96598592 131.328726,6.96598592 L151.554704,6.96598592 C156.576875,6.96598592 160.66271,11.0527465 160.66271,16.0760563 L160.66271,61.3050704 C160.66271,66.3292958 156.576875,70.4160563 151.554704,70.4160563 Z" id="Fill-262" fill="#DAE6E8"></path>
                    <mask id="mask-19" fill="white">
                        <use xlink:href="#path-18"></use>
                    </mask>
                    <g id="Clip-265"></g>
                    <path d="M135.781681,71.9321127 L147.101932,71.9321127 L147.101932,70.9973944 L135.781681,70.9973944 L135.781681,71.9321127 Z M133.035825,74.6785915 L149.847788,74.6785915 L149.847788,68.2509155 L133.035825,68.2509155 L133.035825,74.6785915 Z" id="Fill-264" fill="#DAE6E8" mask="url(#mask-19)"></path>
                    <path d="M138.373038,75.2184577 C138.213778,75.2184577 138.084723,75.3475423 138.084723,75.5059225 L138.084723,75.8647958 C138.084723,76.0240915 138.213778,76.1531761 138.373038,76.1531761 L144.510942,76.1531761 C144.670201,76.1531761 144.799257,76.0240915 144.799257,75.8647958 L144.799257,75.5059225 C144.799257,75.3475423 144.670201,75.2184577 144.510942,75.2184577 L138.373038,75.2184577 Z M144.510942,78.8996549 L138.373038,78.8996549 C136.699896,78.8996549 135.338866,77.5374014 135.338866,75.8647958 L135.338866,75.5059225 C135.338866,73.8333169 136.699896,72.4719789 138.373038,72.4719789 L144.510942,72.4719789 C146.183168,72.4719789 147.545113,73.8333169 147.545113,75.5059225 L147.545113,75.8647958 C147.545113,77.5374014 146.183168,78.8996549 144.510942,78.8996549 Z" id="Fill-266" fill="#DAE6E8" mask="url(#mask-19)"></path>
                    <path d="M138.373038,3.25659155 C138.213778,3.25659155 138.084723,3.38567606 138.084723,3.54405634 L138.084723,6.28778873 C138.084723,6.44616901 138.213778,6.57525352 138.373038,6.57525352 L144.510942,6.57525352 C144.670201,6.57525352 144.799257,6.44616901 144.799257,6.28778873 L144.799257,3.54405634 C144.799257,3.38567606 144.670201,3.25659155 144.510942,3.25659155 L138.373038,3.25659155 Z M144.510942,9.32173239 L138.373038,9.32173239 C136.699896,9.32173239 135.338866,7.96039437 135.338866,6.28778873 L135.338866,3.54405634 C135.338866,1.8714507 136.699896,0.510112676 138.373038,0.510112676 L144.510942,0.510112676 C146.183168,0.510112676 147.545113,1.8714507 147.545113,3.54405634 L147.545113,6.28778873 C147.545113,7.96039437 146.183168,9.32173239 144.510942,9.32173239 Z" id="Fill-267" fill="#DAE6E8" mask="url(#mask-19)"></path>
                    <path d="M142.085161,51.6105493 C137.845559,51.6105493 134.408662,48.1719577 134.408662,43.9313944 L134.408662,30.2557606 C134.408662,26.0151972 137.845559,22.5775211 142.085161,22.5775211 C146.324763,22.5775211 149.762575,26.0151972 149.762575,30.2557606 L149.762575,43.9313944 C149.762575,48.1719577 146.324763,51.6105493 142.085161,51.6105493" id="Fill-268" fill="#FFFFFF" mask="url(#mask-19)"></path>
                    <polygon id="Fill-269" fill="#DAE6E8" mask="url(#mask-19)" points="105.077516 5.67056338 136.711611 5.67056338 136.711611 2.00859155 105.077516 2.00859155"></polygon>
                    <polygon id="Fill-270" fill="#DAE6E8" mask="url(#mask-19)" points="104.877983 324.084507 108.539125 324.084507 108.539125 3.83957746 104.877983 3.83957746"></polygon>
                    <g id="Group-275" mask="url(#mask-19)" fill="#1EBAFA">
                        <g transform="translate(385.335175, 72.323944)">
                            <path d="M14.7361873,10.1443028 L2.20501418,10.1443028 C1.19362376,10.1443028 0.374443278,9.32402113 0.374443278,8.3133169 C0.374443278,7.30261268 1.19362376,6.48233099 2.20501418,6.48233099 L14.7361873,6.48233099 C15.7466624,6.48233099 16.5667582,7.30261268 16.5667582,8.3133169 C16.5667582,9.32402113 15.7466624,10.1443028 14.7361873,10.1443028" id="Fill-271"></path>
                            <path d="M8.46062413,16.4016056 C7.45014899,16.4016056 6.63005322,15.5813239 6.63005322,14.5706197 L6.63005322,2.03660563 C6.63005322,1.02498592 7.45014899,0.205619718 8.46062413,0.205619718 C9.47109926,0.205619718 10.291195,1.02498592 10.291195,2.03660563 L10.291195,14.5706197 C10.291195,15.5813239 9.47109926,16.4016056 8.46062413,16.4016056" id="Fill-273"></path>
                        </g>
                    </g>
                    <path d="M411.64295,253.091415 C409.62383,253.091415 407.981808,254.734725 407.981808,256.753387 C407.981808,258.772965 409.62383,260.415359 411.64295,260.415359 C413.66207,260.415359 415.304092,258.772965 415.304092,256.753387 C415.304092,254.734725 413.66207,253.091415 411.64295,253.091415 M411.64295,264.077331 C407.605626,264.077331 404.320666,260.791627 404.320666,256.753387 C404.320666,252.715148 407.605626,249.429444 411.64295,249.429444 C415.680274,249.429444 418.965234,252.715148 418.965234,256.753387 C418.965234,260.791627 415.680274,264.077331 411.64295,264.077331" id="Fill-276" fill="#1EBAFA" mask="url(#mask-19)"></path>
                    <path d="M310.214311,124.006908 C308.195192,124.006908 306.55317,125.650218 306.55317,127.66888 C306.55317,129.688458 308.195192,131.330852 310.214311,131.330852 C312.233431,131.330852 313.875453,129.688458 313.875453,127.66888 C313.875453,125.650218 312.233431,124.006908 310.214311,124.006908 M310.214311,134.992824 C306.176987,134.992824 302.892028,131.70712 302.892028,127.66888 C302.892028,123.630641 306.176987,120.344937 310.214311,120.344937 C314.251636,120.344937 317.536595,123.630641 317.536595,127.66888 C317.536595,131.70712 314.251636,134.992824 310.214311,134.992824" id="Fill-277" fill="#1EBAFA" mask="url(#mask-19)"></path>
                    <g id="Group-282" mask="url(#mask-19)" fill="#1EBAFA">
                        <g transform="translate(395.403315, 162.957746)">
                            <path d="M15.1930063,10.0736268 L2.66274843,10.0736268 C1.65135801,10.0736268 0.832177532,9.25334507 0.832177532,8.24264085 C0.832177532,7.23193662 1.65135801,6.41165493 2.66274843,6.41165493 L15.1930063,6.41165493 C16.2034814,6.41165493 17.0235772,7.23193662 17.0235772,8.24264085 C17.0235772,9.25334507 16.2034814,10.0736268 15.1930063,10.0736268" id="Fill-278"></path>
                            <path d="M8.91735157,16.3310211 C7.90687643,16.3310211 7.08678066,15.5107394 7.08678066,14.5000352 L7.08678066,1.96602113 C7.08678066,0.954401408 7.90687643,0.135035211 8.91735157,0.135035211 C9.9278267,0.135035211 10.7479225,0.954401408 10.7479225,1.96602113 L10.7479225,14.5000352 C10.7479225,15.5107394 9.9278267,16.3310211 8.91735157,16.3310211" id="Fill-280"></path>
                        </g>
                    </g>
                    <g id="Group-287" mask="url(#mask-19)" fill="#1EBAFA">
                        <g transform="translate(238.889503, 54.929577)">
                            <path d="M14.7933926,10.4572183 L2.26221952,10.4572183 C1.2508291,10.4572183 0.431648619,9.63693662 0.431648619,8.62623239 C0.431648619,7.61552817 1.2508291,6.79524648 2.26221952,6.79524648 L14.7933926,6.79524648 C15.8038678,6.79524648 16.6239635,7.61552817 16.6239635,8.62623239 C16.6239635,9.63693662 15.8038678,10.4572183 14.7933926,10.4572183" id="Fill-283"></path>
                            <path d="M8.51782947,16.7136056 C7.50735433,16.7136056 6.68725856,15.8933239 6.68725856,14.8826197 L6.68725856,2.34952113 C6.68725856,1.33790141 7.50735433,0.518535211 8.51782947,0.518535211 C9.5283046,0.518535211 10.3484004,1.33790141 10.3484004,2.34952113 L10.3484004,14.8826197 C10.3484004,15.8933239 9.5283046,16.7136056 8.51782947,16.7136056" id="Fill-285"></path>
                        </g>
                    </g>
                    <path d="M478.196925,197.603937 C476.177805,197.603937 474.535783,199.247246 474.535783,201.265908 C474.535783,203.285486 476.177805,204.92788 478.196925,204.92788 C480.216045,204.92788 481.858067,203.285486 481.858067,201.265908 C481.858067,199.247246 480.216045,197.603937 478.196925,197.603937 M478.196925,208.589852 C474.159601,208.589852 470.874641,205.304148 470.874641,201.265908 C470.874641,197.227669 474.159601,193.941965 478.196925,193.941965 C482.234249,193.941965 485.519208,197.227669 485.519208,201.265908 C485.519208,205.304148 482.234249,208.589852 478.196925,208.589852" id="Fill-288" fill="#1EBAFA" mask="url(#mask-19)"></path>
                    <path d="M193.348285,113.020993 C191.329166,113.020993 189.687143,114.664303 189.687143,116.682965 C189.687143,118.702542 191.329166,120.344937 193.348285,120.344937 C195.36649,120.344937 197.009427,118.702542 197.009427,116.682965 C197.009427,114.664303 195.36649,113.020993 193.348285,113.020993 M193.348285,124.006908 C189.310961,124.006908 186.026002,120.721204 186.026002,116.682965 C186.026002,112.644725 189.310961,109.359021 193.348285,109.359021 C197.385609,109.359021 200.670569,112.644725 200.670569,116.682965 C200.670569,120.721204 197.385609,124.006908 193.348285,124.006908" id="Fill-289" fill="#1EBAFA" mask="url(#mask-19)"></path>
                    <path d="M56.5962182,153.302683 C54.5780138,153.302683 52.9350764,154.945993 52.9350764,156.964655 C52.9350764,158.984232 54.5780138,160.626627 56.5962182,160.626627 C58.6153379,160.626627 60.25736,158.984232 60.25736,156.964655 C60.25736,154.945993 58.6153379,153.302683 56.5962182,153.302683 M56.5962182,164.288599 C52.5588941,164.288599 49.2739346,161.002894 49.2739346,156.964655 C49.2739346,152.926415 52.5588941,149.640711 56.5962182,149.640711 C60.6335424,149.640711 63.9185018,152.926415 63.9185018,156.964655 C63.9185018,161.002894 60.6335424,164.288599 56.5962182,164.288599" id="Fill-290" fill="#1EBAFA" mask="url(#mask-19)"></path>
                    <path d="M132.395125,260.415359 C130.376921,260.415359 128.733983,262.058669 128.733983,264.077331 C128.733983,266.096908 130.376921,267.739303 132.395125,267.739303 C134.414245,267.739303 136.056267,266.096908 136.056267,264.077331 C136.056267,262.058669 134.414245,260.415359 132.395125,260.415359 M132.395125,271.401275 C128.357801,271.401275 125.072842,268.11557 125.072842,264.077331 C125.072842,260.039092 128.357801,256.753387 132.395125,256.753387 C136.432449,256.753387 139.717409,260.039092 139.717409,264.077331 C139.717409,268.11557 136.432449,271.401275 132.395125,271.401275" id="Fill-291" fill="#1EBAFA" mask="url(#mask-19)"></path>
                    <g id="Group-296" mask="url(#mask-19)" fill="#1EBAFA">
                        <g transform="translate(76.883978, 90.633803)">
                            <path d="M14.8202105,10.2247746 L2.28903738,10.2247746 C1.27764696,10.2247746 0.458466483,9.40449296 0.458466483,8.39378873 C0.458466483,7.38308451 1.27764696,6.56280282 2.28903738,6.56280282 L14.8202105,6.56280282 C15.8306856,6.56280282 16.6507814,7.38308451 16.6507814,8.39378873 C16.6507814,9.40449296 15.8306856,10.2247746 14.8202105,10.2247746" id="Fill-292"></path>
                            <path d="M8.54464733,16.4820775 C7.53417219,16.4820775 6.71407643,15.6617958 6.71407643,14.6510915 L6.71407643,2.11799296 C6.71407643,1.10637324 7.53417219,0.287007042 8.54464733,0.287007042 C9.55512247,0.287007042 10.3752182,1.10637324 10.3752182,2.11799296 L10.3752182,14.6510915 C10.3752182,15.6617958 9.55512247,16.4820775 8.54464733,16.4820775" id="Fill-294"></path>
                        </g>
                    </g>
                    <g id="Group-301" mask="url(#mask-19)" fill="#1EBAFA">
                        <g transform="translate(51.255985, 216.056338)">
                            <path d="M14.5422383,10.2694507 L2.01106519,10.2694507 C0.99967477,10.2694507 0.180494291,9.44916901 0.180494291,8.43846479 C0.180494291,7.42776056 0.99967477,6.60747887 2.01106519,6.60747887 L14.5422383,6.60747887 C15.5527134,6.60747887 16.3728092,7.42776056 16.3728092,8.43846479 C16.3728092,9.44916901 15.5527134,10.2694507 14.5422383,10.2694507" id="Fill-297"></path>
                            <path d="M8.26667514,16.5267535 C7.2562,16.5267535 6.43610424,15.7064718 6.43610424,14.6957676 L6.43610424,2.16175352 C6.43610424,1.1501338 7.2562,0.330767606 8.26667514,0.330767606 C9.27715028,0.330767606 10.097246,1.1501338 10.097246,2.16175352 L10.097246,14.6957676 C10.097246,15.7064718 9.27715028,16.5267535 8.26667514,16.5267535" id="Fill-299"></path>
                        </g>
                    </g>
                    <g id="Group-306" mask="url(#mask-19)" fill="#1EBAFA">
                        <g transform="translate(16.475138, 266.408451)">
                            <path d="M14.9713241,10.0066127 L2.44015101,10.0066127 C1.42876059,10.0066127 0.60958011,9.18633099 0.60958011,8.17562676 C0.60958011,7.16492254 1.42876059,6.34464085 2.44015101,6.34464085 L14.9713241,6.34464085 C15.9817993,6.34464085 16.801895,7.16492254 16.801895,8.17562676 C16.801895,9.18633099 15.9817993,10.0066127 14.9713241,10.0066127" id="Fill-302"></path>
                            <path d="M8.69566943,16.2639155 C7.68519429,16.2639155 6.86509853,15.4436338 6.86509853,14.4329296 L6.86509853,1.89891549 C6.86509853,0.887295775 7.68519429,0.0679295775 8.69566943,0.0679295775 C9.70614457,0.0679295775 10.5262403,0.887295775 10.5262403,1.89891549 L10.5262403,14.4329296 C10.5262403,15.4436338 9.70614457,16.2639155 8.69566943,16.2639155" id="Fill-304"></path>
                        </g>
                    </g>
                    <g id="Group-311" mask="url(#mask-19)" fill="#1EBAFA">
                        <g transform="translate(454.896869, 265.492958)">
                            <path d="M14.9310516,10.6261268 L2.39987845,10.6261268 C1.38848803,10.6261268 0.569307551,9.80584507 0.569307551,8.79514085 C0.569307551,7.78443662 1.38848803,6.96415493 2.39987845,6.96415493 L14.9310516,6.96415493 C15.9415267,6.96415493 16.7616225,7.78443662 16.7616225,8.79514085 C16.7616225,9.80584507 15.9415267,10.6261268 14.9310516,10.6261268" id="Fill-307"></path>
                            <path d="M8.6554884,16.8826056 C7.64501326,16.8826056 6.8249175,16.0623239 6.8249175,15.0516197 L6.8249175,2.51852113 C6.8249175,1.50690141 7.64501326,0.687535211 8.6554884,0.687535211 C9.66596354,0.687535211 10.4860593,1.50690141 10.4860593,2.51852113 L10.4860593,15.0516197 C10.4860593,16.0623239 9.66596354,16.8826056 8.6554884,16.8826056" id="Fill-309"></path>
                        </g>
                    </g>
                </g>
            </g>
        </g>
    </g>
</svg>