<?xml version="1.0" encoding="UTF-8"?>
<svg width="53px" height="64px" viewBox="0 0 53 64" version="1.1" xmlns="http://www.w3.org/2000/svg" xmlns:xlink="http://www.w3.org/1999/xlink">
    <!-- Generator: Sketch 49.2 (51160) - http://www.bohemiancoding.com/sketch -->
    <title>ic_file</title>
    <desc>Created with Sketch.</desc>
    <defs></defs>
    <g id="Numbers" stroke="none" stroke-width="1" fill="none" fill-rule="evenodd">
        <g id="Numbers_called_id" transform="translate(-344.000000, -419.000000)" fill="#21ABFF">
            <g id="Group-3" transform="translate(153.000000, 290.000000)">
                <g id="Group-9" transform="translate(83.000000, 129.000000)">
                    <g id="ic_file" transform="translate(108.000000, 0.000000)">
                        <g id="Page-1">
                            <path d="M37.7317411,5.76146894 L37.7317411,18.7992943 C37.7317411,19.2257247 38.0792962,19.5725876 38.5065775,19.5725876 L48.7762491,19.5725876 L37.7317411,5.76146894 Z M3.51307988,2.74046372 C3.09357897,2.74055508 2.74602388,3.087418 2.74602388,3.51375702 L2.74602388,60.4861516 C2.74602388,60.912582 3.09357897,61.2594449 3.52076875,61.2594449 L49.4792313,61.2594449 C49.906421,61.2594449 50.2539761,60.912582 50.2539761,60.4861516 L50.2539761,22.3131427 L38.5065775,22.3131427 C36.5651386,22.3131427 34.9857172,20.7368667 34.9857172,18.7992943 L34.9857172,2.91558519 L3.51307988,2.74046372 Z M49.4792313,64 L3.52076875,64 C1.5794214,64 0,62.4237241 0,60.4861516 L0,3.51375702 C0,1.57627593 1.5794214,0 3.52076875,0 L36.0708543,0.181059339 C36.759374,0.184804764 37.3514168,0.608403227 37.602861,1.20694046 L52.6401793,20.0110764 C52.8535454,20.2837616 52.9565213,20.613085 52.9432488,20.9428651 L53,20.9428651 L53,60.4861516 C53,62.4237241 51.4205786,64 49.4792313,64 Z" id="Fill-1"></path>
                        </g>
                        <text id="FILE" font-family="Muli-SemiBold, Muli" font-size="14" font-weight="500">
                            <tspan x="13.647" y="43">FILE</tspan>
                        </text>
                    </g>
                </g>
            </g>
        </g>
    </g>
</svg>