<?xml version="1.0" encoding="UTF-8"?>
<svg width="23px" height="23px" viewBox="0 0 23 23" version="1.1" xmlns="http://www.w3.org/2000/svg" xmlns:xlink="http://www.w3.org/1999/xlink">
    <!-- Generator: Sketch 48.2 (47327) - http://www.bohemiancoding.com/sketch -->
    <title>icon_help</title>
    <desc>Created with Sketch.</desc>
    <defs>
        <rect id="path-1" x="0" y="0" width="27" height="27"></rect>
        <path d="M13.5,6.73918269 C14.3113021,6.73918269 15.0594918,6.94200518 15.7445913,7.34765625 C16.4296909,7.75330732 16.9750581,8.29867446 17.3807091,8.98377404 C17.7863602,9.66887362 17.9891827,10.4170633 17.9891827,11.2283654 C17.9891827,11.8413492 17.808896,12.4092522 17.4483173,12.9320913 C17.2319701,13.2566122 16.8443538,13.6667643 16.2854567,14.1625601 C15.7265597,14.6583558 15.3479577,15.041465 15.1496394,15.311899 C14.7890607,15.7986803 14.608774,16.3215116 14.608774,16.8804087 L12.391226,16.8804087 C12.391226,16.213338 12.5084123,15.618392 12.7427885,15.0955529 C12.9230778,14.6989163 13.2025221,14.3203143 13.5811298,13.9597356 C13.7253613,13.833533 14.0588916,13.563103 14.5817308,13.1484375 C14.9783674,12.8419456 15.2578117,12.5715156 15.4200721,12.3371394 C15.6544483,12.0126186 15.7716346,11.6430309 15.7716346,11.2283654 C15.7716346,10.6153816 15.5462763,10.0925502 15.0955529,9.65985577 C14.6448295,9.2271613 14.1129838,9.01081731 13.5,9.01081731 C12.8870162,9.01081731 12.3551705,9.2271613 11.9044471,9.65985577 C11.4537237,10.0925502 11.2283654,10.6153816 11.2283654,11.2283654 L9.01081731,11.2283654 C9.01081731,10.4170633 9.2136398,9.66887362 9.61929087,8.98377404 C10.0249419,8.29867446 10.5703091,7.75330732 11.2554087,7.34765625 C11.9405082,6.94200518 12.6886979,6.73918269 13.5,6.73918269 Z M13.5,22.5324519 C15.1226043,22.5324519 16.6370122,22.1177926 18.0432692,21.2884615 C19.4134684,20.4951883 20.4951883,19.4134684 21.2884615,18.0432692 C22.1177926,16.6370122 22.5324519,15.1226043 22.5324519,13.5 C22.5324519,11.8773957 22.1177926,10.3629878 21.2884615,8.95673077 C20.4951883,7.58653161 19.4134684,6.50481166 18.0432692,5.71153846 C16.6370122,4.88220739 15.1226043,4.46754808 13.5,4.46754808 C11.8773957,4.46754808 10.3629878,4.88220739 8.95673077,5.71153846 C7.58653161,6.50481166 6.50481166,7.58653161 5.71153846,8.95673077 C4.88220739,10.3629878 4.46754808,11.8773957 4.46754808,13.5 C4.46754808,15.1226043 4.88220739,16.6370122 5.71153846,18.0432692 C6.50481166,19.4134684 7.58653161,20.4951883 8.95673077,21.2884615 C10.3629878,22.1177926 11.8773957,22.5324519 13.5,22.5324519 Z M13.5,2.25 C15.5552987,2.25 17.457323,2.76381698 19.2061298,3.79146635 C20.9008498,4.76502891 22.2349711,6.09915018 23.2085337,7.79387019 C24.236183,9.54267701 24.75,11.4447013 24.75,13.5 C24.75,15.5552987 24.236183,17.457323 23.2085337,19.2061298 C22.2349711,20.9008498 20.9008498,22.2349711 19.2061298,23.2085337 C17.457323,24.236183 15.5552987,24.75 13.5,24.75 C11.4447013,24.75 9.54267701,24.236183 7.79387019,23.2085337 C6.09915018,22.2169422 4.76502891,20.8738066 3.79146635,19.1790865 C2.76381698,17.4302797 2.25,15.5372698 2.25,13.5 C2.25,11.4627302 2.76381698,9.56972028 3.79146635,7.82091346 C4.78305784,6.12619345 6.12619345,4.78305784 7.82091346,3.79146635 C9.56972028,2.76381698 11.4627302,2.25 13.5,2.25 Z M12.391226,20.2608173 L12.391226,17.9891827 L14.608774,17.9891827 L14.608774,20.2608173 L12.391226,20.2608173 Z" id="path-3"></path>
    </defs>
    <g id="Help" stroke="none" stroke-width="1" fill="none" fill-rule="evenodd" transform="translate(-19.000000, -683.000000)">
        <g id="side-bar">
            <g id="Side-Bar">
                <g id="Billing-Copy" transform="translate(0.000000, 663.000000)">
                    <g id="Icon-/-Help-/-Stroke" transform="translate(17.000000, 18.000000)">
                        <mask id="mask-2" fill="white">
                            <use xlink:href="#path-1"></use>
                        </mask>
                        <g id="Container" fill-rule="nonzero"></g>
                        <mask id="mask-4" fill="white">
                            <use xlink:href="#path-3"></use>
                        </mask>
                        <g id="Help"></g>
                        <g id="Style-/-Color-/-White" mask="url(#mask-4)" fill="#FFFFFF" fill-rule="evenodd">
                            <rect id="Container" x="0" y="0" width="27" height="27"></rect>
                        </g>
                    </g>
                </g>
            </g>
        </g>
    </g>
</svg>