<?xml version="1.0" encoding="UTF-8"?>
<svg width="18px" height="20px" viewBox="0 0 18 20" version="1.1" xmlns="http://www.w3.org/2000/svg" xmlns:xlink="http://www.w3.org/1999/xlink">
    <!-- Generator: Sketch 48.2 (47327) - http://www.bohemiancoding.com/sketch -->
    <title>ic_industry</title>
    <desc>Created with Sketch.</desc>
    <defs>
        <rect id="path-1" x="0" y="0" width="24" height="24"></rect>
        <path d="M16.3125,3.60714286 C16.9821462,3.60714286 17.6043498,3.52343834 18.1791295,3.35602679 C18.7539091,3.18861523 19.2505559,3.00446529 19.6690848,2.80357143 C20.0876137,2.60267757 20.4140613,2.41852762 20.6484375,2.25111607 L21,2 L21,12.1071429 L20.6651786,12.3582589 C20.4419632,12.5256705 20.1294663,12.7098204 19.7276786,12.9107143 C19.3258908,13.1116081 18.8459849,13.2957581 18.2879464,13.4631696 C17.7299079,13.6305812 17.1160748,13.7142857 16.4464286,13.7142857 C15.7767824,13.7142857 15.1908507,13.6305812 14.6886161,13.4631696 C14.1863814,13.2957581 13.6841543,13.1116081 13.1819196,12.9107143 C12.679685,12.7098204 12.1356056,12.5256705 11.5496652,12.3582589 C10.9637247,12.1908474 10.246656,12.1071429 9.3984375,12.1071429 C8.90736362,12.1071429 8.46651981,12.1768966 8.07589286,12.3164062 C7.6852659,12.4559159 7.35044782,12.6205348 7.07142857,12.8102679 C7.07142857,12.9285722 6,12.9285722 6,12.7834821 L6,3.65736607 L6.94587054,2.82868304 C7.57645405,2.27622492 8.4386106,2 9.53236607,2 C10.3805846,2 11.0837026,2.08370452 11.6417411,2.25111607 C12.1997796,2.41852762 12.7131673,2.60267757 13.1819196,2.80357143 C13.650672,3.00446529 14.1222074,3.18861523 14.5965402,3.35602679 C15.0708729,3.52343834 15.6428538,3.60714286 16.3125,3.60714286 Z M3,2.83391219 C3,2.37335521 3.36683083,2 3.81347656,2 L4.18652344,2 C4.63579414,2 5,2.37289102 5,2.83391219 L5,21.1660878 C5,21.6266448 4.63316917,22 4.18652344,22 L3.81347656,22 C3.36420586,22 3,21.627109 3,21.1660878 L3,2.83391219 Z" id="path-3"></path>
    </defs>
    <g id="01_profile" stroke="none" stroke-width="1" fill="none" fill-rule="evenodd" transform="translate(-1118.000000, -472.000000)">
        <g id="Group-12" transform="translate(326.000000, 229.000000)">
            <g id="Group" transform="translate(789.000000, 75.000000)">
                <g id="Group-6" transform="translate(0.000000, 166.000000)">
                    <g id="Icon-/-Flag">
                        <mask id="mask-2" fill="white">
                            <use xlink:href="#path-1"></use>
                        </mask>
                        <g id="Container" fill-rule="nonzero"></g>
                        <mask id="mask-4" fill="white">
                            <use xlink:href="#path-3"></use>
                        </mask>
                        <g id="Flag"></g>
                        <g id="Style-/-Color-/-Crystal" mask="url(#mask-4)" fill="#21ABFF" fill-rule="evenodd">
                            <rect id="Container" x="0" y="0" width="24" height="24"></rect>
                        </g>
                    </g>
                </g>
            </g>
        </g>
    </g>
</svg>