<?xml version="1.0" encoding="UTF-8"?>
<svg width="35px" height="43px" viewBox="0 0 35 43" version="1.1" xmlns="http://www.w3.org/2000/svg" xmlns:xlink="http://www.w3.org/1999/xlink">
    <!-- Generator: Sketch 48.2 (47327) - http://www.bohemiancoding.com/sketch -->
    <title>ic_ivr_page</title>
    <desc>Created with Sketch.</desc>
    <defs></defs>
    <g id="IVR" stroke="none" stroke-width="1" fill="none" fill-rule="evenodd" transform="translate(-379.000000, -208.000000)">
        <g id="Group-2" transform="translate(327.000000, 170.000000)">
            <g id="Group-34" transform="translate(35.000000, 24.000000)">
                <g id="ic_ivr_page" transform="translate(14.000000, 14.000000)">
                    <polygon id="Shape" points="0 0 43 0 43 43 0 43"></polygon>
                    <g id="Page-1" transform="translate(3.583333, 0.000000)">
                        <g id="Group-7" transform="translate(19.111111, 15.925068)"></g>
                        <path d="M32.2043906,6.62549145 C31.4873564,5.90808974 30.3230487,5.90808974 29.6060145,6.62549145 L17.1951855,19.0363205 L4.78472393,6.62549145 C4.06732222,5.90808974 2.90338205,5.90808974 2.18598034,6.62549145 C1.46821111,7.34326068 1.46821111,8.50683333 2.18598034,9.22423504 L15.8959974,22.9342521 C16.2546983,23.292953 16.7251256,23.4723034 17.1951855,23.4723034 C17.6652453,23.4723034 18.1360402,23.292953 18.4943735,22.9342521 L32.2043906,9.22423504 C32.9221598,8.50683333 32.9221598,7.34326068 32.2043906,6.62549145" id="Fill-1" fill="#00BDFF"></path>
                        <path d="M15.1514359,28.5243991 C15.1404103,28.4692709 15.1198291,28.4178179 15.1040256,28.3645274 C15.0860171,28.3031513 15.0720513,28.2410402 15.0474274,28.1815017 C15.0209658,28.1179205 14.9849487,28.0598521 14.9518718,27.9999462 C14.9272479,27.9551085 14.9074017,27.9084333 14.878735,27.8654333 C14.8114786,27.7639974 14.7346667,27.669912 14.6490342,27.583912 L3.13679487,16.0716726 C2.41976068,15.3542709 1.25582051,15.3542709 0.538051282,16.0716726 C-0.179350427,16.7894419 -0.179350427,17.9530145 0.538051282,18.6704162 L11.5118718,29.6442368 L11.5052564,40.9153821 C11.5045214,41.9304761 12.3266667,42.7537239 13.3417607,42.7540915 L13.3428632,42.7540915 C14.3568547,42.7540915 15.179735,41.9319462 15.1804701,40.9175872 L15.187453,28.8845701 L15.187453,28.8842026 C15.187453,28.7636556 15.1749573,28.6431085 15.1514359,28.5243991" id="Fill-3" fill="#009EFB"></path>
                        <path d="M33.3877359,16.5787051 C32.6707017,15.8613034 31.506394,15.8613034 30.7893598,16.5787051 L19.8548641,27.5132009 C19.8544966,27.5135684 19.8544966,27.5135684 19.8544966,27.5135684 C19.7692316,27.5992009 19.6927872,27.6932863 19.6255308,27.7939872 C19.5950265,27.8395598 19.5744453,27.8888077 19.5483513,27.9362179 C19.5167444,27.9939188 19.4821974,28.049047 19.4568385,28.1104231 C19.431112,28.1717991 19.4164111,28.2361154 19.3984026,28.2996966 C19.3833342,28.3511496 19.3631205,28.4003974 19.3524624,28.453688 C19.328941,28.5723974 19.3164453,28.6925769 19.3164453,28.8134915 C19.3164453,28.813859 19.3164453,28.813859 19.3164453,28.8142265 L19.3263684,40.9181752 C19.3271034,41.9325342 20.1496162,42.754312 21.1639752,42.754312 L21.1654453,42.754312 C22.1805393,42.7532094 23.0023171,41.9299615 23.0015821,40.915235 L22.992394,29.5731581 L33.3877359,19.1774487 C34.1055051,18.460047 34.1055051,17.2964744 33.3877359,16.5787051" id="Fill-5" fill="#009EFB"></path>
                        <path d="M17.2164282,12.8342137 C18.2315222,12.8342137 19.054035,12.0113333 19.054035,10.9966068 L19.054035,1.83797436 C19.054035,0.822880342 18.2315222,0.000367521368 17.2164282,0.000367521368 C16.2013342,0.000367521368 15.3788214,0.822880342 15.3788214,1.83797436 L15.3788214,10.9966068 C15.3788214,12.0113333 16.2013342,12.8342137 17.2164282,12.8342137" id="Fill-8" fill="#5ACFFF"></path>
                    </g>
                </g>
            </g>
        </g>
    </g>
</svg>