<?xml version="1.0" encoding="UTF-8"?>
<svg width="19px" height="24px" viewBox="0 0 19 24" version="1.1" xmlns="http://www.w3.org/2000/svg" xmlns:xlink="http://www.w3.org/1999/xlink">
    <!-- Generator: Sketch 48.2 (47327) - http://www.bohemiancoding.com/sketch -->
    <title>ic_ivr_white</title>
    <desc>Created with Sketch.</desc>
    <defs>
        <polygon id="path-1" points="0.114564103 0.0645128205 8.26876923 0.0645128205 8.26876923 14.974359 0.114564103 14.974359"></polygon>
    </defs>
    <g id="02_dashboard_full-copy-8" stroke="none" stroke-width="1" fill="none" fill-rule="evenodd" transform="translate(-21.000000, -316.000000)">
        <g id="side-bar">
            <g id="Side-Bar">
                <g id="IVR" transform="translate(0.000000, 297.000000)">
                    <g id="ic_ivr_white" transform="translate(18.000000, 18.000000)">
                        <polygon id="Shape" points="0 0 26.4827586 0 26.4827586 25.2413793 0 25.2413793"></polygon>
                        <g id="Page-1" transform="translate(3.000000, 1.000000)">
                            <path d="M17.9745231,3.69794872 C17.5743179,3.29753846 16.9244718,3.29753846 16.5242667,3.69794872 L9.59729231,10.6249231 L2.67052308,3.69794872 C2.27031795,3.29753846 1.62067692,3.29753846 1.22006154,3.69794872 C0.819651282,4.0985641 0.819651282,4.748 1.22006154,5.14841026 L8.8721641,12.8005128 C9.07236923,13.0007179 9.33493333,13.1008205 9.59729231,13.1008205 C9.85965128,13.1008205 10.1224205,13.0007179 10.3224205,12.8005128 L17.9745231,5.14841026 C18.3751385,4.748 18.3751385,4.0985641 17.9745231,3.69794872" id="Fill-1" fill="#FFFFFF"></path>
                            <path d="M8.45667692,15.9205949 C8.45052308,15.8898256 8.4390359,15.8611077 8.43021538,15.8313641 C8.41995897,15.7971077 8.4121641,15.762441 8.39862564,15.7292103 C8.38385641,15.6937231 8.36375385,15.6613128 8.34529231,15.6278769 C8.33154872,15.6028513 8.32047179,15.5768 8.30447179,15.5528 C8.26672821,15.4961846 8.22406154,15.4436718 8.17626667,15.3956718 L1.75083077,8.9702359 C1.35062564,8.56982564 0.700984615,8.56982564 0.300369231,8.9702359 C-0.100041026,9.37085128 -0.100041026,10.0202872 0.300369231,10.4206974 L6.42529231,16.5456205 L6.42139487,22.8364923 C6.42098462,23.4030564 6.87985641,23.8625436 7.44642051,23.8627487 L7.4470359,23.8627487 C8.01318974,23.8627487 8.47226667,23.4038769 8.47267692,22.8377231 L8.47677949,16.1216205 L8.47677949,16.1214154 C8.47677949,16.0541333 8.46980513,15.9868513 8.45667692,15.9205949" id="Fill-3" fill="#FFFFFF"></path>
                            <g id="Group-7" transform="translate(10.666667, 8.888410)">
                                <mask id="mask-2" fill="white">
                                    <use xlink:href="#path-1"></use>
                                </mask>
                                <g id="Clip-6"></g>
                                <path d="M7.96830769,0.364820513 C7.56810256,-0.0355897436 6.91825641,-0.0355897436 6.51805128,0.364820513 L0.415076923,6.46779487 C0.415076923,6.468 0.415076923,6.468 0.414871795,6.468 C0.367076923,6.51579487 0.324615385,6.56830769 0.287076923,6.62451282 C0.27025641,6.64994872 0.258564103,6.6774359 0.244205128,6.70389744 C0.226564103,6.73610256 0.207076923,6.76687179 0.192923077,6.80112821 C0.178564103,6.83538462 0.170358974,6.87128205 0.160307692,6.90676923 C0.151897436,6.93548718 0.140615385,6.96297436 0.134871795,6.99271795 C0.121538462,7.05897436 0.114564103,7.12605128 0.114769231,7.19353846 C0.114769231,7.19374359 0.114564103,7.19374359 0.114564103,7.19394872 L0.120102564,13.949641 C0.120512821,14.5157949 0.579589744,14.9744615 1.14574359,14.9744615 L1.1465641,14.9744615 C1.71312821,14.9738462 2.17179487,14.514359 2.17138462,13.948 L2.16625641,7.61753846 L7.96830769,1.81528205 C8.36892308,1.41487179 8.36892308,0.765435897 7.96830769,0.364820513" id="Fill-5" fill="#FFFFFF" mask="url(#mask-2)"></path>
                            </g>
                            <path d="M9.60912821,7.16328205 C10.1756923,7.16328205 10.6347692,6.704 10.6347692,6.13764103 L10.6347692,1.02584615 C10.6347692,0.459282051 10.1756923,0.000205128205 9.60912821,0.000205128205 C9.0425641,0.000205128205 8.58348718,0.459282051 8.58348718,1.02584615 L8.58348718,6.13764103 C8.58348718,6.704 9.0425641,7.16328205 9.60912821,7.16328205" id="Fill-8" fill="#FFFFFF"></path>
                        </g>
                    </g>
                </g>
            </g>
        </g>
    </g>
</svg>