<?xml version="1.0" encoding="UTF-8"?>
<svg width="139px" height="41px" viewBox="0 0 139 41" version="1.1" xmlns="http://www.w3.org/2000/svg" xmlns:xlink="http://www.w3.org/1999/xlink">
    <!-- Generator: Sketch 48.2 (47327) - http://www.bohemiancoding.com/sketch -->
    <title>Group</title>
    <desc>Created with Sketch.</desc>
    <defs></defs>
    <g id="02_dashboard_full-copy-8" stroke="none" stroke-width="1" fill="none" fill-rule="evenodd" transform="translate(-56.000000, -14.000000)">
        <g id="side-bar">
            <g id="Group" transform="translate(56.000000, 15.000000)">
                <g id="IVES-Icon">
                    <path d="M36.5614035,1.03859649 C37.749533,1.86358841 38.6713569,3.01708766 39.2140351,4.35789474 C38.7321362,2.98249024 37.7966816,1.81193472 36.5614035,1.03859649 Z" id="Shape" stroke="#D12D6E" stroke-width="0.23"></path>
                    <path d="M0.884210526,10.0701754 L7.45964912,23.2210526 L7.45964912,23.1438596 C8.68382172,25.2272086 10.9385341,26.4860897 13.354386,26.4350877 C16.3157895,26.4350877 18.2666667,24.645614 19.7192982,22.0070175 C17.1859649,17.4035088 16.077193,10.2035088 13.5438596,5.31929825 C12.4140351,8.99649123 11.9649123,13.2561404 6.65263158,13.2561404 C4.31103098,13.2523516 2.13434494,12.050143 0.884210526,10.0701754 Z" id="Shape" fill="#00BDFF" fill-rule="nonzero"></path>
                    <path d="M33.6842105,0.0771929825 C34.715689,0.155056599 35.7127589,0.482596461 36.5894737,1.03157895 C35.7202972,0.466693248 34.71905,0.137781134 33.6842105,0.0771929825 Z" id="Shape" stroke="#D12D6E" stroke-width="0.23"></path>
                    <path d="M7.45964912,23.2210526 L13.8385965,35.9859649 C14.9666581,38.2365569 17.2684885,39.6576041 19.7859649,39.6576041 C22.3034413,39.6576041 24.6052718,38.2365569 25.7333333,35.9859649 L32.1894737,23.0807018 L32.0070175,23.1508772 C30.7828449,25.2342262 28.5281326,26.4931072 26.1122807,26.4421053 C23.1508772,26.4421053 21.2,24.6526316 19.7473684,22.0070175 C18.2807018,24.6526316 16.3438596,26.4350877 13.3824561,26.4350877 C10.9670147,26.4915464 8.7096876,25.2380723 7.48070175,23.1578947 L7.45964912,23.2210526 Z" id="Shape" fill="#0674F0" fill-rule="nonzero"></path>
                    <path d="M19.7403509,22.0070175 C21.2070175,24.6526316 23.1508772,26.4421053 26.1052632,26.4421053 C28.5221531,26.4971174 30.77982,25.24077 32.0070175,23.1578947 L32.1894737,23.0877193 L38.7578947,9.95087719 C39.2969137,8.87470264 39.5780159,7.68782685 39.5789474,6.48421053 C39.5786598,5.76734239 39.4576703,5.05563938 39.2210526,4.37894737 L39.1157895,4.14035088 L39.0666667,4.03508772 L38.9192982,3.74035088 L38.8561404,3.62105263 L38.7368421,3.41052632 L38.6736842,3.3122807 L38.4842105,3.00350877 L38.3578947,2.80701754 L38.2877193,2.71578947 L38.1894737,2.58947368 L38.0912281,2.47017544 L38.0912281,2.42807018 L37.8947368,2.16842105 L37.7684211,2.02807018 L37.677193,1.93684211 L37.5859649,1.84561404 L37.3894737,1.66315789 L37.1929825,1.52280702 L37.1298246,1.47368421 L37.0877193,1.40350877 L36.9614035,1.30526316 L36.8280702,1.20701754 L36.6947368,1.10877193 L36.554386,1.01754386 C35.686731,0.478853077 34.7024172,0.156363942 33.6842105,0.0771929825 L33.1929825,0.0771929825 C24.2315789,0.0631578947 23.9087719,14.4982456 19.7403509,22.0070175 Z" id="Shape" fill="#0054F1" fill-rule="nonzero"></path>
                    <path d="M13.5438596,5.31929825 C16.077193,10.2315789 17.1859649,17.4035088 19.7333333,22.0070175 C23.9087719,14.4982456 24.2315789,0.0631578947 33.1649123,0.0631578947 L19.754386,0.0631578947 C15.6631579,0.0631578947 14.4070175,2.51929825 13.5438596,5.31929825 Z" id="Shape" fill="#2995FF" fill-rule="nonzero"></path>
                    <path d="M6.31578947,0.0631578947 C9.7754386,0.0631578947 11.9298246,2.23157895 13.5438596,5.31929825 C14.4070175,2.5122807 15.6491228,0.0631578947 19.754386,0.0631578947 L6.31578947,0.0631578947 Z" id="Shape" fill="#5ACFFF" fill-rule="nonzero"></path>
                    <path d="M-1.0642559e-15,6.47017544 C0.00093150649,7.67379176 0.282033666,8.86066755 0.821052632,9.93684211 L0.870175439,10.0350877 C2.12164308,12.017161 4.30151852,13.2196682 6.64561404,13.2210526 C11.9578947,13.2210526 12.4070175,8.96140351 13.5368421,5.28421053 C11.9298246,2.23157895 9.7754386,0.0631578947 6.31578947,0.0631578947 L6.21052632,0.0631578947 C2.75059447,0.172991609 0.00204452253,3.00850133 -1.0642559e-15,6.47017544 Z" id="Shape" fill="#5CECFF" fill-rule="nonzero"></path>
                </g>
                <path d="M120.187532,9.72972973 L138.188684,9.72972973 L138.188684,13.8913691 L123.659322,13.8913691 L123.659322,18.4507398 L138.188684,18.4507398 L138.198198,19.1846185 L138.198198,31.3513514 L134.719057,31.333817 L120.187532,31.333817 L120.187532,27.1721776 L134.719057,27.1721776 L134.719057,22.6128068 L120.187532,22.6128068 L120.18018,21.9648895 L120.187532,9.79772897 L120.187532,9.72972973 Z M93.1531532,14.2342342 L93.1531532,9.72972973 L111.171171,9.72972973 L111.171171,14.2342342 L93.1531532,14.2342342 Z M93.1531532,23.2432432 L93.1531532,18.7387387 L111.171171,18.7387387 L111.171171,23.2432432 L93.1531532,23.2432432 Z M93.1531532,31.3513514 L93.1531532,26.8468468 L111.171171,26.8468468 L111.171171,31.3513514 L93.1531532,31.3513514 Z M84.3919268,9.72972973 L88.6486486,9.72972973 L77.712221,31.3513514 L73.4550679,31.3513514 L62.5225225,9.72972973 L66.7796757,9.72972973 L75.5855856,27.14599 L84.3919268,9.72972973 Z M50.8108108,31.3513514 L50.8108108,9.72972973 L55.3153153,9.72972973 L55.3153153,31.3513514 L50.8108108,31.3513514 Z" id="logo" fill="#FFFFFF"></path>
            </g>
        </g>
    </g>
</svg>