<?xml version="1.0" encoding="UTF-8"?>
<svg width="14px" height="20px" viewBox="0 0 14 20" version="1.1" xmlns="http://www.w3.org/2000/svg" xmlns:xlink="http://www.w3.org/1999/xlink">
    <!-- Generator: Sketch 48.2 (47327) - http://www.bohemiancoding.com/sketch -->
    <title>ic_location</title>
    <desc>Created with Sketch.</desc>
    <defs>
        <rect id="path-1" x="0" y="0" width="24" height="24"></rect>
        <path d="M12,11.4711538 C12.4490286,11.4711538 12.8659775,11.3589755 13.2508591,11.1346154 C13.6357408,10.9102553 13.9404342,10.6097775 14.1649485,10.2331731 C14.3894627,9.85656863 14.5017182,9.4439125 14.5017182,8.99519231 C14.5017182,8.54647212 14.3894627,8.12980962 14.1649485,7.74519231 C13.9404342,7.360575 13.6357408,7.05609087 13.2508591,6.83173077 C12.8659775,6.60737067 12.4490286,6.49519231 12,6.49519231 C11.5509714,6.49519231 11.1380317,6.60737067 10.7611684,6.83173077 C10.3843051,7.05609087 10.0836208,7.360575 9.85910653,7.74519231 C9.63459223,8.12980962 9.52233677,8.54647212 9.52233677,8.99519231 C9.52233677,9.68429832 9.76288419,10.2692284 10.2439863,10.75 C10.7250883,11.2307716 11.3104204,11.4711538 12,11.4711538 Z M12,2 C13.2829388,2 14.4616212,2.31249687 15.5360825,2.9375 C16.594507,3.56250313 17.436423,4.40384087 18.0618557,5.46153846 C18.6872884,6.53526178 19,7.71313462 19,8.99519231 C19,9.9727613 18.7594526,11.094545 18.2783505,12.3605769 C17.8613954,13.4343002 17.2840816,14.5961476 16.5463918,15.8461538 C15.9369958,16.8397486 15.2394083,17.8733921 14.4536082,18.9471154 C13.9083592,19.7003243 13.3310454,20.4374964 12.7216495,21.1586538 L12,22 L11.2783505,21.1586538 C10.6689546,20.4374964 10.0916408,19.7003243 9.54639175,18.9471154 C8.76059172,17.8733921 8.06300419,16.8397486 7.45360825,15.8461538 C6.71591842,14.5961476 6.1386046,13.4343002 5.72164948,12.3605769 C5.24054742,11.094545 5,9.9727613 5,8.99519231 C5,7.71313462 5.31271165,6.53526178 5.93814433,5.46153846 C6.56357701,4.40384087 7.40549299,3.56250313 8.46391753,2.9375 C9.5383788,2.31249687 10.7170612,2 12,2 Z" id="path-3"></path>
    </defs>
    <g id="01_profile" stroke="none" stroke-width="1" fill="none" fill-rule="evenodd" transform="translate(-1120.000000, -528.000000)">
        <g id="Group-12" transform="translate(326.000000, 229.000000)">
            <g id="Group" transform="translate(789.000000, 75.000000)">
                <g id="Group-5" transform="translate(0.000000, 221.000000)">
                    <g id="Icon-/-Location" transform="translate(0.000000, 1.000000)">
                        <mask id="mask-2" fill="white">
                            <use xlink:href="#path-1"></use>
                        </mask>
                        <g id="Container" fill-rule="nonzero"></g>
                        <mask id="mask-4" fill="white">
                            <use xlink:href="#path-3"></use>
                        </mask>
                        <g id="Location"></g>
                        <g id="Style-/-Color-/-Crystal" mask="url(#mask-4)" fill="#21ABFF" fill-rule="evenodd">
                            <rect id="Container" x="0" y="0" width="24" height="24"></rect>
                        </g>
                    </g>
                </g>
            </g>
        </g>
    </g>
</svg>