<?xml version="1.0" encoding="UTF-8"?>
<svg width="151px" height="38px" viewBox="0 0 151 38" version="1.1" xmlns="http://www.w3.org/2000/svg" xmlns:xlink="http://www.w3.org/1999/xlink">
    <!-- Generator: Sketch 49.2 (51160) - http://www.bohemiancoding.com/sketch -->
    <title>icon_logo_ives</title>
    <desc>Created with Sketch.</desc>
    <defs></defs>
    <g id="Welcome-Page-(not-final)" stroke="none" stroke-width="1" fill="none" fill-rule="evenodd">
        <g id="Update---Profile---Active" transform="translate(-725.000000, -230.000000)" fill="#195B78">
            <g id="icon_logo_ives" transform="translate(725.000000, 230.000000)">
                <polygon id="Fill-1" points="120.012649 0 120.012649 0.119508673 120 0.119508673 120 21.5032933 120.012649 21.5032933 120.012649 22.642008 145.014137 22.642008 145.014137 30.6551022 120.012649 30.6551022 120.012649 37.9691833 145.014137 37.9691833 145.014137 38 151 38 151 16.616967 150.983631 16.616967 150.983631 15.3271753 125.985863 15.3271753 125.985863 7.31408114 150.983631 7.31408114 150.983631 0"></polygon>
                <polygon id="Fill-2" points="75 8 106 8 106 0 75 0"></polygon>
                <polygon id="Fill-3" points="75 23 106 23 106 15 75 15"></polygon>
                <polygon id="Fill-4" points="75 38 106 38 106 30 75 30"></polygon>
                <polygon id="Fill-5" points="60.505234 0 45 30.6090774 29.4955255 0 22 0 41.2488195 38 41.2564145 38 48.744345 38 48.75194 38 68 0"></polygon>
                <polygon id="Fill-6" points="0 38 8 38 8 0 0 0"></polygon>
            </g>
        </g>
    </g>
</svg>