<?xml version="1.0" encoding="UTF-8"?>
<svg width="208px" height="60px" viewBox="0 0 208 60" version="1.1" xmlns="http://www.w3.org/2000/svg" xmlns:xlink="http://www.w3.org/1999/xlink">
    <!-- Generator: Sketch 48.2 (47327) - http://www.bohemiancoding.com/sketch -->
    <title>Group</title>
    <desc>Created with Sketch.</desc>
    <defs></defs>
    <g id="Login" stroke="none" stroke-width="1" fill="none" fill-rule="evenodd" transform="translate(-107.000000, -172.000000)">
        <g id="Group" transform="translate(107.000000, 172.000000)">
            <g id="IVES-Icon">
                <path d="M54.9736211,1.5616307 C56.7600891,2.80208618 58.1461409,4.53648432 58.9621103,6.55251799 C58.2375285,4.48446374 56.8309818,2.72441984 54.9736211,1.5616307 Z" id="Shape" stroke="#D12D6E" stroke-width="0.23"></path>
                <path d="M1.3294964,15.1414868 L11.216307,34.9151079 L11.216307,34.7990408 C13.0569694,37.9315583 16.4471484,39.8244082 20.0796163,39.7477218 C24.5323741,39.7477218 27.4657074,37.0570743 29.6498801,33.0896882 C25.8407674,26.1678657 24.1736211,15.3419664 20.3645084,7.99808153 C18.6657074,13.5270983 17.9904077,19.9318945 10.0028777,19.9318945 C6.48205377,19.9261978 3.20919491,18.1185604 1.3294964,15.1414868 Z" id="Shape" fill="#00BDFF" fill-rule="nonzero"></path>
                <path d="M50.647482,0.116067146 C52.1984101,0.233142656 53.6976015,0.725630651 55.0158273,1.55107914 C53.708936,0.701718624 52.2034637,0.207167317 50.647482,0.116067146 Z" id="Shape" stroke="#D12D6E" stroke-width="0.23"></path>
                <path d="M11.216307,34.9151079 L20.8076739,54.1083933 C22.503824,57.492377 25.9648496,59.6290594 29.7501199,59.6290594 C33.5353902,59.6290594 36.9964158,57.492377 38.6925659,54.1083933 L48.4,34.7040767 L48.1256595,34.8095923 C46.2849971,37.9421098 42.8948181,39.8349598 39.2623501,39.7582734 C34.8095923,39.7582734 31.876259,37.0676259 29.6920863,33.0896882 C27.4868106,37.0676259 24.5745803,39.7477218 20.1218225,39.7477218 C16.4899718,39.832613 13.0958612,37.9478928 11.2479616,34.8201439 L11.216307,34.9151079 Z" id="Shape" fill="#0674F0" fill-rule="nonzero"></path>
                <path d="M29.6815348,33.0896882 C31.8868106,37.0676259 34.8095923,39.7582734 39.2517986,39.7582734 C42.8858273,39.8409894 46.2804488,37.9519491 48.1256595,34.8201439 L48.4,34.7146283 L58.276259,14.9621103 C59.0867264,13.3439773 59.5093908,11.5593943 59.5107914,9.74964029 C59.510359,8.67175942 59.3284396,7.60164482 58.9726619,6.58417266 L58.8143885,6.22541966 L58.7405276,6.06714628 L58.5189448,5.62398082 L58.4239808,5.44460432 L58.2446043,5.12805755 L58.1496403,4.98033573 L57.8647482,4.51606715 L57.6748201,4.2206235 L57.5693046,4.08345324 L57.4215827,3.89352518 L57.2738609,3.71414868 L57.2738609,3.65083933 L56.9784173,3.26043165 L56.7884892,3.04940048 L56.6513189,2.91223022 L56.5141487,2.77505995 L56.218705,2.50071942 L55.9232614,2.28968825 L55.8282974,2.21582734 L55.764988,2.11031175 L55.57506,1.96258993 L55.3745803,1.81486811 L55.1741007,1.66714628 L54.9630695,1.52997602 C53.6584661,0.720002108 52.1784546,0.235108373 50.647482,0.116067146 L49.9088729,0.116067146 C36.4345324,0.0949640288 35.9491607,21.7995204 29.6815348,33.0896882 Z" id="Shape" fill="#0054F1" fill-rule="nonzero"></path>
                <path d="M20.3645084,7.99808153 C24.1736211,15.3841727 25.8407674,26.1678657 29.6709832,33.0896882 C35.9491607,21.7995204 36.4345324,0.0949640288 49.8666667,0.0949640288 L29.7026379,0.0949640288 C23.5510791,0.0949640288 21.6623501,3.78800959 20.3645084,7.99808153 Z" id="Shape" fill="#2995FF" fill-rule="nonzero"></path>
                <path d="M9.49640288,0.0949640288 C14.6983213,0.0949640288 17.9376499,3.35539568 20.3645084,7.99808153 C21.6623501,3.77745803 23.529976,0.0949640288 29.7026379,0.0949640288 L9.49640288,0.0949640288 Z" id="Shape" fill="#5ACFFF" fill-rule="nonzero"></path>
                <path d="M-7.0564391e-16,9.72853717 C0.00140061048,11.5382912 0.424065008,13.3228742 1.23453237,14.9410072 L1.30839329,15.088729 C3.19009643,18.0689687 6.46775087,19.8770551 9.99232614,19.8791367 C17.9798561,19.8791367 18.6551559,13.4743405 20.3539568,7.94532374 C17.9376499,3.35539568 14.6983213,0.0949640288 9.49640288,0.0949640288 L9.3381295,0.0949640288 C4.13578593,0.260109685 0.0030741382,4.52357394 -7.0564391e-16,9.72853717 Z" id="Shape" fill="#5CECFF" fill-rule="nonzero"></path>
            </g>
            <path d="M180.713627,14.6295936 L207.780108,14.6295936 L207.780108,20.8870226 L185.9338,20.8870226 L185.9338,27.7424793 L207.780108,27.7424793 L207.794413,28.8459371 L207.794413,47.1398017 L202.563186,47.113437 L180.713627,47.113437 L180.713627,40.8560081 L202.563186,40.8560081 L202.563186,34.0005513 L180.713627,34.0005513 L180.702573,33.0263447 L180.713627,14.7318371 L180.713627,14.6295936 Z M140.064813,21.4025536 L140.064813,14.6295936 L167.156653,14.6295936 L167.156653,21.4025536 L140.064813,21.4025536 Z M140.064813,34.9484737 L140.064813,28.1755136 L167.156653,28.1755136 L167.156653,34.9484737 L140.064813,34.9484737 Z M140.064813,47.1398017 L140.064813,40.3668417 L167.156653,40.3668417 L167.156653,47.1398017 L140.064813,47.1398017 Z M126.891458,14.6295936 L133.291853,14.6295936 L116.847872,47.1398017 L110.446829,47.1398017 L94.0086849,14.6295936 L100.409728,14.6295936 L113.650269,40.8166324 L126.891458,14.6295936 Z M76.3989889,47.1398017 L76.3989889,14.6295936 L83.1719489,14.6295936 L83.1719489,47.1398017 L76.3989889,47.1398017 Z" id="logo" fill="#195B78"></path>
        </g>
    </g>
</svg>