<?xml version="1.0" encoding="UTF-8"?>
<svg width="113px" height="28px" viewBox="0 0 113 28" version="1.1" xmlns="http://www.w3.org/2000/svg" xmlns:xlink="http://www.w3.org/1999/xlink">
    <!-- Generator: Sketch 49.2 (51160) - http://www.bohemiancoding.com/sketch -->
    <title>icon_logo_ives_white</title>
    <desc>Created with Sketch.</desc>
    <defs></defs>
    <g id="Dashboard" stroke="none" stroke-width="1" fill="none" fill-rule="evenodd">
        <g id="dashboard-/-full" transform="translate(-69.000000, -21.000000)" fill="#FFFFFF">
            <g id="icon_logo_ives_white" transform="translate(69.000000, 21.000000)">
                <polygon id="Fill-1" points="89.7105375 0 89.7105375 0.0879293332 89.7010309 0.0879293332 89.7010309 15.8211968 89.7105375 15.8211968 89.7105375 16.659014 108.501147 16.659014 108.501147 22.5547035 89.7105375 22.5547035 89.7105375 27.9360893 108.501147 27.9360893 108.501147 27.9587629 113 27.9587629 113 12.2260484 112.987697 12.2260484 112.987697 11.2770752 94.1998838 11.2770752 94.1998838 5.3813858 112.987697 5.3813858 112.987697 0"></polygon>
                <polygon id="Fill-2" points="54.7525773 5.82474227 78.0515464 5.82474227 78.0515464 0 54.7525773 0"></polygon>
                <polygon id="Fill-3" points="54.7525773 17.4742268 78.0515464 17.4742268 78.0515464 11.6494845 54.7525773 11.6494845"></polygon>
                <polygon id="Fill-4" points="54.7525773 27.9587629 78.0515464 27.9587629 78.0515464 22.1340206 54.7525773 22.1340206"></polygon>
                <polygon id="Fill-5" points="43.4234988 0 32.0360825 22.5208404 20.6492239 0 15.1443299 0 29.2811254 27.9587629 29.2867033 27.9587629 34.7860194 27.9587629 34.7915974 27.9587629 48.9278351 0"></polygon>
                <polygon id="Fill-6" points="0 27.9587629 5.82474227 27.9587629 5.82474227 0 0 0"></polygon>
            </g>
        </g>
    </g>
</svg>