<?xml version="1.0" encoding="UTF-8"?>
<svg width="16px" height="14px" viewBox="0 0 16 14" version="1.1" xmlns="http://www.w3.org/2000/svg" xmlns:xlink="http://www.w3.org/1999/xlink">
    <!-- Generator: sketchtool 48.2 (47327) - http://www.bohemiancoding.com/sketch -->
    <title>6AC7FAA5-3E6C-4092-97C2-4163D635F737</title>
    <desc>Created with sketchtool.</desc>
    <defs>
        <rect id="path-1" x="0" y="0" width="18" height="18"></rect>
        <linearGradient x1="211.775725%" y1="-132.837901%" x2="-135.83852%" y2="194.775495%" id="linearGradient-3">
            <stop stop-color="#20E2D7" offset="0%"></stop>
            <stop stop-color="#F9FEA5" offset="100%"></stop>
        </linearGradient>
        <path d="M15,2.625 C15.825,2.625 16.5,3.3421875 16.5,4.21875 L16.5,13.78125 C16.5,14.6578125 15.825,15.375 15,15.375 L3,15.375 C2.175,15.375 1.5,14.6578125 1.5,13.78125 L1.5075,4.21875 C1.5075,3.3421875 2.175,2.625 3,2.625 L15,2.625 Z M14.7145865,5.96844565 C14.9475276,5.81431034 15.1363636,5.46025442 15.1363636,5.18604392 L15.1363636,4.54498172 C15.1363636,4.26700849 14.9459856,4.16885549 14.7145865,4.32344983 L9,8.14128205 L3.28541349,4.32344983 C3.05247241,4.16782529 2.86363636,4.27077122 2.86363636,4.54498172 L2.86363636,5.18604392 C2.86363636,5.46401715 3.05401444,5.81533068 3.28541349,5.96844565 L8.57822288,9.47065691 C8.81116395,9.62479223 9.19037808,9.62377188 9.42177712,9.47065691 L14.7145865,5.96844565 Z" id="path-4"></path>
    </defs>
    <g id="03_dashboard" stroke="none" stroke-width="1" fill="none" fill-rule="evenodd" transform="translate(-888.000000, -1962.000000)">
        <g id="Group-35" transform="translate(349.000000, 1154.000000)">
            <g id="Info" transform="translate(538.000000, 751.000000)">
                <g id="Group-6">
                    <g id="ic_message" transform="translate(0.000000, 55.000000)">
                        <mask id="mask-2" fill="white">
                            <use xlink:href="#path-1"></use>
                        </mask>
                        <g id="Container" fill-rule="nonzero"></g>
                        <mask id="mask-5" fill="white">
                            <use xlink:href="#path-4"></use>
                        </mask>
                        <use id="E-mail" fill="url(#linearGradient-3)" fill-rule="nonzero" xlink:href="#path-4"></use>
                    </g>
                </g>
            </g>
        </g>
    </g>
</svg>