<?xml version="1.0" encoding="UTF-8"?>
<svg width="4px" height="13px" viewBox="0 0 4 13" version="1.1" xmlns="http://www.w3.org/2000/svg" xmlns:xlink="http://www.w3.org/1999/xlink">
    <!-- Generator: Sketch 48.2 (47327) - http://www.bohemiancoding.com/sketch -->
    <title>ic_more</title>
    <desc>Created with Sketch.</desc>
    <defs></defs>
    <g id="IVR-/-List-/-cards" stroke="none" stroke-width="1" fill="none" fill-rule="evenodd" transform="translate(-681.000000, -223.000000)">
        <g id="ic_more" transform="translate(674.000000, 220.000000)">
            <polygon id="Shape" points="0 0 18 0 18 18 0 18"></polygon>
            <path d="M9,6.34090909 C9.9,6.34090909 10.6363636,5.65056818 10.6363636,4.80681818 C10.6363636,3.96306818 9.9,3.27272727 9,3.27272727 C8.1,3.27272727 7.36363636,3.96306818 7.36363636,4.80681818 C7.36363636,5.65056818 8.1,6.34090909 9,6.34090909 Z M9,7.875 C8.1,7.875 7.36363636,8.56534091 7.36363636,9.40909091 C7.36363636,10.2528409 8.1,10.9431818 9,10.9431818 C9.9,10.9431818 10.6363636,10.2528409 10.6363636,9.40909091 C10.6363636,8.56534091 9.9,7.875 9,7.875 Z M9,12.4772727 C8.1,12.4772727 7.36363636,13.1676136 7.36363636,14.0113636 C7.36363636,14.8551136 8.1,15.5454545 9,15.5454545 C9.9,15.5454545 10.6363636,14.8551136 10.6363636,14.0113636 C10.6363636,13.1676136 9.9,12.4772727 9,12.4772727 Z" id="Shape" fill="#535F65" fill-rule="nonzero"></path>
        </g>
    </g>
</svg>