<?xml version="1.0" encoding="UTF-8"?>
<svg width="19px" height="24px" viewBox="0 0 19 24" version="1.1" xmlns="http://www.w3.org/2000/svg" xmlns:xlink="http://www.w3.org/1999/xlink">
    <!-- Generator: Sketch 48.2 (47327) - http://www.bohemiancoding.com/sketch -->
    <title>ic_numbers_white</title>
    <desc>Created with Sketch.</desc>
    <defs></defs>
    <g id="02_dashboard_full-copy-8" stroke="none" stroke-width="1" fill="none" fill-rule="evenodd" transform="translate(-22.000000, -438.000000)">
        <g id="side-bar">
            <g id="Side-Bar">
                <g id="Numbers" transform="translate(0.000000, 419.000000)">
                    <g id="ic_numbers_white" transform="translate(18.000000, 18.000000)">
                        <polygon id="Shape" points="0 0 26.4827586 0 26.4827586 25.2413793 0 25.2413793"></polygon>
                        <g id="Page-1" transform="translate(4.000000, 1.000000)" fill="#FFFFFF">
                            <path d="M2.78983529,1.87129412 C2.28348235,1.87129412 1.87148235,2.28329412 1.87148235,2.78964706 C1.87148235,3.29623529 2.28348235,3.70823529 2.78983529,3.70823529 C3.29618824,3.70823529 3.70818824,3.29623529 3.70818824,2.78964706 C3.70818824,2.28329412 3.29618824,1.87129412 2.78983529,1.87129412 M2.78983529,5.57952941 C1.25148235,5.57952941 0.000188235294,4.328 0.000188235294,2.78964706 C0.000188235294,1.25152941 1.25148235,0 2.78983529,0 C4.32818824,0 5.57948235,1.25152941 5.57948235,2.78964706 C5.57948235,4.328 4.32818824,5.57952941 2.78983529,5.57952941" id="Fill-1"></path>
                            <path d="M9.43298824,1.87129412 C8.92663529,1.87129412 8.51463529,2.28329412 8.51463529,2.78964706 C8.51463529,3.29623529 8.92663529,3.70823529 9.43298824,3.70823529 C9.93934118,3.70823529 10.3513412,3.29623529 10.3513412,2.78964706 C10.3513412,2.28329412 9.93934118,1.87129412 9.43298824,1.87129412 M9.43298824,5.57952941 C7.89463529,5.57952941 6.64334118,4.328 6.64334118,2.78964706 C6.64334118,1.25152941 7.89463529,0 9.43298824,0 C10.9713412,0 12.2226353,1.25152941 12.2226353,2.78964706 C12.2226353,4.328 10.9713412,5.57952941 9.43298824,5.57952941" id="Fill-3"></path>
                            <path d="M16.0761412,1.87129412 C15.5697882,1.87129412 15.1577882,2.28329412 15.1577882,2.78964706 C15.1577882,3.29623529 15.5697882,3.70823529 16.0761412,3.70823529 C16.5824941,3.70823529 16.9944941,3.29623529 16.9944941,2.78964706 C16.9944941,2.28329412 16.5824941,1.87129412 16.0761412,1.87129412 M16.0761412,5.57952941 C14.5377882,5.57952941 13.2864941,4.328 13.2864941,2.78964706 C13.2864941,1.25152941 14.5377882,0 16.0761412,0 C17.6144941,0 18.8657882,1.25152941 18.8657882,2.78964706 C18.8657882,4.328 17.6144941,5.57952941 16.0761412,5.57952941" id="Fill-5"></path>
                            <path d="M2.78983529,8.01512941 C2.28348235,8.01512941 1.87148235,8.42712941 1.87148235,8.93371765 C1.87148235,9.44007059 2.28348235,9.85207059 2.78983529,9.85207059 C3.29618824,9.85207059 3.70818824,9.44007059 3.70818824,8.93371765 C3.70818824,8.42712941 3.29618824,8.01512941 2.78983529,8.01512941 M2.78983529,11.7233647 C1.25148235,11.7233647 0.000188235294,10.4718353 0.000188235294,8.93371765 C0.000188235294,7.39536471 1.25148235,6.14383529 2.78983529,6.14383529 C4.32818824,6.14383529 5.57948235,7.39536471 5.57948235,8.93371765 C5.57948235,10.4718353 4.32818824,11.7233647 2.78983529,11.7233647" id="Fill-7"></path>
                            <path d="M9.43298824,7.97183529 C8.92663529,7.97183529 8.51463529,8.38383529 8.51463529,8.89018824 C8.51463529,9.39677647 8.92663529,9.80877647 9.43298824,9.80877647 C9.93934118,9.80877647 10.3513412,9.39677647 10.3513412,8.89018824 C10.3513412,8.38383529 9.93934118,7.97183529 9.43298824,7.97183529 M9.43298824,11.6800706 C7.89463529,11.6800706 6.64334118,10.4285412 6.64334118,8.89018824 C6.64334118,7.35207059 7.89463529,6.10054118 9.43298824,6.10054118 C10.9713412,6.10054118 12.2226353,7.35207059 12.2226353,8.89018824 C12.2226353,10.4285412 10.9713412,11.6800706 9.43298824,11.6800706" id="Fill-9"></path>
                            <path d="M16.0761412,8.01512941 C15.5697882,8.01512941 15.1577882,8.42712941 15.1577882,8.93371765 C15.1577882,9.44007059 15.5697882,9.85207059 16.0761412,9.85207059 C16.5824941,9.85207059 16.9944941,9.44007059 16.9944941,8.93371765 C16.9944941,8.42712941 16.5824941,8.01512941 16.0761412,8.01512941 M16.0761412,11.7233647 C14.5377882,11.7233647 13.2864941,10.4718353 13.2864941,8.93371765 C13.2864941,7.39536471 14.5377882,6.14383529 16.0761412,6.14383529 C17.6144941,6.14383529 18.8657882,7.39536471 18.8657882,8.93371765 C18.8657882,10.4718353 17.6144941,11.7233647 16.0761412,11.7233647" id="Fill-11"></path>
                            <path d="M2.78983529,14.1591059 C2.28348235,14.1591059 1.87148235,14.5711059 1.87148235,15.0774588 C1.87148235,15.5840471 2.28348235,15.9960471 2.78983529,15.9960471 C3.29618824,15.9960471 3.70818824,15.5840471 3.70818824,15.0774588 C3.70818824,14.5711059 3.29618824,14.1591059 2.78983529,14.1591059 M2.78983529,17.8673412 C1.25148235,17.8673412 0.000188235294,16.6158118 0.000188235294,15.0774588 C0.000188235294,13.5393412 1.25148235,12.2878118 2.78983529,12.2878118 C4.32818824,12.2878118 5.57948235,13.5393412 5.57948235,15.0774588 C5.57948235,16.6158118 4.32818824,17.8673412 2.78983529,17.8673412" id="Fill-13"></path>
                            <path d="M9.43298824,14.0723529 C8.92663529,14.0723529 8.51463529,14.4843529 8.51463529,14.9907059 C8.51463529,15.4972941 8.92663529,15.9092941 9.43298824,15.9092941 C9.93934118,15.9092941 10.3513412,15.4972941 10.3513412,14.9907059 C10.3513412,14.4843529 9.93934118,14.0723529 9.43298824,14.0723529 M9.43298824,17.7805882 C7.89463529,17.7805882 6.64334118,16.5290588 6.64334118,14.9907059 C6.64334118,13.4525882 7.89463529,12.2010588 9.43298824,12.2010588 C10.9713412,12.2010588 12.2226353,13.4525882 12.2226353,14.9907059 C12.2226353,16.5290588 10.9713412,17.7805882 9.43298824,17.7805882" id="Fill-15"></path>
                            <path d="M16.0761412,14.1591059 C15.5697882,14.1591059 15.1577882,14.5711059 15.1577882,15.0774588 C15.1577882,15.5840471 15.5697882,15.9960471 16.0761412,15.9960471 C16.5824941,15.9960471 16.9944941,15.5840471 16.9944941,15.0774588 C16.9944941,14.5711059 16.5824941,14.1591059 16.0761412,14.1591059 M16.0761412,17.8673412 C14.5377882,17.8673412 13.2864941,16.6158118 13.2864941,15.0774588 C13.2864941,13.5393412 14.5377882,12.2878118 16.0761412,12.2878118 C17.6144941,12.2878118 18.8657882,13.5393412 18.8657882,15.0774588 C18.8657882,16.6158118 17.6144941,17.8673412 16.0761412,17.8673412" id="Fill-17"></path>
                            <path d="M9.43298824,20.1728941 C8.92663529,20.1728941 8.51463529,20.5848941 8.51463529,21.0912471 C8.51463529,21.5978353 8.92663529,22.0098353 9.43298824,22.0098353 C9.93934118,22.0098353 10.3513412,21.5978353 10.3513412,21.0912471 C10.3513412,20.5848941 9.93934118,20.1728941 9.43298824,20.1728941 M9.43298824,23.8811294 C7.89463529,23.8811294 6.64334118,22.6296 6.64334118,21.0912471 C6.64334118,19.5531294 7.89463529,18.3016 9.43298824,18.3016 C10.9713412,18.3016 12.2226353,19.5531294 12.2226353,21.0912471 C12.2226353,22.6296 10.9713412,23.8811294 9.43298824,23.8811294" id="Fill-19"></path>
                        </g>
                    </g>
                </g>
            </g>
        </g>
    </g>
</svg>