<?xml version="1.0" encoding="UTF-8"?>
<svg width="25px" height="19px" viewBox="0 0 25 19" version="1.1" xmlns="http://www.w3.org/2000/svg" xmlns:xlink="http://www.w3.org/1999/xlink">
    <!-- Generator: Sketch 48.2 (47327) - http://www.bohemiancoding.com/sketch -->
    <title>ic_plans_white</title>
    <desc>Created with Sketch.</desc>
    <defs>
        <polygon id="path-1" points="6.86746988e-05 9.15662651e-05 24.0471325 9.15662651e-05 24.0471325 18.8265735 6.86746988e-05 18.8265735"></polygon>
    </defs>
    <g id="02_dashboard_full-copy-8" stroke="none" stroke-width="1" fill="none" fill-rule="evenodd" transform="translate(-19.000000, -562.000000)">
        <g id="side-bar">
            <g id="Side-Bar">
                <g id="Plans" transform="translate(0.000000, 541.000000)">
                    <g id="ic_plans_white" transform="translate(18.000000, 18.000000)">
                        <polygon id="Shape" points="0 0 26.4827586 0 26.4827586 25.2413793 0 25.2413793"></polygon>
                        <g id="Page-1" transform="translate(1.000000, 3.000000)">
                            <mask id="mask-2" fill="white">
                                <use xlink:href="#path-1"></use>
                            </mask>
                            <g id="Clip-2"></g>
                            <path d="M17.6137554,6.27283855 L18.8386831,2.8375012 L21.3455386,6.27283855 L17.6137554,6.27283855 Z M16.9643217,8.09340482 L20.9522614,8.09340482 L14.7246108,14.3746217 L16.9643217,8.09340482 Z M7.46294819,8.09340482 L10.0753337,14.4332241 L3.23258675,8.09340482 L7.46294819,8.09340482 Z M8.25705663,5.24134458 L6.84739398,1.82065783 L10.4997434,1.82065783 L8.25705663,5.24134458 Z M13.8762494,1.82065783 L17.2680928,1.82065783 L16.0779602,5.15801928 L13.8762494,1.82065783 Z M9.75828554,6.27283855 L12.1877675,2.56715181 L14.6323578,6.27283855 L9.75828554,6.27283855 Z M15.0313578,8.09340482 L12.4338518,15.3775012 L9.43230964,8.09340482 L15.0313578,8.09340482 Z M5.26512892,2.75966988 L6.71279157,6.27283855 L2.70150241,6.27283855 L5.26512892,2.75966988 Z M23.9707434,7.54629639 C23.9785265,7.5288988 23.9831048,7.5098988 23.9897434,7.49181446 C24.0023337,7.45656145 24.0146952,7.42153735 24.0227072,7.38536867 C24.0275145,7.36476627 24.0298036,7.34347711 24.0330084,7.32218795 C24.0387313,7.28579036 24.0428518,7.24939277 24.0442253,7.21230843 C24.0444542,7.20246506 24.0472012,7.19330843 24.0472012,7.18323614 C24.0472012,7.17064578 24.0439964,7.1592 24.0433096,7.14660964 C24.0419361,7.11066988 24.0382735,7.07495904 24.0325506,7.03901928 C24.028888,7.01658554 24.0254542,6.99415181 24.0199602,6.97240482 C24.0121771,6.93944096 24.0014181,6.90716386 23.9899723,6.87511566 C23.9819602,6.85313976 23.9748639,6.83116386 23.9654783,6.81010361 C23.9517434,6.78011566 23.9350325,6.7515012 23.9180928,6.72288675 C23.9059602,6.70228434 23.8949723,6.6812241 23.8814663,6.66199518 C23.8780325,6.65695904 23.8757434,6.65146506 23.8723096,6.64642892 L19.2946831,0.373681928 C19.2944542,0.373224096 19.2939964,0.372995181 19.2937675,0.372537349 C19.2912494,0.36933253 19.2882735,0.366356627 19.2862133,0.363380723 C19.2566831,0.324007229 19.2234904,0.288296386 19.1889241,0.254874699 C19.1806831,0.246862651 19.1726711,0.238850602 19.1639723,0.23106747 C19.1259723,0.197187952 19.0856831,0.166971084 19.042647,0.140187952 C19.0337193,0.13446506 19.0243337,0.129428916 19.0149482,0.12393494 C18.9682494,0.0969228916 18.9194904,0.072886747 18.8684422,0.0543445783 C18.8672976,0.053886747 18.8663819,0.0534289157 18.8652373,0.0529710843 C18.8618036,0.051826506 18.8585988,0.0515975904 18.855394,0.050453012 C18.8066349,0.0337421687 18.7562735,0.0213807229 18.7049964,0.013139759 C18.6956108,0.0115373494 18.6862253,0.00947710843 18.6768398,0.00810361446 C18.638153,0.00306746988 18.5990084,9.15662651e-05 18.559406,9.15662651e-05 L12.1953217,9.15662651e-05 L12.1937193,9.15662651e-05 L12.175406,9.15662651e-05 L12.1719723,9.15662651e-05 L5.49702048,9.15662651e-05 L5.49450241,9.15662651e-05 L5.48763494,9.15662651e-05 C5.43635783,9.15662651e-05 5.38599639,0.00581445783 5.33609277,0.0142843373 C5.32533373,0.0161156627 5.3145747,0.0177180723 5.30381566,0.0202361446 C5.25139398,0.0307662651 5.20034578,0.0458746988 5.15112892,0.0655614458 C5.1479241,0.0669349398 5.14426145,0.0673927711 5.14105663,0.0685373494 C5.13579157,0.070826506 5.1319,0.0740313253 5.12663494,0.0763204819 C5.07581566,0.0982963855 5.02705663,0.123477108 4.98104458,0.154151807 C4.97738193,0.15666988 4.97394819,0.159645783 4.97051446,0.162163855 C4.92976747,0.190320482 4.89199639,0.222368675 4.85628554,0.25693494 C4.84850241,0.264260241 4.84071928,0.271127711 4.83339398,0.278681928 C4.8045506,0.308440964 4.77730964,0.33980241 4.75235783,0.373681928 L0.174731325,6.64642892 C0.17129759,6.65123614 0.169237349,6.65673012 0.165803614,6.66176627 C0.150924096,6.68282651 0.139249398,6.70571807 0.125972289,6.72815181 C0.109948193,6.7558506 0.0934662651,6.78309157 0.080646988,6.81193494 C0.0708036145,6.83391084 0.0639361446,6.85703133 0.0556951807,6.87992289 C0.0442493976,6.91197108 0.0332614458,6.94356145 0.0257072289,6.97629639 C0.0206710843,6.99873012 0.0174662651,7.02162169 0.0138036145,7.04451325 C0.00853855422,7.07999518 0.00441807229,7.11547711 0.00304457831,7.15118795 C0.00281566265,7.1621759 6.86746988e-05,7.17224819 6.86746988e-05,7.18323614 C6.86746988e-05,7.19582651 0.00304457831,7.20773012 0.0037313253,7.22032048 C0.00510481928,7.25557349 0.00899638554,7.29036867 0.0142614458,7.32539277 C0.018153012,7.3492 0.0218156627,7.3725494 0.0275385542,7.39566988 C0.0353216867,7.42794699 0.0456228916,7.45907952 0.056839759,7.49021205 C0.0650807229,7.51310361 0.0728638554,7.5362241 0.0827072289,7.5582 C0.096213253,7.58795904 0.112924096,7.61611566 0.12963494,7.64473012 C0.141996386,7.66533253 0.153213253,7.68662169 0.166948193,7.70607952 C0.185261446,7.7321759 0.206779518,7.75598313 0.228068675,7.78001928 C0.245008434,7.79947711 0.260803614,7.81939277 0.279345783,7.83724819 C0.283924096,7.84159759 0.287128916,7.84663373 0.291478313,7.85098313 L11.8764422,18.583694 C11.8766711,18.5841518 11.8771289,18.5843807 11.8773578,18.5846096 C11.8794181,18.5866699 11.8819361,18.5882723 11.8839964,18.5903325 C11.9224542,18.6251277 11.963659,18.6560313 12.007153,18.6835012 C12.0112735,18.6862482 12.0151651,18.6892241 12.0195145,18.6917422 C12.0289,18.6974651 12.0392012,18.7013566 12.0488157,18.7066217 C12.0799482,18.7244771 12.1117675,18.7402723 12.1447313,18.7542361 C12.1566349,18.7592723 12.1683096,18.7647663 12.1806711,18.7693446 C12.1834181,18.7704892 12.1861651,18.7723205 12.1893699,18.7734651 C12.1955506,18.7757542 12.2021892,18.776441 12.2085988,18.7785012 C12.2383578,18.7883446 12.2683458,18.7958988 12.2992494,18.8027663 C12.311153,18.8052843 12.3228277,18.8096337 12.3347313,18.811694 C12.3404542,18.8126096 12.3459482,18.8135253 12.3516711,18.814441 C12.398141,18.8217663 12.4448398,18.8261157 12.4922253,18.8263446 C12.4933699,18.8263446 12.4942855,18.8265735 12.4952012,18.8265735 L12.4954301,18.8265735 L12.495659,18.8265735 C12.4961169,18.8265735 12.4965747,18.8265735 12.4972614,18.8265735 C12.5503699,18.8263446 12.6025627,18.8203928 12.6542976,18.8110072 C12.6678036,18.8087181 12.6810807,18.8052843 12.6945867,18.8020795 C12.696647,18.8016217 12.6982494,18.8009349 12.7003096,18.8004771 C12.7380807,18.7915494 12.7749361,18.7807904 12.8113337,18.7672843 C12.8211771,18.7636217 12.8317072,18.7617904 12.8415506,18.7576699 L12.8417795,18.7576699 C12.8433819,18.7569831 12.8447554,18.7560675 12.8461289,18.7553807 C12.8516229,18.7530916 12.856659,18.7494289 12.8619241,18.7469108 C12.8999241,18.7302 12.9363217,18.7105133 12.9720325,18.6887663 C12.981647,18.6828145 12.9919482,18.678694 13.0015627,18.6722843 C13.0038518,18.6706819 13.006141,18.6688506 13.008888,18.6672482 C13.0530687,18.6370313 13.0942735,18.6022361 13.1327313,18.5644651 C13.1361651,18.5610313 13.1402855,18.5585133 13.1434904,18.5550795 L23.7832614,7.82397108 C23.8235506,7.78345301 23.8590325,7.73973012 23.8899361,7.69394699 C23.8961169,7.68501928 23.9002373,7.67471807 23.9059602,7.66533253 C23.9302253,7.6268747 23.952659,7.5875012 23.9707434,7.54629639 Z" id="Fill-1" fill="#FFFFFF" mask="url(#mask-2)"></path>
                        </g>
                    </g>
                </g>
            </g>
        </g>
    </g>
</svg>