<?xml version="1.0" encoding="UTF-8"?>
<svg width="18px" height="24px" viewBox="0 0 18 24" version="1.1" xmlns="http://www.w3.org/2000/svg" xmlns:xlink="http://www.w3.org/1999/xlink">
    <!-- Generator: Sketch 48.2 (47327) - http://www.bohemiancoding.com/sketch -->
    <title>ic_reports_white</title>
    <desc>Created with Sketch.</desc>
    <defs>
        <polygon id="path-1" points="2.4e-05 0.207937992 17.97696 0.207937992 17.97696 23.759976 2.4e-05 23.759976"></polygon>
    </defs>
    <g id="02_dashboard_full-copy-8" stroke="none" stroke-width="1" fill="none" fill-rule="evenodd" transform="translate(-22.000000, -499.000000)">
        <g id="side-bar">
            <g id="Side-Bar">
                <g id="Reports" transform="translate(0.000000, 480.000000)">
                    <g id="ic_reports_white" transform="translate(18.000000, 18.000000)">
                        <polygon id="Shape" points="0 0 26.4827586 0 26.4827586 25.2413793 0 25.2413793"></polygon>
                        <g id="Page-1" transform="translate(4.000000, 1.000000)">
                            <g id="Group-3" transform="translate(0.000000, 0.032088)">
                                <mask id="mask-2" fill="white">
                                    <use xlink:href="#path-1"></use>
                                </mask>
                                <g id="Clip-2"></g>
                                <path d="M8.988504,19.325016 C11.220744,19.325016 13.452744,19.858056 15.487464,20.923656 L16.068264,21.227976 L16.068264,2.740056 L15.487464,3.044136 C11.417784,5.175816 6.559224,5.175816 2.489544,3.044376 L1.908744,2.740056 L1.908744,21.227976 L2.489544,20.923896 C4.524264,19.858056 6.756264,19.325016 8.988504,19.325016 M17.022744,23.759976 C16.870824,23.759976 16.718664,23.723736 16.579704,23.650776 L14.601624,22.614696 C11.086584,20.773416 6.889944,20.773416 3.375384,22.614696 L1.397304,23.650776 C1.101624,23.805816 0.746424,23.795256 0.460344,23.621976 C0.174504,23.449176 2.4e-05,23.139576 2.4e-05,22.805496 L2.4e-05,1.162536 C2.4e-05,0.828456 0.174504,0.518856 0.460344,0.345816 C0.746424,0.172776 1.101624,0.161976 1.397304,0.317016 L3.375384,1.353336 C6.889944,3.194376 11.086584,3.194376 14.601624,1.353336 L16.579704,0.317016 C16.875384,0.161976 17.230824,0.172776 17.516664,0.345816 C17.802504,0.518856 17.976984,0.828456 17.976984,1.162536 L17.976984,22.805496 C17.976984,23.139576 17.802504,23.449176 17.516664,23.621976 C17.364984,23.713896 17.193864,23.759976 17.022744,23.759976" id="Fill-1" fill="#FFFFFF" mask="url(#mask-2)"></path>
                            </g>
                            <path d="M13.57548,8.834376 L4.55052,8.834376 C4.02348,8.834376 3.59628,8.407176 3.59628,7.879896 C3.59628,7.352856 4.02348,6.925656 4.55052,6.925656 L13.57548,6.925656 C14.10252,6.925656 14.52996,7.352856 14.52996,7.879896 C14.52996,8.407176 14.10252,8.834376 13.57548,8.834376" id="Fill-4" fill="#FFFFFF"></path>
                            <path d="M13.57548,11.751528 L4.55052,11.751528 C4.02348,11.751528 3.59628,11.324328 3.59628,10.797048 C3.59628,10.270008 4.02348,9.842808 4.55052,9.842808 L13.57548,9.842808 C14.10252,9.842808 14.52996,10.270008 14.52996,10.797048 C14.52996,11.324328 14.10252,11.751528 13.57548,11.751528" id="Fill-6" fill="#FFFFFF"></path>
                            <path d="M9.063048,14.66856 L4.550568,14.66856 C4.023528,14.66856 3.596328,14.24136 3.596328,13.71408 C3.596328,13.18704 4.023528,12.75984 4.550568,12.75984 L9.063048,12.75984 C9.590088,12.75984 10.017528,13.18704 10.017528,13.71408 C10.017528,14.24136 9.590088,14.66856 9.063048,14.66856" id="Fill-8" fill="#FFFFFF"></path>
                            <path d="M6.107568,17.658936 L4.550688,17.658936 C4.023408,17.658936 3.596208,17.231736 3.596208,16.704456 C3.596208,16.177416 4.023408,15.750216 4.550688,15.750216 L6.107568,15.750216 C6.634608,15.750216 7.062048,16.177416 7.062048,16.704456 C7.062048,17.231736 6.634608,17.658936 6.107568,17.658936" id="Fill-10" fill="#FFFFFF"></path>
                        </g>
                    </g>
                </g>
            </g>
        </g>
    </g>
</svg>