<?xml version="1.0" encoding="UTF-8"?>
<svg width="29px" height="29px" viewBox="0 0 29 29" version="1.1" xmlns="http://www.w3.org/2000/svg" xmlns:xlink="http://www.w3.org/1999/xlink">
    <!-- Generator: Sketch 48.2 (47327) - http://www.bohemiancoding.com/sketch -->
    <title>ic_sms_credits</title>
    <desc>Created with Sketch.</desc>
    <defs>
        <polygon id="path-1" points="0 0.111550781 28.4376117 0.111550781 28.4376117 22.501418 0 22.501418"></polygon>
        <polygon id="path-3" points="8.90625e-05 0.227242969 8.46102656 0.227242969 8.46102656 6.234375 8.90625e-05 6.234375"></polygon>
        <polygon id="path-5" points="0 0.227242969 8.46089297 0.227242969 8.46089297 1.19178984 0 1.19178984"></polygon>
    </defs>
    <g id="02_dashboard_full-copy-13" stroke="none" stroke-width="1" fill="none" fill-rule="evenodd" transform="translate(-964.000000, -129.000000)">
        <g id="ic_sms_credits-copy" transform="translate(950.000000, 115.000000)">
            <g id="ic_sms_credits" transform="translate(14.540816, 13.959184)">
                <g id="Group-3" transform="translate(0.000000, 0.333984)">
                    <mask id="mask-2" fill="white">
                        <use xlink:href="#path-1"></use>
                    </mask>
                    <g id="Clip-2"></g>
                    <path d="M26.7810492,0.111550781 L1.65651797,0.111550781 C0.743627344,0.111550781 -4.453125e-05,0.850324219 -4.453125e-05,1.76811328 L-4.453125e-05,22.492957 L17.3849555,22.492957 L17.3849555,22.501418 L26.7810492,22.501418 C27.698393,22.501418 28.4376117,21.7621992 28.4376117,20.8453008 L28.4376117,1.76811328 C28.4376117,0.850324219 27.698393,0.111550781 26.7810492,0.111550781" id="Fill-1" fill="#00EE8A" mask="url(#mask-2)"></path>
                </g>
                <g id="Group-6" transform="translate(0.000000, 22.599609)">
                    <mask id="mask-4" fill="white">
                        <use xlink:href="#path-3"></use>
                    </mask>
                    <g id="Clip-5"></g>
                    <path d="M8.90625e-05,0.227242969 L8.90625e-05,4.57794609 C8.90625e-05,5.24591484 0.400425,5.84708672 1.01495625,6.10536797 C1.22469844,6.18997734 1.44290156,6.23450859 1.65665156,6.23450859 C2.08415156,6.23450859 2.49784687,6.06974297 2.81446406,5.76247734 L8.46102656,0.236149219 L8.90625e-05,0.227242969" id="Fill-4" fill="#00D89D" mask="url(#mask-4)"></path>
                </g>
                <g id="Group-9" transform="translate(0.000000, 22.599609)">
                    <mask id="mask-6" fill="white">
                        <use xlink:href="#path-5"></use>
                    </mask>
                    <g id="Clip-8"></g>
                    <polygon id="Fill-7" fill="#00B77E" mask="url(#mask-6)" points="7.48432266 1.19178984 8.46089297 0.236149219 -4.453125e-05 0.227242969 -4.453125e-05 0.301164844"></polygon>
                </g>
                <path d="M21.1728727,7.78361719 L7.26487266,7.78361719 C6.45084141,7.78361719 5.79133359,7.12410937 5.79133359,6.31007812 C5.79133359,5.49649219 6.45084141,4.83698437 7.26487266,4.83698437 L21.1728727,4.83698437 C21.9864586,4.83698437 22.6464117,5.49649219 22.6464117,6.31007812 C22.6464117,7.12410937 21.9864586,7.78361719 21.1728727,7.78361719" id="Fill-10" fill="#FFFFFF"></path>
                <path d="M21.1728727,12.9355711 L7.26487266,12.9355711 C6.45084141,12.9355711 5.79133359,12.2760633 5.79133359,11.462032 C5.79133359,10.6484461 6.45084141,9.98893828 7.26487266,9.98893828 L21.1728727,9.98893828 C21.9864586,9.98893828 22.6464117,10.6484461 22.6464117,11.462032 C22.6464117,12.2760633 21.9864586,12.9355711 21.1728727,12.9355711" id="Fill-12" fill="#FFFFFF"></path>
                <path d="M21.1728727,18.2658727 L7.26487266,18.2658727 C6.45084141,18.2658727 5.79133359,17.6068102 5.79133359,16.7923336 C5.79133359,15.9787477 6.45084141,15.3192398 7.26487266,15.3192398 L21.1728727,15.3192398 C21.9864586,15.3192398 22.6464117,15.9787477 22.6464117,16.7923336 C22.6464117,17.6068102 21.9864586,18.2658727 21.1728727,18.2658727" id="Fill-14" fill="#FFFFFF"></path>
            </g>
        </g>
    </g>
</svg>