<?xml version="1.0" encoding="UTF-8"?>
<svg width="20px" height="20px" viewBox="0 0 20 20" version="1.1" xmlns="http://www.w3.org/2000/svg" xmlns:xlink="http://www.w3.org/1999/xlink">
    <!-- Generator: Sketch 49.2 (51160) - http://www.bohemiancoding.com/sketch -->
    <title>ic_sms_main</title>
    <desc>Created with Sketch.</desc>
    <defs>
        <linearGradient x1="71.3676224%" y1="24.7145619%" x2="-151.306766%" y2="252.000174%" id="linearGradient-1">
            <stop stop-color="#20E2D7" offset="0%"></stop>
            <stop stop-color="#F9FEA5" offset="100%"></stop>
        </linearGradient>
    </defs>
    <g id="Dashboard" stroke="none" stroke-width="1" fill="none" fill-rule="evenodd">
        <g id="dashboard-/-full" transform="translate(-1186.000000, -570.000000)">
            <g id="Plans" transform="translate(1141.000000, 211.000000)">
                <g id="Group-17" transform="translate(43.000000, 313.000000)">
                    <g id="Group-14" transform="translate(0.000000, 44.000000)">
                        <g id="ic_sms_main">
                            <g id="Shape">
                                <path d="M20,2 L4,2 C2.9,2 2.01,2.9 2.01,4 L2,22 L6,18 L20,18 C21.1,18 22,17.1 22,16 L22,4 C22,2.9 21.1,2 20,2 Z M18,14 L6,14 L6,12 L18,12 L18,14 Z M18,11 L6,11 L6,9 L18,9 L18,11 Z M18,8 L6,8 L6,6 L18,6 L18,8 Z" fill="url(#linearGradient-1)" fill-rule="nonzero"></path>
                                <polygon points="0 0 24 0 24 24 0 24"></polygon>
                            </g>
                        </g>
                    </g>
                </g>
            </g>
        </g>
    </g>
</svg>