<?xml version="1.0" encoding="UTF-8"?>
<svg width="16px" height="20px" viewBox="0 0 16 20" version="1.1" xmlns="http://www.w3.org/2000/svg" xmlns:xlink="http://www.w3.org/1999/xlink">
    <!-- Generator: Sketch 48.2 (47327) - http://www.bohemiancoding.com/sketch -->
    <title>Icon / Trash</title>
    <desc>Created with Sketch.</desc>
    <defs>
        <rect id="path-1" x="0" y="0" width="24" height="24"></rect>
        <path d="M5.14285714,19.6068376 C5.14285714,20.9230769 6.17142857,22 7.42857143,22 L16.5714286,22 C17.8285714,22 18.8571429,20.9230769 18.8571429,19.6068376 L18.8571429,6.98770443 C18.8571429,6.87648552 18.7695661,6.78632479 18.6632734,6.78632479 L5.3367266,6.78632479 C5.22965545,6.78632479 5.14285714,6.86819406 5.14285714,6.98770443 L5.14285714,19.6068376 Z M20,3.70410939 C20,3.42380931 19.7849426,3.1965812 19.5095215,3.1965812 L16,3.1965812 L15.2062476,2.36551565 C15.0134424,2.16364693 14.6401138,2 14.3500381,2 L9.64996188,2 C9.36989567,2 8.98394775,2.16637949 8.7937524,2.36551565 L8,3.1965812 L4.49047852,3.1965812 C4.21959471,3.1965812 4,3.41743456 4,3.70410939 L4,5.0822154 C4,5.36251548 4.22618103,5.58974359 4.4963932,5.58974359 L19.5036068,5.58974359 C19.7777572,5.58974359 20,5.36889022 20,5.0822154 L20,3.70410939 Z" id="path-3"></path>
    </defs>
    <g id="01_campaigns_calendar" stroke="none" stroke-width="1" fill="none" fill-rule="evenodd" transform="translate(-1481.000000, -477.000000)">
        <g id="Group-4" transform="translate(837.000000, 226.000000)">
            <g id="Group-2-Copy-2" transform="translate(4.000000, 220.000000)">
                <g id="Group">
                    <g id="Icon-/-Trash" transform="translate(636.000000, 29.000000)">
                        <mask id="mask-2" fill="white">
                            <use xlink:href="#path-1"></use>
                        </mask>
                        <g id="Container" fill-rule="nonzero"></g>
                        <mask id="mask-4" fill="white">
                            <use xlink:href="#path-3"></use>
                        </mask>
                        <g id="Trash" fill-rule="nonzero"></g>
                        <g id="Style-/-Color-/-Light-Grey" mask="url(#mask-4)" fill="#B8C1CB" fill-rule="evenodd">
                            <rect id="Container" x="0" y="0" width="24" height="24"></rect>
                        </g>
                    </g>
                </g>
            </g>
        </g>
    </g>
</svg>