<?xml version="1.0" encoding="UTF-8"?>
<svg width="22px" height="15px" viewBox="0 0 22 15" version="1.1" xmlns="http://www.w3.org/2000/svg" xmlns:xlink="http://www.w3.org/1999/xlink">
    <!-- Generator: Sketch 48.2 (47327) - http://www.bohemiancoding.com/sketch -->
    <title>ic_view</title>
    <desc>Created with Sketch.</desc>
    <defs>
        <rect id="path-1" x="0" y="0" width="24" height="24"></rect>
        <path d="M12,5 C7,5 2.7,8.1 1,12.5 C2.7,16.9 7,20 12,20 C17,20 21.3,16.9 23,12.5 C21.3,8.1 17,5 12,5 Z M12,17.5 C9.2,17.5 7,15.3 7,12.5 C7,9.7 9.2,7.5 12,7.5 C14.8,7.5 17,9.7 17,12.5 C17,15.3 14.8,17.5 12,17.5 Z M12,9.5 C10.3,9.5 9,10.8 9,12.5 C9,14.2 10.3,15.5 12,15.5 C13.7,15.5 15,14.2 15,12.5 C15,10.8 13.7,9.5 12,9.5 Z" id="path-3"></path>
    </defs>
    <g id="01_campaigns_calendar" stroke="none" stroke-width="1" fill="none" fill-rule="evenodd" transform="translate(-1442.000000, -316.000000)">
        <g id="Group-4" transform="translate(837.000000, 226.000000)">
            <g id="Group-2" transform="translate(4.000000, 56.000000)">
                <g id="Group">
                    <g id="Icon-/-Eye" transform="translate(600.000000, 29.000000)">
                        <mask id="mask-2" fill="white">
                            <use xlink:href="#path-1"></use>
                        </mask>
                        <g id="Container" fill-rule="nonzero"></g>
                        <mask id="mask-4" fill="white">
                            <use xlink:href="#path-3"></use>
                        </mask>
                        <g id="Eye" fill-rule="nonzero"></g>
                        <g id="Style-/-Color-/-Light-Grey" mask="url(#mask-4)" fill="#B8C1CB" fill-rule="evenodd">
                            <rect id="Container" x="0" y="0" width="24" height="24"></rect>
                        </g>
                    </g>
                </g>
            </g>
        </g>
    </g>
</svg>