<?xml version="1.0" encoding="UTF-8"?>
<svg width="14px" height="23px" viewBox="0 0 14 23" version="1.1" xmlns="http://www.w3.org/2000/svg" xmlns:xlink="http://www.w3.org/1999/xlink">
    <!-- Generator: Sketch 49.2 (51160) - http://www.bohemiancoding.com/sketch -->
    <title>ic_voice_call_main</title>
    <desc>Created with Sketch.</desc>
    <defs>
        <linearGradient x1="232.577324%" y1="-87.4764191%" x2="-53.3001134%" y2="109.077901%" id="linearGradient-1">
            <stop stop-color="#052AD6" offset="0%"></stop>
            <stop stop-color="#00A7FC" offset="100%"></stop>
        </linearGradient>
    </defs>
    <g id="Dashboard" stroke="none" stroke-width="1" fill="none" fill-rule="evenodd">
        <g id="dashboard-/-full" transform="translate(-1189.000000, -525.000000)">
            <g id="Plans" transform="translate(1141.000000, 211.000000)">
                <g id="Group-17" transform="translate(43.000000, 313.000000)">
                    <g id="Group-15">
                        <g id="ic_voice_call_main">
                            <g id="ic_voice_call">
                                <path d="M7,24 L9,24 L9,22 L7,22 L7,24 Z M12,13 C13.66,13 14.99,11.66 14.99,10 L15,4 C15,2.34 13.66,1 12,1 C10.34,1 9,2.34 9,4 L9,10 C9,11.66 10.34,13 12,13 Z M11,24 L13,24 L13,22 L11,22 L11,24 Z M15,24 L17,24 L17,22 L15,22 L15,24 Z M19,10 L17.3,10 C17.3,13 14.76,15.1 12,15.1 C9.24,15.1 6.7,13 6.7,10 L5,10 C5,13.41 7.72,16.23 11,16.72 L11,20 L13,20 L13,16.72 C16.28,16.23 19,13.41 19,10 Z" id="Shape" fill="url(#linearGradient-1)" fill-rule="nonzero"></path>
                                <polygon id="Shape" points="0 0 24 0 24 24 0 24"></polygon>
                            </g>
                        </g>
                    </g>
                </g>
            </g>
        </g>
    </g>
</svg>