<?xml version="1.0" encoding="UTF-8"?>
<svg width="20px" height="19px" viewBox="0 0 20 19" version="1.1" xmlns="http://www.w3.org/2000/svg" xmlns:xlink="http://www.w3.org/1999/xlink">
    <!-- Generator: Sketch 48.2 (47327) - http://www.bohemiancoding.com/sketch -->
    <title>icon-transaction</title>
    <desc>Created with Sketch.</desc>
    <defs></defs>
    <g id="02_dashboard_full-copy-13" stroke="none" stroke-width="1" fill="none" fill-rule="evenodd" transform="translate(-352.000000, -273.000000)">
        <g id="Group-52" transform="translate(326.000000, 239.000000)" fill="#404040">
            <g id="icon-transaction" transform="translate(24.000000, 31.000000)">
                <g id="Page-1" transform="translate(2.000000, 3.000000)">
                    <path d="M18.739244,17.6093773 L1.26659067,17.6093773 L1.26659067,0.633257333 C1.26659067,0.283404 0.983110667,-7.6e-05 0.633257333,-7.6e-05 C0.283404,-7.6e-05 -7.6e-05,0.283404 -7.6e-05,0.633257333 L-7.6e-05,18.2427107 C-7.6e-05,18.592564 0.283404,18.876044 0.633257333,18.876044 L18.739244,18.876044 C19.0890973,18.876044 19.3725773,18.592564 19.3725773,18.2427107 C19.3725773,17.8928573 19.0890973,17.6093773 18.739244,17.6093773" id="Fill-1"></path>
                    <path d="M2.94006,15.238456 C3.1065,15.238456 3.27268667,15.173096 3.39732667,15.0433893 L7.57783333,10.6835227 L10.08406,13.296656 C10.20186,13.4192693 10.36374,13.489696 10.5337267,13.4917227 C10.7128333,13.4975493 10.8671133,13.427376 10.9877,13.3078027 L17.5986867,6.743176 L17.5986867,9.19544267 C17.5986867,9.545296 17.8821667,9.828776 18.23202,9.828776 C18.5818733,9.828776 18.8653533,9.545296 18.8653533,9.19544267 L18.8653533,5.22444267 L18.8653533,5.22368267 L18.8653533,5.221656 C18.8653533,5.214816 18.86358,5.20848267 18.8633267,5.20138933 C18.8623133,5.166936 18.85978,5.13248267 18.85294,5.098536 C18.8496467,5.08054933 18.8428067,5.06382933 18.83774,5.04660267 C18.8314067,5.02430933 18.8260867,5.00176267 18.81722,4.98022933 C18.8093667,4.960976 18.7984733,4.943496 18.7885933,4.925256 C18.7787133,4.907016 18.7706067,4.88852267 18.7589533,4.87104267 C18.7429933,4.84672267 18.7234867,4.824936 18.7042333,4.80314933 C18.6961267,4.79402933 18.6903,4.78414933 18.6816867,4.775536 C18.6814333,4.77502933 18.6809267,4.774776 18.68042,4.77452267 C18.6512867,4.745136 18.6191133,4.71878933 18.58466,4.695736 C18.5681933,4.68484267 18.5507133,4.67724267 18.5334867,4.66786933 C18.5144867,4.65748267 18.49574,4.64582933 18.4754733,4.637216 C18.4519133,4.627336 18.4275933,4.62150933 18.4032733,4.61466933 C18.3880733,4.61036267 18.37338,4.60428267 18.35742,4.60098933 C18.3161267,4.59288267 18.2743267,4.588576 18.2325267,4.58832267 L18.23202,4.58832267 L14.5151133,4.58832267 C14.1655133,4.58832267 13.88178,4.872056 13.88178,5.221656 C13.88178,5.57150933 14.1655133,5.85498933 14.5151133,5.85498933 L16.6953,5.85498933 L10.5524733,11.9550027 L8.03484667,9.330216 C7.79595333,9.080936 7.35946,9.08118933 7.12056667,9.330216 L2.48279333,14.166856 C2.24086,14.419176 2.24922,14.8202027 2.50179333,15.0623893 C2.62440667,15.179936 2.78223333,15.238456 2.94006,15.238456" id="Fill-4"></path>
                </g>
            </g>
        </g>
    </g>
</svg>