<?xml version="1.0" encoding="UTF-8"?>
<svg width="16px" height="16px" viewBox="0 0 16 16" version="1.1" xmlns="http://www.w3.org/2000/svg" xmlns:xlink="http://www.w3.org/1999/xlink">
    <!-- Generator: Sketch 48.2 (47327) - http://www.bohemiancoding.com/sketch -->
    <title>icon_setting</title>
    <desc>Created with Sketch.</desc>
    <defs>
        <rect id="path-1" x="0" y="0" width="18" height="18"></rect>
        <path d="M8.99232082,11.25 C9.39164022,11.25 9.76535662,11.1476119 10.1134812,10.9428328 C10.4616058,10.7380536 10.7380536,10.4641655 10.9428328,10.1211604 C11.1476119,9.77815528 11.25,9.40699858 11.25,9.00767918 C11.25,8.60835978 11.1476119,8.23464338 10.9428328,7.88651877 C10.7380536,7.53839416 10.4616058,7.26194642 10.1134812,7.05716724 C9.76535662,6.85238805 9.39164022,6.75 8.99232082,6.75 C8.59300142,6.75 8.22184472,6.85238805 7.87883959,7.05716724 C7.53583446,7.26194642 7.26194642,7.53839416 7.05716724,7.88651877 C6.85238805,8.23464338 6.75,8.60835978 6.75,9.00767918 C6.75,9.40699858 6.85238805,9.77815528 7.05716724,10.1211604 C7.26194642,10.4641655 7.53583446,10.7380536 7.87883959,10.9428328 C8.22184472,11.1476119 8.59300142,11.25 8.99232082,11.25 Z M14.7564165,9.73918269 L16.3667324,10.9651442 C16.4407703,11.0252407 16.4839584,11.1033649 16.4962981,11.1995192 C16.5086377,11.2956736 16.4901285,11.3858169 16.4407699,11.4699519 L14.8859822,14.0661058 C14.8366236,14.1502408 14.7718414,14.2043268 14.6916337,14.2283654 C14.611426,14.252404 14.5219649,14.2463944 14.4232477,14.2103365 L12.5167818,13.4711538 C12.0231959,13.8197133 11.585145,14.066105 11.202616,14.2103365 L10.9249753,16.1754808 C10.900296,16.2716351 10.854023,16.3497593 10.786155,16.4098558 C10.7182869,16.4699522 10.6411653,16.5 10.5547877,16.5 L7.44521225,16.5 C7.35883472,16.5 7.28171308,16.4699522 7.21384503,16.4098558 C7.14597697,16.3497593 7.10587372,16.2716351 7.09353407,16.1754808 L6.79738402,14.2103365 C6.27911885,14.0060086 5.84723768,13.7596168 5.50172756,13.4711538 L3.57675226,14.2103365 C3.3793179,14.2944716 3.22507463,14.2463951 3.11401781,14.0661058 L1.55923006,11.4699519 C1.50987147,11.3858169 1.49136228,11.2956736 1.50370192,11.1995192 C1.51604157,11.1033649 1.55922969,11.0252407 1.63326757,10.9651442 L3.26209283,9.73918269 C3.23741354,9.57091262 3.22507407,9.32452085 3.22507407,9 C3.22507407,8.67547915 3.23741354,8.42908738 3.26209283,8.26081731 L1.63326757,7.03485577 C1.55922969,6.97475931 1.51604157,6.8966351 1.50370192,6.80048077 C1.49136228,6.70432644 1.50987147,6.61418311 1.55923006,6.53004808 L3.11401781,3.93389423 C3.22507463,3.75360487 3.3793179,3.70552843 3.57675226,3.78966346 L5.50172756,4.52884615 C5.94595486,4.2043253 6.37783602,3.95793353 6.79738402,3.78966346 L7.09353407,1.82451923 C7.10587372,1.7283649 7.14597697,1.65024069 7.21384503,1.59014423 C7.28171308,1.53004778 7.35883472,1.5 7.44521225,1.5 L10.5547877,1.5 C10.6411653,1.5 10.7182869,1.53004778 10.786155,1.59014423 C10.854023,1.65024069 10.900296,1.7283649 10.9249753,1.82451923 L11.202616,3.78966346 C11.6838622,3.96995282 12.1219131,4.21634459 12.5167818,4.52884615 L14.4232477,3.78966346 C14.5219649,3.75360559 14.611426,3.74759603 14.6916337,3.77163462 C14.7718414,3.7956732 14.8366236,3.84975919 14.8859822,3.93389423 L16.4407699,6.53004808 C16.4901285,6.61418311 16.5086377,6.70432644 16.4962981,6.80048077 C16.4839584,6.8966351 16.4407703,6.97475931 16.3667324,7.03485577 L14.7564165,8.26081731 C14.7810958,8.42908738 14.7934353,8.67547915 14.7934353,9 C14.7934353,9.32452085 14.7810958,9.57091262 14.7564165,9.73918269 Z" id="path-3"></path>
    </defs>
    <g id="02_list_cards" stroke="none" stroke-width="1" fill="none" fill-rule="evenodd" transform="translate(-1059.000000, -225.000000)">
        <g id="ic_more-copy" transform="translate(1058.000000, 224.000000)">
            <g id="icon_setting">
                <mask id="mask-2" fill="white">
                    <use xlink:href="#path-1"></use>
                </mask>
                <g id="Container" fill-rule="nonzero"></g>
                <mask id="mask-4" fill="white">
                    <use xlink:href="#path-3"></use>
                </mask>
                <use id="Settings" fill="#8CC1D6" xlink:href="#path-3"></use>
            </g>
        </g>
    </g>
</svg>