<?xml version="1.0" encoding="UTF-8"?>
<svg width="113px" height="28px" viewBox="0 0 113 28" version="1.1" xmlns="http://www.w3.org/2000/svg" xmlns:xlink="http://www.w3.org/1999/xlink">
    <!-- Generator: sketchtool 48.2 (47327) - http://www.bohemiancoding.com/sketch -->
    <title>B72584A4-1336-4D5D-AB26-4935AFDCAABF</title>
    <desc>Created with sketchtool.</desc>
    <defs></defs>
    <g id="02_Billling_view_invoice" stroke="none" stroke-width="1" fill="none" fill-rule="evenodd" transform="translate(-69.000000, -16.000000)">
        <g id="Side-Bar" fill="#FFFFFF">
            <g id="div_logo">
                <path d="M158.710538,16 L181.987697,16 L181.987697,21.3813858 L163.199884,21.3813858 L163.199884,27.2770752 L181.987697,27.2770752 L182,28.2260484 L182,43.9587629 L177.501147,43.9360893 L158.710538,43.9360893 L158.710538,38.5547035 L177.501147,38.5547035 L177.501147,32.659014 L158.710538,32.659014 L158.701031,31.8211968 L158.710538,16.0879293 L158.710538,16 Z M123.752577,21.8247423 L123.752577,16 L147.051546,16 L147.051546,21.8247423 L123.752577,21.8247423 Z M123.752577,33.4742268 L123.752577,27.6494845 L147.051546,27.6494845 L147.051546,33.4742268 L123.752577,33.4742268 Z M123.752577,43.9587629 L123.752577,38.1340206 L147.051546,38.1340206 L147.051546,43.9587629 L123.752577,43.9587629 Z M112.423499,16 L117.927835,16 L103.786019,43.9587629 L98.2811254,43.9587629 L84.1443299,16 L89.6492239,16 L101.036082,38.5208404 L112.423499,16 Z M69,43.9587629 L69,16 L74.8247423,16 L74.8247423,43.9587629 L69,43.9587629 Z" id="logo"></path>
            </g>
        </g>
    </g>
</svg>