<?xml version="1.0" encoding="UTF-8"?>
<svg width="333px" height="159px" viewBox="0 0 333 159" version="1.1" xmlns="http://www.w3.org/2000/svg" xmlns:xlink="http://www.w3.org/1999/xlink">
    <!-- Generator: Sketch 48.2 (47327) - http://www.bohemiancoding.com/sketch -->
    <title>modal-ic-delete</title>
    <desc>Created with Sketch.</desc>
    <defs>
        <polygon id="path-1" points="0 0.576144539 332.852131 0.576144539 332.852131 158.783267 0 158.783267"></polygon>
        <linearGradient x1="0%" y1="100%" x2="100%" y2="0%" id="linearGradient-3">
            <stop stop-color="#FFC796" offset="0%"></stop>
            <stop stop-color="#FF6B95" offset="100%"></stop>
        </linearGradient>
        <path d="M0,67 C0,104.003527 29.9971278,134 67.000422,134 C104.002872,134 134,104.003527 134,67 C134,29.9964728 104.002872,0 67.000422,0 C29.9971278,0 0,29.9964728 0,67 Z" id="path-4"></path>
        <rect id="path-6" x="0" y="0" width="84" height="84"></rect>
        <path d="M18,68.6239316 C18,73.2307692 21.6,77 26,77 L58,77 C62.4,77 66,73.2307692 66,68.6239316 L66,23.9521944 C66,23.8417056 65.9087369,23.7521368 65.8066027,23.7521368 L18.1933973,23.7521368 C18.0865869,23.7521368 18,23.8509513 18,23.9521944 L18,68.6239316 Z M70,11.6869113 C70,11.4113891 69.7800934,11.1880342 69.5017326,11.1880342 L56,11.1880342 L52.3410378,7.35706944 C52.1526878,7.15986543 51.7753906,7 51.5056152,7 L32.4943848,7 C32.2213436,7 31.8480797,7.15906187 31.6589622,7.35706944 L28,11.1880342 L14.4982674,11.1880342 C14.2230819,11.1880342 14,11.4120738 14,11.6869113 L14,19.0652254 C14,19.3407477 14.2256302,19.5641026 14.5012288,19.5641026 L69.4987712,19.5641026 C69.7755922,19.5641026 70,19.340063 70,19.0652254 L70,11.6869113 Z" id="path-8"></path>
    </defs>
    <g id="05_campaign_delete" stroke="none" stroke-width="1" fill="none" fill-rule="evenodd" transform="translate(-634.000000, -314.000000)">
        <g id="Group-5">
            <g id="modal-ic-delete" transform="translate(634.000000, 314.000000)">
                <g id="Group-3">
                    <mask id="mask-2" fill="white">
                        <use xlink:href="#path-1"></use>
                    </mask>
                    <g id="Clip-2"></g>
                    <path d="M320.616278,89.8695845 L276.135908,89.8695845 C270.615696,88.8801764 266.475536,84.7808341 266.475536,79.869648 L266.475536,77.3632613 C266.475536,71.8536497 271.684668,67.3624712 278.208096,67.1413696 C278.041174,67.1353939 277.87341,67.1302719 277.704802,67.1302719 L286.396524,67.1302719 C293.154316,67.1302719 298.63322,62.5494575 298.63322,56.8981361 L298.63322,54.3917494 C298.63322,48.740428 293.154316,44.1596136 286.396524,44.1596136 L183.296351,44.1596136 L183.296351,44.0204648 C177.18264,43.4510643 172.429592,39.1169617 172.429592,33.8532082 L172.429592,31.3468215 C172.429592,26.083068 177.18264,21.7498191 183.296351,21.1804186 L183.296351,21.0412698 L293.647493,21.0412698 C300.405286,21.0412698 305.884189,16.4604554 305.884189,10.809134 C305.884189,5.15781255 300.405286,0.576144539 293.647493,0.576144539 L72.9443666,0.576144539 C66.1865742,0.576144539 60.7085134,5.15781255 60.7085134,10.809134 C60.7085134,16.4604554 66.1865742,21.0412698 72.9443666,21.0412698 L99.0026704,21.0412698 L99.0026704,21.1146857 L104.214331,21.1146857 C110.972124,21.1146857 116.450184,25.6963538 116.450184,31.3468215 L116.450184,33.8532082 C116.450184,39.5045296 110.972124,44.0861977 104.214331,44.0861977 L99.0026704,44.0861977 L99.0026704,44.1596136 L58.4618172,44.1596136 C51.7040248,44.1596136 46.225121,48.740428 46.225121,54.3917494 L46.225121,56.8981361 C46.225121,62.5494575 51.7040248,67.1302719 58.4618172,67.1302719 L97.8485514,67.1302719 C104.606344,67.1302719 110.084405,71.7119399 110.084405,77.3632613 L110.084405,79.869648 C110.084405,84.7765658 105.953518,88.8742007 100.441736,89.8695845 L29.0043843,89.8695845 C22.2465919,89.8695845 16.7685311,94.4503988 16.7685311,100.10172 L16.7685311,102.608107 C16.7685311,108.259428 22.2465919,112.841096 29.0043843,112.841096 L71.7405084,112.841096 C78.4983008,112.841096 83.9763615,117.421911 83.9763615,123.073232 L83.9763615,125.579619 C83.9763615,131.23094 78.4983008,135.811755 71.7405084,135.811755 L12.236359,135.811755 C5.47856658,135.811755 -0.00033721519,140.393423 -0.00033721519,146.044744 L-0.00033721519,148.551131 C-0.00033721519,154.201599 5.47856658,158.783267 12.236359,158.783267 L303.848253,158.783267 C310.606045,158.783267 316.084106,154.201599 316.084106,148.551131 L316.084106,146.044744 C316.084106,140.393423 310.606045,135.811755 303.848253,135.811755 L241.550275,135.811755 C234.792483,135.811755 229.314422,131.23094 229.314422,125.579619 L229.314422,123.073232 C229.314422,117.421911 234.792483,112.841096 241.550275,112.841096 L320.616278,112.841096 C327.37407,112.841096 332.852131,108.259428 332.852131,102.608107 L332.852131,100.10172 C332.852131,94.4503988 327.37407,89.8695845 320.616278,89.8695845" id="Fill-1" fill="#F1FAFF" mask="url(#mask-2)"></path>
                </g>
                <g id="Group-165" transform="translate(99.000000, 13.000000)">
                    <mask id="mask-5" fill="white">
                        <use xlink:href="#path-4"></use>
                    </mask>
                    <use id="Clip-8" fill="url(#linearGradient-3)" xlink:href="#path-4"></use>
                    <g id="Icon-/-Trash" mask="url(#mask-5)">
                        <g transform="translate(25.000000, 25.000000)">
                            <mask id="mask-7" fill="white">
                                <use xlink:href="#path-6"></use>
                            </mask>
                            <g id="Container" stroke="none" fill="none" fill-rule="nonzero"></g>
                            <mask id="mask-9" fill="white">
                                <use xlink:href="#path-8"></use>
                            </mask>
                            <g id="Trash" stroke="none" fill="none" fill-rule="nonzero"></g>
                            <g id="Style-/-Color-/-White" stroke="none" fill="none" mask="url(#mask-9)" fill-rule="evenodd">
                                <rect id="Container" fill="#FFFFFF" x="0" y="0" width="84" height="84"></rect>
                            </g>
                        </g>
                    </g>
                </g>
            </g>
        </g>
    </g>
</svg>