<?xml version="1.0" encoding="UTF-8"?>
<svg width="325px" height="618px" viewBox="0 0 325 618" version="1.1" xmlns="http://www.w3.org/2000/svg" xmlns:xlink="http://www.w3.org/1999/xlink">
    <!-- Generator: Sketch 48.2 (47327) - http://www.bohemiancoding.com/sketch -->
    <title>Calling IVES Phone</title>
    <desc>Created with Sketch.</desc>
    <defs>
        <rect id="path-1" x="0" y="0" width="285" height="578" rx="45"></rect>
        <filter x="-14.4%" y="-5.0%" width="128.8%" height="114.2%" filterUnits="objectBoundingBox" id="filter-2">
            <feOffset dx="0" dy="10" in="SourceAlpha" result="shadowOffsetOuter1"></feOffset>
            <feGaussianBlur stdDeviation="10" in="shadowOffsetOuter1" result="shadowBlurOuter1"></feGaussianBlur>
            <feColorMatrix values="0 0 0 0 0.291186363   0 0 0 0 0.353112161   0 0 0 0 0.364251733  0 0 0 0.239668252 0" type="matrix" in="shadowBlurOuter1" result="shadowMatrixOuter1"></feColorMatrix>
            <feOffset dx="0" dy="2" in="SourceAlpha" result="shadowOffsetOuter2"></feOffset>
            <feGaussianBlur stdDeviation="3" in="shadowOffsetOuter2" result="shadowBlurOuter2"></feGaussianBlur>
            <feColorMatrix values="0 0 0 0 0   0 0 0 0 0.0846212283   0 0 0 0 0.261636734  0 0 0 0.253000453 0" type="matrix" in="shadowBlurOuter2" result="shadowMatrixOuter2"></feColorMatrix>
            <feMerge>
                <feMergeNode in="shadowMatrixOuter1"></feMergeNode>
                <feMergeNode in="shadowMatrixOuter2"></feMergeNode>
            </feMerge>
        </filter>
        <filter x="-13.5%" y="-4.6%" width="127.0%" height="113.3%" filterUnits="objectBoundingBox" id="filter-3">
            <feGaussianBlur stdDeviation="10" in="SourceAlpha" result="shadowBlurInner1"></feGaussianBlur>
            <feOffset dx="0" dy="-5" in="shadowBlurInner1" result="shadowOffsetInner1"></feOffset>
            <feComposite in="shadowOffsetInner1" in2="SourceAlpha" operator="arithmetic" k2="-1" k3="1" result="shadowInnerInner1"></feComposite>
            <feColorMatrix values="0 0 0 0 0.666137934   0 0 0 0 0.731471121   0 0 0 0 0.807220221  0 0 0 0.612205616 0" type="matrix" in="shadowInnerInner1" result="shadowMatrixInner1"></feColorMatrix>
            <feMorphology radius="1" operator="erode" in="SourceAlpha" result="shadowSpreadInner2"></feMorphology>
            <feGaussianBlur stdDeviation="2" in="shadowSpreadInner2" result="shadowBlurInner2"></feGaussianBlur>
            <feOffset dx="4" dy="7" in="shadowBlurInner2" result="shadowOffsetInner2"></feOffset>
            <feComposite in="shadowOffsetInner2" in2="SourceAlpha" operator="arithmetic" k2="-1" k3="1" result="shadowInnerInner2"></feComposite>
            <feColorMatrix values="0 0 0 0 0.999901831   0 0 0 0 1   0 0 0 0 0.999879897  0 0 0 0.880717844 0" type="matrix" in="shadowInnerInner2" result="shadowMatrixInner2"></feColorMatrix>
            <feMerge>
                <feMergeNode in="shadowMatrixInner1"></feMergeNode>
                <feMergeNode in="shadowMatrixInner2"></feMergeNode>
            </feMerge>
        </filter>
        <rect id="path-4" x="123" y="517" width="40" height="40" rx="20"></rect>
        <rect id="path-5" x="0" y="0" width="246.336106" height="444"></rect>
        <linearGradient x1="56.1282575%" y1="140.492391%" x2="56.1282575%" y2="-24.9334687%" id="linearGradient-7">
            <stop stop-color="#00E0D1" offset="0%"></stop>
            <stop stop-color="#00A9FF" offset="100%"></stop>
        </linearGradient>
        <linearGradient x1="0%" y1="50%" x2="104.104789%" y2="50%" id="linearGradient-8">
            <stop stop-color="#FF1F8F" offset="0%"></stop>
            <stop stop-color="#FF6C5C" offset="100%"></stop>
        </linearGradient>
        <circle id="path-9" cx="143.5" cy="370.5" r="20.5"></circle>
        <filter x="-17.1%" y="-12.2%" width="134.1%" height="134.1%" filterUnits="objectBoundingBox" id="filter-10">
            <feOffset dx="0" dy="2" in="SourceAlpha" result="shadowOffsetOuter1"></feOffset>
            <feGaussianBlur stdDeviation="2" in="shadowOffsetOuter1" result="shadowBlurOuter1"></feGaussianBlur>
            <feColorMatrix values="0 0 0 0 0   0 0 0 0 0   0 0 0 0 0  0 0 0 0.101760643 0" type="matrix" in="shadowBlurOuter1"></feColorMatrix>
        </filter>
        <linearGradient x1="232.577324%" y1="-87.4764191%" x2="-53.3001134%" y2="109.077901%" id="linearGradient-11">
            <stop stop-color="#002BDF" offset="0%"></stop>
            <stop stop-color="#00AAFF" offset="100%"></stop>
        </linearGradient>
        <linearGradient x1="50%" y1="100%" x2="50%" y2="0%" id="linearGradient-12">
            <stop stop-color="#00DCD0" offset="0%"></stop>
            <stop stop-color="#00A6FD" offset="100%"></stop>
        </linearGradient>
    </defs>
    <g id="00-Login-&amp;-Sign-Up" stroke="none" stroke-width="1" fill="none" fill-rule="evenodd">
        <g id="Calling-IVES-Phone" transform="translate(20.000000, 10.000000)">
            <g id="mobile-2">
                <g id="Rectangle-4" transform="translate(142.500000, 289.000000) rotate(-360.000000) translate(-142.500000, -289.000000) ">
                    <use fill="black" fill-opacity="1" filter="url(#filter-2)" xlink:href="#path-1"></use>
                    <use fill="#E6E6E6" fill-rule="evenodd" xlink:href="#path-1"></use>
                    <use fill="black" fill-opacity="1" filter="url(#filter-3)" xlink:href="#path-1"></use>
                </g>
                <g id="Rectangle-8">
                    <use fill="#DFDFDF" fill-rule="evenodd" xlink:href="#path-4"></use>
                    <rect stroke="#CBCBCB" stroke-width="3" x="124.5" y="518.5" width="37" height="37" rx="18.5"></rect>
                </g>
                <g id="Screen" transform="translate(143.252475, 272.744681) rotate(-360.000000) translate(-143.252475, -272.744681) translate(19.752475, 50.744681)">
                    <mask id="mask-6" fill="white">
                        <use xlink:href="#path-5"></use>
                    </mask>
                    <g id="Mask">
                        <use fill="#FBFBFB" fill-rule="evenodd" xlink:href="#path-5"></use>
                        <rect stroke="#DEDEDE" stroke-width="1" x="-0.5" y="-0.5" width="247.336106" height="445"></rect>
                    </g>
                    <circle id="Oval" fill="url(#linearGradient-7)" mask="url(#mask-6)" cx="123" cy="116" r="202"></circle>
                </g>
                <g id="Group-8" transform="translate(112.000000, 29.000000)" fill="#DCDCDC">
                    <rect id="Rectangle-8" x="16" y="2" width="45" height="3.83516492" rx="1.91758246"></rect>
                    <rect id="Rectangle-8-Copy" x="0" y="0" width="8" height="8" rx="4"></rect>
                </g>
            </g>
            <path d="M122.6545,230 L122.6545,216.472 L125.1055,216.472 L125.1055,230 L122.6545,230 Z M137.9495,216.472 L140.4385,216.472 L134.4155,230 L132.4205,230 L126.3975,216.472 L128.9435,216.472 L133.4465,226.922 L137.9495,216.472 Z M141.7305,230 L141.7305,216.472 L150.7745,216.472 L150.7745,218.41 L144.1245,218.41 L144.1245,222.153 L150.3755,222.153 L150.3755,224.091 L144.1245,224.091 L144.1245,228.062 L150.7745,228.062 L150.7745,230 L141.7305,230 Z M154.698,229.753 C153.792329,229.474332 153.022837,229.075336 152.3895,228.556 L153.2255,226.77 C153.88417,227.264002 154.57133,227.628165 155.287,227.8625 C156.00267,228.096835 156.784829,228.214 157.6335,228.214 C158.570838,228.214 159.295997,228.049335 159.809,227.72 C160.322003,227.390665 160.5785,226.928336 160.5785,226.333 C160.5785,225.826331 160.341002,225.436835 159.866,225.1645 C159.390998,224.892165 158.608839,224.635668 157.5195,224.395 C155.822158,224.027665 154.587171,223.55267 153.8145,222.97 C153.041829,222.38733 152.6555,221.538672 152.6555,220.424 C152.6555,219.625996 152.870831,218.91667 153.3015,218.296 C153.732169,217.67533 154.343329,217.187668 155.135,216.833 C155.926671,216.478332 156.841828,216.301 157.8805,216.301 C158.830505,216.301 159.732996,216.443499 160.588,216.7285 C161.443004,217.013501 162.142831,217.409331 162.6875,217.916 L161.8705,219.702 C160.667161,218.739329 159.337174,218.258 157.8805,218.258 C157.006496,218.258 156.316169,218.438498 155.8095,218.7995 C155.302831,219.160502 155.0495,219.65133 155.0495,220.272 C155.0495,220.804003 155.274331,221.209332 155.724,221.488 C156.173669,221.766668 156.943161,222.026332 158.0325,222.267 C159.159839,222.533001 160.078163,222.821165 160.7875,223.1315 C161.496837,223.441835 162.041498,223.840831 162.4215,224.3285 C162.801502,224.816169 162.9915,225.42733 162.9915,226.162 C162.9915,226.972671 162.776169,227.67883 162.3455,228.2805 C161.914831,228.88217 161.294171,229.347665 160.4835,229.677 C159.672829,230.006335 158.716506,230.171 157.6145,230.171 C156.575828,230.171 155.603671,230.031668 154.698,229.753 Z" id="IVES" fill="#FFFFFF"></path>
            <g id="Group-2" transform="translate(78.000000, 252.000000)" fill="#FFFFFF">
                <rect id="Rectangle" opacity="0.370527627" x="0" y="0" width="130" height="33" rx="16.5"></rect>
                <path d="M44.812,21.568 C44.215997,21.2159982 43.7580016,20.7100033 43.438,20.05 C43.1179984,19.3899967 42.958,18.6120045 42.958,17.716 C42.958,16.8199955 43.1179984,16.0460033 43.438,15.394 C43.7580016,14.7419967 44.215997,14.2400018 44.812,13.888 C45.408003,13.5359982 46.109996,13.36 46.918,13.36 C47.510003,13.36 48.0519975,13.4499991 48.544,13.63 C49.0360025,13.8100009 49.4619982,14.0799982 49.822,14.44 L49.45,15.196 C49.041998,14.8439982 48.640002,14.5920008 48.244,14.44 C47.847998,14.2879992 47.4100024,14.212 46.93,14.212 C45.9939953,14.212 45.2680026,14.515997 44.752,15.124 C44.2359974,15.732003 43.978,16.5959944 43.978,17.716 C43.978,18.8440056 44.2339974,19.7139969 44.746,20.326 C45.2580026,20.9380031 45.9859953,21.244 46.93,21.244 C47.4100024,21.244 47.847998,21.1680008 48.244,21.016 C48.640002,20.8639992 49.041998,20.6120018 49.45,20.26 L49.822,21.016 C49.4619982,21.3760018 49.0360025,21.6459991 48.544,21.826 C48.0519975,22.0060009 47.510003,22.096 46.918,22.096 C46.109996,22.096 45.408003,21.9200018 44.812,21.568 Z M56.674,15.964 L56.674,22 L55.714,22 L55.714,20.908 C55.5379991,21.2840019 55.2720018,21.573999 54.916,21.778 C54.5599982,21.982001 54.1460024,22.084 53.674,22.084 C53.1379973,22.084 52.668002,21.9560013 52.264,21.7 C51.859998,21.4439987 51.5480011,21.0820023 51.328,20.614 C51.1079989,20.1459977 50.998,19.6000031 50.998,18.976 C50.998,18.3519969 51.1099989,17.8020024 51.334,17.326 C51.5580011,16.8499976 51.871998,16.4800013 52.276,16.216 C52.680002,15.9519987 53.1459974,15.82 53.674,15.82 C54.1460024,15.82 54.5579982,15.923999 54.91,16.132 C55.2620018,16.340001 55.5299991,16.6319981 55.714,17.008 L55.714,15.964 L56.674,15.964 Z M55.234,20.674 C55.5540016,20.269998 55.714,19.6960037 55.714,18.952 C55.714,18.2079963 55.5540016,17.636002 55.234,17.236 C54.9139984,16.835998 54.458003,16.636 53.866,16.636 C53.273997,16.636 52.8120017,16.8419979 52.48,17.254 C52.1479983,17.6660021 51.982,18.2399963 51.982,18.976 C51.982,19.7120037 52.1459984,20.279998 52.474,20.68 C52.8020016,21.080002 53.265997,21.28 53.866,21.28 C54.458003,21.28 54.9139984,21.078002 55.234,20.674 Z M58.558,22 L58.558,13.168 L59.53,13.168 L59.53,22 L58.558,22 Z M61.414,22 L61.414,13.168 L62.386,13.168 L62.386,22 L61.414,22 Z M64.27,22 L64.27,15.964 L65.242,15.964 L65.242,22 L64.27,22 Z M64.174,13.408 L65.362,13.408 L65.362,14.512 L64.174,14.512 L64.174,13.408 Z M72.31,18.208 L72.31,22 L71.338,22 L71.338,18.256 C71.338,17.6959972 71.2260011,17.2860013 71.002,17.026 C70.7779989,16.7659987 70.4260024,16.636 69.946,16.636 C69.3859972,16.636 68.9380017,16.8079983 68.602,17.152 C68.2659983,17.4960017 68.098,17.9599971 68.098,18.544 L68.098,22 L67.126,22 L67.126,17.656 C67.126,17.0319969 67.0940003,16.4680025 67.03,15.964 L67.954,15.964 L68.05,17.044 C68.2340009,16.651998 68.5099982,16.3500011 68.878,16.138 C69.2460018,15.9259989 69.6659976,15.82 70.138,15.82 C71.5860072,15.82 72.31,16.615992 72.31,18.208 Z M79.522,15.964 L79.522,21.952 C79.522,22.8480045 79.2920023,23.5259977 78.832,23.986 C78.3719977,24.4460023 77.6940045,24.676 76.798,24.676 C75.8779954,24.676 75.0860033,24.4680021 74.422,24.052 L74.59,23.26 C74.9740019,23.4760011 75.3359983,23.6319995 75.676,23.728 C76.0160017,23.8240005 76.389998,23.872 76.798,23.872 C77.3820029,23.872 77.8219985,23.7180015 78.118,23.41 C78.4140015,23.1019985 78.562,22.644003 78.562,22.036 L78.562,20.608 C78.3779991,20.9920019 78.1080018,21.2899989 77.752,21.502 C77.3959982,21.7140011 76.9740024,21.82 76.486,21.82 C75.9579974,21.82 75.4880021,21.6960012 75.076,21.448 C74.6639979,21.1999988 74.3460011,20.8480023 74.122,20.392 C73.8979989,19.9359977 73.786,19.412003 73.786,18.82 C73.786,18.227997 73.8979989,17.7040023 74.122,17.248 C74.3460011,16.7919977 74.6639979,16.4400012 75.076,16.192 C75.4880021,15.9439988 75.9579974,15.82 76.486,15.82 C76.9660024,15.82 77.3839982,15.923999 77.74,16.132 C78.0960018,16.340001 78.3659991,16.6319981 78.55,17.008 L78.55,15.964 L79.522,15.964 Z M78.052,20.422 C78.3840017,20.0339981 78.55,19.5000034 78.55,18.82 C78.55,18.1399966 78.3840017,17.6060019 78.052,17.218 C77.7199983,16.8299981 77.2620029,16.636 76.678,16.636 C76.085997,16.636 75.6200017,16.8299981 75.28,17.218 C74.9399983,17.6060019 74.77,18.1399966 74.77,18.82 C74.77,19.5000034 74.9399983,20.0339981 75.28,20.422 C75.6200017,20.8100019 76.085997,21.004 76.678,21.004 C77.2620029,21.004 77.7199983,20.8100019 78.052,20.422 Z M81.226,20.764 L82.462,20.764 L82.462,22 L81.226,22 L81.226,20.764 Z M83.998,20.764 L85.234,20.764 L85.234,22 L83.998,22 L83.998,20.764 Z M86.77,20.764 L88.006,20.764 L88.006,22 L86.77,22 L86.77,20.764 Z" id="Calling…"></path>
            </g>
            <g id="Group-2-Copy-2" transform="translate(123.000000, 427.000000)">
                <rect id="Rectangle" fill="url(#linearGradient-8)" opacity="0.816859149" x="0" y="0" width="40" height="40" rx="20"></rect>
                <g id="Group" transform="translate(8.000000, 8.000000)" fill="#FFFFFF" fill-rule="nonzero">
                    <g id="ic_call_black_24px" transform="translate(12.241151, 12.385516) rotate(-225.000000) translate(-12.241151, -12.385516) translate(3.741151, 4.385516)">
                        <path d="M3.37866667,6.69775132 C4.72266667,9.13095238 6.888,11.1170635 9.52933333,12.3637566 L11.5826667,10.4722222 C11.8346667,10.2400794 12.208,10.1626984 12.5346667,10.265873 C13.58,10.5839947 14.7093333,10.7559524 15.8666667,10.7559524 C16.38,10.7559524 16.8,11.1428571 16.8,11.6157407 L16.8,14.6164021 C16.8,15.0892857 16.38,15.4761905 15.8666667,15.4761905 C7.10266667,15.4761905 -2.13162821e-14,8.93320106 -2.13162821e-14,0.85978836 C-2.13162821e-14,0.386904762 0.42,-1.77635684e-14 0.933333333,-1.77635684e-14 L4.2,-1.77635684e-14 C4.71333333,-1.77635684e-14 5.13333333,0.386904762 5.13333333,0.85978836 C5.13333333,1.93452381 5.32,2.96626984 5.66533333,3.9292328 C5.768,4.23015873 5.69333333,4.56547619 5.432,4.80621693 L3.37866667,6.69775132 Z" id="Shape"></path>
                    </g>
                </g>
            </g>
            <circle id="Oval-2" fill="#FFFFFF" cx="143.5" cy="148.5" r="37.5"></circle>
            <circle id="Oval-2" fill="#FFFFFF" opacity="0.104336504" cx="144" cy="148" r="49"></circle>
            <g id="Oval-2-Copy">
                <use fill="black" fill-opacity="1" filter="url(#filter-10)" xlink:href="#path-9"></use>
                <use fill="#FFFFFF" fill-rule="evenodd" xlink:href="#path-9"></use>
            </g>
            <g id="ic_voice_call_main" transform="translate(132.000000, 358.000000)">
                <g id="ic_voice_call">
                    <path d="M7,24 L9,24 L9,22 L7,22 L7,24 Z M12,13 C13.66,13 14.99,11.66 14.99,10 L15,4 C15,2.34 13.66,1 12,1 C10.34,1 9,2.34 9,4 L9,10 C9,11.66 10.34,13 12,13 Z M11,24 L13,24 L13,22 L11,22 L11,24 Z M15,24 L17,24 L17,22 L15,22 L15,24 Z M19,10 L17.3,10 C17.3,13 14.76,15.1 12,15.1 C9.24,15.1 6.7,13 6.7,10 L5,10 C5,13.41 7.72,16.23 11,16.72 L11,20 L13,20 L13,16.72 C16.28,16.23 19,13.41 19,10 Z" id="Shape" fill="url(#linearGradient-11)" fill-rule="nonzero"></path>
                    <polygon id="Shape" points="0 0 24 0 24 24 0 24"></polygon>
                </g>
            </g>
            <g id="ic_call_black_24px" transform="translate(127.000000, 132.000000)">
                <polygon id="Shape" points="0 0 34 0 34 32 0 32"></polygon>
                <path d="M9.22888889,14.3866667 C11.3088889,18.16 14.66,21.24 18.7477778,23.1733333 L21.9255556,20.24 C22.3155556,19.88 22.8933333,19.76 23.3988889,19.92 C25.0166667,20.4133333 26.7644444,20.68 28.5555556,20.68 C29.35,20.68 30,21.28 30,22.0133333 L30,26.6666667 C30,27.4 29.35,28 28.5555556,28 C14.9922222,28 4,17.8533333 4,5.33333333 C4,4.6 4.65,4 5.44444444,4 L10.5,4 C11.2944444,4 11.9444444,4.6 11.9444444,5.33333333 C11.9444444,7 12.2333333,8.6 12.7677778,10.0933333 C12.9266667,10.56 12.8111111,11.08 12.4066667,11.4533333 L9.22888889,14.3866667 Z" id="Shape" fill="url(#linearGradient-12)" fill-rule="nonzero"></path>
            </g>
        </g>
    </g>
</svg>