<?xml version="1.0" encoding="UTF-8"?>
<svg width="27px" height="25px" viewBox="0 0 27 25" version="1.1" xmlns="http://www.w3.org/2000/svg" xmlns:xlink="http://www.w3.org/1999/xlink">
    <!-- Generator: Sketch 48.2 (47327) - http://www.bohemiancoding.com/sketch -->
    <title>calendar</title>
    <desc>Created with Sketch.</desc>
    <defs>
        <rect id="path-1" x="0" y="0" width="31" height="29"></rect>
        <path d="M5.68333333,7.93333333 L5.68333333,23.4833333 C5.68333333,23.5937903 5.77287638,23.6833333 5.88333333,23.6833333 L25.1166667,23.6833333 C25.2271236,23.6833333 25.3166667,23.5937903 25.3166667,23.4833333 L25.3166667,7.93333333 C25.3166667,7.82287638 25.2271236,7.73333333 25.1166667,7.73333333 L5.88333333,7.73333333 C5.77287638,7.73333333 5.68333333,7.82287638 5.68333333,7.93333333 Z M24.5416667,4.83333333 L27.125,4.83333333 C27.8383678,4.83333333 28.4166667,5.37432259 28.4166667,6.04166667 L28.4166667,25.375 C28.4166667,26.0423441 27.8383678,26.5833333 27.125,26.5833333 L3.875,26.5833333 C3.1616322,26.5833333 2.58333333,26.0423441 2.58333333,25.375 L2.58333333,6.04166667 C2.58333333,5.37432259 3.1616322,4.83333333 3.875,4.83333333 L6.45833333,4.83333333 L6.45833333,2.91666667 C6.45833333,2.64052429 6.68219096,2.41666667 6.95833333,2.41666667 L9.83333333,2.41666667 C10.1094757,2.41666667 10.3333333,2.64052429 10.3333333,2.91666667 L10.3333333,4.83333333 L20.6666667,4.83333333 L20.6666667,2.91666667 C20.6666667,2.64052429 20.8905243,2.41666667 21.1666667,2.41666667 L24.0416667,2.41666667 C24.317809,2.41666667 24.5416667,2.64052429 24.5416667,2.91666667 L24.5416667,4.83333333 Z M9.04166667,10.875 L9.04166667,13.2916667 L11.625,13.2916667 L11.625,10.875 L9.04166667,10.875 Z M14.2083333,10.875 L14.2083333,13.2916667 L16.7916667,13.2916667 L16.7916667,10.875 L14.2083333,10.875 Z M19.375,10.875 L19.375,13.2916667 L21.9583333,13.2916667 L21.9583333,10.875 L19.375,10.875 Z M9.04166667,15.7083333 L9.04166667,18.125 L11.625,18.125 L11.625,15.7083333 L9.04166667,15.7083333 Z M14.2083333,15.7083333 L14.2083333,18.125 L16.7916667,18.125 L16.7916667,15.7083333 L14.2083333,15.7083333 Z M19.375,15.7083333 L19.375,18.125 L21.9583333,18.125 L21.9583333,15.7083333 L19.375,15.7083333 Z" id="path-3"></path>
        <linearGradient x1="0%" y1="50%" x2="100%" y2="50%" id="linearGradient-5">
            <stop stop-color="#00DCD0" offset="0%"></stop>
            <stop stop-color="#00A6FD" offset="100%"></stop>
        </linearGradient>
    </defs>
    <g id="03_campaign_name_sched_date_time" stroke="none" stroke-width="1" fill="none" fill-rule="evenodd" transform="translate(-715.000000, -417.000000)">
        <g id="Group-5">
            <g id="Icon-/-Calendar" transform="translate(713.000000, 415.000000)">
                <mask id="mask-2" fill="white">
                    <use xlink:href="#path-1"></use>
                </mask>
                <g id="Container" fill-rule="nonzero"></g>
                <mask id="mask-4" fill="white">
                    <use xlink:href="#path-3"></use>
                </mask>
                <g id="Calendar" fill-rule="nonzero"></g>
                <g id="Style-/-Gradient-/-Blue" mask="url(#mask-4)" fill="url(#linearGradient-5)" fill-rule="evenodd">
                    <rect id="Container" x="0" y="0" width="31" height="29"></rect>
                </g>
            </g>
        </g>
    </g>
</svg>