<?xml version="1.0" encoding="UTF-8"?>
<svg width="25px" height="25px" viewBox="0 0 25 25" version="1.1" xmlns="http://www.w3.org/2000/svg" xmlns:xlink="http://www.w3.org/1999/xlink">
    <!-- Generator: Sketch 48.2 (47327) - http://www.bohemiancoding.com/sketch -->
    <title>time</title>
    <desc>Created with Sketch.</desc>
    <defs>
        <rect id="path-1" x="0" y="0" width="29" height="29"></rect>
        <path d="M15.4411058,14.618483 L19.9580905,17.2996878 C20.5252,17.6363143 20.7142143,18.3676058 20.3812474,18.9368718 C20.0524408,19.499025 19.3301751,19.6881898 18.7680219,19.3593832 C18.7624233,19.3560879 16.8420865,18.1899187 13.0070112,15.8608757 L13.0070112,9.3442508 C13.0070112,8.67209415 13.5519018,8.12720353 14.2240585,8.12720353 C14.8962151,8.12720353 15.4411058,8.67209415 15.4411058,9.3442508 L15.4411058,14.618483 Z M14.5,24.2015224 C16.2427972,24.2015224 17.8693835,23.7561476 19.3798077,22.8653846 C20.8515031,22.0133504 22.0133504,20.8515031 22.8653846,19.3798077 C23.7561476,17.8693835 24.2015224,16.2427972 24.2015224,14.5 C24.2015224,12.7572028 23.7561476,11.1306165 22.8653846,9.62019231 C22.0133504,8.14849692 20.8515031,6.98664956 19.3798077,6.13461538 C17.8693835,5.24385238 16.2427972,4.79847756 14.5,4.79847756 C12.7572028,4.79847756 11.1306165,5.24385238 9.62019231,6.13461538 C8.14849692,6.98664956 6.98664956,8.14849692 6.13461538,9.62019231 C5.24385238,11.1306165 4.79847756,12.7572028 4.79847756,14.5 C4.79847756,16.2427972 5.24385238,17.8693835 6.13461538,19.3798077 C6.98664956,20.8515031 8.14849692,22.0133504 9.62019231,22.8653846 C11.1306165,23.7561476 12.7572028,24.2015224 14.5,24.2015224 Z M14.5,2.41666667 C16.7075431,2.41666667 18.750458,2.96854416 20.6288061,4.07231571 C22.4490609,5.11799401 23.882006,6.55093908 24.9276843,8.37119391 C26.0314558,10.249542 26.5833333,12.2924569 26.5833333,14.5 C26.5833333,16.7075431 26.0314558,18.750458 24.9276843,20.6288061 C23.882006,22.4490609 22.4490609,23.882006 20.6288061,24.9276843 C18.750458,26.0314558 16.7075431,26.5833333 14.5,26.5833333 C12.2924569,26.5833333 10.249542,26.0314558 8.37119391,24.9276843 C6.55093908,23.8626416 5.11799401,22.4200144 4.07231571,20.5997596 C2.96854416,18.7214115 2.41666667,16.6881787 2.41666667,14.5 C2.41666667,12.3118213 2.96854416,10.2785885 4.07231571,8.40024038 C5.13735842,6.57998556 6.57998556,5.13735842 8.40024038,4.07231571 C10.2785885,2.96854416 12.3118213,2.41666667 14.5,2.41666667 Z" id="path-3"></path>
        <linearGradient x1="0%" y1="50%" x2="100%" y2="50%" id="linearGradient-5">
            <stop stop-color="#00DCD0" offset="0%"></stop>
            <stop stop-color="#00A6FD" offset="100%"></stop>
        </linearGradient>
    </defs>
    <g id="03_campaign_name_sched_date_time" stroke="none" stroke-width="1" fill="none" fill-rule="evenodd" transform="translate(-715.000000, -523.000000)">
        <g id="Group-5">
            <g id="Icon-/-Time-/-Stroke" transform="translate(713.000000, 521.000000)">
                <mask id="mask-2" fill="white">
                    <use xlink:href="#path-1"></use>
                </mask>
                <g id="Container" fill-rule="nonzero"></g>
                <mask id="mask-4" fill="white">
                    <use xlink:href="#path-3"></use>
                </mask>
                <g id="Time"></g>
                <g id="Style-/-Gradient-/-Blue" mask="url(#mask-4)" fill="url(#linearGradient-5)" fill-rule="evenodd">
                    <rect id="Container" x="0" y="0" width="29" height="29"></rect>
                </g>
            </g>
        </g>
    </g>
</svg>