<?xml version="1.0" encoding="UTF-8"?>
<svg width="68px" height="85px" viewBox="0 0 68 85" version="1.1" xmlns="http://www.w3.org/2000/svg" xmlns:xlink="http://www.w3.org/1999/xlink">
    <!-- Generator: sketchtool 48.2 (47327) - http://www.bohemiancoding.com/sketch -->
    <title>C5411BA9-9AF2-472E-A57B-1BF00E0D5BEA</title>
    <desc>Created with sketchtool.</desc>
    <defs>
        <polygon id="path-1" points="0 2.78688525e-05 67.4294689 2.78688525e-05 67.4294689 84.9545738 0 84.9545738"></polygon>
    </defs>
    <g id="01_Plans" stroke="none" stroke-width="1" fill="none" fill-rule="evenodd" transform="translate(-891.000000, -290.000000)">
        <g id="Plan_Premium" transform="translate(891.000000, 290.000000)">
            <mask id="mask-2" fill="white">
                <use xlink:href="#path-1"></use>
            </mask>
            <g id="Clip-2"></g>
            <path d="M49.7246656,52.9394213 L49.7319115,44.8460279 L62.6733705,44.8460279 L62.6619443,60.4216508 L49.7246656,52.9394213 Z M36.0505344,63.5518803 L47.3521902,57.0406016 L60.2889115,64.5225525 L36.0505344,78.487077 L36.0505344,63.5518803 Z M20.0513049,57.011618 L31.3128295,63.5273557 L31.3128295,78.4784377 L7.10594426,64.4726672 L20.0513049,57.011618 Z M4.75241967,44.8460279 L17.6933213,44.8460279 L17.6863541,52.9068148 L4.74099344,60.3675852 L4.75241967,44.8460279 Z M17.7047475,32.0149295 L17.6975016,40.108323 L4.75632131,40.108323 L4.76774754,24.5327 L17.7047475,32.0149295 Z M31.3791574,21.4024705 L20.0769443,27.9140279 L7.14022295,20.4317984 L31.3791574,6.46755246 L31.3791574,21.4024705 Z M47.3783869,27.9427328 L36.1168623,21.4269951 L36.1168623,6.47591311 L60.3234689,20.4816836 L47.3783869,27.9427328 Z M33.7028623,59.4364869 L22.4237803,52.9107164 L22.4424525,32.0188311 L33.7268295,25.5175852 L45.0056328,32.0436344 L44.9872393,52.9355197 L33.7028623,59.4364869 Z M62.6772721,40.108323 L49.7363705,40.108323 L49.7436164,32.0475361 L62.6886984,24.5864869 L62.6772721,40.108323 Z M67.4294689,20.4872574 C67.4294689,20.4802902 67.4280754,20.4736016 67.4280754,20.4669131 C67.427518,20.3702082 67.4219443,20.2732246 67.4091246,20.176241 C67.4082885,20.1712246 67.4071738,20.1664869 67.4066164,20.1617492 C67.3943541,20.0739623 67.3762393,19.9864541 67.354223,19.8995033 C67.3480918,19.8766508 67.341682,19.854077 67.3349934,19.8312246 C67.3149279,19.7612738 67.2912393,19.692159 67.2642066,19.623323 C67.2552885,19.6010279 67.2474852,19.5781754 67.2382885,19.556159 C67.2015016,19.470323 67.1608131,19.385323 67.1131574,19.3025525 C67.0655016,19.219782 67.0125508,19.1425852 66.9568131,19.0678967 C66.9417639,19.0481098 66.9261574,19.029159 66.9105508,19.0099295 C66.8651246,18.9527984 66.8177475,18.8984541 66.7678623,18.8463393 C66.7508623,18.828782 66.734141,18.8112246 66.7168623,18.7942246 C66.6538787,18.7326344 66.5889443,18.6743885 66.5206656,18.6208803 C66.5150918,18.6167 66.5100754,18.6119623 66.5047803,18.6080607 C66.4278623,18.5487 66.3473213,18.4951918 66.2642721,18.4464213 C66.258141,18.4427984 66.2531246,18.4383393 66.2469934,18.4349951 L34.9343869,0.318290164 C34.927977,0.314667213 34.9210098,0.312159016 34.9146,0.308536066 C34.8312721,0.261159016 34.7446,0.217683607 34.6554197,0.180618033 C34.6498459,0.178388525 34.6445508,0.176995082 34.6392557,0.174765574 C34.5578787,0.141601639 34.4739934,0.114011475 34.3884361,0.0900442623 C34.3647475,0.0833557377 34.341059,0.0775032787 34.3173705,0.0716508197 C34.2476984,0.0543721311 34.1769115,0.0407163934 34.1050098,0.0295688525 C34.0802066,0.0259459016 34.055682,0.0212081967 34.0308787,0.0184213115 C33.9405836,0.00755245902 33.8488951,0.000585245902 33.7555344,0.000306557377 C33.7535836,0.000306557377 33.7519115,2.78688525e-05 33.749682,2.78688525e-05 C33.7491246,2.78688525e-05 33.7485672,2.78688525e-05 33.7480098,2.78688525e-05 C33.6526984,2.78688525e-05 33.559059,0.00699508197 33.4668131,0.0178639344 C33.443682,0.0209295082 33.4208295,0.0251098361 33.397977,0.0287327869 C33.3238459,0.0396016393 33.2516656,0.0535360656 33.1803213,0.0710934426 C33.1574689,0.0766672131 33.1351738,0.0822409836 33.1126,0.0886508197 C33.0270426,0.112339344 32.9434361,0.139929508 32.8623377,0.172814754 C32.8564852,0.175044262 32.8503541,0.176995082 32.8445016,0.179503279 C32.7542066,0.216568852 32.6675344,0.259765574 32.5833705,0.307421311 C32.5777967,0.310486885 32.5711082,0.312716393 32.5655344,0.316060656 L1.21948525,18.3753557 C1.21391148,18.3787 1.20889508,18.3828803 1.2036,18.3862246 C1.11943607,18.4352738 1.03805902,18.4890607 0.96002623,18.5487 C0.956681967,18.5512082 0.953616393,18.5542738 0.950272131,18.5565033 C0.879485246,18.6114049 0.8126,18.6716016 0.747944262,18.7348639 C0.730944262,18.7513066 0.715059016,18.7680279 0.698616393,18.7847492 C0.647895082,18.8374213 0.599960656,18.8926016 0.553698361,18.9505689 C0.538927869,18.969241 0.523042623,18.9876344 0.50855082,19.0068639 C0.452534426,19.0815525 0.399304918,19.1593066 0.351370492,19.242077 C0.303436066,19.3248475 0.26302623,19.4095689 0.226239344,19.4951262 C0.216763934,19.5174213 0.208403279,19.5402738 0.199763934,19.5628475 C0.172452459,19.6311262 0.149042623,19.6999623 0.128977049,19.7696344 C0.122288525,19.7927656 0.115321311,19.8158967 0.109468852,19.8393066 C0.087452459,19.9248639 0.0693377049,20.0109787 0.0570754098,20.0976508 C0.0562393443,20.103782 0.0548459016,20.1099131 0.0540098361,20.1160443 C0.0414688525,20.2124705 0.0353377049,20.3091754 0.0345016393,20.4058803 C0.0345016393,20.4125689 0.0331081967,20.4192574 0.0331081967,20.4262246 L-5.57377049e-05,64.4668148 C-5.57377049e-05,64.473782 0.00133770492,64.4801918 0.00133770492,64.487159 C0.00189508197,64.5838639 0.00774754098,64.6808475 0.0202885246,64.7778311 C0.0211245902,64.7828475 0.0222393443,64.7881426 0.0230754098,64.7934377 C0.0353377049,64.8809459 0.053452459,64.967618 0.0754688525,65.0542902 C0.0813213115,65.0777 0.0880098361,65.1005525 0.0946983607,65.1236836 C0.114485246,65.1927984 0.13817377,65.2616344 0.164927869,65.3296344 C0.173845902,65.3527656 0.181927869,65.3758967 0.191681967,65.3987492 C0.227911475,65.4826344 0.267485246,65.5656836 0.31402623,65.6470607 C0.367255738,65.7393066 0.426059016,65.8279295 0.49155082,65.9126508 C0.524714754,65.9558475 0.562059016,65.9940279 0.597731148,66.0344377 C0.630337705,66.0715033 0.660714754,66.110241 0.695829508,66.1453557 C0.742927869,66.1921754 0.793927869,66.2334213 0.844091803,66.275782 C0.87307541,66.3000279 0.89955082,66.3265033 0.92964918,66.3496344 C0.986222951,66.3928311 1.04669836,66.4304541 1.10689508,66.4686344 C1.13281311,66.4847984 1.15622295,66.5040279 1.18241967,66.5193557 L1.19830492,66.5285525 C1.19997705,66.5293885 1.20164918,66.5302246 1.20304262,66.5313393 L32.4953049,84.6360607 C32.5014361,84.6399623 32.508682,84.6421918 32.5148131,84.6460934 C32.5986984,84.6931918 32.6850918,84.7369459 32.7751082,84.7740115 C32.7801246,84.776241 32.7854197,84.7776344 32.7904361,84.7798639 C32.8720918,84.8130279 32.9565344,84.8408967 33.0426492,84.8648639 C33.066059,84.8712738 33.0891902,84.8771262 33.1126,84.8829787 C33.1831082,84.9002574 33.2541738,84.9141918 33.3269115,84.9250607 C33.3511574,84.9286836 33.3751246,84.9334213 33.3996492,84.9364869 C33.4921738,84.9473557 33.5860918,84.9546016 33.681682,84.9546016 C33.7767148,84.9546016 33.8703541,84.9473557 33.9626,84.9364869 C33.9871246,84.9337 34.0113705,84.9289623 34.0358951,84.9250607 C34.1077967,84.9141918 34.1785836,84.9008148 34.2482557,84.8835361 C34.272223,84.8776836 34.2959115,84.8718311 34.3196,84.8654213 C34.4032066,84.8417328 34.4854197,84.8147 34.5651246,84.7823721 C34.5723705,84.7795852 34.5793377,84.7776344 34.5863049,84.7745689 C34.6760426,84.737782 34.7624361,84.6945852 34.8457639,84.6472082 C34.8518951,84.6438639 34.8583049,84.6416344 34.8641574,84.6382902 L66.190141,66.5904213 C66.1929279,66.5890279 66.1957148,66.5873557 66.1985016,66.5856836 L66.2099279,66.5789951 C66.2311082,66.5667328 66.2497803,66.5516836 66.2704033,66.5388639 C66.3367311,66.497618 66.403059,66.4560934 66.4652066,66.4084377 C66.4897311,66.3900443 66.5111902,66.3683066 66.5346,66.3487984 C66.5908951,66.3022574 66.6471902,66.2562738 66.6990262,66.2044377 C66.7280098,66.1754541 66.7528131,66.1434049 66.7798459,66.1133066 C66.8222066,66.0667656 66.8651246,66.0221754 66.9038623,65.9720115 C66.9609934,65.8976016 67.0125508,65.8195689 67.0604852,65.7390279 C67.066059,65.7298311 67.0727475,65.7217492 67.0783213,65.7125525 C67.125977,65.629782 67.1666656,65.544782 67.2037311,65.4592246 C67.2129279,65.4372082 67.2210098,65.4143557 67.2299279,65.391782 C67.256682,65.3235033 67.2803705,65.2546672 67.3004361,65.1852738 C67.3074033,65.1618639 67.3140918,65.1384541 67.320223,65.1147656 C67.3422393,65.0297656 67.3597967,64.9439295 67.372059,64.8580934 C67.3728951,64.8511262 67.3745672,64.8449951 67.375682,64.8383066 C67.388223,64.7418803 67.3940754,64.6454541 67.3949115,64.5487492 C67.3949115,64.5420607 67.3963049,64.5350934 67.3963049,64.5284049 L67.4294689,20.4872574 Z" id="Fill-1" fill="#FFBC34" mask="url(#mask-2)"></path>
        </g>
    </g>
</svg>