<?xml version="1.0" encoding="UTF-8"?>
<svg width="57px" height="83px" viewBox="0 0 57 83" version="1.1" xmlns="http://www.w3.org/2000/svg" xmlns:xlink="http://www.w3.org/1999/xlink">
    <!-- Generator: sketchtool 48.2 (47327) - http://www.bohemiancoding.com/sketch -->
    <title>7C5F991B-5044-4180-AE58-6F9C1873EAF7</title>
    <desc>Created with sketchtool.</desc>
    <defs>
        <polygon id="path-1" points="0 0 57 0 57 85 0 85"></polygon>
    </defs>
    <g id="01_Plans" stroke="none" stroke-width="1" fill="none" fill-rule="evenodd" transform="translate(-493.000000, -292.000000)">
        <g id="Plan_Basic" transform="translate(493.000000, 292.000000)">
            <mask id="mask-2" fill="white">
                <use xlink:href="#path-1"></use>
            </mask>
            <g id="Clip-2"></g>
            <path d="M39.584123,22.2399791 L32.5235456,6.24384887 L50.0451123,22.2399791 L39.584123,22.2399791 Z M40.4729712,26.1177736 L51.9977355,26.1177736 L32.6498689,67.5670624 L40.4729712,26.1177736 Z M16.5270288,26.1177736 L24.3499019,67.5670624 L5.00226446,26.1177736 L16.5270288,26.1177736 Z M17.415877,22.2399791 L6.9548877,22.2399791 L24.4762251,6.24384887 L17.415877,22.2399791 Z M36.5074289,26.1177736 L28.4997707,68.5449509 L20.4925711,26.1177736 L36.5074289,26.1177736 Z M21.6725819,22.2399791 L28.4997707,6.77145702 L35.3276474,22.2399791 L21.6725819,22.2399791 Z M56.9225095,24.7165211 C56.9264069,24.703291 56.9291581,24.6898328 56.9328263,24.6763746 C56.9548354,24.5944847 56.9718008,24.5105418 56.9825761,24.4247741 C56.9839517,24.4140532 56.9862443,24.4037884 56.9873906,24.3930675 C56.9951855,24.3225829 57,24.2514139 57,24.1788764 C57,24.1610841 56.9977074,24.1439762 56.9972489,24.1264121 C56.9967903,24.1056545 56.9954148,24.0853531 56.9940392,24.0648236 C56.9889954,23.9760905 56.9795957,23.8887261 56.9628596,23.8036427 C56.9624011,23.802046 56.9624011,23.8004492 56.9619425,23.7986244 C56.9438308,23.7073822 56.9174657,23.6188772 56.8867446,23.5326533 C56.8814716,23.5178264 56.8761986,23.5034558 56.8704671,23.4886289 C56.8376826,23.4030894 56.8003129,23.3198308 56.7558361,23.2404501 C56.7519387,23.2331507 56.7468949,23.2260794 56.7427682,23.218552 C56.6998962,23.1439614 56.651522,23.0730206 56.5997088,23.0050452 C56.5900798,22.9924994 56.5813678,22.9797254 56.5715096,22.9676358 C56.5148819,22.8971512 56.4529812,22.8316849 56.3871831,22.7698683 C56.3805345,22.7637095 56.3754907,22.7564101 56.3688421,22.7502513 L29.8173386,-1.48984192 C29.0717791,-2.17005269 27.9277624,-2.17005269 27.1822028,-1.48984192 L0.631157893,22.7502513 C0.624280037,22.7564101 0.619465538,22.7637095 0.612816944,22.7698683 C0.547018791,22.8316849 0.48511809,22.8973793 0.428261149,22.967864 C0.418632151,22.9799535 0.409920201,22.9922712 0.400520465,23.0045889 C0.348019499,23.0727925 0.299645247,23.1441895 0.25677328,23.2192363 C0.252646567,23.2263075 0.24806133,23.2331507 0.243934616,23.240222 C0.199687078,23.3196027 0.162317395,23.4030894 0.129303687,23.488857 C0.123801403,23.5034558 0.118299118,23.5178264 0.113255357,23.5326533 C0.0825342686,23.6188772 0.056169155,23.7073822 0.0378282064,23.7988525 C0.0375989446,23.8004492 0.0373696827,23.802046 0.0371404209,23.8036427 C0.0204043053,23.8887261 0.0110045691,23.9760905 0.00573154643,24.0648236 C0.00458523715,24.0853531 0.003209666,24.1056545 0.00275114229,24.1264121 C0.00229261857,24.1439762 0,24.1610841 0,24.1788764 C0,24.2514139 0.00458523715,24.322811 0.0126094021,24.3932956 C0.0135264496,24.4035603 0.0158190682,24.4138251 0.0171946393,24.4243179 C0.0281992084,24.5103137 0.0453938477,24.5944847 0.067402986,24.6766027 C0.070612652,24.6898328 0.0735930562,24.7030629 0.0774905078,24.716293 C0.103626359,24.8070791 0.136869329,24.8948997 0.175156059,24.9795269 C0.177677939,24.9847733 0.178824249,24.9902478 0.181346129,24.9954942 L26.7323911,81.8777207 C27.0519821,82.5622654 27.7413725,83 28.4997707,83 C29.2583982,83 29.9477886,82.5622654 30.2671504,81.8777207 L56.8186539,24.9957223 C56.8211758,24.9902478 56.8220928,24.9845452 56.8246147,24.9792987 C56.8633599,24.8946716 56.8961444,24.8070791 56.9225095,24.7165211 Z" id="Fill-1" fill="#77D042" mask="url(#mask-2)"></path>
        </g>
    </g>
</svg>