<?xml version="1.0" encoding="UTF-8"?>
<svg width="90px" height="85px" viewBox="0 0 90 85" version="1.1" xmlns="http://www.w3.org/2000/svg" xmlns:xlink="http://www.w3.org/1999/xlink">
    <!-- Generator: Sketch 48.2 (47327) - http://www.bohemiancoding.com/sketch -->
    <title>Plan_Trial</title>
    <desc>Created with Sketch.</desc>
    <defs>
        <polygon id="path-1" points="0 4.46959305e-05 89.1216196 4.46959305e-05 89.1216196 84.9882294 0 84.9882294"></polygon>
    </defs>
    <g id="06-Plans" stroke="none" stroke-width="1" fill="none" fill-rule="evenodd">
        <g id="Group-2-Copy-3" transform="translate(-148.000000, -60.000000)">
            <g id="Plan_Trial" transform="translate(148.000000, 60.000000)">
                <g id="Page-1">
                    <mask id="mask-2" fill="white">
                        <use xlink:href="#path-1"></use>
                    </mask>
                    <g id="Clip-2"></g>
                    <path d="M31.5632809,68.5793817 L57.5580648,68.5793817 L65.4289599,79.4121595 L66.1021389,80.3387644 L23.0193817,80.3387644 L31.5632809,68.5793817 Z M69.8634763,77.6061718 L67.8205031,74.7941759 L61.3195772,65.8464393 L67.9588467,45.4133837 L69.3526019,41.123857 L71.5893611,40.3969846 L83.17682,36.6319743 L73.2533323,67.1733837 L69.8634763,77.6061718 Z M34.4536307,32.8235895 L44.5607603,25.4803591 L54.6678899,32.8235895 L64.7750195,40.16682 L57.0536615,63.9299167 L32.0676842,63.9299167 L24.3466759,40.16682 L34.4536307,32.8235895 Z M81.740215,32.2100504 L74.1180237,34.6867685 L67.915822,36.7019331 L46.8853179,21.4223961 L46.8853179,6.8866965 L81.740215,32.2100504 Z M24.8087541,19.5483735 L42.2360278,6.8866965 L42.2360278,21.4223961 L21.2056986,36.7019331 L7.38130556,32.2100504 L24.8087541,19.5483735 Z M5.94470062,36.6317994 L19.7689187,41.123857 L27.8019434,65.8466142 L19.2580442,77.6061718 L5.94470062,36.6317994 Z M89.1110792,33.2326739 C89.1121286,33.2218302 89.1133529,33.2109866 89.1142274,33.200143 C89.1156265,33.181429 89.1163261,33.162715 89.1173755,33.1441759 C89.1187747,33.1203899 89.1201739,33.0967788 89.1208735,33.0729928 C89.1212233,33.0577767 89.1213981,33.0425607 89.121573,33.0271698 C89.1217479,33.0084558 89.1213981,32.9899167 89.1210484,32.9713776 C89.1206986,32.9523138 89.1205237,32.9334249 89.1196492,32.914536 C89.1187747,32.8944228 89.1173755,32.8743097 89.1159763,32.8541965 C89.114927,32.836357 89.1138776,32.8186924 89.1121286,32.8008529 C89.1109043,32.7861615 89.1093302,32.7712953 89.1077562,32.7566039 C89.1049578,32.7315936 89.101285,32.7069331 89.097787,32.6819228 C89.0953385,32.6654825 89.0935895,32.6488673 89.090966,32.632427 C89.0892171,32.6215833 89.0869434,32.6109146 89.0850195,32.600071 C89.0801224,32.5733117 89.0743508,32.5469023 89.0685792,32.5203179 C89.0649064,32.5028282 89.0619331,32.4849887 89.0577356,32.467499 C89.0559866,32.4601533 89.0535381,32.4528076 89.0516142,32.4454619 L89.0516142,32.445287 C89.045143,32.4194023 89.0376224,32.3936924 89.0302767,32.3679825 C89.0241553,32.3466451 89.0183837,32.3251327 89.0117377,32.3039702 C89.009464,32.2966245 89.0068405,32.2892788 89.0045669,32.2817582 C88.997571,32.2605957 88.9893508,32.2397829 88.9818302,32.2187953 C88.9727356,32.193785 88.9636409,32.1687747 88.9538467,32.1442891 C88.9508735,32.1369434 88.9485998,32.1295977 88.9456265,32.1222521 C88.9386307,32.1056368 88.9305854,32.0895463 88.9232397,32.0729311 C88.9123961,32.0482706 88.9015525,32.0236101 88.8898344,31.9994743 C88.8849372,31.9895051 88.8805648,31.9793611 88.8754928,31.9695669 C88.8679722,31.9545257 88.8595772,31.9400093 88.8517068,31.925143 C88.8399887,31.903106 88.8284455,31.880894 88.8160278,31.8592068 C88.808857,31.8464393 88.8013364,31.8336718 88.7938158,31.8210792 C88.7845463,31.8055134 88.774927,31.7902973 88.7653076,31.7750813 C88.7546389,31.7581163 88.7441451,31.7413261 88.7329516,31.724536 C88.7224578,31.7087953 88.7116142,31.6934043 88.7007706,31.6778385 C88.6901019,31.6624475 88.6792582,31.6470566 88.6680648,31.6320154 C88.6591451,31.6197726 88.6500504,31.6075298 88.6407809,31.5954619 C88.6264393,31.5767479 88.6113981,31.5585586 88.596357,31.5401944 C88.584464,31.525678 88.5729208,31.5108117 88.560678,31.4966451 C88.5535072,31.48825 88.5463364,31.4802047 88.5389907,31.4719846 C88.5197521,31.4502973 88.4996389,31.4293097 88.4797006,31.408322 C88.4672829,31.3953796 88.4557397,31.3817377 88.4429722,31.3689702 C88.4424475,31.3684455 88.4419228,31.3679208 88.4413981,31.3673961 C88.4370257,31.3628488 88.4321286,31.359001 88.4275813,31.3546286 C88.4074681,31.3345154 88.3863056,31.3154516 88.365143,31.296213 C88.3488776,31.2813467 88.3329619,31.2657809 88.3163467,31.2514393 C88.3116245,31.2474167 88.3067274,31.243394 88.30218,31.2395463 C88.2843405,31.2245051 88.2658014,31.2103385 88.2476121,31.1956471 C88.2247006,31.1774578 88.2017891,31.1590936 88.1783529,31.1416039 C88.1734558,31.138106 88.1689084,31.1340833 88.1640113,31.1304105 L45.9270566,0.443661523 C45.9221595,0.439988683 45.9167377,0.436840535 45.9118405,0.433342593 C45.8884043,0.416552469 45.8642685,0.400811728 45.8399578,0.384896091 C45.8201944,0.371778807 45.800606,0.358311728 45.7804928,0.345894033 C45.7754208,0.342745885 45.7701739,0.33942284 45.7651019,0.336274691 C45.7463879,0.324906379 45.7269743,0.314762346 45.7080854,0.303918724 C45.6829002,0.289752058 45.6578899,0.275235597 45.6323549,0.261943416 C45.6267582,0.259145062 45.6216862,0.255822016 45.6160895,0.253023663 C45.6153899,0.252673868 45.6146903,0.252324074 45.6138158,0.25197428 C45.59825,0.244103909 45.5821595,0.237457819 45.5662438,0.229762346 C45.5398344,0.216994856 45.51325,0.204227366 45.4861409,0.192509259 C45.4761718,0.188136831 45.4660278,0.183589506 45.4560586,0.179391975 C45.4390936,0.172221193 45.4219537,0.166099794 45.4048138,0.159453704 C45.3826019,0.150708848 45.360215,0.141963992 45.3378282,0.133918724 C45.3229619,0.128671811 45.3080957,0.123599794 45.2930545,0.118702675 C45.2760895,0.113105967 45.2589496,0.107684156 45.2416348,0.10261214 C45.2234455,0.096840535 45.2050813,0.0912438272 45.1867171,0.0861718107 C45.1666039,0.0805751029 45.1464907,0.0755030864 45.1263776,0.07043107 C45.1097623,0.0662335391 45.093322,0.0620360082 45.0767068,0.0581882716 C45.0621903,0.0548652263 45.0478488,0.0518919753 45.0333323,0.0487438272 C45.0076224,0.0434969136 44.9819126,0.0389495885 44.9560278,0.0345771605 C44.9406368,0.0319537037 44.9252459,0.0286306584 44.9098549,0.0263569959 C44.8990113,0.0246080247 44.8883426,0.0233837449 44.877499,0.0219845679 C44.8495154,0.0181368313 44.821357,0.0153384774 44.7931986,0.0123652263 C44.7760586,0.0107911523 44.7589187,0.00816769547 44.7416039,0.00676851852 C44.7365319,0.00624382716 44.7316348,0.00641872428 44.7267377,0.00606893004 C44.7246389,0.00589403292 44.7225401,0.00589403292 44.7204414,0.0057191358 C44.692108,0.00379526749 44.6639496,0.00292078189 44.6357912,0.00187139918 C44.6144537,0.00134670782 44.5931163,0.000122427984 44.5717788,0.000122427984 C44.5647829,0.000122427984 44.557787,-5.24691358e-05 44.550966,0.000122427984 C44.5268302,0.000122427984 44.5028693,0.00134670782 44.4787335,0.00222119342 C44.4538981,0.00309567901 44.4288879,0.00397016461 44.4038776,0.00554423868 C44.3970566,0.00606893004 44.3900607,0.00589403292 44.3830648,0.00641872428 C44.3823652,0.0065936214 44.3816656,0.0065936214 44.380966,0.0065936214 C44.3610278,0.00816769547 44.3414393,0.0111409465 44.3216759,0.0130648148 C44.2966656,0.0156882716 44.2716553,0.0181368313 44.2466451,0.0216347737 C44.2345772,0.0232088477 44.2225093,0.0246080247 44.2104414,0.026531893 C44.1948755,0.0288055556 44.1793097,0.0323034979 44.1637438,0.0349269547 C44.1392582,0.0391244856 44.1149475,0.0433220165 44.0906368,0.0483940329 C44.0748961,0.0515421811 44.0591553,0.0548652263 44.0435895,0.0585380658 C44.0269743,0.0622109053 44.010534,0.0665833333 43.9940936,0.0707808642 C43.9748549,0.0755030864 43.9557912,0.0802253086 43.9367274,0.0854722222 C43.9171389,0.09106893 43.8977253,0.096840535 43.8784866,0.102961934 C43.8613467,0.108033951 43.8445566,0.113280864 43.8277665,0.118877572 C43.8134249,0.123599794 43.7992582,0.128496914 43.7850916,0.133394033 C43.7616553,0.141789095 43.7385689,0.150883745 43.7153076,0.159978395 C43.6986924,0.166449588 43.6819023,0.172570988 43.665287,0.179391975 C43.6556677,0.183589506 43.6458735,0.187787037 43.6362541,0.191984568 C43.6084455,0.204052469 43.5809866,0.217169753 43.5537027,0.230461934 C43.5384866,0.237807613 43.5227459,0.244278807 43.5075298,0.25197428 C43.5068302,0.252324074 43.5061307,0.252673868 43.5054311,0.253023663 C43.5000093,0.255822016 43.4949372,0.258970165 43.4895154,0.261768519 C43.4636307,0.275235597 43.4380957,0.289926955 43.4123858,0.304618313 C43.3938467,0.31511214 43.374608,0.325081276 43.3564187,0.336274691 C43.3513467,0.339247942 43.3462747,0.342570988 43.3412027,0.345719136 C43.3207397,0.358311728 43.3009763,0.371953704 43.2808632,0.385245885 C43.2569023,0.400986626 43.2329414,0.416727366 43.20968,0.433167695 C43.2047829,0.436840535 43.1993611,0.439988683 43.1942891,0.443661523 L0.957509259,31.1304105 C0.909762346,31.165215 0.864114198,31.2017685 0.819515432,31.2395463 C0.804124486,31.2524887 0.789782922,31.2663056 0.77474177,31.2795977 C0.746408436,31.3051327 0.718424897,31.3306677 0.691315844,31.3572521 C0.674350823,31.3738673 0.658260288,31.3911821 0.641994856,31.408322 C0.618383745,31.4329825 0.595472222,31.4578179 0.573085391,31.4833529 C0.556819959,31.5020669 0.540904321,31.5209558 0.52516358,31.5401944 C0.50452572,31.5655545 0.484237654,31.5914393 0.464649177,31.6176739 C0.449782922,31.6374372 0.435091564,31.6575504 0.42075,31.6778385 C0.401686214,31.7049475 0.383671811,31.7327562 0.365832305,31.7607397 C0.352889918,31.7808529 0.339947531,31.8006163 0.327704733,31.8210792 C0.308990741,31.8523858 0.291850823,31.884392 0.274710905,31.916573 C0.265091564,31.9342377 0.254947531,31.9517274 0.246027778,31.9695669 C0.220842593,32.0197623 0.197406379,32.0704825 0.17606893,32.1222521 C0.172920782,32.1297726 0.170472222,32.1374681 0.167498971,32.1448138 C0.149309671,32.1899372 0.13234465,32.2355854 0.117128601,32.2817582 C0.111007202,32.3002973 0.105935185,32.3191862 0.100338477,32.3377253 C0.089494856,32.3734043 0.0790010288,32.4090833 0.0699063786,32.445287 C0.0644845679,32.4667994 0.0599372428,32.4886615 0.0552150206,32.5105237 C0.0476944444,32.5441039 0.0406985597,32.5778591 0.0347520576,32.611964 C0.0307294239,32.6352253 0.0272314815,32.6586615 0.0237335391,32.6819228 C0.019186214,32.7149784 0.0151635802,32.7478591 0.011840535,32.7810895 C0.00939197531,32.8055751 0.00711831276,32.8298858 0.00554423868,32.8541965 C0.00327057613,32.8869023 0.0020462963,32.9197829 0.00134670782,32.9526636 C0.000647119342,32.977499 -0.000227366255,33.0023344 -5.24691358e-05,33.0271698 C0.000297325103,33.0605751 0.00187139918,33.0939805 0.00362037037,33.1273858 C0.00484465021,33.1516965 0.00536934156,33.1758323 0.007468107,33.200143 C0.0106162551,33.2387953 0.0156882716,33.2774475 0.0207602881,33.3160998 C0.0232088477,33.3348138 0.0246080247,33.3537027 0.0275812757,33.3724167 L0.02793107,33.3746903 C0.036850823,33.4311821 0.0480442387,33.4867994 0.0608117284,33.5417171 C0.0644845679,33.5572829 0.0693816872,33.572499 0.0732294239,33.5880648 C0.0840730453,33.6298652 0.0952664609,33.6716656 0.108208848,33.7125916 C0.110132716,33.7181883 0.111182099,33.723785 0.113105967,33.7295566 L16.2461409,83.3819743 C16.2480648,83.387571 16.2503385,83.3929928 16.2522623,83.3985895 C16.2657294,83.4391656 16.2811204,83.4790422 16.2968611,83.5190936 C16.3028076,83.5341348 16.3080545,83.5497006 16.3143508,83.5645669 C16.336213,83.6166862 16.3598241,83.668106 16.3857088,83.719001 C16.3860586,83.7195257 16.3865833,83.7200504 16.3869331,83.72075 C16.395678,83.7382397 16.4056471,83.75468 16.4150916,83.7716451 C16.4334558,83.80575 16.45182,83.8395051 16.4717582,83.8722109 C16.4845257,83.8931986 16.4981677,83.9131368 16.5114599,83.9335998 C16.5298241,83.9615833 16.5480134,83.989392 16.567427,84.016501 C16.5819434,84.0367891 16.5973344,84.0563776 16.6123755,84.0761409 C16.6323138,84.1022006 16.6526019,84.1279105 16.6735895,84.1530957 C16.6893302,84.1719846 16.7054208,84.1905237 16.7216862,84.208713 C16.7438981,84.2335484 16.7664599,84.2578591 16.7895463,84.2816451 C16.8061615,84.2986101 16.8226019,84.3155751 16.8397418,84.3320154 C16.8645772,84.3561512 16.8899372,84.3792377 16.9156471,84.4021492 C16.9324372,84.4168405 16.9488776,84.4318817 16.9660175,84.4462233 C16.9947006,84.4700093 17.0242582,84.4927459 17.0538158,84.5153076 C17.0693817,84.5270257 17.0844228,84.5392685 17.1003385,84.5506368 C17.140215,84.57932 17.1813158,84.6066039 17.2229414,84.6326636 C17.2292377,84.6366862 17.2351842,84.6410586 17.2416553,84.6449064 C17.2894023,84.6742891 17.3383735,84.7017479 17.3880442,84.7274578 C17.4058837,84.7367274 17.4244228,84.7449475 17.4424372,84.7536924 C17.4753179,84.7694331 17.5081986,84.7853488 17.5417788,84.7996903 C17.563466,84.8091348 17.585678,84.8173549 17.607715,84.8260998 C17.6384969,84.8381677 17.6696286,84.8500607 17.7009352,84.8609043 C17.7245463,84.8689496 17.7481574,84.8764702 17.7719434,84.8838158 C17.80325,84.8932603 17.8347315,84.9023549 17.8663879,84.91075 C17.8903488,84.9170463 17.9141348,84.9229928 17.9384455,84.9285895 C17.9716759,84.9361101 18.0050813,84.9427562 18.0386615,84.9488776 C18.0619228,84.9530751 18.0848344,84.9576224 18.1082706,84.9611204 C18.1456986,84.9667171 18.1836512,84.9710895 18.2216039,84.9747623 C18.2415422,84.9768611 18.2611307,84.9796595 18.2812438,84.9810586 C18.3394846,84.9854311 18.3980751,84.9880545 18.4570154,84.9880545 L70.661357,84.9880545 C70.6624064,84.9880545 70.6632809,84.9882294 70.6641553,84.9882294 C70.6769228,84.9882294 70.6896903,84.9870051 70.7026327,84.9868302 C70.7470566,84.9861307 70.7913056,84.9849064 70.8353796,84.9815833 C70.8402767,84.9812335 70.8453488,84.9810586 70.8502459,84.980534 C70.867036,84.9794846 70.8833014,84.9765113 70.8999167,84.9747623 C70.9364702,84.9710895 70.9730237,84.9672418 71.0092274,84.96182 C71.0155237,84.9609455 71.02182,84.9605957 71.0281163,84.9595463 C71.0293405,84.9593714 71.0305648,84.9590216 71.0317891,84.9588467 C71.0461307,84.9567479 71.0601224,84.9530751 71.0742891,84.9506265 C71.0784866,84.949927 71.0825093,84.9490525 71.0867068,84.948178 C71.1136409,84.9432809 71.1404002,84.9383837 71.1669846,84.9326121 C71.1787027,84.9299887 71.1904208,84.9275401 71.201964,84.9247418 C71.2199784,84.9205442 71.2374681,84.9152973 71.2553076,84.91075 C71.2775195,84.9048035 71.2999064,84.8992068 71.3219434,84.8925607 C71.3376842,84.8880134 71.3530751,84.8832912 71.3686409,84.8782191 C71.3859558,84.8726224 71.4032706,84.8668508 71.4207603,84.8609043 C71.4380751,84.8549578 71.4555648,84.8488364 71.4728796,84.8423652 C71.4924681,84.8350195 71.5117068,84.8273241 71.5309455,84.8196286 C71.5473858,84.8129825 71.5638261,84.8065113 71.5800916,84.7995154 C71.5932088,84.7939187 71.606501,84.7881471 71.6196183,84.7822006 C71.6430545,84.7715319 71.6657912,84.7605134 71.6888776,84.7491451 C71.7037438,84.7417994 71.7189599,84.7349784 71.7336512,84.7272829 C71.7430957,84.7225607 71.7523652,84.7173138 71.7616348,84.7120669 C71.7861204,84.6991245 71.8100813,84.6851327 71.8338673,84.6713158 C71.8490833,84.6623961 71.8648241,84.6543508 71.8798652,84.6450813 C71.8865113,84.6410586 71.8926327,84.6365113 71.8992788,84.6323138 C71.9220154,84.6179722 71.9442274,84.6029311 71.9664393,84.5878899 C71.9846286,84.5756471 72.0031677,84.5637541 72.0210072,84.5508117 C72.0274784,84.5462644 72.0337747,84.5417171 72.0402459,84.53682 C72.0582603,84.5237027 72.0754002,84.5097109 72.0930648,84.495894 C72.1138776,84.4796286 72.1348652,84.4633632 72.1551533,84.4463981 C72.1612747,84.4413261 72.1677459,84.4367788 72.1738673,84.4317068 C72.1873344,84.4199887 72.2001019,84.4073961 72.213394,84.3955031 C72.2336821,84.3773138 72.2537953,84.3594743 72.2733837,84.3405854 C72.2812541,84.3330648 72.2892994,84.3257191 72.2969949,84.3180237 C72.3092377,84.3061307 72.320606,84.2933632 72.332499,84.2811204 C72.3498138,84.2634558 72.3671286,84.2456163 72.3837438,84.2272521 C72.393713,84.2164084 72.4035072,84.2055648 72.4131265,84.1945463 C72.4251944,84.1807294 72.4367377,84.1667377 72.4484558,84.1527459 C72.4612233,84.1373549 72.4739907,84.1221389 72.4862335,84.106573 C72.4979516,84.0918817 72.5091451,84.0768405 72.5205134,84.0617994 C72.5320566,84.0469331 72.5434249,84.0317171 72.5544434,84.0161512 C72.5631883,84.0037335 72.5719331,83.9913158 72.5805031,83.9788981 C72.5937953,83.9594846 72.6063879,83.9398961 72.6189805,83.9203076 C72.6292994,83.9040422 72.640143,83.8883014 72.6501121,83.8718611 C72.655534,83.8627665 72.6607809,83.8534969 72.6663776,83.8442274 C72.6810689,83.819392 72.6947109,83.7936821 72.7085278,83.7681471 C72.7172726,83.7522315 72.7265422,83.7368405 72.7349372,83.7205751 C72.7351121,83.7200504 72.7354619,83.7193508 72.7358117,83.719001 C72.7386101,83.7134043 72.7408837,83.7078076 72.7436821,83.7023858 C72.7566245,83.6761512 72.7686924,83.649392 72.7805854,83.6228076 C72.7895051,83.6032191 72.7989496,83.5841553 72.8071698,83.5647418 C72.8097932,83.5587953 72.8120669,83.5528488 72.8143405,83.5469023 C72.823785,83.5243405 72.8318302,83.5012541 72.8404002,83.4783426 C72.8500195,83.4524578 72.8599887,83.426573 72.8687335,83.4003385 C72.8708323,83.3942171 72.8734558,83.3882706 72.8753796,83.3819743 L89.0085895,33.7295566 C89.0105134,33.7234352 89.0119126,33.7171389 89.0138364,33.7110175 C89.0222315,33.6842582 89.0295772,33.6569743 89.0370977,33.6298652 C89.0435689,33.6066039 89.0503899,33.5833426 89.0561615,33.5600813 C89.0575607,33.5539599 89.0593097,33.5478385 89.0607088,33.5417171 C89.065606,33.5207294 89.0692788,33.499392 89.0736512,33.4782294 C89.0794228,33.4498961 89.0853693,33.4215628 89.0900916,33.3930545 C89.0911409,33.3869331 89.092715,33.3809866 89.0935895,33.3746903 L89.0939393,33.3724167 C89.0967377,33.354927 89.0981368,33.3372623 89.1005854,33.3194228 C89.1044331,33.2905648 89.1082809,33.2615319 89.1110792,33.2326739 Z" id="Fill-1" fill="#FC2C43" mask="url(#mask-2)"></path>
                </g>
            </g>
        </g>
    </g>
</svg>