<?xml version="1.0" encoding="UTF-8"?>
<svg width="102px" height="85px" viewBox="0 0 102 85" version="1.1" xmlns="http://www.w3.org/2000/svg" xmlns:xlink="http://www.w3.org/1999/xlink">
    <!-- Generator: sketchtool 48.2 (47327) - http://www.bohemiancoding.com/sketch -->
    <title>A7229D32-29DF-4710-9D71-66A6225E5212</title>
    <desc>Created with sketchtool.</desc>
    <defs>
        <polygon id="path-1" points="0 0 101.385542 0 101.385542 85 0 85"></polygon>
    </defs>
    <g id="01_Plans" stroke="none" stroke-width="1" fill="none" fill-rule="evenodd" transform="translate(-1282.000000, -290.000000)">
        <g id="Plan_Enterprise" transform="translate(1282.000000, 290.000000)">
            <mask id="mask-2" fill="white">
                <use xlink:href="#path-1"></use>
            </mask>
            <g id="Clip-2"></g>
            <path d="M69.7922801,23.5975612 L80.4633123,6.54748438 L94.0138564,23.5975612 L69.7922801,23.5975612 Z M67.3173465,28.390948 L93.7855748,28.390948 L55.6569059,73.0864601 L67.3173465,28.390948 Z M34.0679131,28.390948 L45.7283537,73.0864601 L7.59996735,28.390948 L34.0679131,28.390948 Z M35.9241133,21.4701433 L25.4870132,4.79338678 L46.3612135,4.79338678 L35.9241133,21.4701433 Z M55.0243287,4.79338678 L75.8979639,4.79338678 L65.4611463,21.4701433 L55.0243287,4.79338678 Z M62.3544831,28.390948 L50.6926298,73.0912535 L39.0307766,28.390948 L62.3544831,28.390948 Z M40.2555297,23.5975612 L50.6926298,6.92052266 L61.1300125,23.5975612 L40.2555297,23.5975612 Z M20.9219473,6.54748438 L31.592697,23.5975612 L7.37168581,23.5975612 L20.9219473,6.54748438 Z M100.958079,27.3572682 C100.977291,27.3296357 100.994808,27.3008754 101.013172,27.2723971 C101.034362,27.2388434 101.055551,27.2050077 101.075045,27.1706081 C101.091997,27.1404379 101.108101,27.1097039 101.12364,27.0786878 C101.141157,27.0442882 101.158391,27.0098886 101.17393,26.9749251 C101.188621,26.9424993 101.202465,26.9097914 101.215461,26.8765197 C101.229305,26.8409922 101.242301,26.8051828 101.254732,26.7693734 C101.266316,26.7358197 101.277334,26.702548 101.287788,26.6684303 C101.299089,26.6289554 101.308695,26.5894804 101.318018,26.5500055 C101.325647,26.5181435 101.334122,26.4871275 101.340338,26.4547017 C101.352204,26.3935155 101.361245,26.3317654 101.368591,26.2700153 C101.370286,26.2553532 101.372263,26.240973 101.373959,26.2263109 C101.380739,26.155256 101.383847,26.0842011 101.384412,26.0128642 C101.384695,26.006661 101.385542,26.0004578 101.385542,25.9942546 C101.385542,25.9759269 101.383282,25.9581632 101.382717,25.9398355 C101.381869,25.8888001 101.379609,25.8377646 101.375089,25.7870111 C101.372546,25.7568409 101.369156,25.7272347 101.3652,25.6976285 C101.359832,25.6539241 101.353052,25.6105017 101.345423,25.5670792 C101.33949,25.5349353 101.33384,25.5030734 101.326494,25.4714934 C101.317453,25.4308906 101.306717,25.3908518 101.295416,25.3505309 C101.286658,25.318951 101.278465,25.287371 101.268294,25.256355 C101.255015,25.2151882 101.239476,25.1748674 101.223654,25.1342646 C101.212918,25.1063502 101.203312,25.0775898 101.191446,25.0496754 C101.163194,24.9845417 101.132398,24.919972 101.098213,24.857094 C101.086064,24.8345369 101.071655,24.8133896 101.058941,24.7913965 C101.034644,24.7496658 101.010629,24.7079351 100.983507,24.6676143 C100.965708,24.6405457 100.945648,24.615169 100.926436,24.5889464 C100.906094,24.5610319 100.887448,24.5322716 100.865411,24.5049211 L82.1110079,0.907359922 C82.1042272,0.898901004 82.096599,0.891851906 82.0895358,0.883392988 C82.0496996,0.834613228 82.0070381,0.787525252 81.9626814,0.741283168 C81.9465773,0.724083368 81.9304733,0.706319641 81.9135217,0.689683769 C81.8674699,0.644569541 81.8185928,0.601992987 81.7688681,0.560262326 C81.7516339,0.545882166 81.7352474,0.53037415 81.7180133,0.516839881 C81.6612254,0.472007616 81.6013298,0.430276955 81.5397389,0.390238077 C81.5281554,0.382625051 81.5174193,0.374166133 81.5058357,0.366835071 L81.5015978,0.364015432 C81.428706,0.318337275 81.3538364,0.277452506 81.2775542,0.240797195 C81.2671007,0.235721844 81.2560822,0.231774349 81.2453462,0.226698999 C81.1772572,0.194837075 81.1086033,0.16579479 81.0388192,0.140981964 C81.0198899,0.13421483 81.0006781,0.129139479 80.9817488,0.122936273 C80.9190279,0.102070942 80.8557419,0.0831793589 80.7921734,0.0679533068 C80.7684411,0.0623140282 80.7447089,0.0578026053 80.7206941,0.0530092186 C80.6602334,0.0403208418 80.6000552,0.0298881764 80.539312,0.0219931864 C80.512472,0.0183276554 80.4859145,0.0155080161 80.4587919,0.0129703407 C80.3994613,0.00733106214 80.3401307,0.00422945893 80.2810826,0.00281963929 C80.263566,0.00253767536 80.2468969,0 80.2293803,0 L21.1558794,0 C21.1397754,0 21.1242364,0.00225571143 21.1084149,0.00281963929 C21.0465416,0.003947495 20.9849507,0.00733106214 20.9230774,0.0132523046 C20.8982151,0.0155080161 20.8736352,0.0183276554 20.8487729,0.0214292586 C20.7854869,0.0296062125 20.722766,0.0406028057 20.6603276,0.0535731464 C20.6385731,0.0583665332 20.6168185,0.0623140282 20.5953465,0.0673893789 C20.5292352,0.0831793589 20.463689,0.10263487 20.3987079,0.124346092 C20.3814738,0.129985371 20.3645222,0.134496794 20.3475706,0.140418036 C20.2758088,0.166076754 20.2048946,0.195682966 20.134828,0.22895471 C20.1260697,0.232902205 20.1167463,0.236003808 20.1082705,0.240515231 C20.0319883,0.277170542 19.9568362,0.318055311 19.8836618,0.364015432 L19.8794239,0.366835071 C19.8678403,0.374166133 19.8573868,0.382625051 19.8458032,0.390238077 C19.7839299,0.430276955 19.7240342,0.472007616 19.6672464,0.516839881 C19.6497297,0.53037415 19.6339082,0.545882166 19.6169566,0.559980362 C19.5666669,0.601711023 19.5177898,0.644569541 19.4717379,0.689683769 C19.4545038,0.706319641 19.4389648,0.724083368 19.4225783,0.741283168 C19.3785041,0.787525252 19.3355601,0.834613228 19.2957238,0.883392988 C19.2889432,0.891851906 19.2810324,0.898901004 19.2742518,0.907359922 L0.520131595,24.5049211 C0.498094515,24.5322716 0.479447755,24.5610319 0.459105834,24.5889464 C0.439894021,24.615169 0.419834628,24.6405457 0.402035448,24.6676143 C0.374912888,24.7079351 0.350898121,24.7496658 0.326600827,24.7913965 C0.313887127,24.8133896 0.299478267,24.8345369 0.287329621,24.857094 C0.253143894,24.919972 0.222348487,24.9845417 0.19409582,25.0496754 C0.1822297,25.0775898 0.172623794,25.1063502 0.16188778,25.1342646 C0.146066287,25.1748674 0.13052732,25.2151882 0.117248567,25.256355 C0.107077607,25.287371 0.0988843336,25.318951 0.0901260069,25.3505309 C0.0788249402,25.3908518 0.0680889268,25.4308906 0.0590480735,25.4714934 C0.0517023801,25.5030734 0.0460518468,25.5349353 0.0401187868,25.5670792 C0.0324905667,25.6105017 0.0257099267,25.6539241 0.0203419201,25.6976285 C0.0163865467,25.7272347 0.0129962267,25.7568409 0.0104534867,25.7870111 C0.00593306001,25.8377646 0.00367284668,25.8888001 0.00254274001,25.9398355 C0.00226021334,25.9581632 0,25.9759269 0,25.9942546 C0,26.0004578 0.000847580002,26.006661 0.00113010667,26.0128642 C0.00169516,26.0842011 0.00480295335,26.155256 0.0115835934,26.2263109 C0.0132787534,26.240973 0.01525644,26.2553532 0.0169516,26.2700153 C0.0242972934,26.3317654 0.0333381468,26.3935155 0.0452042668,26.4547017 C0.0514198535,26.4871275 0.0598956535,26.5181435 0.0675238735,26.5500055 C0.0768472535,26.5894804 0.0864531602,26.6289554 0.0977542269,26.6684303 C0.108207714,26.702548 0.119226254,26.7358197 0.130809847,26.7693734 C0.14324102,26.8051828 0.15595472,26.8409922 0.170081054,26.8765197 C0.18307728,26.9097914 0.196921087,26.9424993 0.211612474,26.9749251 C0.227151441,27.0098886 0.244385567,27.0442882 0.261619694,27.0786878 C0.277441187,27.1097039 0.293545207,27.1404379 0.310496807,27.1706081 C0.329991147,27.2050077 0.351180648,27.2388434 0.372370148,27.2723971 C0.390734381,27.3008754 0.408251034,27.3296357 0.427462848,27.3572682 C0.450630034,27.3911039 0.476057435,27.4235297 0.501484835,27.4562375 C0.521261701,27.4818963 0.540756041,27.5084009 0.561663015,27.5332137 C0.565618388,27.5380071 0.568726181,27.5433644 0.572964081,27.5478758 L48.8643998,84.1563639 C48.8675075,84.1603114 48.8714629,84.163413 48.8748532,84.1676425 C48.8875669,84.1823046 48.9005632,84.1964028 48.9135594,84.210783 C48.94605,84.2465924 48.9796706,84.280992 49.0144214,84.3145457 C49.0237448,84.3241325 49.0325031,84.3342832 49.0423916,84.343306 C49.0435217,84.3444339 49.0440867,84.3455617 49.0452168,84.3464076 C49.0534101,84.3540206 49.0618859,84.3610697 49.0700792,84.3686828 C49.1068076,84.4022365 49.1452313,84.4338164 49.1839374,84.4651144 C49.2037143,84.4809044 49.222361,84.4978222 49.2429855,84.5133303 C49.2449632,84.515022 49.2477884,84.5164319 49.2503312,84.5184056 C49.2568293,84.523481 49.264175,84.5277104 49.2709556,84.5327858 C49.3147473,84.5646477 49.3588214,84.5956637 49.4043082,84.624706 C49.4187171,84.6337289 49.4331259,84.6427517 49.4478173,84.6517745 C49.4630738,84.6607974 49.4791778,84.6686924 49.4947168,84.6779972 C49.5280549,84.6968888 49.5616756,84.7157804 49.5958613,84.7335441 C49.618746,84.7451046 49.6413481,84.7566651 49.6647978,84.7673798 C49.6783591,84.7738649 49.6919204,84.7803501 49.7057642,84.7865533 C49.7396674,84.8017794 49.7741356,84.8158776 49.8091689,84.8296938 C49.8323361,84.8387166 49.8555033,84.8480214 49.878953,84.8564804 C49.8939269,84.8621196 49.9089008,84.8683228 49.9244398,84.8736802 C49.926135,84.8739621 49.9272651,84.8742441 49.9286777,84.874808 C49.9775548,84.8911619 50.026997,84.9052601 50.0767217,84.9185124 C50.0803945,84.9196403 50.0837849,84.9210501 50.0877402,84.922178 C50.0883053,84.9224599 50.0888703,84.9224599 50.0897179,84.9224599 C50.1106249,84.9278172 50.1320969,84.9323287 50.1532864,84.937122 C50.1708031,84.9410695 50.1880372,84.9447351 50.2058364,84.9481186 C50.2586689,84.9593972 50.3126315,84.968702 50.366594,84.9760331 C50.3818505,84.9780068 50.3973895,84.9805445 50.4126459,84.9822363 C50.4242295,84.9833641 50.4355306,84.9847739 50.4471141,84.9859018 C50.5279168,84.9943607 50.6092845,85 50.6912172,85 L50.6926298,85 L50.694325,85 C50.7762577,85 50.8573429,84.9943607 50.938428,84.9859018 C50.9500116,84.9847739 50.9613127,84.9833641 50.9728963,84.9822363 C50.9881527,84.9805445 51.0036917,84.9780068 51.0189481,84.9760331 C51.0729107,84.968702 51.1265908,84.9593972 51.1797058,84.9481186 C51.197505,84.9444531 51.2147391,84.9410695 51.2322558,84.937122 C51.2534453,84.9323287 51.2749173,84.9278172 51.2958243,84.9224599 C51.2966718,84.9224599 51.2972369,84.9224599 51.2978019,84.922178 C51.3017573,84.9210501 51.3048651,84.9196403 51.3088205,84.9185124 C51.3585452,84.9052601 51.4079873,84.8911619 51.4568645,84.874808 C51.4579946,84.8742441 51.4594072,84.8739621 51.4611024,84.8736802 C51.4766413,84.8683228 51.4916152,84.8621196 51.5065891,84.8564804 C51.5300389,84.8480214 51.553206,84.8387166 51.5763732,84.8296938 C51.611124,84.8158776 51.6458748,84.8017794 51.679778,84.7865533 C51.6933393,84.7803501 51.7071831,84.7738649 51.7207444,84.7673798 C51.7441941,84.7566651 51.7667962,84.7451046 51.7896809,84.7335441 C51.8238666,84.7157804 51.8574873,84.6968888 51.8908254,84.6779972 C51.9063644,84.6686924 51.9224684,84.6607974 51.9377248,84.6517745 C51.9521337,84.6427517 51.9668251,84.6337289 51.981234,84.624706 C52.0267207,84.5956637 52.0707949,84.5646477 52.1145865,84.5327858 C52.1210847,84.5277104 52.1284303,84.5237629 52.1346459,84.5189695 C52.1371887,84.5167138 52.1402965,84.515022 52.1428392,84.5133303 C52.1631811,84.4978222 52.1821104,84.4809044 52.2016048,84.4651144 C52.2403109,84.4338164 52.2787345,84.4022365 52.315463,84.3686828 C52.3236563,84.3610697 52.3321321,84.3540206 52.3403253,84.3464076 C52.3411729,84.3455617 52.3420205,84.3444339 52.3431506,84.343306 C52.3527565,84.3342832 52.3617974,84.3241325 52.3711208,84.3145457 C52.4058715,84.280992 52.4394922,84.2465924 52.4719828,84.210783 C52.484979,84.1964028 52.4979752,84.1823046 52.5106889,84.1676425 C52.5140792,84.163413 52.5177521,84.1603114 52.5211424,84.1563639 L100.812578,27.5478758 C100.816816,27.5433644 100.819924,27.5380071 100.823879,27.5332137 C100.844786,27.5084009 100.86428,27.4818963 100.884057,27.4562375 C100.909485,27.4235297 100.934912,27.3911039 100.958079,27.3572682 Z" id="Fill-1" fill="#00C1E7" mask="url(#mask-2)"></path>
        </g>
    </g>
</svg>