<?xml version="1.0" encoding="UTF-8"?>
<svg width="210px" height="166px" viewBox="0 0 210 166" version="1.1" xmlns="http://www.w3.org/2000/svg" xmlns:xlink="http://www.w3.org/1999/xlink">
    <!-- Generator: Sketch 48.2 (47327) - http://www.bohemiancoding.com/sketch -->
    <title>resetpass</title>
    <desc>Created with Sketch.</desc>
    <defs>
        <polygon id="path-1" points="10.249 2.9975 10.249 0.6825 0.1096 0.6825 0.1096 2.9975 10.249 2.9975"></polygon>
        <polygon id="path-3" points="48.928 0.459 0.351 0.459 0.351 88.5738 48.928 88.5738 48.928 0.459"></polygon>
        <polygon id="path-5" points="78.1876 79 0 79 0 0.8122 78.1876 0.8122"></polygon>
        <polygon id="path-7" points="5.42101086e-20 0.3922 5.42101086e-20 78.5802 78.1876 78.5802 78.1876 0.3922 0 0.3922"></polygon>
        <polygon id="path-9" points="39.42 78.5804 39.42 0.3924 0.2044 0.3924 0.2044 78.5804 39.42 78.5804"></polygon>
    </defs>
    <g id="email-notif-reset" stroke="none" stroke-width="1" fill="none" fill-rule="evenodd" transform="translate(-791.000000, -637.000000)">
        <g id="resetpass" transform="translate(791.000000, 637.000000)">
            <g id="Group-3" transform="translate(0.500000, 0.000000)">
                <circle id="Oval" fill-opacity="0.231063179" fill="#D8D8D8" cx="105" cy="83" r="71.5"></circle>
                <circle id="Oval" fill-opacity="0.231063179" fill="#D8D8D8" cx="105" cy="83" r="83"></circle>
                <g id="Page-1" transform="translate(0.000000, 27.000000)">
                    <g id="Group-51" transform="translate(0.000000, 0.477700)">
                        <path d="M173.8918,3.1788 C172.6428,3.1788 171.6268,4.1948 171.6268,5.4438 C171.6268,6.6928 172.6428,7.7088 173.8918,7.7088 C175.1408,7.7088 176.1568,6.6928 176.1568,5.4438 C176.1568,4.1948 175.1408,3.1788 173.8918,3.1788 M173.8918,9.4558 C171.6788,9.4558 169.8798,7.6558 169.8798,5.4438 C169.8798,3.2308 171.6788,1.4318 173.8918,1.4318 C176.1048,1.4318 177.9038,3.2308 177.9038,5.4438 C177.9038,7.6558 176.1048,9.4558 173.8918,9.4558" id="Fill-1" fill="#00BFF1"></path>
                        <path d="M204.1794,28.9094 C203.5404,28.9094 203.0214,28.3914 203.0214,27.7514 L203.0214,19.9274 C203.0214,19.2884 203.5404,18.7704 204.1794,18.7704 C204.8184,18.7704 205.3374,19.2884 205.3374,19.9274 L205.3374,27.7514 C205.3374,28.3914 204.8184,28.9094 204.1794,28.9094" id="Fill-3" fill="#00BFF1"></path>
                        <g id="Group-7" transform="translate(199.000000, 22.000000)">
                            <mask id="mask-2" fill="white">
                                <use xlink:href="#path-1"></use>
                            </mask>
                            <g id="Clip-6"></g>
                            <path d="M9.0916,2.9975 L1.2676,2.9975 C0.6286,2.9975 0.1096,2.4795 0.1096,1.8395 C0.1096,1.2005 0.6286,0.6825 1.2676,0.6825 L9.0916,0.6825 C9.7306,0.6825 10.2496,1.2005 10.2496,1.8395 C10.2496,2.4795 9.7306,2.9975 9.0916,2.9975" id="Fill-5" fill="#00BFF1" mask="url(#mask-2)"></path>
                        </g>
                        <path d="M177.917,94.4301 C177.097,94.4301 176.433,93.7661 176.433,92.9461 L176.433,82.9121 C176.433,82.0931 177.097,81.4281 177.917,81.4281 C178.737,81.4281 179.401,82.0931 179.401,82.9121 L179.401,92.9461 C179.401,93.7661 178.737,94.4301 177.917,94.4301" id="Fill-8" fill="#00BFF1"></path>
                        <path d="M182.9338,89.4138 L172.9008,89.4138 C172.0808,89.4138 171.4158,88.7498 171.4158,87.9298 C171.4158,87.1098 172.0808,86.4448 172.9008,86.4448 L182.9338,86.4448 C183.7538,86.4448 184.4178,87.1098 184.4178,87.9298 C184.4178,88.7498 183.7538,89.4138 182.9338,89.4138" id="Fill-10" fill="#00BFF1"></path>
                        <path d="M164.9762,59.7216 C164.4032,59.7216 163.9392,59.2576 163.9392,58.6846 L163.9392,51.6766 C163.9392,51.1046 164.4032,50.6406 164.9762,50.6406 C165.5492,50.6406 166.0132,51.1046 166.0132,51.6766 L166.0132,58.6846 C166.0132,59.2576 165.5492,59.7216 164.9762,59.7216" id="Fill-12" fill="#00BFF1"></path>
                        <path d="M168.4799,56.2178 L161.4719,56.2178 C160.8999,56.2178 160.4359,55.7538 160.4359,55.1808 C160.4359,54.6088 160.8999,54.1438 161.4719,54.1438 L168.4799,54.1438 C169.0529,54.1438 169.5169,54.6088 169.5169,55.1808 C169.5169,55.7538 169.0529,56.2178 168.4799,56.2178" id="Fill-14" fill="#00BFF1"></path>
                        <path d="M179.9109,26.8742 C178.1499,26.8742 176.7179,28.3062 176.7179,30.0662 C176.7179,31.8272 178.1499,33.2592 179.9109,33.2592 C181.6719,33.2592 183.1039,31.8272 183.1039,30.0662 C183.1039,28.3062 181.6719,26.8742 179.9109,26.8742 M179.9109,35.7222 C176.7919,35.7222 174.2549,33.1852 174.2549,30.0662 C174.2549,26.9482 176.7919,24.4112 179.9109,24.4112 C183.0299,24.4112 185.5669,26.9482 185.5669,30.0662 C185.5669,33.1852 183.0299,35.7222 179.9109,35.7222" id="Fill-16" fill="#F59D00"></path>
                        <path d="M197.2099,55.1808 C195.4009,55.1808 193.9289,56.6528 193.9289,58.4618 C193.9289,60.2708 195.4009,61.7418 197.2099,61.7418 C199.0189,61.7418 200.4909,60.2708 200.4909,58.4618 C200.4909,56.6528 199.0189,55.1808 197.2099,55.1808 M197.2099,64.2738 C194.0049,64.2738 191.3979,61.6668 191.3979,58.4618 C191.3979,55.2568 194.0049,52.6498 197.2099,52.6498 C200.4149,52.6498 203.0219,55.2568 203.0219,58.4618 C203.0219,61.6668 200.4149,64.2738 197.2099,64.2738" id="Fill-18" fill="#F59D00"></path>
                        <path d="M59.071,10.6613 C58.432,10.6613 57.913,10.1433 57.913,9.5033 L57.913,1.6793 C57.913,1.0403 58.432,0.5223 59.071,0.5223 C59.71,0.5223 60.229,1.0403 60.229,1.6793 L60.229,9.5033 C60.229,10.1433 59.71,10.6613 59.071,10.6613" id="Fill-20" fill="#F59D00"></path>
                        <path d="M62.9832,6.7495 L55.1592,6.7495 C54.5202,6.7495 54.0012,6.2315 54.0012,5.5915 C54.0012,4.9525 54.5202,4.4345 55.1592,4.4345 L62.9832,4.4345 C63.6222,4.4345 64.1412,4.9525 64.1412,5.5915 C64.1412,6.2315 63.6222,6.7495 62.9832,6.7495" id="Fill-22" fill="#F59D00"></path>
                        <path d="M6.438,17.04 C5.626,17.04 4.968,16.382 4.968,15.57 L4.968,5.634 C4.968,4.822 5.626,4.164 6.438,4.164 C7.25,4.164 7.908,4.822 7.908,5.634 L7.908,15.57 C7.908,16.382 7.25,17.04 6.438,17.04" id="Fill-24" fill="#00BFF1"></path>
                        <g id="Group-28" transform="translate(0.000000, 9.000000)" fill="#00BFF1">
                            <path d="M11.4059,3.0721 L1.4699,3.0721 C0.6579,3.0721 -0.0001,2.4141 -0.0001,1.6021 C-0.0001,0.7901 0.6579,0.1321 1.4699,0.1321 L11.4059,0.1321 C12.2179,0.1321 12.8759,0.7901 12.8759,1.6021 C12.8759,2.4141 12.2179,3.0721 11.4059,3.0721" id="Fill-26"></path>
                        </g>
                        <path d="M30.3371,61.2425 C29.7641,61.2425 29.3001,60.7785 29.3001,60.2055 L29.3001,53.1975 C29.3001,52.6255 29.7641,52.1615 30.3371,52.1615 C30.9101,52.1615 31.3741,52.6255 31.3741,53.1975 L31.3741,60.2055 C31.3741,60.7785 30.9101,61.2425 30.3371,61.2425" id="Fill-29" fill="#F59D00"></path>
                        <path d="M33.8408,57.7388 L26.8328,57.7388 C26.2608,57.7388 25.7968,57.2748 25.7968,56.7018 C25.7968,56.1298 26.2608,55.6648 26.8328,55.6648 L33.8408,55.6648 C34.4138,55.6648 34.8778,56.1298 34.8778,56.7018 C34.8778,57.2748 34.4138,57.7388 33.8408,57.7388" id="Fill-31" fill="#F59D00"></path>
                        <path d="M32.7837,20.0251 C31.4127,20.0251 30.2977,21.1401 30.2977,22.5111 C30.2977,23.8821 31.4127,24.9971 32.7837,24.9971 C34.1547,24.9971 35.2697,23.8821 35.2697,22.5111 C35.2697,21.1401 34.1547,20.0251 32.7837,20.0251 M32.7837,26.9151 C30.3547,26.9151 28.3797,24.9391 28.3797,22.5111 C28.3797,20.0821 30.3547,18.1071 32.7837,18.1071 C35.2127,18.1071 37.1877,20.0821 37.1877,22.5111 C37.1877,24.9391 35.2127,26.9151 32.7837,26.9151" id="Fill-33" fill="#00BFF1"></path>
                        <path d="M4.3479,46.8118 C3.0689,46.8118 2.0289,47.8518 2.0289,49.1308 C2.0289,50.4098 3.0689,51.4498 4.3479,51.4498 C5.6269,51.4498 6.6669,50.4098 6.6669,49.1308 C6.6669,47.8518 5.6269,46.8118 4.3479,46.8118 M4.3479,53.2388 C2.0819,53.2388 0.2399,51.3958 0.2399,49.1308 C0.2399,46.8658 2.0819,45.0228 4.3479,45.0228 C6.6139,45.0228 8.4559,46.8658 8.4559,49.1308 C8.4559,51.3958 6.6139,53.2388 4.3479,53.2388" id="Fill-35" fill="#F59D00"></path>
                        <path d="M25.3647,81.3378 C23.5467,81.3378 22.0687,82.8158 22.0687,84.6338 C22.0687,86.4508 23.5467,87.9288 25.3647,87.9288 C27.1827,87.9288 28.6607,86.4508 28.6607,84.6338 C28.6607,82.8158 27.1827,81.3378 25.3647,81.3378 M25.3647,90.4718 C22.1447,90.4718 19.5257,87.8528 19.5257,84.6338 C19.5257,81.4138 22.1447,78.7948 25.3647,78.7948 C28.5847,78.7948 31.2037,81.4138 31.2037,84.6338 C31.2037,87.8528 28.5847,90.4718 25.3647,90.4718" id="Fill-37" fill="#00BFF1"></path>
                    </g>
                </g>
            </g>
            <g id="Page-1" transform="translate(66.000000, 8.000000)">
                <g id="Group-3" transform="translate(14.000000, 0.541000)">
                    <mask id="mask-4" fill="white">
                        <use xlink:href="#path-3"></use>
                    </mask>
                    <g id="Clip-2"></g>
                    <path d="M41.02,21.7928 C41.02,14.3778 35.008,8.3658 27.593,8.3658 L21.686,8.3658 C14.271,8.3658 8.259,14.3778 8.259,21.7928 L8.259,68.3688 C8.259,75.7848 14.271,81.7958 21.686,81.7958 L27.593,81.7958 C35.008,81.7958 41.02,75.7848 41.02,68.3688 L41.02,21.7928 Z M48.928,67.4728 C48.928,79.1268 39.48,88.5738 27.826,88.5738 L21.453,88.5738 C9.799,88.5738 0.351,79.1268 0.351,67.4728 L0.351,21.5598 C0.351,9.9058 9.799,0.4588 21.453,0.4588 L27.826,0.4588 C39.48,0.4588 48.928,9.9058 48.928,21.5598 L48.928,67.4728 Z" id="Fill-1" fill="#AB7E24" mask="url(#mask-4)"></path>
                </g>
                <path d="M55.02,43.4034 L55.02,67.8464 C55.02,75.2494 49.693,81.2074 42.289,81.2074 L35.886,81.2074 C28.482,81.2074 22.608,75.2494 22.608,67.8464 L22.111,43.8524 C18.722,44.9764 16.695,46.3244 14.436,47.9364 L14.7,67.8464 C14.7,79.4814 24.25,89.1144 35.886,89.1144 L42.289,89.1144 C53.925,89.1144 62.928,79.4814 62.928,67.8464 L62.928,47.3954 C60.668,45.8444 58.409,44.4704 55.02,43.4034" id="Fill-4" fill="#916B1F"></path>
                <g id="Group-8" transform="translate(0.000000, 45.541000)">
                    <mask id="mask-6" fill="white">
                        <use xlink:href="#path-5"></use>
                    </mask>
                    <g id="Clip-7"></g>
                    <path d="M78.1876,39.9062 C78.1876,61.4972 60.6846,79.0002 39.0936,79.0002 C17.5026,79.0002 -0.0004,61.4972 -0.0004,39.9062 C-0.0004,18.3152 17.5026,0.8122 39.0936,0.8122 C60.6846,0.8122 78.1876,18.3152 78.1876,39.9062" id="Fill-6" fill="#B88B31" mask="url(#mask-6)"></path>
                </g>
                <g id="Group-11" transform="translate(0.000000, 42.541000)">
                    <mask id="mask-8" fill="white">
                        <use xlink:href="#path-7"></use>
                    </mask>
                    <g id="Clip-10"></g>
                    <path d="M78.1876,39.4862 C78.1876,61.0772 60.6846,78.5802 39.0936,78.5802 C17.5026,78.5802 -0.0004,61.0772 -0.0004,39.4862 C-0.0004,17.8952 17.5026,0.3922 39.0936,0.3922 C60.6846,0.3922 78.1876,17.8952 78.1876,39.4862" id="Fill-9" fill="#F6BB42" mask="url(#mask-8)"></path>
                </g>
                <path d="M39.2684,46.3535 C60.2854,46.3535 77.4234,62.9405 78.3194,83.7375 C78.3434,83.1695 78.3624,82.6005 78.3624,82.0275 C78.3624,60.4365 60.8594,42.9335 39.2684,42.9335 C17.6774,42.9335 0.1744,60.4365 0.1744,82.0275 C0.1744,82.6005 0.1934,83.1695 0.2184,83.7375 C1.1134,62.9405 18.2514,46.3535 39.2684,46.3535" id="Fill-12" fill="#F6C96C"></path>
                <path d="M50.5256,78.6072 C50.5256,84.9212 45.4076,90.0392 39.0936,90.0392 C32.7806,90.0392 27.6616,84.9212 27.6616,78.6072 C27.6616,72.2932 32.7806,67.1752 39.0936,67.1752 C45.4076,67.1752 50.5256,72.2932 50.5256,78.6072" id="Fill-14" fill="#EDB440"></path>
                <path d="M45.966,78.6166 C45.966,74.3126 42.009,70.9326 37.534,71.9156 C34.922,72.4906 32.842,74.6466 32.348,77.2746 C31.772,80.3386 33.214,83.0576 35.563,84.4696 L34.16,95.8496 C34.009,97.0726 34.963,98.1526 36.196,98.1526 L41.992,98.1526 C43.224,98.1526 44.179,97.0726 44.028,95.8496 L42.625,84.4696 C44.624,83.2686 45.966,81.1186 45.966,78.6166" id="Fill-16" fill="#8C631B"></path>
                <g id="Group-20" opacity="0.241021455" transform="translate(39.000000, 42.541000)">
                    <mask id="mask-10" fill="white">
                        <use xlink:href="#path-9"></use>
                    </mask>
                    <g id="Clip-19"></g>
                    <path d="M0.3264,0.3924 C0.2074,0.3924 0.2044,0.4004 0.2044,0.4014 L0.2044,78.5714 C0.2044,78.5724 0.2074,78.5804 0.3264,78.5804 C21.9174,78.5804 39.4204,61.0774 39.4204,39.4864 C39.4204,17.8954 21.9174,0.3924 0.3264,0.3924" id="Fill-18" fill="#FFFFFF" mask="url(#mask-10)"></path>
                </g>
            </g>
        </g>
    </g>
</svg>