<?xml version="1.0" encoding="UTF-8"?>
<svg width="304px" height="190px" viewBox="0 0 304 190" version="1.1" xmlns="http://www.w3.org/2000/svg" xmlns:xlink="http://www.w3.org/1999/xlink">
    <!-- Generator: Sketch 48.2 (47327) - http://www.bohemiancoding.com/sketch -->
    <title>Page 1</title>
    <desc>Created with Sketch.</desc>
    <defs>
        <polygon id="path-1" points="0 0.514544179 297.867673 0.514544179 297.867673 141.806439 0 141.806439"></polygon>
        <path d="M0.0226415094,60.2535 C0.0226415094,93.135 26.8460377,119.79 59.9343396,119.79 C93.0218868,119.79 119.845283,93.135 119.845283,60.2535 C119.845283,27.372 93.0218868,0.717 59.9343396,0.717 C26.8460377,0.717 0.0226415094,27.372 0.0226415094,60.2535 Z" id="path-3"></path>
        <linearGradient x1="100%" y1="0%" x2="0%" y2="100%" id="linearGradient-5">
            <stop stop-color="#20E2D7" offset="0%"></stop>
            <stop stop-color="#F9FEA5" offset="100%"></stop>
        </linearGradient>
        <path d="M0.0226415094,60.2535 C0.0226415094,93.135 26.8460377,119.79 59.9343396,119.79 C93.0218868,119.79 119.845283,93.135 119.845283,60.2535 C119.845283,27.372 93.0218868,0.717 59.9343396,0.717 C26.8460377,0.717 0.0226415094,27.372 0.0226415094,60.2535 Z" id="path-6"></path>
    </defs>
    <g id="05_campaign_success_modal" stroke="none" stroke-width="1" fill="none" fill-rule="evenodd" transform="translate(-679.000000, -238.000000)">
        <g id="Page-1" transform="translate(679.000000, 238.000000)">
            <g id="Group-3" transform="translate(0.000000, 48.000000)">
                <mask id="mask-2" fill="white">
                    <use xlink:href="#path-1"></use>
                </mask>
                <g id="Clip-2"></g>
                <path d="M286.91787,80.2608868 L247.112615,80.2608868 C242.172605,79.3772644 238.467597,75.7162167 238.467597,71.3301259 L238.467597,69.0917177 C238.467597,64.171184 243.129222,60.1601944 248.967005,59.9627326 C248.817627,59.9573958 248.667496,59.9528214 248.51661,59.9528214 L256.294787,59.9528214 C262.342301,59.9528214 267.245344,55.8617797 267.245344,50.8146876 L267.245344,48.5762793 C267.245344,43.5291872 262.342301,39.4381455 256.294787,39.4381455 L164.030969,39.4381455 L164.030969,39.3138742 C158.55984,38.805353 154.306362,34.934645 154.306362,30.2336828 L154.306362,27.9952746 C154.306362,23.2943123 158.55984,19.4243668 164.030969,18.9158456 L164.030969,18.7915743 L262.783643,18.7915743 C268.831156,18.7915743 273.734199,14.7005325 273.734199,9.65344043 C273.734199,4.60634831 268.831156,0.514544179 262.783643,0.514544179 L65.2775413,0.514544179 C59.2300273,0.514544179 54.3277387,4.60634831 54.3277387,9.65344043 C54.3277387,14.7005325 59.2300273,18.7915743 65.2775413,18.7915743 L88.5969843,18.7915743 L88.5969843,18.8571407 L93.2608729,18.8571407 C99.3083868,18.8571407 104.210675,22.9489449 104.210675,27.9952746 L104.210675,30.2336828 C104.210675,35.2807749 99.3083868,39.372579 93.2608729,39.372579 L88.5969843,39.372579 L88.5969843,39.4381455 L52.3171818,39.4381455 C46.2696678,39.4381455 41.3666248,43.5291872 41.3666248,48.5762793 L41.3666248,50.8146876 C41.3666248,55.8617797 46.2696678,59.9528214 52.3171818,59.9528214 L87.5641691,59.9528214 C93.611683,59.9528214 98.5139716,64.0446255 98.5139716,69.0917177 L98.5139716,71.3301259 C98.5139716,75.7124047 94.8172628,79.3719276 89.884797,80.2608868 L25.9558754,80.2608868 C19.9083615,80.2608868 15.0060729,84.3519285 15.0060729,89.3990206 L15.0060729,91.6374288 C15.0060729,96.6845209 19.9083615,100.776325 25.9558754,100.776325 L64.2002147,100.776325 C70.2477286,100.776325 75.1500172,104.867367 75.1500172,109.914459 L75.1500172,112.152867 C75.1500172,117.199959 70.2477286,121.291001 64.2002147,121.291001 L10.9502552,121.291001 C4.90274127,121.291001 -0.000301772152,125.382805 -0.000301772152,130.429897 L-0.000301772152,132.668305 C-0.000301772152,137.714635 4.90274127,141.806439 10.9502552,141.806439 L271.91225,141.806439 C277.959764,141.806439 282.862053,137.714635 282.862053,132.668305 L282.862053,130.429897 C282.862053,125.382805 277.959764,121.291001 271.91225,121.291001 L216.162108,121.291001 C210.114594,121.291001 205.212306,117.199959 205.212306,112.152867 L205.212306,109.914459 C205.212306,104.867367 210.114594,100.776325 216.162108,100.776325 L286.91787,100.776325 C292.965384,100.776325 297.867673,96.6845209 297.867673,91.6374288 L297.867673,89.3990206 C297.867673,84.3519285 292.965384,80.2608868 286.91787,80.2608868" id="Fill-1" fill="#F1FAFF" mask="url(#mask-2)"></path>
            </g>
            <g id="Group-165" transform="translate(99.000000, 59.000000)">
                <g id="Group-6">
                    <mask id="mask-4" fill="white">
                        <use xlink:href="#path-3"></use>
                    </mask>
                    <g id="Clip-5"></g>
                    <path d="M0.0228679245,119.789775 L119.844755,119.789775 L0.0228679245,119.789775 Z" id="Fill-4" fill="#9CFFF5" mask="url(#mask-4)"></path>
                </g>
                <mask id="mask-7" fill="white">
                    <use xlink:href="#path-6"></use>
                </mask>
                <use id="Clip-8" fill="url(#linearGradient-5)" xlink:href="#path-6"></use>
            </g>
            <g id="Group-215" transform="translate(14.000000, 0.000000)">
                <path d="M174.83358,94.9403801 C172.43559,92.9158937 168.853371,93.2198319 166.830943,95.619504 L133.694467,134.935925 L120.865564,123.021697 C118.566008,120.885034 114.973188,121.020707 112.840211,123.322604 C110.707235,125.623742 110.841256,129.220977 113.140812,131.356124 L130.334102,147.323114 C130.368932,147.354948 130.405277,147.381476 130.440107,147.412552 C130.472666,147.441355 130.501439,147.473189 130.534755,147.501233 C130.573371,147.533825 130.614258,147.561111 130.653632,147.592187 C130.719507,147.645243 130.785381,147.696784 130.85277,147.746051 C130.927731,147.800623 131.003449,147.852164 131.079167,147.902189 C131.150342,147.949182 131.220003,147.994659 131.291935,148.037862 C131.370681,148.084855 131.450943,148.128058 131.531961,148.171261 C131.603136,148.209159 131.674311,148.247814 131.747,148.28268 C131.831804,148.323609 131.918123,148.359991 132.005198,148.396373 C132.075616,148.425933 132.145277,148.456251 132.216452,148.482779 C132.309585,148.517645 132.403475,148.547205 132.497366,148.576007 C132.564755,148.597229 132.631386,148.619968 132.699533,148.638917 C132.801752,148.666961 132.904728,148.688942 133.008462,148.710164 C133.069794,148.723807 133.130368,148.738966 133.1917,148.750336 C133.30982,148.771558 133.427183,148.785959 133.54606,148.798844 C133.59452,148.804908 133.642979,148.813245 133.691439,148.817793 C133.858775,148.832952 134.026112,148.840532 134.194206,148.840532 L134.194963,148.840532 L134.195721,148.840532 C134.39183,148.840532 134.588697,148.82992 134.78405,148.809456 C134.839324,148.803392 134.893841,148.792023 134.949115,148.784443 C135.089193,148.765495 135.229272,148.746546 135.368593,148.716986 C135.435225,148.703343 135.500342,148.682878 135.566217,148.666203 C135.691909,148.635127 135.816843,148.604051 135.940264,148.564638 C136.012196,148.541141 136.082614,148.512339 136.154546,148.485811 C136.26888,148.444123 136.382457,148.402436 136.49452,148.352411 C136.570238,148.319062 136.643684,148.280406 136.717888,148.243266 C136.821621,148.191726 136.925355,148.140185 137.02606,148.082581 C137.10405,148.037862 137.17901,147.987837 137.254728,147.939328 C137.347862,147.87945 137.440238,147.819572 137.530342,147.754388 C137.607574,147.697542 137.682535,147.636906 137.757496,147.57627 C137.841543,147.508054 137.924833,147.439839 138.005094,147.366317 C138.07854,147.300376 138.148958,147.229886 138.219376,147.159397 C138.265564,147.112404 138.314781,147.070717 138.360211,147.022208 C138.393527,146.986584 138.420786,146.947929 138.453345,146.911547 C138.479846,146.880471 138.51089,146.853943 138.537392,146.822109 L175.512013,102.951162 C177.534441,100.55149 177.230812,96.9648666 174.83358,94.9403801" id="Fill-166" fill="#FFFFFF"></path>
                <g id="Group-172" opacity="0.300000012" transform="translate(241.540470, 18.948769)" fill="#1EBAFA">
                    <path d="M12.5944047,8.46479395 L2.22785117,8.46479395 C1.3911671,8.46479395 0.713490862,7.78567008 0.713490862,6.94889246 C0.713490862,6.11211483 1.3911671,5.43299096 2.22785117,5.43299096 L12.5944047,5.43299096 C13.4303316,5.43299096 14.108765,6.11211483 14.108765,6.94889246 C14.108765,7.78567008 13.4303316,8.46479395 12.5944047,8.46479395" id="Fill-168"></path>
                    <path d="M7.40287467,13.6453115 C6.56694778,13.6453115 5.88851436,12.9661877 5.88851436,12.12941 L5.88851436,1.75230633 C5.88851436,0.914770758 6.56694778,0.236404838 7.40287467,0.236404838 C8.23880157,0.236404838 8.91723499,0.914770758 8.91723499,1.75230633 L8.91723499,12.12941 C8.91723499,12.9661877 8.23880157,13.6453115 7.40287467,13.6453115" id="Fill-170"></path>
                </g>
                <path d="M230.645708,148.210447 C228.975368,148.210447 227.616987,149.570211 227.616987,151.24225 C227.616987,152.91429 228.975368,154.274053 230.645708,154.274053 C232.316047,154.274053 233.674428,152.91429 233.674428,151.24225 C233.674428,149.570211 232.316047,148.210447 230.645708,148.210447 M230.645708,157.305856 C227.305786,157.305856 224.588266,154.585571 224.588266,151.24225 C224.588266,147.898929 227.305786,145.178644 230.645708,145.178644 C233.985629,145.178644 236.703149,147.898929 236.703149,151.24225 C236.703149,154.585571 233.985629,157.305856 230.645708,157.305856" id="Fill-173" fill="#1EBAFA" opacity="0.300000012"></path>
                <path d="M187.625078,35.2757858 C185.954739,35.2757858 184.596358,36.6355494 184.596358,38.3075888 C184.596358,39.9796281 185.954739,41.3393918 187.625078,41.3393918 C189.295418,41.3393918 190.653799,39.9796281 190.653799,38.3075888 C190.653799,36.6355494 189.295418,35.2757858 187.625078,35.2757858 M187.625078,44.3711947 C184.285157,44.3711947 181.567637,41.6509095 181.567637,38.3075888 C181.567637,34.964268 184.285157,32.2439828 187.625078,32.2439828 C190.965,32.2439828 193.68252,34.964268 193.68252,38.3075888 C193.68252,41.6509095 190.965,44.3711947 187.625078,44.3711947" id="Fill-175" fill="#1EBAFA" opacity="0.300000012"></path>
                <g id="Group-181" opacity="0.300000012" transform="translate(230.939948, 73.521223)" fill="#1EBAFA">
                    <path d="M12.0905013,8.40628016 L1.72394778,8.40628016 C0.888020888,8.40628016 0.209587467,7.72715629 0.209587467,6.89037866 C0.209587467,6.05360103 0.888020888,5.37447716 1.72394778,5.37447716 L12.0905013,5.37447716 C12.9264282,5.37447716 13.6048616,6.05360103 13.6048616,6.89037866 C13.6048616,7.72715629 12.9264282,8.40628016 12.0905013,8.40628016" id="Fill-177"></path>
                    <path d="M6.89897128,13.5868735 C6.06304439,13.5868735 5.38461097,12.9077496 5.38461097,12.070972 L5.38461097,1.69386833 C5.38461097,0.857090706 6.06304439,0.177966836 6.89897128,0.177966836 C7.73489817,0.177966836 8.41333159,0.857090706 8.41333159,1.69386833 L8.41333159,12.070972 C8.41333159,12.9077496 7.73489817,13.5868735 6.89897128,13.5868735" id="Fill-179"></path>
                </g>
                <g id="Group-186" opacity="0.300000012" transform="translate(133.263708, 0.000000)" fill="#1EBAFA">
                    <path d="M12.0905013,8.86332446 L1.72394778,8.86332446 C0.888020888,8.86332446 0.209587467,8.18420059 0.209587467,7.34742296 C0.209587467,6.51064534 0.888020888,5.83152147 1.72394778,5.83152147 L12.0905013,5.83152147 C12.9264282,5.83152147 13.6048616,6.51064534 13.6048616,7.34742296 C13.6048616,8.18420059 12.9264282,8.86332446 12.0905013,8.86332446" id="Fill-182"></path>
                    <path d="M6.89889556,14.0439178 C6.06296867,14.0439178 5.38453525,13.364794 5.38453525,12.5280163 L5.38453525,2.15091263 C5.38453525,1.31337706 6.06296867,0.635011137 6.89889556,0.635011137 C7.73482245,0.635011137 8.41325587,1.31337706 8.41325587,2.15091263 L8.41325587,12.5280163 C8.41325587,13.364794 7.73482245,14.0439178 6.89889556,14.0439178" id="Fill-184"></path>
                </g>
                <path d="M283.809825,102.271886 C282.139486,102.271886 280.781104,103.63165 280.781104,105.303689 C280.781104,106.975728 282.139486,108.335492 283.809825,108.335492 C285.480164,108.335492 286.838546,106.975728 286.838546,105.303689 C286.838546,103.63165 285.480164,102.271886 283.809825,102.271886 M283.809825,111.367295 C280.469903,111.367295 277.752384,108.64701 277.752384,105.303689 C277.752384,101.960368 280.469903,99.2400831 283.809825,99.2400831 C287.149747,99.2400831 289.867266,101.960368 289.867266,105.303689 C289.867266,108.64701 287.149747,111.367295 283.809825,111.367295" id="Fill-187" fill="#1EBAFA" opacity="0.300000012"></path>
                <path d="M104.575136,39.8234903 C102.904796,39.8234903 101.546415,41.1832539 101.546415,42.8552932 C101.546415,44.5273326 102.904796,45.8870962 104.575136,45.8870962 C106.245475,45.8870962 107.603856,44.5273326 107.603856,42.8552932 C107.603856,41.1832539 106.245475,39.8234903 104.575136,39.8234903 M104.575136,48.9188992 C101.235214,48.9188992 98.5176945,46.198614 98.5176945,42.8552932 C98.5176945,39.5119725 101.235214,36.7916873 104.575136,36.7916873 C107.915057,36.7916873 110.632577,39.5119725 110.632577,42.8552932 C110.632577,46.198614 107.915057,48.9188992 104.575136,48.9188992" id="Fill-189" fill="#1EBAFA" opacity="0.300000012"></path>
                <path d="M11.5551749,65.5938157 C9.88483551,65.5938157 8.52645431,66.9535793 8.52645431,68.6256187 C8.52645431,70.297658 9.88483551,71.6574217 11.5551749,71.6574217 C13.2255144,71.6574217 14.5838956,70.297658 14.5838956,68.6256187 C14.5838956,66.9535793 13.2255144,65.5938157 11.5551749,65.5938157 M11.5551749,74.6892247 C8.21525326,74.6892247 5.49773368,71.9689394 5.49773368,68.6256187 C5.49773368,65.2822979 8.21525326,62.5620127 11.5551749,62.5620127 C14.8950966,62.5620127 17.6126162,65.2822979 17.6126162,68.6256187 C17.6126162,71.9689394 14.8950966,74.6892247 11.5551749,74.6892247" id="Fill-191" fill="#1EBAFA" opacity="0.300000012"></path>
                <path d="M62.817483,148.210447 C61.1471436,148.210447 59.7887624,149.570211 59.7887624,151.24225 C59.7887624,152.91429 61.1471436,154.274053 62.817483,154.274053 C64.4878225,154.274053 65.8462037,152.91429 65.8462037,151.24225 C65.8462037,149.570211 64.4878225,148.210447 62.817483,148.210447 M62.817483,157.305856 C59.4775614,157.305856 56.7600418,154.585571 56.7600418,151.24225 C56.7600418,147.898929 59.4775614,145.178644 62.817483,145.178644 C66.1574047,145.178644 68.8749243,147.898929 68.8749243,151.24225 C68.8749243,154.585571 66.1574047,157.305856 62.817483,157.305856" id="Fill-193" fill="#1EBAFA" opacity="0.300000012"></path>
                <g id="Group-199" opacity="0.300000012" transform="translate(40.887728, 21.980572)" fill="#1EBAFA">
                    <path d="M12.0905013,8.86817534 L1.72394778,8.86817534 C0.888020888,8.86817534 0.209587467,8.18905147 0.209587467,7.35227385 C0.209587467,6.51549622 0.888020888,5.83637235 1.72394778,5.83637235 L12.0905013,5.83637235 C12.9264282,5.83637235 13.6048616,6.51549622 13.6048616,7.35227385 C13.6048616,8.18905147 12.9264282,8.86817534 12.0905013,8.86817534" id="Fill-195"></path>
                    <path d="M6.89889556,14.0483897 C6.06296867,14.0483897 5.38453525,13.3692659 5.38453525,12.5324882 L5.38453525,2.15538454 C5.38453525,1.31860692 6.06296867,0.639483046 6.89889556,0.639483046 C7.73482245,0.639483046 8.41325587,1.31860692 8.41325587,2.15538454 L8.41325587,12.5324882 C8.41325587,13.3692659 7.73482245,14.0483897 6.89889556,14.0483897" id="Fill-197"></path>
                </g>
                <g id="Group-204" opacity="0.300000012" transform="translate(21.958225, 97.017696)" fill="#1EBAFA">
                    <path d="M12.3123551,8.71863166 L1.94580157,8.71863166 C1.10987467,8.71863166 0.431441253,8.03950779 0.431441253,7.20273016 C0.431441253,6.36595254 1.10987467,5.68682867 1.94580157,5.68682867 L12.3123551,5.68682867 C13.148282,5.68682867 13.8267154,6.36595254 13.8267154,7.20273016 C13.8267154,8.03950779 13.148282,8.71863166 12.3123551,8.71863166" id="Fill-200"></path>
                    <path d="M7.12074935,13.898846 C6.28482245,13.898846 5.60638903,13.2197222 5.60638903,12.3829446 L5.60638903,2.00584086 C5.60638903,1.16906323 6.28482245,0.489939364 7.12074935,0.489939364 C7.95667624,0.489939364 8.63510966,1.16906323 8.63510966,2.00584086 L8.63510966,12.3829446 C8.63510966,13.2197222 7.95667624,13.898846 7.12074935,13.898846" id="Fill-202"></path>
                </g>
                <g id="Group-209" opacity="0.300000012" transform="translate(0.000000, 153.864002)" fill="#1EBAFA">
                    <path d="M12.203624,8.23089035 L1.8370705,8.23089035 C1.0011436,8.23089035 0.322710183,7.55176648 0.322710183,6.71498886 C0.322710183,5.87821123 1.0011436,5.19908736 1.8370705,5.19908736 L12.203624,5.19908736 C13.0395509,5.19908736 13.7179843,5.87821123 13.7179843,6.71498886 C13.7179843,7.55176648 13.0395509,8.23089035 12.203624,8.23089035" id="Fill-205"></path>
                    <path d="M7.01209399,13.4110289 C6.1761671,13.4110289 5.49773368,12.7319051 5.49773368,11.8951275 L5.49773368,1.51802376 C5.49773368,0.681246132 6.1761671,0.00212226209 7.01209399,0.00212226209 C7.84802089,0.00212226209 8.52645431,0.681246132 8.52645431,1.51802376 L8.52645431,11.8951275 C8.52645431,12.7319051 7.84802089,13.4110289 7.01209399,13.4110289" id="Fill-207"></path>
                </g>
                <g id="Group-214" opacity="0.300000012" transform="translate(274.099217, 158.411706)" fill="#1EBAFA">
                    <path d="M12.2520836,8.86332446 L1.88553003,8.86332446 C1.04960313,8.86332446 0.371169713,8.18420059 0.371169713,7.34742296 C0.371169713,6.51064534 1.04960313,5.83152147 1.88553003,5.83152147 L12.2520836,5.83152147 C13.0880104,5.83152147 13.7664439,6.51064534 13.7664439,7.34742296 C13.7664439,8.18420059 13.0880104,8.86332446 12.2520836,8.86332446" id="Fill-210"></path>
                    <path d="M7.06047781,14.0439178 C6.22455091,14.0439178 5.54611749,13.364794 5.54611749,12.5280163 L5.54611749,2.15091263 C5.54611749,1.31337706 6.22455091,0.635011137 7.06047781,0.635011137 C7.8964047,0.635011137 8.57483812,1.31337706 8.57483812,2.15091263 L8.57483812,12.5280163 C8.57483812,13.364794 7.8964047,14.0439178 7.06047781,14.0439178" id="Fill-212"></path>
                </g>
            </g>
        </g>
    </g>
</svg>