<?xml version="1.0" encoding="UTF-8"?>
<svg width="12px" height="16px" viewBox="0 0 12 16" version="1.1" xmlns="http://www.w3.org/2000/svg" xmlns:xlink="http://www.w3.org/1999/xlink">
    <!-- Generator: Sketch 48.2 (47327) - http://www.bohemiancoding.com/sketch -->
    <title>voice_w</title>
    <desc>Created with Sketch.</desc>
    <defs>
        <rect id="path-1" x="0" y="0" width="18" height="18"></rect>
        <path d="M13.2719072,8.61125158 L14.625,8.61125158 C14.625,9.49621176 14.40593,10.3305903 13.9677835,11.1144121 C13.5425236,11.8603071 12.9594109,12.4829305 12.2184278,12.9823009 C11.4774447,13.4816713 10.6688188,13.7882422 9.79252577,13.9020228 L9.79252577,16.5 L8.20747423,16.5 L8.20747423,13.9020228 C7.33118119,13.7882422 6.52255525,13.4816713 5.78157216,12.9823009 C5.04058908,12.4829305 4.45747635,11.8603071 4.03221649,11.1144121 C3.59406997,10.3305903 3.375,9.49621176 3.375,8.61125158 L4.72809278,8.61125158 C4.72809278,9.38243116 4.93427629,10.0777466 5.34664948,10.6972187 C5.73324936,11.2914063 6.25192974,11.7591639 6.90270619,12.1005057 C7.55348264,12.4418475 8.25257358,12.6125158 9,12.6125158 C9.74742642,12.6125158 10.4465174,12.4418475 11.0972938,12.1005057 C11.7480703,11.7591639 12.2667506,11.2914063 12.6533505,10.6972187 C13.0657237,10.0777466 13.2719072,9.38243116 13.2719072,8.61125158 Z M9,10.9816688 C8.57474014,10.9816688 8.1752596,10.8742109 7.80154639,10.659292 C7.42783318,10.4443731 7.13144439,10.1536049 6.91237113,9.78697851 C6.69329787,9.42035215 6.58376289,9.02844709 6.58376289,8.61125158 L6.58376289,3.87041719 C6.58376289,3.45322168 6.69329787,3.06131662 6.91237113,2.69469027 C7.13144439,2.32806391 7.42783318,2.03729564 7.80154639,1.82237674 C8.1752596,1.60745784 8.57474014,1.5 9,1.5 C9.42525986,1.5 9.8247404,1.60745784 10.1984536,1.82237674 C10.5721668,2.03729564 10.8685556,2.32806391 11.0876289,2.69469027 C11.3067021,3.06131662 11.4162371,3.45322168 11.4162371,3.87041719 L11.4162371,8.61125158 C11.4162371,9.02844709 11.3067021,9.42035215 11.0876289,9.78697851 C10.8685556,10.1536049 10.5721668,10.4443731 10.1984536,10.659292 C9.8247404,10.8742109 9.42525986,10.9816688 9,10.9816688 Z" id="path-3"></path>
    </defs>
    <g id="03-Campaigns" stroke="none" stroke-width="1" fill="none" fill-rule="evenodd">
        <g id="billing-campaign-copy" transform="translate(-40.000000, -216.000000)">
            <g id="Group-4" transform="translate(37.000000, 146.000000)">
                <g id="Icon-/-Mic" transform="translate(0.000000, 69.000000)">
                    <mask id="mask-2" fill="white">
                        <use xlink:href="#path-1"></use>
                    </mask>
                    <g id="Container" fill-rule="nonzero"></g>
                    <mask id="mask-4" fill="white">
                        <use xlink:href="#path-3"></use>
                    </mask>
                    <g id="Mic"></g>
                    <g id="Style-/-Color-/-White" mask="url(#mask-4)" fill="#FFFFFF" fill-rule="evenodd">
                        <rect id="Container" x="0" y="0" width="18" height="18"></rect>
                    </g>
                </g>
            </g>
        </g>
    </g>
</svg>